<svg width="75" height="37" viewBox="0 0 75 37" fill="none" xmlns="http://www.w3.org/2000/svg">
<path d="M35.0957 10.0545V10.1452C35.0046 9.8629 35.0046 9.55908 35.0957 9.27679C35.1468 9.07837 35.237 8.89213 35.3608 8.72893C35.4847 8.56573 35.6399 8.42885 35.8173 8.32629C35.9947 8.22372 36.1907 8.15753 36.3939 8.13157C36.5972 8.10561 36.8036 8.12041 37.001 8.17509L42.9631 9.76931C43.363 9.87855 43.7034 10.1417 43.9098 10.5011C44.1162 10.8606 44.172 11.2871 44.0648 11.6876C44.0027 11.9184 43.8873 12.1315 43.7278 12.3097C43.6486 12.3951 43.5619 12.4732 43.4686 12.543C42.5873 13.1781 39.5803 15.226 39.5803 15.226C39.3955 15.3595 39.1836 15.4508 38.9596 15.4933C38.7356 15.5359 38.505 15.5287 38.2842 15.4722C38.0491 15.4081 37.832 15.2905 37.6499 15.1286C37.4678 14.9667 37.3256 14.7649 37.2343 14.539L35.1864 10.3266C35.0371 9.99692 35.0096 9.62492 35.1087 9.27679C35.1598 9.07837 35.2499 8.89213 35.3738 8.72893C35.4977 8.56573 35.6529 8.42885 35.8302 8.32629C36.0076 8.22372 36.2036 8.15753 36.4069 8.13157C36.6101 8.10561 36.8165 8.12041 37.014 8.17509L42.9761 9.76931C43.376 9.87855 43.7163 10.1417 43.9228 10.5011C44.1292 10.8606 44.1849 11.2871 44.0778 11.6876C43.9854 12.0337 43.7744 12.3365 43.4816 12.543" fill="#F7B916"/>
<path d="M74.2937 26.1391L66.0504 15.0703C64.5799 12.9258 62.3921 11.3769 59.8809 10.7024C59.0726 10.4858 58.2418 10.364 57.4053 10.3395C56.5568 8.9678 55.2172 7.97124 53.6595 7.55281L29.0334 0.955589C28.228 0.734465 27.3865 0.676739 26.5584 0.78581C25.7304 0.894882 24.9325 1.16855 24.2118 1.59069C23.3182 1.0535 22.3542 0.643448 21.3474 0.372339C18.8353 -0.299959 16.166 -0.0564575 13.817 1.05928L1.07619 6.51592C0.90598 6.58911 0.751856 6.69511 0.622612 6.82786C0.493369 6.96061 0.391537 7.11753 0.322934 7.28963C0.254332 7.46174 0.2203 7.64568 0.222783 7.83094C0.225265 8.0162 0.264214 8.19916 0.337404 8.36936C0.410593 8.53957 0.516592 8.6937 0.649346 8.82294C0.7821 8.95218 0.939009 9.05401 1.11112 9.12262C1.28323 9.19122 1.46716 9.22525 1.65242 9.22277C1.83768 9.22029 2.02064 9.18134 2.19085 9.10815L14.8668 3.62558C16.6267 2.77952 18.6312 2.59102 20.5179 3.09418C21.0161 3.23483 21.5017 3.41692 21.9695 3.63855C21.632 4.18508 21.3785 4.77931 21.2178 5.40126L16.6296 22.3674C16.2015 23.9948 16.434 25.7255 17.2765 27.1822C18.1189 28.6389 19.503 29.7035 21.1271 30.1441L45.7532 36.7543C47.3807 37.1824 49.1113 36.9498 50.568 36.1074C52.0247 35.2649 53.0894 33.8808 53.5299 32.2568L58.1052 15.3295C58.3114 14.632 58.3947 13.904 58.3515 13.1779C59.4403 13.3678 60.4807 13.7713 61.4128 14.3653C62.3449 14.9592 63.1502 15.7319 63.7822 16.6386L72.0255 27.7204C72.2071 27.9738 72.474 28.1532 72.7772 28.2258C73.0466 28.2952 73.3306 28.282 73.5923 28.1879C73.8541 28.0938 74.0815 27.9231 74.245 27.6981C74.4085 27.4731 74.5006 27.2041 74.5093 26.9261C74.518 26.6481 74.4428 26.3739 74.2937 26.1391ZM52.9208 10.2358C53.3965 10.3706 53.8382 10.6047 54.2169 10.9227L39.8818 17.2607L39.7393 17.3255C39.1097 17.6399 38.3858 17.7092 37.7081 17.52C37.0303 17.3308 36.447 16.8966 36.0713 16.3016V16.2238L26.6615 3.57374C27.1938 3.44455 27.7493 3.44455 28.2816 3.57374L52.9208 10.2358ZM50.9247 31.5439C50.6787 32.4598 50.0791 33.2406 49.2576 33.7146C48.436 34.1885 47.46 34.3168 46.5439 34.0713L21.8918 27.4352C21.4324 27.3204 21.0004 27.1155 20.6208 26.8325C20.2412 26.5495 19.9215 26.1939 19.6804 25.7864C19.4393 25.3788 19.2814 24.9275 19.216 24.4585C19.1507 23.9896 19.1791 23.5123 19.2996 23.0543L23.836 6.11412C23.9737 5.76209 24.1662 5.43402 24.4062 5.14204L33.8549 17.8569C34.6157 19.0081 35.7738 19.8386 37.1082 20.1899C38.4536 20.5575 39.8882 20.4048 41.1261 19.7622L55.6167 13.3853C55.6532 13.8201 55.6181 14.258 55.513 14.6814L50.9247 31.5439Z" fill="#1062AA"/>
<path d="M13.8095 7.56592L5.38481 11.208C5.04106 11.3541 4.76942 11.6308 4.62966 11.9771C4.48989 12.3235 4.49345 12.7112 4.63954 13.055C4.78564 13.3987 5.0623 13.6704 5.40867 13.8101C5.75505 13.9499 6.14275 13.9463 6.4865 13.8002L14.9242 10.1581C15.0944 10.085 15.2485 9.97896 15.3778 9.84621C15.507 9.71345 15.6089 9.55654 15.6775 9.38443C15.7461 9.21233 15.7801 9.02839 15.7776 8.84313C15.7751 8.65787 15.7362 8.47491 15.663 8.3047C15.5898 8.1345 15.4838 7.98037 15.3511 7.85113C15.2183 7.72188 15.0614 7.62005 14.8893 7.55145C14.7172 7.48285 14.5332 7.44882 14.348 7.4513C14.1627 7.45378 13.9798 7.49273 13.8095 7.56592Z" fill="#1062AA"/>
<path d="M11.6643 14.876L9.49984 15.7703C9.24256 15.8874 9.02721 16.0804 8.88263 16.3233C8.73805 16.5662 8.67115 16.8474 8.69089 17.1294C8.71062 17.4114 8.81606 17.6806 8.99307 17.901C9.17008 18.1214 9.41021 18.2825 9.68129 18.3626C9.98665 18.4445 10.3107 18.4217 10.6015 18.2978L12.7401 17.4423C12.9103 17.3691 13.0645 17.2631 13.1937 17.1304C13.3229 16.9976 13.4248 16.8407 13.4934 16.6686C13.562 16.4965 13.596 16.3126 13.5935 16.1273C13.591 15.942 13.5521 15.7591 13.4789 15.5889C13.4057 15.4187 13.2997 15.2646 13.167 15.1353C13.0342 15.0061 12.8773 14.9042 12.7052 14.8356C12.5331 14.767 12.3492 14.733 12.1639 14.7355C11.9786 14.738 11.7957 14.7769 11.6255 14.8501L11.6643 14.876Z" fill="#1062AA"/>
<path d="M62.6935 20.7993L68.1112 28.226C68.3272 28.5242 68.417 28.8954 68.3612 29.2593C68.3054 29.6232 68.1085 29.9504 67.8131 30.1702C67.6434 30.2935 67.4477 30.3763 67.241 30.4122C67.0343 30.4482 66.8221 30.4363 66.6207 30.3775C66.3155 30.3017 66.0483 30.1174 65.8689 29.8591L60.4382 22.4453C60.2513 22.1453 60.1849 21.7857 60.2522 21.4387C60.3195 21.0916 60.5156 20.783 60.8011 20.5746C61.0866 20.3662 61.4404 20.2735 61.7914 20.3152C62.1424 20.3569 62.4647 20.5298 62.6935 20.7993Z" fill="#1062AA"/>
<path d="M60.8558 28.3424L62.2556 30.2477C62.4715 30.5459 62.5613 30.9171 62.5055 31.281C62.4497 31.6449 62.2528 31.9721 61.9575 32.1919C61.7852 32.3151 61.5878 32.3987 61.3794 32.4368C61.171 32.4749 60.9568 32.4665 60.7521 32.4122C60.4558 32.3248 60.1963 32.1427 60.0133 31.8938L58.6005 30.0274C58.4933 29.8793 58.4163 29.7115 58.3739 29.5337C58.3315 29.3559 58.3245 29.1714 58.3534 28.9909C58.3823 28.8103 58.4465 28.6373 58.5422 28.4815C58.638 28.3258 58.7635 28.1904 58.9116 28.0832C59.0597 27.976 59.2274 27.899 59.4053 27.8566C59.5831 27.8142 59.7676 27.8072 59.9481 27.8361C60.1287 27.865 60.3017 27.9291 60.4575 28.0249C60.6132 28.1207 60.7486 28.2462 60.8558 28.3943V28.3424Z" fill="#1062AA"/>
</svg>
