<svg width="55" height="28" viewBox="0 0 55 28" fill="none" xmlns="http://www.w3.org/2000/svg">
<path d="M25.7339 7.40323V7.47004C25.6668 7.26218 25.6668 7.03847 25.7339 6.83062C25.7716 6.68452 25.8379 6.54738 25.9292 6.42721C26.0204 6.30705 26.1346 6.20626 26.2652 6.13074C26.3958 6.05522 26.5402 6.00648 26.6898 5.98736C26.8395 5.96825 26.9915 5.97914 27.1369 6.01941L31.5269 7.19327C31.8213 7.27371 32.0719 7.46744 32.224 7.73211C32.376 7.99679 32.417 8.31088 32.3381 8.60572C32.2923 8.77572 32.2074 8.93262 32.09 9.06382C32.0317 9.12672 31.9678 9.18421 31.8991 9.2356C31.2501 9.70324 29.036 11.2111 29.036 11.2111C28.9 11.3095 28.7439 11.3767 28.579 11.408C28.4141 11.4393 28.2443 11.434 28.0817 11.3925C27.9086 11.3452 27.7488 11.2586 27.6147 11.1394C27.4806 11.0202 27.3758 10.8717 27.3086 10.7053L25.8007 7.60365C25.6908 7.36086 25.6705 7.08695 25.7435 6.83062C25.7811 6.68452 25.8475 6.54738 25.9387 6.42721C26.0299 6.30705 26.1442 6.20626 26.2748 6.13074C26.4054 6.05522 26.5497 6.00648 26.6994 5.98736C26.849 5.96825 27.001 5.97914 27.1464 6.01941L31.5365 7.19327C31.8309 7.27371 32.0815 7.46744 32.2335 7.73211C32.3855 7.99679 32.4266 8.31088 32.3477 8.60572C32.2796 8.86063 32.1243 9.08355 31.9087 9.2356" fill="#F7B916"/>
<path d="M54.595 19.2468L48.5252 11.0966C47.4425 9.5176 45.8315 8.37707 43.9825 7.88041C43.3873 7.72091 42.7756 7.63124 42.1597 7.61319C41.5349 6.60321 40.5485 5.86942 39.4016 5.56132L21.2687 0.703623C20.6757 0.540804 20.0561 0.498299 19.4463 0.578611C18.8366 0.658923 18.2491 0.860428 17.7185 1.17126C17.0605 0.77572 16.3507 0.473786 15.6094 0.274162C13.7596 -0.220867 11.7941 -0.041571 10.0645 0.779972L0.683164 4.79783C0.557835 4.85172 0.44435 4.92977 0.349185 5.02752C0.25402 5.12527 0.179038 5.24081 0.128525 5.36753C0.078011 5.49426 0.0529529 5.6297 0.0547808 5.76611C0.0566086 5.90252 0.0852877 6.03724 0.139179 6.16256C0.19307 6.28789 0.271119 6.40138 0.368869 6.49654C0.46662 6.59171 0.582155 6.66669 0.708883 6.7172C0.83561 6.76772 0.971045 6.79277 1.10746 6.79095C1.24387 6.78912 1.37859 6.76044 1.50391 6.70655L10.8376 2.66961C12.1334 2.04662 13.6093 1.90783 14.9986 2.27832C15.3654 2.38188 15.723 2.51596 16.0674 2.67915C15.8189 3.08157 15.6323 3.51912 15.5139 3.97708L12.1355 16.4697C11.8203 17.668 11.9915 18.9423 12.6118 20.0149C13.2321 21.0875 14.2513 21.8714 15.4471 22.1958L33.58 27.0631C34.7783 27.3783 36.0526 27.207 37.1252 26.5867C38.1978 25.9664 38.9817 24.9473 39.3061 23.7514L42.675 11.2875C42.8268 10.7739 42.8882 10.2378 42.8563 9.70324C43.6581 9.84303 44.4242 10.1402 45.1105 10.5775C45.7968 11.0148 46.3897 11.5837 46.8551 12.2514L52.9248 20.4112C53.0586 20.5978 53.2551 20.7299 53.4784 20.7834C53.6767 20.8344 53.8858 20.8247 54.0786 20.7554C54.2713 20.6861 54.4387 20.5605 54.5591 20.3948C54.6795 20.2291 54.7473 20.031 54.7537 19.8263C54.7601 19.6216 54.7048 19.4197 54.595 19.2468ZM38.8576 7.53684C39.2079 7.63613 39.5331 7.80852 39.8119 8.04265L29.2567 12.7095L29.1517 12.7572C28.6882 12.9887 28.1552 13.0397 27.6561 12.9004C27.1571 12.7611 26.7275 12.4413 26.4509 12.0032V11.946L19.5222 2.63143C19.9142 2.5363 20.3232 2.5363 20.7152 2.63143L38.8576 7.53684ZM37.3879 23.2265C37.2067 23.901 36.7652 24.4759 36.1603 24.8248C35.5554 25.1738 34.8367 25.2683 34.1621 25.0875L16.0102 20.2012C15.6719 20.1167 15.3538 19.9658 15.0743 19.7574C14.7948 19.549 14.5594 19.2872 14.3819 18.9871C14.2043 18.6871 14.0881 18.3547 14.04 18.0094C13.9918 17.6641 14.0127 17.3126 14.1015 16.9755L17.4417 4.50198C17.5431 4.24277 17.6849 4.0012 17.8616 3.78621L24.8189 13.1485C25.3791 13.9961 26.2319 14.6077 27.2144 14.8663C28.2051 15.137 29.2614 15.0246 30.1729 14.5514L40.8426 9.85594C40.8695 10.1761 40.8437 10.4985 40.7663 10.8103L37.3879 23.2265Z" fill="white"/>
<path d="M10.0574 5.57088L3.85403 8.25263C3.60092 8.3602 3.4009 8.56392 3.29799 8.81896C3.19508 9.07401 3.1977 9.35948 3.30527 9.61259C3.41284 9.86571 3.61656 10.0657 3.8716 10.1686C4.12664 10.2715 4.41212 10.2689 4.66523 10.1614L10.8781 7.4796C11.0034 7.42571 11.1169 7.34766 11.2121 7.24991C11.3073 7.15216 11.3822 7.03662 11.4328 6.9099C11.4833 6.78317 11.5083 6.64773 11.5065 6.51132C11.5047 6.37491 11.476 6.24019 11.4221 6.11487C11.3682 5.98954 11.2902 5.87605 11.1924 5.78089C11.0947 5.68572 10.9791 5.61074 10.8524 5.56023C10.7257 5.50971 10.5902 5.48465 10.4538 5.48648C10.3174 5.48831 10.1827 5.51699 10.0574 5.57088Z" fill="white"/>
<path d="M8.48099 10.9535L6.88721 11.612C6.69777 11.6982 6.5392 11.8403 6.43274 12.0191C6.32628 12.198 6.27702 12.4051 6.29156 12.6127C6.30609 12.8204 6.38373 13.0186 6.51406 13.1809C6.6444 13.3432 6.82121 13.4617 7.02082 13.5207C7.24566 13.5811 7.48425 13.5643 7.69841 13.473L9.27311 12.8431C9.39844 12.7892 9.51192 12.7112 9.60709 12.6134C9.70225 12.5157 9.77723 12.4001 9.82775 12.2734C9.87826 12.1467 9.90332 12.0113 9.90149 11.8748C9.89966 11.7384 9.87098 11.6037 9.81709 11.4784C9.7632 11.3531 9.68515 11.2396 9.5874 11.1444C9.48965 11.0492 9.37411 10.9743 9.24739 10.9238C9.12066 10.8732 8.98523 10.8482 8.84881 10.85C8.7124 10.8518 8.57768 10.8805 8.45236 10.9344L8.48099 10.9535Z" fill="white"/>
<path d="M46.0547 15.3149L50.0439 20.7834C50.203 21.0029 50.2691 21.2763 50.228 21.5442C50.1869 21.8122 50.0419 22.0531 49.8244 22.2149C49.6995 22.3057 49.5554 22.3667 49.4032 22.3932C49.251 22.4197 49.0947 22.4109 48.9464 22.3676C48.7217 22.3118 48.525 22.1761 48.3929 21.9859L44.3941 16.527C44.2565 16.306 44.2076 16.0412 44.2571 15.7857C44.3067 15.5302 44.4511 15.3029 44.6613 15.1495C44.8716 14.996 45.1321 14.9278 45.3905 14.9585C45.649 14.9892 45.8863 15.1165 46.0547 15.3149Z" fill="white"/>
<path d="M44.6992 20.8693L45.7299 22.2722C45.8889 22.4917 45.955 22.765 45.9139 23.033C45.8728 23.3009 45.7279 23.5419 45.5104 23.7037C45.3835 23.7944 45.2382 23.856 45.0847 23.884C44.9313 23.9121 44.7736 23.9059 44.6228 23.8659C44.4046 23.8016 44.2136 23.6675 44.0788 23.4842L43.0386 22.1099C42.9596 22.0009 42.9029 21.8774 42.8717 21.7464C42.8405 21.6155 42.8354 21.4796 42.8566 21.3467C42.8779 21.2138 42.9251 21.0863 42.9957 20.9717C43.0662 20.857 43.1586 20.7573 43.2676 20.6784C43.3767 20.5994 43.5002 20.5427 43.6311 20.5115C43.7621 20.4803 43.8979 20.4752 44.0308 20.4964C44.1638 20.5177 44.2912 20.5649 44.4059 20.6355C44.5206 20.706 44.6202 20.7984 44.6992 20.9074V20.8693Z" fill="white"/>
</svg>
