<svg width="21" height="28" viewBox="0 0 21 28" fill="none" xmlns="http://www.w3.org/2000/svg">
<path d="M6.9 0.636068L7.1 0.736068C6.4 0.336068 5.6 0.036068 4.8 0.036068C4 0.036068 3.1 0.236068 2.4 0.636068C1.7 1.03607 1.1 1.63607 0.6 2.33607C0.2 3.03607 0 3.93607 0 4.73607V23.2361C0 24.0361 0.2 24.8361 0.6 25.5361C1 26.2361 1.5 26.8361 2.2 27.2361C2.9 27.6361 3.6 27.9361 4.4 27.9361C5.2 27.9361 6 27.8361 6.7 27.4361C7 27.2361 7.3 27.0361 7.6 26.8361C10.1 24.8361 18.3 17.6361 18.3 17.6361C18.9 17.1361 19.3 16.6361 19.6 15.9361C19.9 15.2361 20.1 14.5361 20 13.8361C20 13.1361 19.8 12.4361 19.5 11.7361C19.2 11.1361 18.7 10.5361 18.1 10.1361L18.2 10.2361L7.6 1.13607C6.9 0.536068 6.1 0.236068 5.2 0.036068C4.3 -0.063932 3.4 0.036068 2.6 0.436068C1.8 0.836068 1.1 1.43607 0.7 2.13607C0.3 2.93607 0 3.83607 0 4.73607V23.2361C0 24.1361 0.2 25.0361 0.7 25.7361C1.2 26.5361 1.8 27.1361 2.6 27.4361C3.4 27.8361 4.3 27.9361 5.2 27.8361C6.1 27.7361 6.9 27.3361 7.6 26.8361" fill="#F7B916"/>
</svg>
