<svg width="263" height="218" viewBox="0 0 263 218" fill="none" xmlns="http://www.w3.org/2000/svg">
<g clip-path="url(#clip0)">
<path d="M180.7 0C159.3 0 137.3 2.2 119.2 15.7C90.8001 36.9 69.6001 65.1 38.7001 83.7C12.9001 99.2 -1.19994 123.3 6.00006 156.4C13.3001 189.5 40.9001 207.9 72.1001 204.4C98.0001 201.5 124.9 202.7 146.8 213.9C166.4 223.9 200.4 211.8 232.2 183.1C286.8 133.9 265.8 0 180.7 0Z" fill="white"/>
<path d="M131.5 208.2C178.886 208.2 217.3 203.857 217.3 198.5C217.3 193.143 178.886 188.8 131.5 188.8C84.1139 188.8 45.7 193.143 45.7 198.5C45.7 203.857 84.1139 208.2 131.5 208.2Z" fill="#333333"/>
<path d="M54.2 167.2C49 161 44.6 152.8 47.1 145.1C48.6 140.3 52.6 135.5 50.5 131C49.7 129.3 48.2 128.1 46.9 126.9C39.1 119.5 35.9 106.5 42.4 97.9998C44.5 95.2998 47.4 93.2998 49.3 90.3998C54 83.3998 51.6 73.9998 50.2 65.6998C48.5 55.3998 48.7 44.7998 50.8 34.4998C51.9 29.0998 53.7 23.6998 57.3 19.4998C60.9 15.2998 66.7 12.6998 72.1 14.1998C75.2 14.9998 77.8 17.0998 80.1 19.3998C87 26.1998 91.5 35.2998 92.7 44.8998C94.7 59.9998 89.1 76.8998 97.7 89.4998C99.6 92.2998 102.2 94.6998 103.9 97.5998C113.9 114.5 92.7 137.8 103.1 154.4C105.6 158.5 109.9 161.6 111.1 166.3C111.9 169.4 111.2 172.7 110.5 175.8C109.3 180.8 108.2 185.8 107 190.8C102.8 208.1 59.8 174 54.2 167.2Z" fill="#1A59A3"/>
<path d="M69 26.7002C71.4 48.3002 71.1 70.1002 72.4 91.8002C73.7 113.5 76.8 135.4 85.5 155.3C89.6 164.7 100.9 185.4 102.4 195.6" stroke="#333333" stroke-width="2" stroke-miterlimit="10" stroke-linecap="round" stroke-linejoin="round"/>
<path d="M58.1001 41.5996C63.6001 47.2996 68.1001 53.8996 71.3001 61.1996" stroke="#333333" stroke-width="2" stroke-miterlimit="10" stroke-linecap="round" stroke-linejoin="round"/>
<path d="M72.3 83.3002C72.3 73.9002 75.8 64.5002 81.8 57.2002" stroke="#333333" stroke-width="2" stroke-miterlimit="10" stroke-linecap="round" stroke-linejoin="round"/>
<path d="M60.2 82.7002C65.6 87.6002 69.9999 93.6002 73.0999 100.2" stroke="#333333" stroke-width="2" stroke-miterlimit="10" stroke-linecap="round" stroke-linejoin="round"/>
<path d="M76.2001 124.8C75.6001 115.3 79.5001 105.6 86.5001 99.1999C86.6001 99.0999 86.8001 98.8999 87.0001 98.9999C87.2001 98.9999 87.3001 99.3999 87.1001 99.3999" stroke="#333333" stroke-width="2" stroke-miterlimit="10" stroke-linecap="round" stroke-linejoin="round"/>
<path d="M59 130.1C67.1 132.5 74.7 136.9 80.6 142.9" stroke="#333333" stroke-width="2" stroke-miterlimit="10" stroke-linecap="round" stroke-linejoin="round"/>
<path d="M89.7 162.9C87.4 153.1 89.1 142.4 94.2 133.7" stroke="#333333" stroke-width="2" stroke-miterlimit="10" stroke-linecap="round" stroke-linejoin="round"/>
<path d="M156.8 59.5001C157.1 59.8001 157.4 60.2001 157.7 60.5001C159.4 48.4001 158.6 36.0001 155.4 24.2001C155 22.7001 154.5 21.1001 153.5 19.9001C152.5 18.7001 151 17.8001 149.5 18.1001C148.4 18.3001 147.5 19.2001 146.7 20.1001C142.6 25.0001 142.3 32.1001 142.2 38.5001C142.1 44.7001 142 50.9001 143 57.0001C143.5 47.2001 143 37.4001 141.6 27.8001C141.3 25.6001 140.9 23.4001 139.8 21.5001C138.7 19.6001 136.9 18.1001 134.8 18.1001C132.4 18.1001 130.3 20.1001 129.1 22.2001C126.7 26.5001 126.5 31.6001 126.6 36.6001C126.8 44.1001 127.5 51.6001 128.9 59.0001L156.8 59.5001Z" fill="white" stroke="#333333" stroke-width="2" stroke-miterlimit="10" stroke-linecap="round" stroke-linejoin="round"/>
<path d="M139.9 137.7C162.102 137.7 180.1 119.702 180.1 97.4998C180.1 75.298 162.102 57.2998 139.9 57.2998C117.698 57.2998 99.7 75.298 99.7 97.4998C99.7 119.702 117.698 137.7 139.9 137.7Z" fill="white" stroke="#333333" stroke-width="2" stroke-miterlimit="10" stroke-linecap="round" stroke-linejoin="round"/>
<path d="M164.6 122.3C178.3 108.6 178.3 86.4998 164.6 72.7998L139.9 97.4998L164.6 122.3Z" fill="#EF5237"/>
<path d="M139.9 132.5C159.23 132.5 174.9 116.83 174.9 97.5C174.9 78.17 159.23 62.5 139.9 62.5C120.57 62.5 104.9 78.17 104.9 97.5C104.9 116.83 120.57 132.5 139.9 132.5Z" stroke="#333333" stroke-width="2" stroke-miterlimit="10" stroke-linecap="round" stroke-linejoin="round"/>
<path d="M156.8 56.4C157.9 50.4 153.9 44.7 147.9 43.6C141.9 42.5 136.2 46.5 135.1 52.5L156.8 56.4Z" fill="white" stroke="#333333" stroke-width="2" stroke-miterlimit="10" stroke-linecap="round" stroke-linejoin="round"/>
<path d="M180.6 80.1996C186.6 79.0996 192.3 83.0996 193.4 89.0996C194.5 95.0996 190.5 100.8 184.5 101.9L180.6 80.1996Z" fill="white" stroke="#333333" stroke-width="2" stroke-miterlimit="10" stroke-linecap="round" stroke-linejoin="round"/>
<path d="M95.0001 62.6999C97.5001 68.7999 101.9 74.0999 107.3 77.7999C109.8 79.4999 113.1 80.7999 115.8 79.2999C118 78.0999 118.9 75.1999 118.8 72.6999C118.7 67.9999 116.4 63.5999 113.3 60.0999C110.2 56.5999 106.2 53.9999 102.4 51.2999C101.4 50.5999 100.2 49.8999 99.0001 49.6999C97.8001 49.5999 96.5001 49.9999 95.4001 50.5999C87.7001 54.4999 82.8001 62.9999 81.5001 71.4999C73.6001 127.8 104.6 180 112.3 197.9H154.2C152.7 186.4 154.2 160.7 185.3 132.4C192.8 125.6 196.9 114.4 194.1 112.1C190.2 108.8 185 112.1 183.1 113.1C177.2 116.2 173.1 121.1 168.3 125.8C152.6 141.5 127.1 141.5 111.4 125.8C97.8001 112.2 96.0001 91.3999 105.9 75.7999" fill="white"/>
<path d="M95.0001 62.6999C97.5001 68.7999 101.9 74.0999 107.3 77.7999C109.8 79.4999 113.1 80.7999 115.8 79.2999C118 78.0999 118.9 75.1999 118.8 72.6999C118.7 67.9999 116.4 63.5999 113.3 60.0999C110.2 56.5999 106.2 53.9999 102.4 51.2999C101.4 50.5999 100.2 49.8999 99.0001 49.6999C97.8001 49.5999 96.5001 49.9999 95.4001 50.5999C87.7001 54.4999 82.8001 62.9999 81.5001 71.4999C73.6001 127.8 104.6 180 112.3 197.9H154.2C152.7 186.4 154.2 160.7 185.3 132.4C192.8 125.6 196.9 114.4 194.1 112.1C190.2 108.8 185 112.1 183.1 113.1C177.2 116.2 173.1 121.1 168.3 125.8C152.6 141.5 127.1 141.5 111.4 125.8C97.8001 112.2 96.0001 91.3999 105.9 75.7999" stroke="#333333" stroke-width="2" stroke-miterlimit="10" stroke-linecap="round" stroke-linejoin="round"/>
<path d="M105.2 44.0996C103.3 46.0996 103 49.2996 104.3 51.6996C105.3 53.3996 107.1 54.5996 108.7 55.6996C114.2 59.4996 119.2 64.0996 123.5 69.1996C124.6 70.5996 125.9 72.0996 127.7 72.1996C129.5 72.2996 131.1 70.6996 131.6 68.8996C132 67.0996 131.6 65.1996 131 63.4996C129 57.1996 125.3 51.2996 120.6 46.6996C116.7 42.7996 110 38.9996 105.2 44.0996Z" fill="white" stroke="#333333" stroke-width="2" stroke-miterlimit="10" stroke-linecap="round" stroke-linejoin="round"/>
<path d="M126 150.3C124 149.8 122.9 147.8 123.4 145.8L126 135.6L133.1 137.5L130.5 147.7C130 149.6 127.9 150.8 126 150.3Z" fill="white" stroke="#333333" stroke-width="2" stroke-miterlimit="10" stroke-linecap="round" stroke-linejoin="round"/>
<path d="M87.9 113.7C87.2 111.8 88.2 109.7 90.1 109L100 105.5L102.5 112.4L92.6 115.9C90.7 116.7 88.6 115.7 87.9 113.7Z" fill="white" stroke="#333333" stroke-width="2" stroke-miterlimit="10" stroke-linecap="round" stroke-linejoin="round"/>
<path d="M202.7 103.8L233.3 111.4" stroke="#333333" stroke-width="2" stroke-miterlimit="10" stroke-linecap="round" stroke-linejoin="round"/>
<path d="M202.7 91.0002L235 87.7002" stroke="#333333" stroke-width="2" stroke-miterlimit="10" stroke-linecap="round" stroke-linejoin="round"/>
<path d="M200.8 77L229.3 62.5" stroke="#333333" stroke-width="2" stroke-miterlimit="10" stroke-linecap="round" stroke-linejoin="round"/>
<path d="M149 35C149.4 38.8 153.2 41.5 157 42.1C160.8 42.7 164.6 41.7 168.4 40.9C172.2 40.1 176.2 39.6 179.8 41.1C181.8 42 183.5 43.4 185.1 45C187.2 47.1 189.1 49.4 190.2 52.1C192.4 57.4 191.3 63.4 191 69.1C190.7 74.8 191.6 81.4 196.3 84.7" stroke="#333333" stroke-width="2" stroke-miterlimit="10" stroke-linecap="round" stroke-linejoin="round"/>
<path d="M36.8999 184C30.7999 179.9 24.8999 173.8 25.0999 166.5C25.1999 161.9 27.4999 156.7 24.4999 153.3C23.3999 152 21.7999 151.4 20.2999 150.6C11.5999 146 5.49988 135.4 8.99988 126.4C10.0999 123.5 12.0999 121 13.0999 118C15.3999 110.6 10.8999 103.1 7.59988 96.0998C3.49988 87.4998 0.999881 78.1998 0.199881 68.5998C-0.200119 63.5998 -0.100119 58.3998 1.99988 53.7998C4.09988 49.1998 8.49988 45.3998 13.4999 45.2998C16.3999 45.1998 19.1999 46.3998 21.6999 47.7998C29.3999 51.9998 35.5999 58.8998 39.0999 66.8998C44.5999 79.5998 44.0999 95.8998 54.7999 104.6C57.1999 106.6 59.9999 108 62.1999 110.1C75.1999 122.3 62.6999 148.2 75.8999 160.1C79.1999 163 83.6999 164.7 85.8999 168.4C87.3999 170.9 87.5999 174 87.7999 176.9C88.0999 181.6 88.2999 186.3 88.5999 190.9C89.4999 207.3 43.4999 188.5 36.8999 184Z" fill="#00C6AC"/>
<path d="M13.8 60.5C17.4 70.1 21.4 79.6 25.4 89.1C31.2 102.8 36.9001 116.5 42.7001 130.2C53.2001 155.1 64.1 180.8 83.7 199.4C82.9 198.6 82.1 197.9 81.3 197.1" stroke="#333333" stroke-width="2" stroke-miterlimit="10" stroke-linecap="round" stroke-linejoin="round"/>
<path d="M36.8 87.5996C33.5 94.2996 32.3 101.9 33.4 109.3" stroke="#333333" stroke-width="2" stroke-miterlimit="10" stroke-linecap="round" stroke-linejoin="round"/>
<path d="M50.8999 149.2C50.0999 143.7 49.3999 138.1 49.9999 132.5C50.5999 127.2 52.2999 122.1 55.1999 117.6" stroke="#333333" stroke-width="2" stroke-miterlimit="10" stroke-linecap="round" stroke-linejoin="round"/>
<path d="M33 168.2C40.3 167.5 47.7 168 54.9 169.5C57.7 170.1 60.6 171 62.6 173" stroke="#333333" stroke-width="2" stroke-miterlimit="10" stroke-linecap="round" stroke-linejoin="round"/>
<path d="M15 134.5C19.9 132.5 25.1 131.2 30.4 131.3C35.7 131.4 41 133.1 45 136.6" stroke="#333333" stroke-width="2" stroke-miterlimit="10" stroke-linecap="round" stroke-linejoin="round"/>
<path d="M7.19995 74.2002C9.19995 74.8002 11.1 75.7002 12.8 76.8002C15.2 78.4002 17.3 80.3002 19.4 82.3002C21.2 84.0002 22.9999 85.7002 24.7999 87.4002" stroke="#333333" stroke-width="2" stroke-miterlimit="10" stroke-linecap="round" stroke-linejoin="round"/>
<path d="M169.4 177.9C169.7 173.8 170.3 169.6 172.1 166C173.9 162.3 177.1 159.1 181.1 158.2C183.5 157.6 186.1 157.9 188.6 157.3C193.6 155.9 196.5 151 199.5 146.8C205.9 137.7 214.9 130.5 225 126C230.9 123.4 238.7 122 243.2 126.6C247.1 130.5 246.8 137 244.7 142C242.6 147.1 239 151.4 236.8 156.4C235.6 159.2 234.8 162.5 235.8 165.4C237 169 240.5 171.5 241.8 175C243.2 178.9 241.4 183.4 238.5 186.4C235.5 189.3 231.6 191 227.7 192.5C212.9 198.2 197.2 202 181.3 202.4C169.6 202.6 168.8 186.8 169.4 177.9Z" fill="#1A59A3"/>
<path d="M171.4 200.9C190.1 190.8 205.6 175.1 215.5 156.4C220.1 147.7 223.8 137.9 231.7 132" stroke="white" stroke-width="2" stroke-miterlimit="10" stroke-linecap="round" stroke-linejoin="round"/>
<path d="M182 166.8C180.9 176.3 179.8 185.9 180.4 195.5" stroke="white" stroke-width="2" stroke-miterlimit="10" stroke-linecap="round" stroke-linejoin="round"/>
<path d="M193.4 185.1C203.5 185.2 213.6 182.5 222.4 177.3" stroke="white" stroke-width="2" stroke-miterlimit="10" stroke-linecap="round" stroke-linejoin="round"/>
<path d="M205.3 172.2C207.2 163 209 153.7 210.8 144.4" stroke="white" stroke-width="2" stroke-miterlimit="10" stroke-linecap="round" stroke-linejoin="round"/>
<path d="M219.8 147.8C221.4 147.4 222.8 146.4 224.2 145.5C227.4 143.5 231.1 142.4 234.8 142.4" stroke="white" stroke-width="2" stroke-miterlimit="10" stroke-linecap="round" stroke-linejoin="round"/>
</g>
<defs>
<clipPath id="clip0">
<rect width="262.4" height="217.3" fill="white"/>
</clipPath>
</defs>
</svg>
