<svg width="242" height="300" viewBox="0 0 242 300" fill="none" xmlns="http://www.w3.org/2000/svg">
<path opacity="0.1" d="M74.7748 6.24155L77.3475 7.74754C69.7097 2.94385 60.9239 0.275465 51.9047 0.020206C42.8855 -0.235053 33.9628 1.93215 26.0655 6.29617C18.1683 10.6602 11.5853 17.0614 7.00199 24.8335C2.41868 32.6055 0.00261891 41.4641 0.00537429 50.4869V249.347C0.010136 257.916 2.19561 266.343 6.35603 273.834C10.5165 281.325 16.5149 287.634 23.7867 292.167C31.0585 296.7 39.3643 299.308 47.9221 299.745C56.48 300.182 65.0083 298.434 72.7041 294.666C76.088 292.964 79.2788 290.902 82.2211 288.516C109.308 266.54 198.538 189.219 198.538 189.226C204.537 184.394 209.352 178.253 212.612 171.273C215.872 164.294 217.491 156.661 217.346 148.958C217.201 141.256 215.294 133.69 211.773 126.838C208.252 119.986 203.209 114.031 197.032 109.429L198.538 110.601L82.6394 11.5962L82.5766 11.5404C75.192 5.45423 66.2293 1.59286 56.7336 0.406555C47.238 -0.779745 37.6008 0.757916 28.9458 4.84023C20.2908 8.92255 12.9747 15.3813 7.85061 23.4633C2.72656 31.5452 0.00571849 40.9174 0.00537429 50.4869V249.347C0.00197872 258.885 2.70143 268.229 7.79093 276.296C12.8804 284.363 20.1516 290.822 28.7619 294.926C37.3721 299.03 46.969 300.61 56.4404 299.483C65.9118 298.356 74.87 294.568 82.2768 288.558" fill="#F7B916"/>
<path d="M122.867 83.6654L124.994 81.136C125.125 80.9803 125.312 80.883 125.515 80.8655C125.718 80.848 125.919 80.9117 126.075 81.0426L130.877 85.081L128.252 88.2028C128.121 88.3585 127.934 88.4558 127.731 88.4733C127.529 88.4908 127.327 88.4271 127.172 88.2962L122.935 84.7333C122.779 84.6024 122.682 84.415 122.664 84.2124C122.647 84.0097 122.71 83.8084 122.841 83.6528L122.867 83.6654Z" fill="#EF5237"/>
<path d="M144.216 58.2766L146.401 55.6778C146.52 55.5363 146.69 55.4478 146.875 55.4319C147.059 55.416 147.242 55.4739 147.383 55.5929L152.239 59.6763L149.587 62.83C149.468 62.9715 149.298 63.06 149.114 63.0759C148.93 63.0918 148.747 63.0339 148.605 62.9149L144.304 59.2982C144.162 59.1792 144.074 59.0088 144.058 58.8246C144.042 58.6404 144.1 58.4574 144.219 58.3159L144.216 58.2766Z" fill="#EF5237"/>
<path d="M165.686 70.9506C169.549 74.1986 171.963 78.8481 172.398 83.8762C172.832 88.9043 171.252 93.8992 168.004 97.762C164.756 101.625 160.106 104.039 155.078 104.474C150.05 104.909 145.055 103.328 141.192 100.08L127.792 88.8063L130.909 85.1041L144.448 96.4896C145.879 97.7213 147.539 98.6568 149.334 99.242C151.128 99.8273 153.021 100.051 154.903 99.8989C156.784 99.7473 158.617 99.2238 160.294 98.3587C161.972 97.4937 163.461 96.3043 164.676 94.8595C165.89 93.4147 166.806 91.7432 167.37 89.9418C167.934 88.1405 168.135 86.2452 167.961 84.3657C167.787 82.4862 167.242 80.6599 166.357 78.9926C165.472 77.3253 164.265 75.8502 162.806 74.6528L149.273 63.2673L152.285 59.6836L165.686 70.9506Z" fill="#F7B916"/>
<path d="M164.082 71.299C166.045 72.891 167.671 74.8582 168.865 77.0856C170.059 79.313 170.798 81.7561 171.038 84.2721C171.278 86.7882 171.014 89.3267 170.261 91.7397C169.509 94.1526 168.284 96.3914 166.657 98.3255C165.03 100.26 163.034 101.85 160.785 103.004C158.537 104.158 156.081 104.853 153.561 105.048C151.041 105.242 148.507 104.933 146.108 104.137C143.709 103.342 141.493 102.076 139.588 100.415L121.544 85.2433L124.661 81.5341L142.844 96.831C145.74 99.2663 149.485 100.452 153.254 100.126C157.024 99.8004 160.51 97.9907 162.945 95.095C165.38 92.1992 166.566 88.4547 166.24 84.685C165.914 80.9154 164.105 77.4295 161.209 74.9942L143.026 59.7043L146.038 56.1206L164.082 71.299Z" stroke="#333333" stroke-width="2" stroke-linecap="round" stroke-linejoin="round"/>
<path d="M126.954 89.8029L130.07 86.0938" stroke="#333333" stroke-width="2" stroke-linecap="round" stroke-linejoin="round"/>
<path d="M148.437 64.2565L151.455 60.6729" stroke="#333333" stroke-width="2" stroke-linecap="round" stroke-linejoin="round"/>
<path d="M70.9398 67.8475C66.3568 67.8447 61.8774 66.4832 58.068 63.9349C54.2587 61.3867 51.2904 57.7662 49.5385 53.5312C47.7865 49.2962 47.3295 44.6369 48.2253 40.1422C49.1211 35.6475 51.3295 31.5193 54.5712 28.2796C57.8129 25.0398 61.9424 22.834 66.4376 21.9409C70.9328 21.0478 75.5919 21.5075 79.8259 23.2621C84.0598 25.0166 87.6785 27.987 90.2244 31.7979C92.7704 35.6088 94.1292 40.089 94.1292 44.672C94.1086 44.9158 93.9972 45.1429 93.817 45.3084C93.6369 45.4739 93.4012 45.5657 93.1566 45.5657C92.912 45.5657 92.6763 45.4739 92.4962 45.3084C92.3161 45.1429 92.2047 44.9158 92.184 44.672C92.184 40.4737 90.9392 36.3696 88.607 32.8786C86.2748 29.3876 82.9599 26.6665 79.0814 25.0592C75.2029 23.4519 70.935 23.0307 66.8171 23.8487C62.6992 24.6668 58.9163 26.6874 55.9467 29.6551C52.977 32.6228 50.9539 36.4043 50.1332 40.5217C49.3124 44.639 49.7309 48.9073 51.3356 52.7868C52.9403 56.6664 55.6593 59.9831 59.1488 62.3175C62.6382 64.652 66.7415 65.8995 70.9398 65.9023C71.1836 65.9229 71.4107 66.0343 71.5762 66.2144C71.7417 66.3946 71.8335 66.6303 71.8335 66.8749C71.8335 67.1195 71.7417 67.3552 71.5762 67.5353C71.4107 67.7154 71.1836 67.8268 70.9398 67.8475Z" fill="#F7B916"/>
<path d="M70.9388 57.3681C68.4292 57.3613 65.9779 56.6108 63.8946 55.2115C61.8113 53.8122 60.1894 51.8269 59.2338 49.5064C58.2782 47.1859 58.0318 44.6342 58.5256 42.1736C59.0194 39.7131 60.2313 37.4541 62.0083 35.682C63.7853 33.9098 66.0476 32.7041 68.5095 32.217C70.9714 31.7299 73.5224 31.9834 75.8403 32.9454C78.1582 33.9073 80.1391 35.5347 81.5326 37.6218C82.9262 39.7089 83.6699 42.1622 83.6699 44.6718C83.6681 46.3416 83.3373 47.9946 82.6964 49.5364C82.0556 51.0782 81.1172 52.4787 79.9349 53.6577C78.7526 54.8368 77.3496 55.7713 75.806 56.408C74.2624 57.0446 72.6085 57.3709 70.9388 57.3681ZM70.9388 33.9138C68.8108 33.9124 66.7301 34.5422 64.96 35.7235C63.19 36.9047 61.81 38.5844 60.9947 40.5501C60.1794 42.5157 59.9653 44.679 60.3796 46.7664C60.794 48.8537 61.818 50.7712 63.3223 52.2765C64.8265 53.7817 66.7434 54.807 68.8305 55.2227C70.9175 55.6383 73.0809 55.4257 75.0471 54.6116C77.0133 53.7976 78.6939 52.4187 79.8763 50.6494C81.0587 48.8801 81.6899 46.7999 81.6899 44.6718C81.6862 41.821 80.5525 39.0878 78.5373 37.0713C76.5221 35.0548 73.7897 33.9193 70.9388 33.9138Z" fill="#F7B916"/>
<path d="M87.9036 51.1351C86.2578 51.1332 84.6798 50.4791 83.5154 49.316C82.351 48.1529 81.6951 46.5757 81.6914 44.9299H83.6715C83.6733 46.061 84.1235 47.1452 84.9233 47.945C85.7231 48.7448 86.8074 49.195 87.9385 49.1968C90.3717 49.1968 92.2054 47.1052 92.2054 44.4209H94.1297C94.1297 48.2486 91.4455 51.1351 87.9036 51.1351Z" fill="#F7B916"/>
<path d="M55.9437 234.105C55.6582 236.783 54.5851 239.316 52.8599 241.384C51.1348 243.452 48.8352 244.963 46.2519 245.724C43.6685 246.485 40.9175 246.463 38.3467 245.66C35.7759 244.858 33.5008 243.311 31.8091 241.216C30.1173 239.12 29.0849 236.57 28.8424 233.888C28.5999 231.206 29.1583 228.512 30.4468 226.147C31.7353 223.782 33.6962 221.853 36.0814 220.602C38.4666 219.352 41.169 218.837 43.847 219.122C43.9237 219.127 43.9986 219.148 44.0672 219.182C44.1358 219.217 44.1967 219.265 44.2463 219.324C44.2958 219.383 44.333 219.451 44.3556 219.525C44.3782 219.598 44.3857 219.675 44.3777 219.752C44.3697 219.828 44.3464 219.902 44.3092 219.97C44.2719 220.037 44.2214 220.096 44.1608 220.143C44.1002 220.191 44.0307 220.225 43.9564 220.245C43.8821 220.265 43.8046 220.269 43.7284 220.259C41.2752 219.997 38.7993 220.468 36.614 221.613C34.4287 222.759 32.6321 224.526 31.4515 226.693C30.2709 228.859 29.7593 231.327 29.9813 233.784C30.2034 236.241 31.1493 238.577 32.6992 240.497C34.2491 242.417 36.3335 243.833 38.6888 244.568C41.044 245.303 43.5643 245.323 45.9308 244.625C48.2974 243.928 50.4038 242.544 51.9838 240.649C53.5638 238.754 54.5464 236.433 54.8072 233.98C54.8253 233.83 54.9017 233.694 55.0197 233.6C55.1377 233.507 55.2878 233.464 55.4375 233.48C55.5872 233.497 55.7243 233.572 55.8191 233.689C55.9138 233.806 55.9586 233.955 55.9437 234.105Z" fill="#F7B916"/>
<path d="M49.822 233.45C49.6587 234.915 49.0648 236.298 48.1153 237.426C47.1659 238.553 45.9036 239.373 44.488 239.783C43.0724 240.193 41.567 240.174 40.1621 239.729C38.7572 239.283 37.5159 238.431 36.5951 237.281C35.6744 236.13 35.1154 234.732 34.9889 233.264C34.8625 231.795 35.1741 230.322 35.8846 229.031C36.5951 227.74 37.6724 226.688 38.9804 226.009C40.2884 225.33 41.7684 225.054 43.2333 225.216C44.2068 225.324 45.1495 225.622 46.0076 226.094C46.8657 226.566 47.6223 227.203 48.2342 227.968C48.8461 228.732 49.3013 229.61 49.5737 230.551C49.8462 231.492 49.9305 232.477 49.822 233.45ZM36.1287 231.993C35.997 233.234 36.2361 234.487 36.8157 235.592C37.3953 236.698 38.2895 237.607 39.3854 238.205C40.4813 238.802 41.7297 239.062 42.973 238.951C44.2164 238.84 45.3989 238.363 46.3712 237.58C47.3436 236.797 48.0623 235.744 48.4365 234.553C48.8107 233.362 48.8237 232.087 48.4737 230.889C48.1238 229.69 47.4267 228.623 46.4705 227.82C45.5142 227.018 44.3417 226.517 43.1008 226.38C42.2744 226.29 41.4383 226.364 40.6404 226.598C39.8426 226.831 39.0986 227.22 38.451 227.741C37.8034 228.262 37.265 228.906 36.8665 229.636C36.468 230.365 36.2173 231.166 36.1287 231.993Z" fill="#F7B916"/>
<path d="M47.2419 223.124C47.194 223.603 47.0522 224.067 46.8246 224.49C46.5971 224.913 46.2883 225.287 45.9159 225.591C45.5435 225.895 45.1148 226.122 44.6544 226.26C44.194 226.398 43.711 226.443 43.2329 226.394L43.3514 225.265C43.6812 225.303 44.0153 225.275 44.3343 225.183C44.6533 225.091 44.9509 224.937 45.2101 224.73C45.4694 224.522 45.685 224.266 45.8446 223.975C46.0043 223.684 46.1048 223.364 46.1403 223.034C46.1649 222.683 46.1184 222.332 46.0036 221.999C45.8889 221.667 45.7082 221.362 45.4725 221.102C45.2368 220.841 44.9508 220.631 44.6319 220.484C44.3129 220.337 43.9675 220.255 43.6164 220.245L43.7349 219.108C44.2307 219.137 44.7159 219.263 45.162 219.482C45.6081 219.7 46.0062 220.005 46.3328 220.379C46.6595 220.753 46.9082 221.189 47.0643 221.66C47.2204 222.131 47.2808 222.629 47.2419 223.124Z" fill="#F7B916"/>
<path d="M2.60576 299.999C2.07336 300.002 1.55309 299.84 1.11559 299.537C0.678091 299.234 0.344565 298.803 0.160296 298.303C-0.0239722 297.804 -0.0500553 297.26 0.0855885 296.745C0.221232 296.23 0.512031 295.769 0.9185 295.426L24.5053 275.283C25.0295 274.834 25.7108 274.611 26.3992 274.664C27.0876 274.717 27.7268 275.041 28.1761 275.565C28.6255 276.09 28.8482 276.771 28.7952 277.459C28.7423 278.148 28.418 278.787 27.8938 279.236L4.29302 299.379C3.8232 299.781 3.22439 300.001 2.60576 299.999Z" fill="#F7B916"/>
<path d="M26.1929 299.999C25.6623 299.998 25.1448 299.834 24.7099 299.53C24.275 299.226 23.9435 298.797 23.7598 298.299C23.5762 297.801 23.5492 297.259 23.6825 296.745C23.8158 296.232 24.1031 295.771 24.5056 295.426L48.1134 275.283C48.3729 275.061 48.6737 274.892 48.9985 274.787C49.3233 274.681 49.6657 274.64 50.0062 274.667C50.3468 274.693 50.6788 274.786 50.9832 274.941C51.2877 275.096 51.5587 275.309 51.7807 275.569C52.0028 275.829 52.1715 276.129 52.2773 276.454C52.3831 276.779 52.4239 277.121 52.3973 277.462C52.3708 277.802 52.2774 278.134 52.1226 278.439C51.9677 278.743 51.7544 279.014 51.4949 279.236L27.8941 299.379C27.4207 299.785 26.8163 300.005 26.1929 299.999Z" fill="#F7B916"/>
<path d="M49.786 300C49.2566 299.996 48.741 299.83 48.3083 299.525C47.8756 299.22 47.5463 298.79 47.3644 298.293C47.1825 297.796 47.1567 297.255 47.2904 296.742C47.4241 296.23 47.711 295.771 48.1127 295.426L71.7064 275.284C71.9638 275.047 72.2662 274.864 72.5956 274.747C72.9251 274.63 73.2747 274.58 73.6238 274.601C73.9728 274.622 74.314 274.714 74.627 274.87C74.94 275.025 75.2183 275.243 75.4453 275.509C75.6723 275.775 75.8434 276.084 75.9482 276.417C76.0531 276.751 76.0896 277.102 76.0556 277.45C76.0216 277.798 75.9178 278.136 75.7503 278.443C75.5828 278.75 75.3552 279.02 75.081 279.237L51.4732 299.379C51.0022 299.78 50.4042 300 49.786 300Z" fill="#F7B916"/>
<path d="M73.3733 299.999C72.8409 300.002 72.3207 299.841 71.8832 299.537C71.4457 299.234 71.1121 298.803 70.9279 298.304C70.7436 297.804 70.7175 297.26 70.8532 296.745C70.9888 296.23 71.2796 295.77 71.6861 295.426L95.2729 275.283C95.5325 275.061 95.8332 274.892 96.158 274.787C96.4828 274.681 96.8252 274.64 97.1658 274.667C97.5063 274.693 97.8383 274.786 98.1428 274.941C98.4472 275.096 98.7182 275.309 98.9402 275.569C99.1623 275.829 99.331 276.129 99.4368 276.454C99.5426 276.779 99.5834 277.121 99.5568 277.462C99.5303 277.802 99.4369 278.134 99.2821 278.439C99.1273 278.743 98.914 279.014 98.6544 279.236L75.0606 299.379C74.5908 299.781 73.992 300.002 73.3733 299.999Z" fill="#F7B916"/>
<path d="M96.9674 299.999C96.4362 299.999 95.9178 299.837 95.4818 299.533C95.0458 299.23 94.7132 298.8 94.5286 298.302C94.3441 297.804 94.3166 297.261 94.4497 296.747C94.5828 296.233 94.8702 295.771 95.2732 295.425L118.867 275.283C119.395 274.865 120.064 274.669 120.734 274.734C121.403 274.799 122.022 275.122 122.459 275.634C122.896 276.146 123.117 276.807 123.077 277.479C123.036 278.15 122.737 278.78 122.242 279.236L98.6547 299.379C98.1836 299.779 97.5856 299.999 96.9674 299.999Z" fill="#F7B916"/>
<path d="M120.555 300C120.023 300.002 119.502 299.841 119.065 299.538C118.627 299.234 118.294 298.803 118.11 298.304C117.925 297.804 117.899 297.26 118.035 296.745C118.17 296.231 118.461 295.77 118.868 295.426L142.455 275.284C142.712 275.047 143.014 274.864 143.344 274.747C143.673 274.63 144.023 274.58 144.372 274.601C144.721 274.622 145.062 274.714 145.375 274.87C145.688 275.025 145.966 275.243 146.193 275.509C146.42 275.775 146.591 276.084 146.696 276.417C146.801 276.751 146.838 277.102 146.804 277.45C146.77 277.798 146.666 278.136 146.498 278.443C146.331 278.75 146.103 279.02 145.829 279.237L122.242 299.379C121.772 299.782 121.174 300.002 120.555 300Z" fill="#F7B916"/>
<path d="M144.139 299.999C143.609 299.998 143.091 299.834 142.656 299.53C142.221 299.226 141.89 298.797 141.706 298.299C141.522 297.801 141.496 297.259 141.629 296.745C141.762 296.232 142.049 295.771 142.452 295.426L166.039 275.283C166.563 274.835 167.244 274.613 167.932 274.667C168.619 274.72 169.258 275.045 169.706 275.569C170.155 276.093 170.376 276.774 170.323 277.462C170.269 278.15 169.944 278.788 169.42 279.236L145.826 299.379C145.357 299.781 144.758 300.002 144.139 299.999Z" fill="#F7B916"/>
<path d="M167.735 300C167.203 300 166.685 299.837 166.249 299.534C165.813 299.23 165.48 298.801 165.296 298.303C165.111 297.804 165.084 297.262 165.217 296.748C165.35 296.233 165.637 295.772 166.04 295.426L189.648 275.284C189.905 275.047 190.208 274.864 190.537 274.747C190.867 274.63 191.216 274.58 191.565 274.601C191.914 274.622 192.256 274.714 192.569 274.87C192.882 275.025 193.16 275.243 193.387 275.509C193.614 275.775 193.785 276.084 193.89 276.417C193.995 276.751 194.031 277.102 193.997 277.45C193.963 277.798 193.859 278.136 193.692 278.443C193.524 278.75 193.297 279.02 193.023 279.237L169.429 299.379C168.956 299.781 168.355 300.001 167.735 300Z" fill="#F7B916"/>
<path d="M191.322 300C190.791 299.999 190.273 299.836 189.837 299.531C189.402 299.227 189.071 298.796 188.888 298.297C188.706 297.798 188.681 297.256 188.817 296.742C188.953 296.229 189.243 295.769 189.649 295.426L213.236 275.284C213.493 275.047 213.795 274.864 214.125 274.747C214.454 274.63 214.804 274.58 215.153 274.601C215.502 274.622 215.843 274.714 216.156 274.87C216.469 275.025 216.748 275.243 216.975 275.509C217.202 275.775 217.373 276.084 217.478 276.417C217.582 276.751 217.619 277.102 217.585 277.45C217.551 277.798 217.447 278.136 217.28 278.443C217.112 278.75 216.884 279.02 216.61 279.237L193.023 299.379C192.55 299.785 191.946 300.005 191.322 300Z" fill="#F7B916"/>
<path d="M214.908 299.999C214.535 300.005 214.165 299.93 213.824 299.778C213.483 299.626 213.18 299.402 212.935 299.121C212.713 298.862 212.544 298.562 212.438 298.238C212.333 297.913 212.292 297.571 212.318 297.231C212.345 296.891 212.438 296.56 212.593 296.256C212.748 295.952 212.961 295.682 213.22 295.461L236.814 275.318C237.342 274.9 238.011 274.704 238.681 274.769C239.351 274.835 239.969 275.157 240.406 275.669C240.843 276.181 241.064 276.842 241.024 277.514C240.983 278.186 240.684 278.816 240.189 279.271L216.595 299.414C216.12 299.804 215.522 300.011 214.908 299.999Z" fill="#F7B916"/>
<path d="M124.59 221.235C158.945 221.235 186.795 193.385 186.795 159.03C186.795 124.675 158.945 96.8242 124.59 96.8242C90.2347 96.8242 62.3843 124.675 62.3843 159.03C62.3843 193.385 90.2347 221.235 124.59 221.235Z" stroke="#EF5237" stroke-width="13" stroke-miterlimit="10"/>
<path d="M172.371 119.204L219.914 78.5981" stroke="#EF5237" stroke-width="13" stroke-linecap="round" stroke-linejoin="round"/>
<path d="M87.457 160.821C87.457 160.821 97.8665 138.51 126.013 138.51C154.599 138.51 164.569 160.821 164.569 160.821" fill="white"/>
<path d="M164.548 160.821C164.548 160.821 154.138 183.132 125.992 183.132C97.4057 183.132 87.4355 160.821 87.4355 160.821" fill="white"/>
<path d="M126.523 176.293C135.483 176.293 142.747 169.029 142.747 160.068C142.747 151.108 135.483 143.844 126.523 143.844C117.563 143.844 110.299 151.108 110.299 160.068C110.299 169.029 117.563 176.293 126.523 176.293Z" fill="#1DA1F2"/>
<path d="M124.592 122.439V136.691" stroke="#333333" stroke-width="2" stroke-linecap="round" stroke-linejoin="round"/>
<path d="M137.9 123.632L134.721 137.702" stroke="#333333" stroke-width="2" stroke-linecap="round" stroke-linejoin="round"/>
<path d="M111.539 123.911L114.369 137.702" stroke="#333333" stroke-width="2" stroke-linecap="round" stroke-linejoin="round"/>
<path d="M124.848 195.626V181.368" stroke="#333333" stroke-width="2" stroke-linecap="round" stroke-linejoin="round"/>
<path d="M111.539 194.434L114.718 180.364" stroke="#333333" stroke-width="2" stroke-linecap="round" stroke-linejoin="round"/>
<path d="M137.9 194.155L135.069 180.364" stroke="#333333" stroke-width="2" stroke-linecap="round" stroke-linejoin="round"/>
<path d="M98.7158 128.457L105.207 140.762" stroke="#333333" stroke-width="2" stroke-linecap="round" stroke-linejoin="round"/>
<path d="M150.199 128.457L143.708 140.762" stroke="#333333" stroke-width="2" stroke-linecap="round" stroke-linejoin="round"/>
<path d="M124.589 175.254C133.55 175.254 140.814 167.99 140.814 159.029C140.814 150.069 133.55 142.805 124.589 142.805C115.629 142.805 108.365 150.069 108.365 159.029C108.365 167.99 115.629 175.254 124.589 175.254Z" stroke="#333333" stroke-width="2" stroke-linecap="round" stroke-linejoin="round"/>
<path d="M86.0269 159.03C86.0269 159.03 96.4433 136.719 124.59 136.719C153.141 136.719 163.146 159.03 163.146 159.03" stroke="#333333" stroke-width="2" stroke-linecap="round" stroke-linejoin="round"/>
<path d="M163.154 159.029C163.154 159.029 152.745 181.34 124.598 181.34C96.0123 181.34 86.0352 159.029 86.0352 159.029" stroke="#333333" stroke-width="2" stroke-linecap="round" stroke-linejoin="round"/>
<path d="M215.123 220.865C217.926 220.865 220.199 218.593 220.199 215.79C220.199 212.986 217.926 210.714 215.123 210.714C212.32 210.714 210.047 212.986 210.047 215.79C210.047 218.593 212.32 220.865 215.123 220.865Z" fill="#EF5237"/>
<path d="M213.91 219.527C216.498 219.527 218.595 217.429 218.595 214.842C218.595 212.254 216.498 210.156 213.91 210.156C211.322 210.156 209.225 212.254 209.225 214.842C209.225 217.429 211.322 219.527 213.91 219.527Z" stroke="#333333" stroke-width="2" stroke-linecap="round" stroke-linejoin="round"/>
<path d="M213.917 234.057L204.749 220.559C203.729 218.925 203.164 217.048 203.114 215.123C203.064 213.197 203.53 211.293 204.464 209.608C205.398 207.924 206.766 206.52 208.426 205.542C210.086 204.565 211.977 204.049 213.903 204.049C215.83 204.049 217.721 204.565 219.38 205.542C221.04 206.52 222.408 207.924 223.342 209.608C224.276 211.293 224.743 213.197 224.693 215.123C224.642 217.048 224.078 218.925 223.058 220.559L213.917 234.057Z" stroke="#333333" stroke-width="2" stroke-linecap="round" stroke-linejoin="round"/>
<path d="M105.821 30.8186L114.153 29.9819L114.99 38.3137L123.321 37.484L124.151 45.8157L132.483 44.979L133.319 53.3108L141.651 52.4811" stroke="#333333" stroke-width="2" stroke-linecap="round" stroke-linejoin="round"/>
<path d="M103.215 63.957L104.045 72.2888L112.377 71.4521L113.213 79.7838L121.545 78.9541" stroke="#333333" stroke-width="2" stroke-linecap="round" stroke-linejoin="round"/>
<path d="M169.631 228.493L157.164 241.565C157.102 241.635 157.06 241.72 157.045 241.813C157.029 241.905 157.04 241.999 157.077 242.085C157.114 242.171 157.174 242.245 157.252 242.297C157.329 242.35 157.42 242.379 157.513 242.381H163.154C163.248 242.382 163.34 242.41 163.418 242.463C163.496 242.515 163.557 242.59 163.593 242.676C163.63 242.763 163.64 242.859 163.622 242.951C163.605 243.044 163.561 243.129 163.495 243.197L155.624 251.069C155.542 251.152 155.493 251.262 155.486 251.378C155.479 251.495 155.515 251.61 155.586 251.702C155.658 251.794 155.761 251.857 155.875 251.879C155.99 251.901 156.109 251.881 156.209 251.822L174.567 240.715C174.647 240.657 174.706 240.576 174.738 240.483C174.769 240.389 174.771 240.289 174.743 240.194C174.714 240.1 174.657 240.017 174.58 239.957C174.502 239.896 174.407 239.862 174.309 239.857H165.245C165.165 239.854 165.087 239.83 165.017 239.789C164.948 239.748 164.89 239.69 164.849 239.621C164.808 239.552 164.784 239.474 164.78 239.393C164.776 239.313 164.792 239.233 164.827 239.16L170.405 229.106C170.486 229.004 170.523 228.873 170.508 228.743C170.493 228.613 170.427 228.494 170.324 228.413C170.222 228.331 170.091 228.294 169.961 228.309C169.831 228.324 169.712 228.39 169.631 228.493Z" fill="#F7B916"/>
<path d="M39.5371 165.716H20.7611C19.6059 165.716 18.6694 166.652 18.6694 167.807V181.34C18.6694 182.496 19.6059 183.432 20.7611 183.432H39.5371C40.6923 183.432 41.6287 182.496 41.6287 181.34V167.807C41.6287 166.652 40.6923 165.716 39.5371 165.716Z" fill="white"/>
<path d="M38.0586 164.349H19.2826C18.1274 164.349 17.1909 165.286 17.1909 166.441V179.974C17.1909 181.129 18.1274 182.065 19.2826 182.065H38.0586C39.2138 182.065 40.1502 181.129 40.1502 179.974V166.441C40.1502 165.286 39.2138 164.349 38.0586 164.349Z" stroke="#333333" stroke-width="2" stroke-linecap="round" stroke-linejoin="round"/>
<path d="M17.1909 169.202L28.8065 173.259L40.1502 169.202" stroke="#333333" stroke-width="2" stroke-linecap="round" stroke-linejoin="round"/>
<path d="M98.0696 252.895L87.1369 247.783C86.0905 247.294 84.8455 247.745 84.3562 248.792L80.8154 256.364C80.3261 257.411 80.7777 258.656 81.8242 259.145L92.7569 264.257C93.8033 264.746 95.0483 264.295 95.5376 263.248L99.0784 255.676C99.5677 254.629 99.1161 253.384 98.0696 252.895Z" fill="white"/>
<path d="M97.536 251.578L86.6032 246.466C85.5568 245.977 84.3118 246.428 83.8225 247.475L80.2817 255.048C79.7924 256.094 80.244 257.339 81.2905 257.828L92.2232 262.94C93.2696 263.429 94.5146 262.978 95.0039 261.931L98.5447 254.359C99.034 253.312 98.5824 252.067 97.536 251.578Z" stroke="#333333" stroke-width="2" stroke-linecap="round" stroke-linejoin="round"/>
<path d="M83.2656 248.691L89.4987 254.778L97.9908 255.573" stroke="#333333" stroke-width="2" stroke-linecap="round" stroke-linejoin="round"/>
<path d="M187.556 58.512C196.11 58.512 200.803 51.4213 200.803 45.2649C200.803 45.0627 200.803 44.8605 200.803 44.6653C201.712 44.0059 202.496 43.1889 203.117 42.253C202.268 42.6209 201.368 42.8561 200.447 42.9502C201.404 42.3885 202.129 41.5032 202.49 40.4541C201.577 40.9976 200.577 41.3797 199.534 41.5836C198.896 40.902 198.067 40.4281 197.156 40.2237C196.245 40.0193 195.294 40.0938 194.426 40.4375C193.558 40.7813 192.814 41.3784 192.289 42.1511C191.765 42.9237 191.486 43.8363 191.488 44.7699C191.485 45.1266 191.525 45.4824 191.606 45.8297C189.756 45.7319 187.947 45.247 186.295 44.4063C184.644 43.5657 183.187 42.3879 182.02 40.9492C181.603 41.6568 181.383 42.4635 181.385 43.2848C181.386 44.0526 181.578 44.8081 181.943 45.4834C182.308 46.1588 182.835 46.733 183.477 47.1544C182.743 47.1313 182.026 46.9328 181.385 46.5757V46.6315C181.385 47.7062 181.756 48.748 182.436 49.5803C183.115 50.4127 184.062 50.9843 185.115 51.1982C184.715 51.3051 184.303 51.3591 183.888 51.3586C183.596 51.3594 183.304 51.3314 183.017 51.2749C183.313 52.1989 183.892 53.007 184.671 53.5859C185.45 54.1648 186.39 54.4855 187.36 54.503C185.702 55.8031 183.653 56.5034 181.546 56.4901C181.175 56.4901 180.805 56.4691 180.437 56.4273C182.565 57.7935 185.041 58.5195 187.57 58.519" fill="#1DA1F2"/>
<path d="M38.7362 112.191L41.6715 102.506L44.9136 103.489L46.545 99.8638L42.808 98.7343L43.5052 96.3289C43.8398 95.2343 44.3628 94.5859 45.9315 95.06L47.9255 95.6596L48.9504 92.285C48.0133 91.8949 47.0569 91.5528 46.0849 91.2601C43.2054 90.3886 40.7024 91.546 39.7263 94.7462L38.8826 97.5351L35.6266 96.545L34.5181 100.345L37.7741 101.335L34.8667 111.005L38.7362 112.191Z" fill="#3B5998"/>
</svg>
