<svg width="313" height="202" viewBox="0 0 313 202" fill="none" xmlns="http://www.w3.org/2000/svg">
<path d="M55.84 124.877C44.9948 124.879 34.3926 121.665 25.3743 115.641C16.3561 109.617 9.32682 101.054 5.17562 91.0345C1.02443 81.0152 -0.0622287 69.9899 2.05308 59.353C4.16839 48.716 9.39064 38.9454 17.0594 31.2766C24.7281 23.6079 34.4988 18.3857 45.1357 16.2704C55.7726 14.1551 66.7979 15.2417 76.8172 19.3929C86.8365 23.5441 95.3996 30.5734 101.424 39.5916C107.448 48.6099 110.662 59.2121 110.66 70.0573C110.642 84.5908 104.86 98.5237 94.5832 108.8C84.3064 119.077 70.3735 124.859 55.84 124.877ZM55.84 23.2273C46.5775 23.2253 37.5224 25.9702 29.8199 31.1147C22.1175 36.2593 16.1136 43.5724 12.5676 52.1293C9.02163 60.6862 8.09281 70.1025 9.89863 79.1873C11.7044 88.272 16.1638 96.6173 22.7127 103.168C29.2616 109.718 37.6059 114.179 46.6903 115.987C55.7747 117.795 65.1911 116.868 73.7488 113.324C82.3064 109.779 89.6209 103.777 94.7671 96.0757C99.9132 88.3743 102.66 79.3198 102.66 70.0573C102.644 57.6438 97.7066 45.7432 88.9298 36.9646C80.1531 28.186 68.2535 23.2458 55.84 23.2273Z" fill="#EF5237"/>
<path d="M94.8798 41.5174C94.0712 41.5082 93.2844 41.2542 92.6231 40.7887C91.9618 40.3233 91.4571 39.6684 91.1756 38.9104C90.894 38.1524 90.8488 37.3268 91.046 36.5425C91.2431 35.7583 91.6733 35.0522 92.2798 34.5174L131.13 1.33739C131.508 0.912891 131.973 0.574031 132.493 0.343429C133.013 0.112826 133.577 -0.0042152 134.145 0.000115962C134.714 0.00444712 135.276 0.130051 135.792 0.368545C136.308 0.60704 136.768 0.952939 137.14 1.38316C137.512 1.81338 137.788 2.31802 137.95 2.86341C138.112 3.40881 138.155 3.9824 138.077 4.54591C138 5.10943 137.803 5.64991 137.5 6.13127C137.197 6.61264 136.794 7.02383 136.32 7.33739L97.4798 40.5574C96.7553 41.177 95.8332 41.5175 94.8798 41.5174Z" fill="#EF5237"/>
<path d="M25.5 71.5176C25.5 71.5176 34.02 53.2676 57.02 53.2676C80.35 53.2676 88.53 71.5176 88.53 71.5176" fill="white"/>
<path d="M88.51 71.5176C88.51 71.5176 80.02 89.7676 57.02 89.7676C33.69 89.7676 25.52 71.5176 25.52 71.5176" fill="white"/>
<path d="M57.4202 84.1675C64.7435 84.1675 70.6802 78.2308 70.6802 70.9075C70.6802 63.5842 64.7435 57.6475 57.4202 57.6475C50.0969 57.6475 44.1602 63.5842 44.1602 70.9075C44.1602 78.2308 50.0969 84.1675 57.4202 84.1675Z" fill="#1DA1F2"/>
<path d="M55.8398 40.1572V51.8072" stroke="#333333" stroke-width="2" stroke-linecap="round" stroke-linejoin="round"/>
<path d="M66.7101 41.1274L64.1201 52.6274" stroke="#333333" stroke-width="2" stroke-linecap="round" stroke-linejoin="round"/>
<path d="M45.1802 41.3574L47.4902 52.6274" stroke="#333333" stroke-width="2" stroke-linecap="round" stroke-linejoin="round"/>
<path d="M56.0498 99.9576V88.3076" stroke="#333333" stroke-width="2" stroke-linecap="round" stroke-linejoin="round"/>
<path d="M45.1802 98.9773L47.7802 87.4873" stroke="#333333" stroke-width="2" stroke-linecap="round" stroke-linejoin="round"/>
<path d="M66.7099 98.7473L64.3999 87.4873" stroke="#333333" stroke-width="2" stroke-linecap="round" stroke-linejoin="round"/>
<path d="M34.7002 45.0776L40.0002 55.1276" stroke="#333333" stroke-width="2" stroke-linecap="round" stroke-linejoin="round"/>
<path d="M76.77 45.0776L71.46 55.1276" stroke="#333333" stroke-width="2" stroke-linecap="round" stroke-linejoin="round"/>
<path d="M55.8401 83.3174C63.1634 83.3174 69.1001 77.3807 69.1001 70.0574C69.1001 62.7341 63.1634 56.7974 55.8401 56.7974C48.5168 56.7974 42.5801 62.7341 42.5801 70.0574C42.5801 77.3807 48.5168 83.3174 55.8401 83.3174Z" stroke="#333333" stroke-width="2" stroke-linecap="round" stroke-linejoin="round"/>
<path d="M24.3301 70.0576C24.3301 70.0576 32.8401 51.8076 55.8401 51.8076C79.1701 51.8076 87.3401 70.0576 87.3401 70.0576" stroke="#333333" stroke-width="2" stroke-linecap="round" stroke-linejoin="round"/>
<path d="M87.3401 70.0576C87.3401 70.0576 78.8401 88.3376 55.8401 88.3376C32.5101 88.3376 24.3301 70.0576 24.3301 70.0576" stroke="#333333" stroke-width="2" stroke-linecap="round" stroke-linejoin="round"/>
<path d="M142.02 132.907L148.76 110.667L156.23 112.927L159.98 104.597L151.39 101.997L153.02 96.4573C153.78 93.9473 155.02 92.4573 158.6 93.5373L163.18 94.9273L165.53 87.1773C163.406 86.2675 161.232 85.4763 159.02 84.8073C152.4 82.8073 146.64 85.4673 144.4 92.8873L142.46 99.2773L134.97 97.0173L132.35 105.687L139.83 107.957L133.02 130.197L142.02 132.907Z" fill="#3B5998"/>
<path d="M271.18 152.058H306.25C307.513 152.06 308.723 152.562 309.617 153.454C310.51 154.346 311.015 155.555 311.02 156.818V191.648" stroke="#1062AA" stroke-width="2" stroke-linecap="round" stroke-linejoin="round"/>
<path d="M248.44 165.268L280.11 176.338L311.02 165.268V195.568C311.015 196.831 310.51 198.041 309.617 198.935C308.724 199.828 307.513 200.332 306.25 200.338H253.25C251.986 200.332 250.776 199.828 249.883 198.935C248.989 198.041 248.485 196.831 248.48 195.568V156.818C248.485 155.555 248.99 154.346 249.883 153.454C250.777 152.562 251.987 152.06 253.25 152.058H271.25" stroke="#1062AA" stroke-width="2" stroke-linecap="round" stroke-linejoin="round"/>
<path d="M37.3398 142.797L70.3398 154.587C71.5292 155.017 72.5005 155.899 73.0419 157.042C73.5832 158.185 73.6508 159.495 73.2298 160.687L61.5198 193.487" stroke="#1062AA" stroke-width="2" stroke-linecap="round" stroke-linejoin="round"/>
<path d="M11.4902 147.587L37.5902 168.657H70.4202L63.7002 187.457L60.2302 197.197C59.801 198.387 58.9181 199.357 57.7749 199.897C56.6316 200.437 55.3211 200.502 54.1302 200.077L4.18018 182.217C2.99175 181.79 2.02119 180.909 1.48131 179.768C0.941433 178.626 0.876293 177.317 1.30018 176.127L14.3002 139.637C14.7275 138.449 15.6079 137.478 16.749 136.936C17.8901 136.395 19.1992 136.327 20.3902 136.747L37.3902 142.817" stroke="#1062AA" stroke-width="2" stroke-linecap="round" stroke-linejoin="round"/>
<path d="M98.7402 163.637L121.83 154.497C122.663 154.17 123.592 154.186 124.413 154.542C125.234 154.898 125.88 155.565 126.21 156.397L135.29 179.337" stroke="#1062AA" stroke-width="2" stroke-linecap="round" stroke-linejoin="round"/>
<path d="M87.2198 178.267L110.94 177.267L128.41 161.927L133.62 175.067L136.31 181.877C136.483 182.294 136.572 182.741 136.571 183.192C136.57 183.643 136.478 184.089 136.302 184.504C136.126 184.92 135.869 185.296 135.546 185.611C135.223 185.925 134.84 186.172 134.42 186.337L99.4999 200.107C98.6682 200.436 97.7404 200.421 96.9195 200.067C96.0986 199.713 95.4515 199.048 95.1198 198.217L85.0198 172.707C84.6946 171.877 84.7108 170.952 85.0648 170.133C85.4188 169.314 86.082 168.669 86.9098 168.337L98.7798 163.637" stroke="#1062AA" stroke-width="2" stroke-linecap="round" stroke-linejoin="round"/>
<path d="M182.8 148.748L202.8 163.438C203.52 163.969 204.001 164.764 204.136 165.649C204.271 166.534 204.049 167.436 203.52 168.158L188.95 188.038" stroke="#1062AA" stroke-width="2" stroke-linecap="round" stroke-linejoin="round"/>
<path d="M164.29 146.757L177.73 166.337L200.02 172.977L191.64 184.337L187.31 190.237C186.777 190.955 185.982 191.434 185.098 191.569C184.214 191.704 183.312 191.484 182.59 190.957L152.32 168.767C151.963 168.506 151.66 168.177 151.43 167.799C151.2 167.42 151.047 167.001 150.979 166.563C150.911 166.126 150.93 165.68 151.035 165.25C151.14 164.819 151.328 164.414 151.59 164.057L167.83 141.937C168.361 141.217 169.156 140.736 170.041 140.601C170.926 140.466 171.828 140.688 172.55 141.217L182.84 148.767" stroke="#1062AA" stroke-width="2" stroke-linecap="round" stroke-linejoin="round"/>
<path d="M214.27 112.568L237.16 103.988C237.985 103.679 238.898 103.71 239.701 104.074C240.503 104.437 241.128 105.104 241.44 105.928L250.02 128.658" stroke="#1062AA" stroke-width="2" stroke-linecap="round" stroke-linejoin="round"/>
<path d="M202.67 126.757L226.04 126.228L243.51 111.438L248.4 124.438L250.93 131.188C251.235 132.014 251.201 132.927 250.836 133.729C250.471 134.531 249.804 135.155 248.98 135.468L214.36 148.468C213.537 148.775 212.624 148.744 211.824 148.38C211.023 148.017 210.4 147.35 210.09 146.528L200.6 121.238C200.292 120.411 200.325 119.497 200.69 118.694C201.056 117.892 201.725 117.267 202.55 116.958L214.31 112.548" stroke="#1062AA" stroke-width="2" stroke-linecap="round" stroke-linejoin="round"/>
<path d="M290.16 80.7676L309.46 91.3376C310.156 91.7181 310.674 92.3589 310.898 93.1198C311.123 93.8807 311.038 94.6997 310.66 95.3976L300.2 114.558" stroke="#81859C" stroke-width="2" stroke-linecap="round" stroke-linejoin="round"/>
<path d="M273.68 81.2173L287.79 96.8073L308.12 99.9973L302.12 110.997L299.02 116.687C298.64 117.384 297.999 117.901 297.238 118.126C296.477 118.351 295.658 118.265 294.96 117.887L265.77 101.957C265.091 101.575 264.588 100.945 264.366 100.198C264.144 99.4516 264.221 98.6481 264.58 97.9573L276.22 76.5673C276.596 75.8685 277.232 75.3468 277.991 75.1163C278.75 74.8858 279.57 74.9652 280.27 75.3373L290.19 80.7473" stroke="#81859C" stroke-width="2" stroke-linecap="round" stroke-linejoin="round"/>
<path d="M158.51 29.1676L171.14 23.3976C171.596 23.1912 172.116 23.1742 172.585 23.3504C173.053 23.5267 173.433 23.8817 173.64 24.3376L179.37 36.8776" stroke="#81859C" stroke-width="2" stroke-linecap="round" stroke-linejoin="round"/>
<path d="M152.5 37.6674L165.72 36.4374L175.02 27.3374L178.31 34.5274L180.02 38.3374C180.224 38.7927 180.241 39.3102 180.067 39.778C179.893 40.2458 179.542 40.6264 179.09 40.8374L160.02 49.5074C159.795 49.6113 159.551 49.6697 159.304 49.6792C159.056 49.6886 158.809 49.649 158.576 49.5626C158.344 49.4761 158.131 49.3446 157.95 49.1755C157.768 49.0064 157.622 48.8032 157.52 48.5774L151.15 34.5774C150.943 34.1224 150.924 33.6039 151.099 33.1354C151.273 32.6668 151.626 32.2864 152.08 32.0774L158.58 29.0774" stroke="#81859C" stroke-width="2" stroke-linecap="round" stroke-linejoin="round"/>
<path d="M212.66 63.4873L227.66 74.0173C228.197 74.3997 228.562 74.978 228.676 75.6273C228.79 76.2766 228.645 76.9447 228.27 77.4873L217.85 92.4073" stroke="#81859C" stroke-width="2" stroke-linecap="round" stroke-linejoin="round"/>
<path d="M198.96 62.3373L209.2 76.5773L225.76 81.1173L219.76 89.6673L216.66 94.0973C216.279 94.6365 215.701 95.0032 215.051 95.1174C214.401 95.2317 213.732 95.0843 213.19 94.7073L190.48 78.7773C189.939 78.3981 189.571 77.8203 189.455 77.1702C189.338 76.52 189.484 75.8503 189.86 75.3073L201.49 58.7073C201.871 58.1682 202.449 57.8015 203.099 57.6872C203.749 57.5729 204.418 57.7203 204.96 58.0973L212.69 63.5073" stroke="#81859C" stroke-width="2" stroke-linecap="round" stroke-linejoin="round"/>
<path d="M270.16 34.0776H271.16C271.711 34.0803 272.239 34.3003 272.628 34.6898C273.018 35.0793 273.238 35.6068 273.24 36.1576V51.3376" stroke="#1062AA" stroke-width="2" stroke-linecap="round" stroke-linejoin="round"/>
<path d="M255.86 34.0776H270.16" stroke="#1062AA" stroke-width="2" stroke-linecap="round" stroke-linejoin="round"/>
<path d="M245.93 39.8476L259.75 44.6776L273.25 39.8476V53.0776C273.248 53.6285 273.028 54.156 272.638 54.5455C272.249 54.935 271.721 55.155 271.17 55.1576H248.02C247.469 55.155 246.942 54.935 246.552 54.5455C246.163 54.156 245.943 53.6285 245.94 53.0776V36.1576C245.943 35.6068 246.163 35.0793 246.552 34.6898C246.942 34.3003 247.469 34.0803 248.02 34.0776H255.89" stroke="#1062AA" stroke-width="2" stroke-linecap="round" stroke-linejoin="round"/>
<path d="M309.49 21.5273C303.95 36.5273 288.55 40.0573 277.81 36.0873C277.46 35.9573 277.11 35.8173 276.81 35.6673C275.069 36.8304 273.136 37.6767 271.1 38.1673C272.303 36.9273 273.314 35.5151 274.1 33.9773C272.455 35.2949 270.386 35.97 268.28 35.8773C269.816 34.6354 271.128 33.1406 272.16 31.4573C271.384 29.9017 271.094 28.1487 271.327 26.4259C271.56 24.7032 272.305 23.0902 273.466 21.7964C274.627 20.5027 276.151 19.5878 277.838 19.1707C279.526 18.7536 281.3 18.8534 282.93 19.4573C283.552 19.6905 284.146 19.9924 284.7 20.3573C285.732 17.0649 286.058 13.5922 285.659 10.1652C285.259 6.73827 284.142 3.43391 282.38 0.4673C284.555 0.086452 286.792 0.550261 288.636 1.76395C290.48 2.97764 291.79 4.8496 292.3 6.9973C292.737 5.69076 292.857 4.29926 292.65 2.9373H292.75C294.625 3.63473 296.201 4.9581 297.212 6.68365C298.223 8.4092 298.608 10.431 298.3 12.4073C298.743 11.789 299.106 11.1169 299.38 10.4073C299.568 9.89447 299.708 9.36562 299.8 8.8273C301.221 9.94507 302.258 11.4787 302.765 13.2141C303.273 14.9495 303.225 16.8 302.63 18.5073C305.953 16.4659 308.492 13.3664 309.84 9.7073C310.085 9.05407 310.289 8.38609 310.45 7.7073C311.448 12.308 311.101 17.0986 309.45 21.5073" fill="#1DA1F2"/>
<path d="M274.25 39.8472H272.25V35.3372L273.71 34.4272C273.873 34.6478 274.004 34.8902 274.1 35.1472C274.173 35.3921 274.223 35.6432 274.25 35.8972V39.8472Z" fill="#1062AA"/>
</svg>
