<svg width="312" height="203" viewBox="0 0 312 203" fill="none" xmlns="http://www.w3.org/2000/svg">
<path d="M76.1499 92.8711C76.1499 89.0255 74.6222 85.3373 71.9029 82.618C69.1837 79.8988 65.4955 78.3711 61.6499 78.3711C57.8043 78.3711 54.1161 79.8988 51.3969 82.618C48.6776 85.3373 47.1499 89.0255 47.1499 92.8711C47.1492 95.0518 47.6487 97.2036 48.6099 99.1611L48.6999 99.3111C48.7599 99.4211 48.7999 99.5311 48.8499 99.6411H48.8999L61.6699 120.321L74.7099 99.1611C75.6556 97.199 76.1478 95.0492 76.1499 92.8711Z" fill="white" stroke="#333333" stroke-width="2" stroke-linecap="round" stroke-linejoin="round"/>
<path d="M63.37 99.341C66.4849 99.341 69.01 96.8159 69.01 93.701C69.01 90.5861 66.4849 88.061 63.37 88.061C60.2551 88.061 57.73 90.5861 57.73 93.701C57.73 96.8159 60.2551 99.341 63.37 99.341Z" fill="#FB3800"/>
<path d="M61.6498 97.9807C64.7647 97.9807 67.2898 95.4556 67.2898 92.3407C67.2898 89.2258 64.7647 86.7007 61.6498 86.7007C58.5349 86.7007 56.0098 89.2258 56.0098 92.3407C56.0098 95.4556 58.5349 97.9807 61.6498 97.9807Z" stroke="#333333" stroke-width="2" stroke-linecap="round" stroke-linejoin="round"/>
<path d="M310.82 200.851C296 130.861 234.15 78.3809 160.15 78.3809C86.1502 78.3809 24.3302 130.861 9.47021 200.851H310.82Z" fill="#00ADEE"/>
<path d="M312 201.051C298.57 137.681 246.8 88.6609 182.4 79.9609L182.35 80.9609C182.49 84.8009 187.15 87.8609 190.54 86.0509L190.48 91.7609C194.37 90.5009 198.94 89.3309 202.26 91.7609C205.58 94.1909 203.99 101.451 200.04 100.391C198.37 102.691 199.67 106.041 201.51 108.211C203.35 110.381 205.76 112.211 206.58 114.991C207.4 117.771 205.14 121.521 202.51 120.561C201.726 118.455 200.192 116.713 198.203 115.669C196.213 114.624 193.908 114.351 191.73 114.901C190.02 121.071 195.66 128.101 201.86 127.521C203.21 128.581 202.19 130.871 200.86 131.921C196 135.681 189.19 133.921 183.29 132.481C177.39 131.041 170.06 130.421 166.35 135.381C163.66 138.991 163.8 144.601 160.25 147.301C158.45 148.671 156.1 148.941 153.95 149.571C148.95 151.031 144.42 155.271 144.01 160.571C143.6 165.871 148.79 171.331 153.74 169.751C153.551 174.02 151.695 178.045 148.57 180.961C146.66 182.711 144.03 183.961 141.57 183.251C137.92 182.131 136.79 177.501 135.86 173.691C134.93 169.881 132.47 165.371 128.69 165.901C124.36 166.501 123.69 172.631 124.21 177.111L113.81 177.311C110.91 183.531 115.56 190.441 119.23 196.201C120.193 197.713 120.994 199.322 121.62 201.001L312 201.051Z" fill="#8CC63F"/>
<path d="M11.3999 169.831C23.0199 142.461 45.3999 121.001 69.6799 103.831C71.8804 102.207 74.1928 100.74 76.5999 99.4409C80.1687 97.7857 83.8434 96.3693 87.5999 95.2009C93.7497 93.0159 99.6931 90.2885 105.36 87.0509C112.49 82.9809 121.23 82.0509 129.36 81.2109C128.719 83.2183 128.661 85.3662 129.192 87.4053C129.723 89.4443 130.822 91.291 132.36 92.7309C135.08 95.1809 138.91 96.1509 141.56 98.6809C146.38 103.271 145.56 111.681 141.35 116.871C137.14 122.061 130.71 124.771 124.35 126.871C111.679 131.12 98.552 133.866 85.2399 135.051C84.5464 135.166 83.8354 135.107 83.1699 134.881C81.8699 134.331 81.4499 132.671 81.5399 131.251C81.7999 127.451 84.5399 124.251 85.5399 120.621C85.7601 120.076 85.7601 119.466 85.5399 118.921C85.3378 118.587 85.0423 118.319 84.6899 118.151C82.3399 116.861 79.3199 117.461 77.0999 118.951C74.9725 120.584 73.1596 122.59 71.7499 124.871C65.7499 133.441 59.6499 142.071 55.2599 151.591C53.4499 155.501 51.8299 159.711 48.5799 162.591C43.3599 167.131 35.4999 166.811 28.8299 165.021C25.5499 164.141 22.2099 162.961 18.8299 163.491C15.4499 164.021 12.7399 166.741 11.3999 169.831Z" fill="#8CC63F"/>
<path d="M1 201.051C16.28 131.051 79.83 78.5811 155.91 78.5811C231.99 78.5811 295.55 131.051 310.82 201.051" stroke="#333333" stroke-width="2" stroke-linecap="round" stroke-linejoin="round"/>
<path d="M130.17 81.0508C129.865 83.6721 130.206 86.3282 131.163 88.7876C132.12 91.2469 133.664 93.4349 135.66 95.1608C138.07 97.1608 141.12 98.5408 143.03 101.061C146.52 105.681 144.74 112.701 140.65 116.821C136.56 120.941 130.83 122.821 125.32 124.621L90.3902 135.931C87.8602 136.741 85.2002 137.571 82.5902 137.051C79.9802 136.531 77.5302 134.181 77.9102 131.551C78.2902 128.921 81.0302 127.451 83.0502 125.701C85.0702 123.951 86.2702 120.281 83.9502 118.971C82.1202 117.971 79.9502 119.491 78.4902 120.971C73.0689 126.584 68.5911 133.038 65.2302 140.081C61.6902 147.501 59.3602 155.611 54.3302 162.081C49.3002 168.551 40.3302 173.081 32.8202 169.811C30.2002 168.671 28.0002 166.691 25.3202 165.681C22.559 164.763 19.5549 164.907 16.8942 166.085C14.2335 167.263 12.1072 169.39 10.9302 172.051" stroke="#333333" stroke-width="2" stroke-linecap="round" stroke-linejoin="round"/>
<path d="M121.63 140.441C121.98 137.641 119.09 135.201 116.27 135.271C113.45 135.341 110.97 137.271 109.35 139.581C108.245 140.98 107.68 142.73 107.76 144.511C108.18 148.191 112.93 150.081 116.38 148.751C119.83 147.421 122 143.971 123.38 140.521" fill="#8CC63F"/>
<path d="M172.83 104.841C171.327 103.395 169.5 102.328 167.501 101.73C165.503 101.132 163.391 101.019 161.34 101.401C161.89 104.541 161.98 108.621 159.09 109.981C158.09 110.451 156.88 110.461 155.94 111.061C155.326 111.449 154.881 112.056 154.695 112.758C154.509 113.461 154.595 114.208 154.937 114.849C155.278 115.491 155.85 115.979 156.537 116.217C157.224 116.455 157.975 116.424 158.64 116.131C159.49 115.761 160.13 114.991 161 114.661C162.82 114.001 164.64 115.461 166.3 116.451C169.038 118.077 172.301 118.575 175.4 117.841C177.27 117.391 179.34 115.901 178.93 114.021C178.52 112.141 176.19 111.671 174.41 111.021C172.63 110.371 171.03 107.821 172.63 106.771" fill="#8CC63F"/>
<path d="M177.09 80.291C176.67 84.431 181.83 87.941 185.52 86.031L185.46 91.741C189.46 90.481 194.19 89.311 197.61 91.741C201.03 94.171 199.39 101.431 195.32 100.371C193.59 102.671 194.94 106.021 196.84 108.191C198.74 110.361 201.23 112.191 202.07 114.971C202.91 117.751 200.58 121.501 197.87 120.541C197.017 118.41 195.419 116.662 193.374 115.621C191.329 114.58 188.975 114.317 186.75 114.881C184.98 121.051 190.8 128.081 197.19 127.501C198.59 128.561 197.54 130.851 196.14 131.901C191.14 135.661 184.14 133.901 178.01 132.461C171.88 131.021 164.35 130.401 160.53 135.361C157.75 138.971 157.89 144.581 154.23 147.281C152.37 148.651 149.95 148.921 147.73 149.551C142.59 151.011 137.9 155.251 137.47 160.551C137.04 165.851 142.4 171.311 147.47 169.731C147.365 171.86 146.839 173.946 145.922 175.87C145.005 177.795 143.717 179.518 142.13 180.941C140.13 182.691 137.45 183.941 134.93 183.231C131.15 182.111 129.99 177.481 129.03 173.671C128.07 169.861 125.54 165.351 121.64 165.881C117.17 166.481 116.49 172.611 117.01 177.091L106.28 177.291C103.28 183.511 108.08 190.421 111.87 196.181C112.863 197.688 113.691 199.297 114.34 200.981" stroke="#333333" stroke-width="2" stroke-linecap="round" stroke-linejoin="round"/>
<path d="M119 140.441C119.35 137.641 116.45 135.201 113.63 135.271C110.81 135.341 108.33 137.271 106.72 139.581C105.608 140.977 105.04 142.728 105.12 144.511C105.54 148.191 110.3 150.081 113.75 148.751C117.2 147.421 119.37 143.971 120.75 140.521" stroke="#333333" stroke-width="2" stroke-linecap="round" stroke-linejoin="round"/>
<path d="M169.54 104.841C168.038 103.395 166.213 102.329 164.216 101.731C162.22 101.133 160.109 101.019 158.06 101.401C158.6 104.541 158.69 108.621 155.8 109.981C154.8 110.451 153.59 110.461 152.65 111.061C152.036 111.449 151.591 112.055 151.405 112.758C151.219 113.46 151.305 114.207 151.647 114.849C151.988 115.491 152.56 115.979 153.247 116.217C153.934 116.455 154.685 116.424 155.35 116.131C156.2 115.761 156.84 114.991 157.71 114.661C159.53 114.001 161.35 115.461 163.01 116.451C165.748 118.076 169.011 118.575 172.11 117.841C173.98 117.391 176.05 115.901 175.65 114.021C175.25 112.141 172.9 111.671 171.12 111.021C169.34 110.371 167.74 107.821 169.34 106.771" stroke="#333333" stroke-width="2" stroke-linecap="round" stroke-linejoin="round"/>
<path d="M228.85 167.051C227.27 168.181 226.34 169.971 225.24 171.561C224.24 172.971 223.1 174.351 222.82 176.041C222.54 177.731 223.68 179.791 225.39 179.701C226.39 179.701 227.57 179.021 228.15 179.801C228.344 180.14 228.422 180.534 228.37 180.921L228.22 186.921C228.22 188.591 228.31 190.591 229.75 191.431C230.43 191.831 231.32 191.891 231.88 192.431C232.74 193.281 232.36 194.731 231.82 195.821C231.28 196.911 230.65 198.161 231.17 199.261C231.69 200.361 233.17 200.671 234.38 200.821C236.8 201.111 239.47 201.331 241.43 199.891C242.296 199.15 242.959 198.202 243.36 197.136C243.76 196.069 243.884 194.918 243.72 193.791C243.553 192.233 243.044 190.73 242.227 189.392C241.411 188.054 240.309 186.913 239 186.051C237.59 185.141 235.89 184.491 235 183.051C233.61 180.801 234.93 177.911 234.79 175.281C234.8 174.974 234.708 174.672 234.53 174.421C233.81 173.601 231.75 174.511 231.7 173.421C231.713 173.261 231.761 173.105 231.84 172.965C231.92 172.825 232.029 172.704 232.16 172.611C233.61 171.281 235.64 169.561 234.3 167.471C233.19 165.671 230.36 165.961 228.85 167.051Z" fill="#00ADEE"/>
<path d="M191.13 182.101C190.92 183.261 191.35 184.501 190.93 185.591C190.511 186.411 189.905 187.12 189.16 187.661C187.707 189.029 186.594 190.718 185.911 192.594C185.229 194.469 184.996 196.479 185.23 198.461C185.33 199.231 185.75 200.191 186.53 200.111C186.827 200.055 187.1 199.908 187.31 199.691C189.06 198.171 190.36 195.901 192.6 195.331C195.09 194.701 197.47 196.441 199.68 197.751C202.124 199.214 204.81 200.229 207.61 200.751C209.25 201.18 210.987 201.057 212.55 200.401C213.585 199.794 214.449 198.934 215.06 197.901C216.555 195.612 217.405 192.962 217.52 190.231C217.591 189.614 217.484 188.989 217.21 188.431C216.933 187.992 216.533 187.644 216.06 187.431C213.43 186.141 210.29 187.381 207.69 188.751C205.09 190.121 202.22 191.651 199.37 190.921C199.018 190.857 198.698 190.678 198.46 190.411C198.253 190.072 198.162 189.676 198.2 189.281C198.2 187.041 198.89 183.441 197.49 181.491C195.88 179.251 191.78 178.651 191.13 182.101Z" fill="#00ADEE"/>
<path d="M172.67 140.751C171.509 141.022 170.441 141.599 169.578 142.422C168.715 143.245 168.087 144.284 167.76 145.431C167.395 147.273 167.426 149.171 167.85 151.001L170.62 168.211C168.07 167.731 165.47 169.211 163.89 171.281C162.436 173.442 161.392 175.852 160.81 178.391C161.391 178.98 162.154 179.354 162.976 179.452C163.797 179.55 164.627 179.366 165.33 178.931C167.33 177.621 167.86 174.421 170.17 173.811C172.48 173.201 174.34 175.431 176.59 175.581C177.374 175.64 178.156 175.441 178.818 175.016C179.479 174.591 179.984 173.962 180.257 173.224C180.529 172.487 180.554 171.68 180.327 170.927C180.1 170.174 179.634 169.516 179 169.051C179.56 167.201 182.41 167.511 183.79 166.161C184.167 165.789 184.413 165.305 184.491 164.781C184.568 164.258 184.474 163.723 184.221 163.258C183.968 162.793 183.571 162.422 183.089 162.203C182.607 161.983 182.067 161.926 181.55 162.041C181.61 161.041 182.66 160.311 183.66 160.041C184.679 159.921 185.683 159.703 186.66 159.391C187.365 159.048 187.933 158.477 188.274 157.772C188.615 157.066 188.709 156.266 188.54 155.501C188.265 154.673 187.755 153.943 187.074 153.398C186.393 152.853 185.568 152.517 184.7 152.431C182.959 152.277 181.206 152.531 179.58 153.171C179.36 148.131 181 138.881 172.67 140.751Z" fill="#00ADEE"/>
<path d="M122.22 71.9008C122.231 69.7162 121.748 67.5574 120.807 65.5857C119.866 63.614 118.492 61.8803 116.787 60.5142C115.083 59.1482 113.091 58.1849 110.962 57.6966C108.832 57.2082 106.62 57.2073 104.491 57.6939C102.361 58.1805 100.369 59.142 98.6626 60.5067C96.9566 61.8713 95.5811 63.6038 94.6387 65.5747C93.6963 67.5456 93.2114 69.704 93.2203 71.8886C93.2292 74.0732 93.7316 76.2276 94.69 78.1908L94.78 78.3408C94.84 78.4508 94.88 78.5608 94.93 78.6708H95L107.72 99.3508L120.79 78.1908C121.732 76.2278 122.221 74.0781 122.22 71.9008Z" fill="white" stroke="#333333" stroke-width="2" stroke-linecap="round" stroke-linejoin="round"/>
<path d="M109.45 78.3708C112.565 78.3708 115.09 75.8457 115.09 72.7308C115.09 69.6159 112.565 67.0908 109.45 67.0908C106.335 67.0908 103.81 69.6159 103.81 72.7308C103.81 75.8457 106.335 78.3708 109.45 78.3708Z" fill="#FB3800"/>
<path d="M107.72 77.011C110.835 77.011 113.36 74.4858 113.36 71.371C113.36 68.2561 110.835 65.731 107.72 65.731C104.605 65.731 102.08 68.2561 102.08 71.371C102.08 74.4858 104.605 77.011 107.72 77.011Z" stroke="#333333" stroke-width="2" stroke-linecap="round" stroke-linejoin="round"/>
<path d="M241.42 15.5409C241.426 13.3585 240.939 11.2029 239.996 9.23473C239.053 7.26658 237.678 5.53667 235.974 4.17399C234.269 2.8113 232.279 1.85098 230.151 1.36464C228.024 0.87829 225.814 0.878456 223.686 1.36513C221.559 1.85179 219.569 2.81241 217.864 4.17535C216.16 5.5383 214.785 7.26841 213.842 9.23671C212.9 11.205 212.414 13.3607 212.42 15.5431C212.426 17.7255 212.926 19.8782 213.88 21.8409L213.97 21.9809C214.014 22.0935 214.064 22.2037 214.12 22.3109H214.17L226.94 42.9909L240 21.8409C240.942 19.8748 241.428 17.7211 241.42 15.5409Z" fill="white" stroke="#333333" stroke-width="2" stroke-linecap="round" stroke-linejoin="round"/>
<path d="M228.64 22.0207C231.755 22.0207 234.28 19.4956 234.28 16.3807C234.28 13.2658 231.755 10.7407 228.64 10.7407C225.525 10.7407 223 13.2658 223 16.3807C223 19.4956 225.525 22.0207 228.64 22.0207Z" fill="#FB3800"/>
<path d="M226.92 20.6511C230.035 20.6511 232.56 18.126 232.56 15.0111C232.56 11.8962 230.035 9.37109 226.92 9.37109C223.805 9.37109 221.28 11.8962 221.28 15.0111C221.28 18.126 223.805 20.6511 226.92 20.6511Z" stroke="#333333" stroke-width="2" stroke-linecap="round" stroke-linejoin="round"/>
<path d="M163.52 167.951C163.52 164.105 161.992 160.417 159.273 157.698C156.554 154.978 152.866 153.451 149.02 153.451C145.174 153.451 141.486 154.978 138.767 157.698C136.048 160.417 134.52 164.105 134.52 167.951C134.519 170.131 135.019 172.283 135.98 174.241L136.07 174.391C136.13 174.501 136.17 174.611 136.22 174.721H136.27L149 195.401L162.06 174.251C163.012 172.286 163.511 170.133 163.52 167.951Z" fill="white" stroke="#333333" stroke-width="2" stroke-linecap="round" stroke-linejoin="round"/>
<path d="M150.74 174.421C153.855 174.421 156.38 171.896 156.38 168.781C156.38 165.666 153.855 163.141 150.74 163.141C147.625 163.141 145.1 165.666 145.1 168.781C145.1 171.896 147.625 174.421 150.74 174.421Z" fill="#FB3800"/>
<path d="M149.02 173.061C152.135 173.061 154.66 170.536 154.66 167.421C154.66 164.306 152.135 161.781 149.02 161.781C145.905 161.781 143.38 164.306 143.38 167.421C143.38 170.536 145.905 173.061 149.02 173.061Z" stroke="#333333" stroke-width="2" stroke-linecap="round" stroke-linejoin="round"/>
<path d="M41.8598 127.591C41.866 125.408 41.3794 123.253 40.4364 121.285C39.4934 119.316 38.1183 117.586 36.4137 116.224C34.709 114.861 32.7187 113.901 30.5912 113.414C28.4637 112.928 26.2538 112.928 24.1264 113.415C21.999 113.902 20.0088 114.862 18.3043 116.225C16.5999 117.588 15.225 119.318 14.2824 121.287C13.3397 123.255 12.8534 125.411 12.8599 127.593C12.8664 129.775 13.3654 131.928 14.3198 133.891L14.4098 134.031C14.4098 134.141 14.4998 134.251 14.5598 134.361H14.6098L27.3598 155.051L40.4198 133.901C41.3704 131.933 41.8627 129.776 41.8598 127.591Z" fill="white" stroke="#333333" stroke-width="2" stroke-linecap="round" stroke-linejoin="round"/>
<path d="M29.0799 134.061C32.1948 134.061 34.7199 131.536 34.7199 128.421C34.7199 125.306 32.1948 122.781 29.0799 122.781C25.9651 122.781 23.4399 125.306 23.4399 128.421C23.4399 131.536 25.9651 134.061 29.0799 134.061Z" fill="#FB3800"/>
<path d="M27.3602 132.701C30.4751 132.701 33.0002 130.176 33.0002 127.061C33.0002 123.946 30.4751 121.421 27.3602 121.421C24.2453 121.421 21.7202 123.946 21.7202 127.061C21.7202 130.176 24.2453 132.701 27.3602 132.701Z" stroke="#333333" stroke-width="2" stroke-linecap="round" stroke-linejoin="round"/>
<path d="M310.67 159.701C310.68 157.516 310.197 155.358 309.257 153.386C308.316 151.414 306.942 149.681 305.237 148.315C303.532 146.948 301.541 145.985 299.411 145.497C297.282 145.008 295.07 145.008 292.94 145.494C290.81 145.981 288.818 146.942 287.112 148.307C285.406 149.672 284.031 151.404 283.088 153.375C282.146 155.346 281.661 157.504 281.67 159.689C281.679 161.874 282.181 164.028 283.14 165.991L283.23 166.141C283.28 166.241 283.32 166.361 283.37 166.461H283.43L296.2 187.141L309.26 165.991C310.199 164.028 310.681 161.877 310.67 159.701Z" fill="white" stroke="#333333" stroke-width="2" stroke-linecap="round" stroke-linejoin="round"/>
<path d="M297.9 166.171C301.015 166.171 303.54 163.646 303.54 160.531C303.54 157.416 301.015 154.891 297.9 154.891C294.785 154.891 292.26 157.416 292.26 160.531C292.26 163.646 294.785 166.171 297.9 166.171Z" fill="#FB3800"/>
<path d="M296.18 164.801C299.295 164.801 301.82 162.276 301.82 159.161C301.82 156.046 299.295 153.521 296.18 153.521C293.065 153.521 290.54 156.046 290.54 159.161C290.54 162.276 293.065 164.801 296.18 164.801Z" stroke="#333333" stroke-width="2" stroke-linecap="round" stroke-linejoin="round"/>
<path d="M273.35 105.361C273.361 103.176 272.878 101.017 271.937 99.0456C270.996 97.0739 269.622 95.3403 267.917 93.9742C266.212 92.6081 264.221 91.6449 262.092 91.1565C259.962 90.6681 257.75 90.6672 255.62 91.1538C253.491 91.6404 251.498 92.602 249.792 93.9666C248.086 95.3313 246.711 97.0638 245.769 99.0347C244.826 101.006 244.341 103.164 244.35 105.349C244.359 107.533 244.862 109.688 245.82 111.651L245.91 111.801L246.05 112.131H246.11L258.88 132.811L271.94 111.651C272.88 109.688 273.362 107.537 273.35 105.361Z" fill="white" stroke="#333333" stroke-width="2" stroke-linecap="round" stroke-linejoin="round"/>
<path d="M260.58 111.831C263.695 111.831 266.22 109.306 266.22 106.191C266.22 103.076 263.695 100.551 260.58 100.551C257.465 100.551 254.94 103.076 254.94 106.191C254.94 109.306 257.465 111.831 260.58 111.831Z" fill="#FB3800"/>
<path d="M258.86 110.471C261.975 110.471 264.5 107.946 264.5 104.831C264.5 101.716 261.975 99.1909 258.86 99.1909C255.745 99.1909 253.22 101.716 253.22 104.831C253.22 107.946 255.745 110.471 258.86 110.471Z" stroke="#333333" stroke-width="2" stroke-linecap="round" stroke-linejoin="round"/>
<path d="M211.83 118.051C211.841 115.866 211.358 113.707 210.417 111.736C209.476 109.764 208.102 108.03 206.397 106.664C204.692 105.298 202.701 104.335 200.572 103.846C198.442 103.358 196.23 103.357 194.1 103.844C191.971 104.33 189.978 105.292 188.272 106.657C186.566 108.021 185.191 109.754 184.249 111.725C183.306 113.696 182.821 115.854 182.83 118.039C182.839 120.223 183.342 122.377 184.3 124.341L184.39 124.491C184.39 124.591 184.48 124.711 184.54 124.811L197.31 145.491L210.37 124.341C211.326 122.381 211.825 120.231 211.83 118.051Z" fill="white" stroke="#333333" stroke-width="2" stroke-linecap="round" stroke-linejoin="round"/>
<path d="M199.06 124.491C202.175 124.491 204.7 121.966 204.7 118.851C204.7 115.736 202.175 113.211 199.06 113.211C195.945 113.211 193.42 115.736 193.42 118.851C193.42 121.966 195.945 124.491 199.06 124.491Z" fill="#FB3800"/>
<path d="M197.34 123.121C200.455 123.121 202.98 120.596 202.98 117.481C202.98 114.366 200.455 111.841 197.34 111.841C194.225 111.841 191.7 114.366 191.7 117.481C191.7 120.596 194.225 123.121 197.34 123.121Z" stroke="#333333" stroke-width="2" stroke-linecap="round" stroke-linejoin="round"/>
</svg>
