<svg width="39" height="39" viewBox="0 0 39 39" fill="none" xmlns="http://www.w3.org/2000/svg">
<path d="M18.0313 6.7208C18.63 4.87818 21.2368 4.87818 21.8355 6.7208L23.7651 12.6595C24.0328 13.4835 24.8007 14.0414 25.6672 14.0414H31.9115C33.8489 14.0414 34.6545 16.5207 33.087 17.6595L28.0353 21.3298C27.3343 21.8391 27.041 22.7418 27.3088 23.5658L29.2384 29.5045C29.8371 31.3471 27.7281 32.8794 26.1607 31.7406L21.1089 28.0703C20.408 27.561 19.4588 27.561 18.7578 28.0703L13.7061 31.7406C12.1386 32.8794 10.0297 31.3471 10.6284 29.5045L12.558 23.5658C12.8257 22.7418 12.5324 21.8391 11.8314 21.3298L6.77968 17.6595C5.21225 16.5207 6.01781 14.0414 7.95525 14.0414H14.1995C15.066 14.0414 15.8339 13.4835 16.1017 12.6595L18.0313 6.7208Z" fill="#F7B916"/>
<path d="M20.4933 6.00861L22.4228 11.9473C22.7575 12.9773 23.7174 13.6747 24.8005 13.6747H31.0448C32.4979 13.6747 33.102 15.5342 31.9265 16.3883L26.8747 20.0586C25.9985 20.6952 25.6319 21.8236 25.9665 22.8537L27.8961 28.7923C28.3452 30.1743 26.7634 31.3235 25.5879 30.4694L20.5361 26.7991C19.6599 26.1625 18.4734 26.1625 17.5972 26.7991L12.5455 30.4694C11.3699 31.3235 9.78817 30.1743 10.2372 28.7923L12.1668 22.8537C12.5015 21.8236 12.1348 20.6952 11.2586 20.0586L6.20688 16.3883C5.03131 15.5342 5.63547 13.6747 7.08856 13.6747H13.3329C14.4159 13.6747 15.3758 12.9773 15.7105 11.9473L17.6401 6.00861C18.0891 4.62664 20.0442 4.62664 20.4933 6.00861Z" stroke="#333333"/>
</svg>
