<svg width="311" height="201" viewBox="0 0 311 201" fill="none" xmlns="http://www.w3.org/2000/svg">
<path d="M153.11 84.9199C159.052 76.9285 167.658 71.3271 177.371 69.1284C187.084 66.9297 197.263 68.2789 206.068 72.932C214.873 77.5851 221.723 85.235 225.378 94.4986C229.034 103.762 229.254 114.028 226 123.44L212.7 112.23C213.115 107.512 212.246 102.77 210.186 98.5056C208.126 94.2411 204.951 90.6131 200.998 88.0058C197.044 85.3986 192.459 83.909 187.728 83.695C182.997 83.4809 178.296 84.5503 174.123 86.7899C169.95 89.0295 166.46 92.3559 164.023 96.4169C161.587 100.478 160.294 105.122 160.281 109.858C160.268 114.594 161.537 119.245 163.952 123.319C166.367 127.393 169.839 130.738 174 133L179.78 151.08C174.114 150.145 168.702 148.053 163.881 144.933C159.06 141.813 154.934 137.733 151.76 132.947C148.586 128.161 146.433 122.773 145.435 117.118C144.438 111.463 144.616 105.663 145.96 100.08L144 99.2499L47.1398 54.9999C45.1549 54.0855 43.6126 52.4226 42.85 50.3746C42.0873 48.3265 42.1664 46.0599 43.0698 44.0699C43.9842 42.085 45.6471 40.5427 47.6952 39.7801C49.7432 39.0175 52.0098 39.0965 53.9998 39.9999L64.5598 44.8199L65.5598 42.6699L73.3198 25.3199C74.2324 23.3332 75.8945 21.7887 77.9427 21.0242C79.991 20.2596 82.2586 20.3372 84.2498 21.2399C86.2329 22.1564 87.7734 23.8194 88.5358 25.8667C89.2981 27.914 89.2205 30.1796 88.3198 32.1699L80.5198 49.5299L79.6698 51.7199L88.9998 55.9999L89.8498 54.0799L97.6998 36.5299C98.6103 34.5414 100.272 32.9951 102.321 32.2303C104.37 31.4654 106.639 31.5444 108.63 32.4499C110.615 33.3644 112.157 35.0273 112.92 37.0753C113.682 39.1233 113.603 41.39 112.7 43.3799L104.86 60.9199L104 62.8299L151.2 84.3899L153.11 84.9199Z" fill="#F7B916"/>
<path d="M175.85 151.1C170.184 150.166 164.772 148.073 159.951 144.953C155.13 141.833 151.004 137.753 147.83 132.967C144.657 128.182 142.504 122.793 141.506 117.138C140.508 111.483 140.686 105.683 142.03 100.1" stroke="#333333" stroke-width="2" stroke-linecap="round" stroke-linejoin="round"/>
<path d="M149.19 84.9198C155.156 76.9949 163.751 71.4558 173.433 69.2966C183.115 67.1374 193.249 68.4993 202.017 73.1381C210.786 77.7769 217.614 85.3888 221.276 94.6076C224.938 103.826 225.195 114.049 222 123.44" stroke="#333333" stroke-width="2" stroke-linecap="round" stroke-linejoin="round"/>
<path d="M170.07 133C165.903 130.744 162.424 127.404 160.002 123.332C157.58 119.26 156.305 114.608 156.311 109.87C156.318 105.132 157.606 100.484 160.039 96.4191C162.473 92.3538 165.961 89.0226 170.134 86.7786C174.307 84.5346 179.009 83.4613 183.742 83.6726C188.475 83.8839 193.063 85.3718 197.019 87.9786C200.976 90.5855 204.153 94.2142 206.215 98.4801C208.276 102.746 209.145 107.49 208.73 112.21" stroke="#333333" stroke-width="2" stroke-linecap="round" stroke-linejoin="round"/>
<path d="M60.6401 44.82L50.0801 40C48.0902 39.0965 45.8235 39.0175 43.7755 39.7801C41.7274 40.5428 40.0645 42.085 39.1501 44.07V44.07C38.2473 46.0611 38.1697 48.3288 38.9343 50.377C39.6989 52.4252 41.2434 54.0874 43.2301 55L142 100.13" stroke="#333333" stroke-width="2" stroke-linecap="round" stroke-linejoin="round"/>
<path d="M85.05 56.0002L75.75 51.7202" stroke="#333333" stroke-width="2" stroke-linecap="round" stroke-linejoin="round"/>
<path d="M149 85.1801L100.06 62.8301" stroke="#333333" stroke-width="2" stroke-linecap="round" stroke-linejoin="round"/>
<path d="M75.6802 51.5799L84.3602 32.1699C85.2609 30.1796 85.3385 27.914 84.5762 25.8667C83.8138 23.8194 82.2733 22.1564 80.2902 21.2399V21.2399C78.299 20.3372 76.0313 20.2596 73.9831 21.0242C71.9349 21.7887 70.2727 23.3332 69.3602 25.3199L60.6602 44.7899" stroke="#333333" stroke-width="2" stroke-linecap="round" stroke-linejoin="round"/>
<path d="M100.06 62.8302L108.75 43.3802C109.653 41.3903 109.732 39.1236 108.97 37.0756C108.207 35.0275 106.665 33.3646 104.68 32.4502V32.4502C102.689 31.5447 100.42 31.4657 98.3713 32.2306C96.3223 32.9954 94.6603 34.5417 93.7498 36.5302L85.0498 56.0002" stroke="#333333" stroke-width="2" stroke-linecap="round" stroke-linejoin="round"/>
<path d="M246.28 153.79C233.74 149.24 221.28 144.11 210.34 136.44C199.4 128.77 190.08 118.32 185.76 105.7C184.76 102.8 184.25 99.1199 186.55 97.1099C188.22 95.6499 190.82 95.7499 192.81 96.7399C194.737 97.8598 196.434 99.3361 197.81 101.09C205.09 109.25 213.11 117.22 222.07 123.44C229.506 128.798 237.964 132.569 246.92 134.52C256.08 136.37 267.22 134.99 272.15 127.05C276.64 119.8 273.83 109.85 267.98 103.65C262.13 97.4499 254.2 94.2699 246.4 91.1899" stroke="#333333" stroke-width="2" stroke-linecap="round" stroke-linejoin="round"/>
<path d="M186.25 107.17C184.06 105.17 179.66 104.54 177.09 106.03C174.2 107.71 173.81 111.9 175.54 117.03C178.27 125.21 199.88 158.24 226.26 169.03" stroke="#333333" stroke-width="2" stroke-linecap="round" stroke-linejoin="round"/>
<path d="M178.09 122.58C176.999 122.24 175.836 122.208 174.728 122.487C173.62 122.766 172.61 123.345 171.81 124.16C169.67 126.64 169.64 130.28 170.19 133.51C175.63 165 217.3 215.1 279 194.11C304.91 185.3 310 163.38 310 147.36C310.016 138.129 308.186 128.987 304.617 120.474C301.049 111.96 295.815 104.245 289.223 97.7828C282.63 91.3208 274.813 86.2419 266.229 82.8446C257.645 79.4473 248.469 77.8002 239.24 78.0001" stroke="#333333" stroke-width="2" stroke-linecap="round" stroke-linejoin="round"/>
<path d="M246.59 91.2799C244.06 90.3799 241.14 90.2799 238.68 89.0299C237.418 88.4791 236.293 87.6554 235.387 86.6179C234.481 85.5804 233.816 84.355 233.44 83.0299C233.265 82.4431 233.237 81.8222 233.359 81.2221C233.481 80.622 233.749 80.0613 234.14 79.5898C234.798 79.0284 235.568 78.6157 236.4 78.3798C237.467 78.0821 238.573 77.9473 239.68 77.9799" stroke="#333333" stroke-width="2" stroke-linecap="round" stroke-linejoin="round"/>
<path d="M26.75 26.75C26.75 19.6555 23.9317 12.8515 18.9151 7.83489C13.8985 2.8183 7.09454 0 0 0V139.77H25.19L9.43 51.77C14.5174 49.8536 18.9 46.4326 21.9943 41.9627C25.0885 37.4929 26.7474 32.1863 26.75 26.75Z" fill="#333333"/>
<path d="M157.15 103.37C166.98 101.31 175.38 101.99 179.35 105.29" stroke="#333333" stroke-width="2" stroke-linecap="round" stroke-linejoin="round"/>
<path d="M125.14 119.9C128.71 116.02 134.14 112.13 140.86 108.9" stroke="#333333" stroke-width="2" stroke-linecap="round" stroke-linejoin="round"/>
<path d="M171.69 124.3L169.89 125.62C165.613 128.463 161.027 130.812 156.22 132.62C139.56 139.05 123.81 138.43 121.04 131.24C120.735 130.436 120.592 129.579 120.62 128.72" stroke="#333333" stroke-width="2" stroke-linecap="round" stroke-linejoin="round"/>
<path d="M94.3499 141.42L94.0999 141C92.5277 138.234 92.1186 134.956 92.9625 131.888C93.8063 128.82 95.8341 126.213 98.5999 124.64L110.6 117.83C113.366 116.258 116.644 115.849 119.712 116.692C122.78 117.536 125.387 119.564 126.96 122.33L133.78 134.33C135.352 137.096 135.761 140.374 134.917 143.442C134.073 146.51 132.046 149.117 129.28 150.69L117.28 157.5C114.514 159.072 111.236 159.481 108.168 158.637C105.1 157.793 102.493 155.766 100.92 153L100.52 152.31" stroke="#333333" stroke-width="2" stroke-linecap="round" stroke-linejoin="round"/>
<path d="M121.87 140.12C122.611 139.731 123.266 139.196 123.796 138.548C124.327 137.901 124.721 137.153 124.956 136.349C125.191 135.546 125.262 134.703 125.165 133.872C125.068 133.041 124.805 132.237 124.391 131.51C123.976 130.782 123.42 130.145 122.755 129.637C122.09 129.129 121.329 128.76 120.518 128.552C119.707 128.344 118.863 128.301 118.035 128.426C117.207 128.552 116.413 128.842 115.7 129.28L121.87 140.12Z" stroke="#333333" stroke-width="2" stroke-linecap="round" stroke-linejoin="round"/>
<path d="M70.0599 162.41L97.4399 146.84L100.52 152.27L74.12 167.27C72.6815 168.083 70.9799 168.293 69.3871 167.854C67.7943 167.416 66.4398 166.364 65.62 164.93C64.8047 163.492 64.5932 161.79 65.0319 160.196C65.4706 158.603 66.5237 157.248 67.9599 156.43L94.3499 141.43" stroke="#333333" stroke-width="2" stroke-linecap="round" stroke-linejoin="round"/>
</svg>
