<svg width="352" height="232" viewBox="0 0 352 232" fill="none" xmlns="http://www.w3.org/2000/svg">
<g clip-path="url(#clip0)">
<path d="M3.9 219.8H0V227.7C0 229.9 1.8 231.6 3.9 231.6V219.8Z" fill="#EBF0FF"/>
<path d="M351.3 219.6H347.4V231.6C349.6 231.6 351.3 229.8 351.3 227.7V219.6Z" fill="#EBF0FF"/>
<path d="M231.7 49.8L244.2 85.6L258.9 75.8001L231.7 49.8Z" stroke="#1A59A3" stroke-miterlimit="10" stroke-linecap="round" stroke-linejoin="round"/>
<path d="M231.7 49.8L263.9 72.1L273.1 66.2L231.7 49.8Z" stroke="#1A59A3" stroke-miterlimit="10" stroke-linecap="round" stroke-linejoin="round"/>
<path d="M263.9 72.1L255.3 85.3001L258.9 75.8001L231.7 49.8L263.9 72.1Z" stroke="#1A59A3" stroke-miterlimit="10" stroke-linecap="round" stroke-linejoin="round"/>
<path d="M258.9 75.8L255.3 85.3L251.5 80.7L258.9 75.8Z" stroke="#1A59A3" stroke-miterlimit="10" stroke-linecap="round" stroke-linejoin="round"/>
<path d="M315.4 175.3C315.2 175.1 315.1 174.8 315.3 174.6L315.5 174.3C315.7 174.1 316 174.1 316.2 174.2C316.4 174.4 316.4 174.7 316.3 174.9L316.1 175.2C315.9 175.5 315.6 175.5 315.4 175.3ZM317.4 172.6C317.2 172.4 317.1 172.2 317.3 171.9C317.8 171.1 318.2 170.2 318.6 169.3C318.7 169 319 168.9 319.3 169C319.6 169.1 319.7 169.4 319.6 169.6C319.2 170.6 318.7 171.5 318.2 172.3C318 172.7 317.7 172.8 317.4 172.6C317.4 172.7 317.4 172.6 317.4 172.6ZM319.7 167.1C319.5 167 319.5 166.8 319.5 166.6C319.7 165.7 319.9 164.7 320.1 163.7C320.1 163.4 320.4 163.2 320.7 163.3C321 163.3 321.2 163.6 321.1 163.9C321 164.9 320.8 165.9 320.5 166.9C320.4 167.2 320.2 167.3 319.9 167.3C319.8 167.2 319.7 167.2 319.7 167.1ZM320.5 161.2C320.4 161.1 320.3 161 320.3 160.8C320.3 159.8 320.3 158.9 320.2 157.9C320.2 157.6 320.4 157.4 320.7 157.4C321 157.4 321.2 157.6 321.2 157.9C321.3 158.9 321.3 159.9 321.3 160.9C321.3 161.2 321.1 161.4 320.8 161.4C320.7 161.3 320.6 161.3 320.5 161.2ZM320 155.3C319.9 155.2 319.8 155.1 319.8 155C319.6 154 319.4 153.1 319.1 152.1C319 151.8 319.2 151.6 319.4 151.5C319.7 151.4 319.9 151.6 320 151.8C320.3 152.8 320.5 153.8 320.7 154.8C320.7 155.1 320.6 155.3 320.3 155.4C320.2 155.4 320.1 155.4 320 155.3ZM318.4 149.5C318.3 149.4 318.3 149.4 318.2 149.3C317.9 148.4 317.5 147.5 317.1 146.6C317 146.4 317.1 146.1 317.3 145.9C317.5 145.8 317.8 145.9 318 146.1C318.4 147 318.8 148 319.2 148.9C319.3 149.2 319.2 149.4 318.9 149.5C318.7 149.7 318.5 149.6 318.4 149.5ZM271.9 112.1C271.2 111.6 270.5 111 269.8 110.4C269.6 110.2 269.6 109.9 269.8 109.7C270 109.5 270.3 109.5 270.5 109.7C271.2 110.3 271.9 110.9 272.6 111.4L272.8 111.6C273 111.8 273.1 112.1 272.9 112.3C272.7 112.5 272.4 112.6 272.2 112.4L271.9 112.1ZM274.6 114C274.4 113.8 274.3 113.6 274.5 113.3C274.6 113.1 275 113 275.2 113.1C276 113.6 276.9 114.1 277.8 114.6C278 114.7 278.1 115 278 115.3C277.9 115.5 277.6 115.6 277.3 115.5C276.4 115.1 275.5 114.6 274.6 114ZM267.6 108.4C266.8 107.6 266.2 106.9 265.5 106.1C265.3 105.9 265.3 105.6 265.5 105.4C265.7 105.2 266 105.2 266.2 105.4C266.8 106.1 267.5 106.9 268.2 107.6C268.4 107.8 268.4 108.1 268.2 108.3C268.1 108.5 267.8 108.5 267.6 108.4ZM315.9 144.1C315.8 144.1 315.8 144 315.8 143.9C315.3 143.1 314.8 142.2 314.3 141.3C314.2 141.1 314.2 140.8 314.5 140.6C314.7 140.5 315 140.5 315.2 140.8C315.7 141.7 316.2 142.6 316.7 143.4C316.8 143.6 316.7 143.9 316.5 144.1C316.2 144.3 316 144.2 315.9 144.1ZM279.9 116.7C279.7 116.6 279.7 116.3 279.7 116.1C279.8 115.8 280.1 115.7 280.3 115.8L280.6 115.9C281.4 116.2 282.2 116.5 283.1 116.7C283.4 116.8 283.5 117.1 283.4 117.3C283.3 117.6 283 117.7 282.8 117.6C281.9 117.3 281.1 117.1 280.3 116.7L280 116.6C280 116.8 279.9 116.7 279.9 116.7ZM263.7 103.9C263.6 103.9 263.6 103.8 263.7 103.9C263 103 262.4 102.2 261.8 101.4C261.6 101.2 261.7 100.9 261.9 100.7C262.1 100.5 262.4 100.6 262.6 100.8C263.2 101.6 263.7 102.4 264.3 103.2C264.5 103.4 264.4 103.7 264.2 103.9C264.1 104 263.8 104 263.7 103.9ZM312.8 139L312.7 138.9C312.1 138.1 311.6 137.3 311 136.5C310.8 136.3 310.9 136 311.1 135.8C311.3 135.6 311.6 135.7 311.8 135.9C312.4 136.7 313 137.5 313.5 138.4C313.7 138.6 313.6 138.9 313.4 139.1C313.2 139.2 312.9 139.1 312.8 139ZM285.6 118.4C285.5 118.3 285.4 118.1 285.4 117.9C285.5 117.6 285.7 117.5 286 117.5C287 117.7 287.9 117.8 288.9 117.9C289.2 117.9 289.4 118.2 289.3 118.4C289.3 118.7 289 118.9 288.8 118.8C287.8 118.7 286.8 118.5 285.8 118.3C285.7 118.5 285.7 118.5 285.6 118.4ZM260.3 99L260.2 98.9C259.7 98 259.2 97.2 258.7 96.3C258.6 96.1 258.7 95.8 258.9 95.6C259.1 95.5 259.4 95.6 259.6 95.8C260.1 96.7 260.6 97.5 261.1 98.4C261.2 98.6 261.2 98.9 260.9 99.1C260.7 99.1 260.5 99.1 260.3 99ZM309.3 134.2C309.2 134.2 309.2 134.1 309.3 134.2C308.6 133.3 308 132.5 307.4 131.8C307.2 131.6 307.3 131.3 307.5 131.1C307.7 130.9 308 131 308.2 131.2C308.8 132 309.4 132.8 310 133.6C310.2 133.8 310.1 134.1 309.9 134.3C309.7 134.3 309.5 134.3 309.3 134.2ZM257.5 93.7C257.4 93.7 257.4 93.6 257.4 93.5C257 92.6 256.6 91.7 256.2 90.8C256.1 90.5 256.2 90.3 256.5 90.1C256.8 90 257 90.1 257.2 90.4C257.6 91.3 258 92.2 258.4 93.1C258.5 93.3 258.4 93.6 258.2 93.8C257.8 93.9 257.6 93.8 257.5 93.7ZM291.5 119C291.4 118.9 291.3 118.8 291.3 118.6C291.3 118.3 291.5 118.1 291.8 118.1C292.8 118.1 293.8 118.1 294.7 118C295 118 295.2 118.2 295.2 118.5C295.2 118.8 295 119 294.7 119C293.7 119.1 292.7 119.1 291.7 119.1C291.7 119.1 291.6 119.1 291.5 119ZM305.6 129.5C305.5 129.5 305.5 129.4 305.6 129.5L303.6 127.1C303.4 126.9 303.5 126.6 303.7 126.4C303.9 126.2 304.2 126.3 304.4 126.5L306.3 128.8C306.4 128.9 306.4 129 306.4 129C306.4 129.3 306.2 129.5 306 129.6C305.8 129.6 305.7 129.6 305.6 129.5ZM301.8 124.8C301.1 123.9 300.5 123.1 299.9 122.3C299.7 122.1 299.8 121.8 300 121.6C300.2 121.4 300.5 121.5 300.7 121.7C301.3 122.5 301.9 123.3 302.5 124.1C302.7 124.3 302.6 124.6 302.4 124.8C302.3 125 302 125 301.8 124.8ZM298.3 120L298.2 119.9C297.6 119.1 297.1 118.3 296.5 117.4C296.3 117.2 296.4 116.9 296.6 116.7C296.8 116.6 297.1 116.6 297.3 116.8C297.5 117.1 297.7 117.3 297.8 117.6C298.7 117.4 299.7 117.3 300.6 117C300.9 116.9 301.1 117.1 301.2 117.4C301.3 117.7 301.1 117.9 300.8 118C300 118.2 299.2 118.4 298.4 118.5C298.6 118.7 298.7 119 298.9 119.2C299.1 119.4 299 119.7 298.8 119.9C298.7 120.2 298.4 120.2 298.3 120ZM295 115C294.9 115 294.9 114.9 294.9 114.9C294.4 114 293.9 113.1 293.4 112.3C293.3 112.1 293.4 111.8 293.6 111.6C293.8 111.5 294.1 111.6 294.3 111.8C294.7 112.6 295.2 113.5 295.7 114.4C295.8 114.6 295.8 114.9 295.5 115.1C295.4 115.2 295.2 115.2 295 115ZM292.3 109.7C292.2 109.6 292.2 109.6 292.1 109.5C291.9 109 291.7 108.4 291.5 107.9C291.3 107.5 291.2 107.1 291.1 106.7C291 106.4 291.1 106.2 291.4 106.1C291.7 106 291.9 106.1 292 106.4C292.1 106.8 292.3 107.2 292.4 107.6C292.6 108.1 292.8 108.6 293 109.1C293.1 109.4 293 109.6 292.7 109.8C292.6 109.9 292.4 109.8 292.3 109.7ZM303.3 117.2C303.2 117.1 303.2 117.1 303.1 117C303 116.7 303.1 116.5 303.4 116.4C304.3 116.1 305.2 115.7 306.1 115.3C306.3 115.2 306.6 115.3 306.8 115.5C306.9 115.8 306.8 116 306.6 116.2C305.7 116.6 304.7 117 303.8 117.3C303.6 117.3 303.4 117.3 303.3 117.2ZM290.4 104.1C290.3 104 290.2 103.9 290.2 103.8C289.9 102.8 289.7 101.8 289.6 100.8C289.6 100.5 289.7 100.3 290 100.2C290.3 100.1 290.5 100.3 290.6 100.6C290.8 101.6 291 102.5 291.2 103.5C291.3 103.8 291.1 104 290.8 104.1C290.6 104.2 290.5 104.2 290.4 104.1ZM308.7 114.7C308.6 114.7 308.6 114.6 308.6 114.6C308.5 114.4 308.5 114.1 308.8 113.9C309.6 113.4 310.5 112.9 311.3 112.3C311.5 112.1 311.8 112.2 312 112.4C312.2 112.6 312.1 112.9 311.9 113.1C311.1 113.7 310.2 114.2 309.3 114.7C309.1 114.8 308.9 114.8 308.7 114.7ZM289.3 98.2C289.2 98.1 289.1 98 289.1 97.9C289 96.9 288.9 95.9 288.9 94.9C288.9 94.6 289.1 94.4 289.4 94.4C289.7 94.4 289.9 94.6 289.9 94.9C289.9 95.9 290 96.9 290.1 97.8C290.1 98.1 289.9 98.3 289.7 98.3C289.5 98.3 289.4 98.3 289.3 98.2ZM313.6 111.2C313.5 111.2 313.5 111.2 313.6 111.2C313.3 110.9 313.4 110.6 313.6 110.4C314.3 109.8 315.1 109.1 315.7 108.4C315.9 108.2 316.2 108.2 316.4 108.4C316.6 108.6 316.6 108.9 316.4 109.1C315.7 109.8 315 110.5 314.2 111.2C314 111.4 313.7 111.4 313.6 111.2ZM289.1 92.2C289 92.1 288.9 91.9 288.9 91.8C288.9 90.8 289 89.8 289.2 88.8C289.2 88.5 289.5 88.3 289.8 88.4C290.1 88.4 290.3 88.7 290.2 89C290.1 90 290 91 290 91.9C290 92.2 289.8 92.4 289.5 92.4C289.3 92.3 289.2 92.3 289.1 92.2ZM289.8 86.3C289.7 86.2 289.6 86 289.6 85.8C289.8 84.8 290 83.8 290.3 82.9C290.4 82.6 290.6 82.5 290.9 82.6C291.2 82.7 291.3 82.9 291.2 83.2C290.9 84.1 290.7 85.1 290.5 86.1C290.4 86.4 290.2 86.5 289.9 86.5C290 86.4 289.9 86.4 289.8 86.3ZM317.7 106.9C317.5 106.7 317.4 106.4 317.6 106.2C317.8 105.9 318.1 105.6 318.3 105.3C318.7 104.8 319 104.4 319.3 103.9C319.5 103.7 319.8 103.6 320 103.8C320.2 103.9 320.3 104.3 320.1 104.5C319.8 105 319.4 105.5 319 106C318.8 106.3 318.5 106.6 318.3 107C318.2 107.1 317.9 107.1 317.7 106.9ZM291.5 80.6C291.3 80.5 291.3 80.2 291.3 80C291.7 79.1 292.1 78.1 292.5 77.2C292.6 77 292.9 76.9 293.2 77C293.4 77.1 293.5 77.4 293.4 77.7C293 78.6 292.6 79.5 292.2 80.4C292.1 80.7 291.8 80.8 291.6 80.7C291.5 80.6 291.5 80.6 291.5 80.6ZM321.1 102C320.9 101.9 320.8 101.6 321 101.4C321.5 100.5 321.9 99.7 322.3 98.8C322.4 98.5 322.7 98.4 323 98.5C323.3 98.6 323.4 98.9 323.3 99.2C322.9 100.1 322.4 101 322 101.9C321.7 102.1 321.4 102.2 321.1 102ZM294.1 75.2C293.9 75 293.8 74.8 294 74.5C294.4 73.9 294.7 73.4 295.1 72.9C295.3 72.6 295.5 72.3 295.8 72.1C296 71.9 296.3 71.9 296.5 72C296.7 72.2 296.7 72.5 296.6 72.7C296.4 73 296.2 73.2 296 73.5C295.6 74 295.3 74.5 294.9 75.1C294.7 75.3 294.4 75.4 294.1 75.2C294.2 75.3 294.1 75.2 294.1 75.2ZM323.5 96.5C323.3 96.4 323.3 96.2 323.3 95.9C323.6 95 323.9 94 324.1 93.1C324.2 92.8 324.4 92.7 324.7 92.7C325 92.8 325.1 93 325.1 93.3C324.9 94.3 324.6 95.3 324.3 96.2C324.2 96.5 323.9 96.6 323.7 96.5C323.6 96.6 323.5 96.6 323.5 96.5ZM297.9 70.7C297.9 70.6 297.9 70.6 297.9 70.7C297.6 70.4 297.7 70.1 297.9 69.9C298.7 69.2 299.5 68.6 300.3 68C300.5 67.9 300.8 67.9 301 68.1C301.2 68.3 301.1 68.6 300.9 68.8C300.1 69.3 299.3 69.9 298.6 70.6C298.4 70.8 298.1 70.8 297.9 70.7ZM324.8 90.7C324.7 90.6 324.6 90.4 324.6 90.2C324.7 89.2 324.8 88.2 324.9 87.3C324.9 87 325.1 86.8 325.4 86.8C325.7 86.8 325.9 87 325.9 87.3C325.9 88.3 325.8 89.3 325.6 90.3C325.6 90.6 325.3 90.8 325 90.7C325 90.8 324.9 90.8 324.8 90.7ZM325.1 84.8C325 84.7 324.9 84.6 324.9 84.4C324.8 83.4 324.7 82.4 324.5 81.5C324.4 81.2 324.6 81 324.9 80.9C325.2 80.8 325.4 81 325.5 81.3C325.7 82.3 325.8 83.3 325.9 84.3C325.9 84.6 325.7 84.8 325.4 84.8C325.3 84.9 325.2 84.9 325.1 84.8ZM302.9 67.4C302.8 67.3 302.8 67.3 302.7 67.2C302.6 66.9 302.7 66.7 303 66.6C304 66.2 305 65.9 306 65.7C306.3 65.7 306.5 65.8 306.6 66.1C306.6 66.4 306.5 66.6 306.2 66.7C305.3 66.9 304.3 67.1 303.4 67.5C303.2 67.6 303.1 67.5 302.9 67.4ZM323.9 78.9C323.8 78.8 323.8 78.8 323.7 78.7C323.4 77.8 323 76.9 322.6 76C322.5 75.8 322.6 75.5 322.8 75.3C323 75.2 323.3 75.3 323.5 75.5C323.9 76.4 324.3 77.3 324.7 78.3C324.8 78.6 324.6 78.8 324.4 78.9C324.2 79.1 324.1 79 323.9 78.9ZM308.8 66.4C308.7 66.3 308.6 66.1 308.6 66C308.6 65.7 308.8 65.5 309.1 65.5C310.1 65.5 311.1 65.7 312.1 66C312.4 66.1 312.5 66.3 312.5 66.6C312.4 66.9 312.2 67 311.9 67C311 66.8 310 66.6 309.1 66.6C308.9 66.5 308.8 66.5 308.8 66.4ZM321.3 73.6L321.2 73.5C320.6 72.7 320 72 319.3 71.3C319.1 71.1 319.1 70.8 319.3 70.6C319.5 70.4 319.8 70.4 320 70.6C320.7 71.3 321.4 72.1 322 72.9C322.2 73.1 322.1 73.4 321.9 73.6C321.7 73.7 321.5 73.7 321.3 73.6ZM314.5 67.9C314.3 67.8 314.2 67.5 314.4 67.3C314.5 67.1 314.8 66.9 315.1 67.1C316 67.5 316.9 68.1 317.7 68.7C317.9 68.9 318 69.2 317.8 69.4C317.6 69.6 317.3 69.7 317.1 69.5C316.3 68.8 315.5 68.3 314.5 67.9C314.6 67.9 314.5 67.9 314.5 67.9Z" fill="#1A59A3"/>
<path d="M98.7 68.7999L81 80.4999L77.8 71.1999L98.7 68.7999Z" stroke="#1A59A3" stroke-miterlimit="10" stroke-linecap="round" stroke-linejoin="round"/>
<path d="M98.7 68.8L76.8 67.8L74.7 62.1L98.7 68.8Z" stroke="#1A59A3" stroke-miterlimit="10" stroke-linecap="round" stroke-linejoin="round"/>
<path d="M76.8 67.7999L76.2 76.6999L77.8 71.1999L98.7 68.7999L76.8 67.7999Z" stroke="#1A59A3" stroke-miterlimit="10" stroke-linecap="round" stroke-linejoin="round"/>
<path d="M77.8 71.2L76.2 76.7L79.4 75.9L77.8 71.2Z" stroke="#1A59A3" stroke-miterlimit="10" stroke-linecap="round" stroke-linejoin="round"/>
<path d="M81.8 176.4H81.6C80.7 176.4 79.9 176.4 79 176.4C78.7 176.4 78.6 176.2 78.6 175.9C78.6 175.6 78.8 175.5 79.1 175.5C79.9 175.5 80.8 175.5 81.6 175.5H81.8C82.1 175.5 82.3 175.7 82.3 176C82.3 176.2 82.1 176.4 81.8 176.4ZM84.5 176.4C84.3 176.4 84.1 176.2 84 176C84 175.7 84.2 175.5 84.4 175.5C85.3 175.5 86.2 175.4 87.1 175.3C87.4 175.3 87.6 175.5 87.6 175.7C87.6 175.9 87.4 176.2 87.2 176.2C86.4 176.3 85.5 176.3 84.5 176.4C84.6 176.4 84.5 176.4 84.5 176.4ZM76.4 176.3C76.4 176.3 76.3 176.3 76.4 176.3C75.5 176.3 74.6 176.2 73.6 176.2C73.3 176.2 73.2 176 73.2 175.7C73.2 175.4 73.4 175.3 73.7 175.3C74.6 175.4 75.5 175.4 76.4 175.4C76.7 175.4 76.8 175.6 76.8 175.9C76.8 176.1 76.6 176.3 76.4 176.3ZM70.9 176C70 175.9 69.1 175.9 68.2 175.8C67.9 175.8 67.8 175.6 67.8 175.3C67.8 175 68 174.9 68.3 174.9C69.2 174.9 70.1 175 71 175.1C71.3 175.1 71.4 175.3 71.4 175.6C71.4 175.8 71.2 176 70.9 176ZM90 175.8C89.8 175.8 89.6 175.6 89.6 175.4C89.6 175.2 89.7 174.9 90 174.9C90.9 174.7 91.8 174.5 92.6 174.3C92.8 174.2 93.1 174.4 93.2 174.6C93.3 174.8 93.1 175.1 92.9 175.2C91.9 175.4 91 175.6 90 175.8ZM95.2 174.2C95 174.2 94.9 174.1 94.8 173.9C94.7 173.7 94.8 173.4 95 173.3C95.8 172.9 96.6 172.5 97.4 172.1C97.6 172 97.9 172 98 172.2C98.1 172.4 98.1 172.7 97.9 172.8C97.1 173.3 96.3 173.7 95.4 174.1C95.3 174.2 95.2 174.2 95.2 174.2ZM99.8 171.4C99.7 171.4 99.6 171.3 99.5 171.2C99.3 171 99.3 170.7 99.5 170.6C99.8 170.3 100.1 170.1 100.4 169.8C100.7 169.5 101 169.1 101.3 168.7C101.5 168.5 101.7 168.5 101.9 168.6C102.1 168.8 102.1 169 102 169.2C101.7 169.6 101.4 170 101 170.4C100.7 170.7 100.4 171 100.1 171.3C100 171.3 99.9 171.4 99.8 171.4ZM103.1 167.1C103 167.1 103 167.1 102.9 167.1C102.7 167 102.6 166.7 102.7 166.5C103.1 165.7 103.4 164.9 103.7 164C103.8 163.8 104 163.6 104.3 163.7C104.5 163.8 104.7 164 104.6 164.3C104.3 165.2 104 166.1 103.6 166.9C103.4 167 103.3 167.1 103.1 167.1ZM104.6 161.9C104.3 161.9 104.1 161.6 104.1 161.4C104.2 160.8 104.2 160.2 104.2 159.6C104.2 159.3 104.2 159 104.2 158.7C104.2 158.4 104.4 158.2 104.6 158.2C104.8 158.2 105.1 158.4 105.1 158.6C105.1 158.9 105.1 159.2 105.1 159.5C105.1 160.1 105.1 160.7 105 161.4C105 161.7 104.8 161.9 104.6 161.9ZM104.3 156.4C104.1 156.4 103.9 156.3 103.9 156.1C103.7 155.3 103.4 154.4 103.1 153.6C103 153.4 103.1 153.1 103.3 153C103.5 152.9 103.8 153 103.9 153.2C104.3 154.1 104.6 155 104.8 155.9C104.9 156.1 104.7 156.4 104.5 156.4C104.4 156.4 104.3 156.4 104.3 156.4ZM102.2 151.4C102 151.4 101.9 151.3 101.8 151.2C101.3 150.4 100.8 149.7 100.2 149C100 148.8 100.1 148.5 100.3 148.4C100.5 148.2 100.8 148.3 100.9 148.5C101.5 149.2 102 150 102.5 150.8C102.6 151 102.6 151.3 102.4 151.4C102.4 151.4 102.3 151.4 102.2 151.4ZM98.7 147.3C98.6 147.3 98.5 147.3 98.4 147.2C97.9 146.7 97.4 146.3 96.8 145.9C96.6 145.8 96.5 145.7 96.3 145.6C96.1 145.5 96 145.2 96.2 145C96.3 144.8 96.6 144.7 96.8 144.9C97 145 97.2 145.1 97.3 145.3C97.9 145.7 98.4 146.2 99 146.6C99.2 146.8 99.2 147.1 99 147.2C99 147.2 98.8 147.3 98.7 147.3ZM94.2 144.2C94.1 144.2 94.1 144.2 94 144.2C93.2 143.8 92.4 143.5 91.5 143.1C91.3 143 91.2 142.7 91.2 142.5C91.3 142.3 91.6 142.2 91.8 142.2C92.7 142.6 93.6 142.9 94.3 143.3C94.5 143.4 94.6 143.7 94.5 143.9C94.5 144.2 94.4 144.2 94.2 144.2ZM89.1 142.2H89C88.1 141.9 87.3 141.6 86.4 141.4C86.2 141.3 86 141.1 86.1 140.8C86.2 140.6 86.4 140.4 86.7 140.5C87.6 140.8 88.4 141 89.3 141.3C89.5 141.4 89.7 141.6 89.6 141.9C89.5 142.1 89.3 142.2 89.1 142.2ZM83.9 140.6H83.8C82.9 140.3 82.1 140.1 81.2 139.8C81 139.7 80.8 139.5 80.9 139.2C81 139 81.2 138.8 81.5 138.9C82.4 139.2 83.2 139.5 84.1 139.7C84.3 139.8 84.5 140 84.4 140.3C84.3 140.5 84.1 140.6 83.9 140.6ZM78.7 138.9C78.6 138.9 78.6 138.9 78.5 138.9C77.6 138.6 76.8 138.2 75.9 137.9C75.7 137.8 75.6 137.5 75.7 137.3C75.8 137.1 76.1 137 76.3 137.1C77.1 137.4 77.9 137.8 78.8 138.1C79 138.2 79.2 138.4 79.1 138.7C79.1 138.7 78.9 138.9 78.7 138.9ZM73.7 136.7C73.6 136.7 73.6 136.7 73.5 136.7C72.7 136.3 71.8 135.8 71.1 135.4C70.9 135.3 70.8 135 70.9 134.8C71 134.6 71.3 134.5 71.5 134.6C72.2 135 73 135.5 73.9 135.9C74.1 136 74.2 136.3 74.1 136.5C74.1 136.6 73.9 136.7 73.7 136.7ZM69.1 133.9C69 133.9 68.9 133.9 68.8 133.8C68 133.3 67.3 132.7 66.6 132.1C66.4 131.9 66.4 131.6 66.6 131.5C66.8 131.3 67.1 131.3 67.2 131.5C67.9 132.1 68.6 132.7 69.3 133.2C69.5 133.3 69.5 133.6 69.4 133.8C69.3 133.8 69.2 133.9 69.1 133.9ZM65 130.2C64.9 130.2 64.7 130.1 64.7 130C64.1 129.3 63.5 128.6 63 127.8C62.9 127.6 62.9 127.3 63.1 127.2C63.3 127.1 63.6 127.1 63.7 127.3C64.2 128 64.7 128.7 65.3 129.4C65.5 129.6 65.4 129.9 65.3 130C65.2 130.2 65.1 130.2 65 130.2ZM62 125.8C61.8 125.8 61.7 125.7 61.6 125.5C61.2 124.7 60.8 123.8 60.6 122.9C60.5 122.7 60.7 122.4 60.9 122.3C61.1 122.2 61.4 122.4 61.5 122.6C61.8 123.4 62.1 124.3 62.5 125.1C62.6 125.3 62.5 125.6 62.3 125.7C62.1 125.7 62 125.8 62 125.8ZM60.3 120.6C60.1 120.6 59.9 120.4 59.8 120.2C59.7 119.4 59.6 118.6 59.6 117.8C59.6 117.7 59.6 117.5 59.6 117.4C59.6 117.2 59.8 117 60.1 117C60.4 117 60.5 117.2 60.5 117.5C60.5 117.6 60.5 117.8 60.5 117.9C60.5 118.7 60.5 119.4 60.6 120.1C60.8 120.3 60.6 120.5 60.3 120.6C60.4 120.6 60.4 120.6 60.3 120.6ZM71.5 120C71.3 120 71.1 119.8 71 119.6C71 119.4 71.2 119.1 71.4 119.1C72.3 119 73.2 118.8 74 118.6C74.2 118.5 74.5 118.7 74.6 118.9C74.7 119.1 74.5 119.4 74.3 119.5C73.4 119.7 72.5 119.9 71.5 120ZM68.8 120C68.7 120 68.7 120 68.8 120C67.8 119.9 66.9 119.7 66 119.4C65.8 119.3 65.6 119.1 65.7 118.8C65.8 118.6 66 118.4 66.3 118.5C67.2 118.8 68 118.9 68.9 119C69.1 119 69.3 119.2 69.3 119.5C69.2 119.8 69 120 68.8 120ZM63.6 118.4C63.5 118.4 63.5 118.4 63.4 118.4C62.6 118 61.8 117.5 61 117C60.8 116.9 60.7 116.6 60.9 116.4C61 116.2 61.3 116.1 61.5 116.3C62.2 116.8 63 117.3 63.8 117.7C64 117.8 64.1 118.1 64 118.3C63.9 118.4 63.7 118.4 63.6 118.4ZM76.6 118.3C76.4 118.3 76.3 118.2 76.2 118.1C76.1 117.9 76.1 117.6 76.3 117.5C76.7 117.3 77 117 77.3 116.8C77.6 116.5 78 116.2 78.3 115.9C78.5 115.7 78.8 115.7 78.9 115.9C79.1 116.1 79.1 116.4 78.9 116.5C78.6 116.9 78.2 117.2 77.9 117.5C77.6 117.8 77.2 118.1 76.8 118.3C76.8 118.3 76.7 118.3 76.6 118.3ZM59.1 115.3C59 115.3 58.9 115.3 58.8 115.2C58.1 114.5 57.5 113.8 57 113.1C56.8 112.9 56.9 112.6 57.1 112.5C57.3 112.3 57.6 112.4 57.7 112.6C58.2 113.3 58.8 114 59.4 114.6C59.6 114.8 59.6 115.1 59.4 115.2C59.4 115.2 59.3 115.3 59.1 115.3ZM60.4 115.1C60.1 115.1 59.9 114.8 59.9 114.6C60 113.7 60.2 112.8 60.4 111.9C60.5 111.7 60.7 111.5 60.9 111.6C61.1 111.7 61.3 111.9 61.2 112.1C61 113 60.8 113.9 60.7 114.7C60.8 115 60.6 115.1 60.4 115.1ZM80.3 114.3C80.2 114.3 80.2 114.3 80.1 114.2C79.9 114.1 79.8 113.8 79.9 113.6C80.1 113.3 80.2 112.9 80.4 112.6C80.6 112.1 80.8 111.7 81 111.2C81.1 111 81.3 110.8 81.6 110.9C81.8 111 82 111.2 81.9 111.5C81.7 112 81.5 112.5 81.3 113C81.1 113.4 81 113.7 80.8 114.1C80.6 114.3 80.4 114.3 80.3 114.3ZM55.9 110.9C55.7 110.9 55.6 110.8 55.5 110.7C55.2 110.2 55 109.7 54.8 109.2C54.7 108.8 54.5 108.5 54.4 108.1C54.3 107.9 54.4 107.6 54.7 107.5C54.9 107.4 55.2 107.6 55.3 107.8C55.4 108.2 55.5 108.5 55.7 108.9C55.9 109.4 56.1 109.8 56.3 110.3C56.4 110.5 56.3 110.8 56.1 110.9C56 110.9 56 110.9 55.9 110.9ZM61.7 109.8H61.6C61.4 109.7 61.2 109.5 61.3 109.2C61.5 108.6 61.7 107.9 61.9 107.3C62 107.1 62.1 106.8 62.2 106.6C62.3 106.4 62.5 106.2 62.8 106.3C63 106.4 63.2 106.6 63.1 106.9C63 107.1 62.9 107.4 62.8 107.6C62.6 108.2 62.4 108.8 62.2 109.4C62 109.7 61.9 109.8 61.7 109.8ZM82 109.2C81.9 109.2 81.9 109.2 82 109.2C81.7 109.2 81.5 108.9 81.5 108.7C81.6 108.1 81.6 107.6 81.6 107C81.6 106.7 81.6 106.4 81.6 106.1C81.6 105.8 81.8 105.6 82 105.6C82.2 105.6 82.5 105.8 82.5 106C82.5 106.3 82.5 106.7 82.5 107C82.5 107.6 82.5 108.2 82.4 108.8C82.4 109 82.2 109.2 82 109.2ZM54.2 105.8C54 105.8 53.8 105.6 53.8 105.4C53.6 104.5 53.5 103.6 53.5 102.6C53.5 102.3 53.7 102.1 53.9 102.1C54.2 102.1 54.4 102.3 54.4 102.5C54.4 103.4 54.5 104.3 54.7 105.1C54.7 105.5 54.5 105.7 54.2 105.8ZM63.5 104.7C63.4 104.7 63.4 104.7 63.3 104.7C63.1 104.6 63 104.3 63.1 104.1C63.5 103.2 63.9 102.4 64.4 101.6C64.5 101.4 64.8 101.3 65 101.4C65.2 101.5 65.3 101.8 65.2 102C64.8 102.7 64.4 103.5 64 104.4C63.9 104.6 63.7 104.7 63.5 104.7ZM81.5 103.8C81.3 103.8 81.1 103.7 81.1 103.5C80.9 102.9 80.7 102.3 80.4 101.8C80.3 101.6 80.2 101.4 80 101.2C79.9 101 79.9 100.7 80.1 100.6C80.3 100.5 80.6 100.5 80.7 100.7C80.8 100.9 81 101.2 81.1 101.4C81.4 102 81.7 102.6 81.9 103.3C82 103.5 81.8 103.8 81.6 103.9C81.6 103.8 81.6 103.8 81.5 103.8ZM54 100.3C54 100.3 53.9 100.3 54 100.3C53.7 100.3 53.5 100.1 53.5 99.8C53.6 98.9 53.7 98 53.9 97.1C54 96.9 54.2 96.7 54.4 96.8C54.6 96.9 54.8 97.1 54.7 97.3C54.5 98.2 54.4 99.1 54.3 99.9C54.4 100.2 54.2 100.3 54 100.3ZM66.4 100.1C66.3 100.1 66.2 100.1 66.1 100C65.9 99.8 65.9 99.5 66.1 99.4C66.8 98.7 67.5 98 68.2 97.5C68.4 97.4 68.7 97.4 68.8 97.6C68.9 97.8 68.9 98.1 68.7 98.2C68 98.6 67.4 99.2 66.7 99.9C66.7 100 66.6 100.1 66.4 100.1ZM78.6 99.3C78.5 99.3 78.4 99.3 78.3 99.2C77.6 98.6 76.9 98.2 76.1 97.8C75.9 97.7 75.8 97.4 75.9 97.2C76 97 76.3 96.9 76.5 97C77.4 97.4 78.2 97.9 78.9 98.5C79.1 98.7 79.1 99 78.9 99.1C78.8 99.2 78.7 99.3 78.6 99.3ZM71 97.2C70.8 97.2 70.6 97.1 70.6 96.9C70.5 96.7 70.7 96.4 70.9 96.4C71.8 96.2 72.8 96.1 73.8 96.2C74 96.2 74.2 96.5 74.2 96.7C74.2 96.9 73.9 97.1 73.7 97.1C72.8 97 72 97 71.2 97.2C71 97.2 71 97.2 71 97.2ZM55.2 95C55.1 95 55.1 95 55 95C54.8 94.9 54.6 94.7 54.7 94.4C55 93.5 55.4 92.7 55.8 91.8C55.9 91.6 56.2 91.5 56.4 91.6C56.6 91.7 56.7 92 56.6 92.2C56.2 93 55.9 93.8 55.6 94.7C55.5 94.9 55.3 95 55.2 95ZM57.6 90.2C57.5 90.2 57.4 90.2 57.3 90.1C57.1 90 57 89.7 57.2 89.5C57.7 88.7 58.3 88 58.9 87.3C59.1 87.1 59.3 87.1 59.5 87.2C59.7 87.4 59.7 87.6 59.6 87.8C59 88.5 58.5 89.2 58 90C57.9 90.1 57.7 90.2 57.6 90.2ZM61.1 86C61 86 60.9 86 60.8 85.9C60.6 85.7 60.6 85.4 60.8 85.3C61.5 84.7 62.2 84 62.9 83.5C63.1 83.3 63.4 83.4 63.5 83.6C63.7 83.8 63.6 84.1 63.4 84.2C62.7 84.8 62 85.4 61.4 86C61.3 85.9 61.2 86 61.1 86ZM65.3 82.6C65.2 82.6 65 82.5 64.9 82.4C64.8 82.2 64.8 81.9 65 81.8C65.8 81.3 66.6 80.8 67.4 80.4C67.6 80.3 67.9 80.4 68 80.6C68.1 80.8 68 81.1 67.8 81.2C67 81.6 66.2 82.1 65.5 82.6C65.5 82.6 65.4 82.6 65.3 82.6ZM70.1 80C69.9 80 69.8 79.9 69.7 79.7C69.6 79.5 69.7 79.2 69.9 79.1C70.7 78.7 71.6 78.4 72.5 78.1C72.7 78 73 78.1 73.1 78.4C73.2 78.6 73.1 78.9 72.8 79C72 79.3 71.1 79.6 70.3 80C70.3 80 70.2 80 70.1 80Z" fill="#1A59A3"/>
<path d="M347.4 222.8H3V231.6H347.4V222.8Z" fill="#EBF0FF"/>
<path d="M3.29995 222.8H348C350.9 222.8 352.4 219.3 350.3 217.2L299.2 166.1C296 162.9 291.7 161.1 287.2 161.1H59.2999C54.5 161.1 49.9 163.1 46.7 166.7L0.899951 217.4C-1.00005 219.5 0.399951 222.8 3.29995 222.8Z" fill="#242424"/>
<path d="M42.5 218H309.3L272 166.1H75.8L42.5 218Z" fill="white"/>
<path d="M84.4001 214.3H124C126.3 214.3 128.4 212.7 129 210.4L137.7 176C138.5 172.8 136.1 169.6 132.7 169.6H100.6C98.6 169.6 96.8 170.7 96 172.5L79.8001 207C78.2001 210.4 80.7001 214.3 84.4001 214.3Z" fill="#EBF0FF"/>
<path d="M264.9 214.3H225.3C223 214.3 220.9 212.7 220.3 210.4L211.6 176C210.8 172.8 213.2 169.6 216.6 169.6H248.7C250.7 169.6 252.5 170.7 253.3 172.5L269.5 206.9C271.1 210.4 268.6 214.3 264.9 214.3Z" fill="#EBF0FF"/>
<path d="M194.2 214.3H153.9C150.8 214.3 148.5 211.6 148.8 208.6L152.7 174.2C153 171.6 155.2 169.7 157.8 169.7H190.5C193.1 169.7 195.3 171.7 195.6 174.3L199.2 208.7C199.6 211.7 197.2 214.3 194.2 214.3Z" fill="#EBF0FF"/>
<path d="M315.6 203L293.9 176.3" stroke="white" stroke-miterlimit="10" stroke-linecap="round" stroke-linejoin="round"/>
<path d="M37.1999 64.5L29.1999 71.4V64.5C25.1999 64.5 21.8999 61.2 21.8999 57.2V31.7C21.8999 27.7 25.1999 24.4 29.1999 24.4H59.4999C63.4999 24.4 66.7999 27.7 66.7999 31.7V57.2C66.7999 61.2 63.4999 64.5 59.4999 64.5H37.1999Z" fill="white"/>
<path d="M31.2998 36.9H57.3998" stroke="#1062AA" stroke-width="2" stroke-miterlimit="10" stroke-linecap="round" stroke-linejoin="round"/>
<path d="M31.2998 44.7001H57.3998" stroke="#1062AA" stroke-width="2" stroke-miterlimit="10" stroke-linecap="round" stroke-linejoin="round"/>
<path d="M31.2998 52.4H57.3998" stroke="#1062AA" stroke-width="2" stroke-miterlimit="10" stroke-linecap="round" stroke-linejoin="round"/>
<path d="M206.44 90.7426L201.504 95V90.7426C199.036 90.7426 197 88.7064 197 86.2383V70.5043C197 68.0362 199.036 66 201.504 66H220.2C222.668 66 224.704 68.0362 224.704 70.5043V86.2383C224.704 88.7064 222.668 90.7426 220.2 90.7426H206.44Z" fill="white"/>
<path d="M202.8 73.7128H218.904" stroke="#1062AA" stroke-width="2" stroke-miterlimit="10" stroke-linecap="round" stroke-linejoin="round"/>
<path d="M202.8 78.5255H218.904" stroke="#1062AA" stroke-width="2" stroke-miterlimit="10" stroke-linecap="round" stroke-linejoin="round"/>
<path d="M202.8 83.2766H218.904" stroke="#1062AA" stroke-width="2" stroke-miterlimit="10" stroke-linecap="round" stroke-linejoin="round"/>
<path d="M53.4404 165.743L48.5043 170V165.743C46.0362 165.743 44 163.706 44 161.238V145.504C44 143.036 46.0362 141 48.5043 141H67.2C69.6681 141 71.7043 143.036 71.7043 145.504V161.238C71.7043 163.706 69.6681 165.743 67.2 165.743H53.4404Z" fill="white"/>
<path d="M49.8 148.713H65.9043" stroke="#1062AA" stroke-width="2" stroke-miterlimit="10" stroke-linecap="round" stroke-linejoin="round"/>
<path d="M49.8 153.526H65.9043" stroke="#1062AA" stroke-width="2" stroke-miterlimit="10" stroke-linecap="round" stroke-linejoin="round"/>
<path d="M49.8 158.277H65.9043" stroke="#1062AA" stroke-width="2" stroke-miterlimit="10" stroke-linecap="round" stroke-linejoin="round"/>
<path d="M286.44 53.7426L281.504 58V53.7426C279.036 53.7426 277 51.7064 277 49.2383V33.5043C277 31.0362 279.036 29 281.504 29H300.2C302.668 29 304.704 31.0362 304.704 33.5043V49.2383C304.704 51.7064 302.668 53.7426 300.2 53.7426H286.44Z" fill="white"/>
<path d="M282.8 36.7128H298.904" stroke="#1062AA" stroke-width="2" stroke-miterlimit="10" stroke-linecap="round" stroke-linejoin="round"/>
<path d="M282.8 41.5255H298.904" stroke="#1062AA" stroke-width="2" stroke-miterlimit="10" stroke-linecap="round" stroke-linejoin="round"/>
<path d="M282.8 46.2766H298.904" stroke="#1062AA" stroke-width="2" stroke-miterlimit="10" stroke-linecap="round" stroke-linejoin="round"/>
<path d="M190.8 41L198.8 47.9V41C202.8 41 206.1 37.7 206.1 33.7V8.3C206.1 4.3 202.8 1 198.8 1H168.5C164.5 1 161.2 4.3 161.2 8.3V33.8C161.2 37.8 164.5 41.1 168.5 41.1L190.8 41Z" fill="white"/>
<path d="M22.6576 138.618L28.7812 143.9V138.618C31.8431 138.618 34.3691 136.092 34.3691 133.03V113.588C34.3691 110.526 31.8431 108 28.7812 108H5.58785C2.52602 108 0 110.526 0 113.588V133.107C0 136.169 2.52602 138.695 5.58785 138.695L22.6576 138.618Z" fill="white"/>
<path d="M128.828 53.3838L132.905 56.9V53.3838C134.943 53.3838 136.625 51.7021 136.625 49.6638V36.72C136.625 34.6817 134.943 33 132.905 33H117.464C115.426 33 113.744 34.6817 113.744 36.72V49.7147C113.744 51.7531 115.426 53.4348 117.464 53.4348L128.828 53.3838Z" fill="white"/>
<path d="M333.658 185.618L339.781 190.9V185.618C342.843 185.618 345.369 183.092 345.369 180.03V160.588C345.369 157.526 342.843 155 339.781 155H316.588C313.526 155 311 157.526 311 160.588V180.107C311 183.169 313.526 185.695 316.588 185.695L333.658 185.618Z" fill="white"/>
<path d="M196.7 13.5H170.6" stroke="#1062AA" stroke-width="2" stroke-miterlimit="10" stroke-linecap="round" stroke-linejoin="round"/>
<path d="M27 118H7" stroke="#1062AA" stroke-width="2" stroke-miterlimit="10" stroke-linecap="round" stroke-linejoin="round"/>
<path d="M132 39H118" stroke="#1062AA" stroke-miterlimit="10" stroke-linecap="round" stroke-linejoin="round"/>
<path d="M338 165H318" stroke="#1062AA" stroke-width="2" stroke-miterlimit="10" stroke-linecap="round" stroke-linejoin="round"/>
<path d="M196.7 21.2H170.6" stroke="#1062AA" stroke-width="2" stroke-miterlimit="10" stroke-linecap="round" stroke-linejoin="round"/>
<path d="M27 123H7" stroke="#1062AA" stroke-width="2" stroke-miterlimit="10" stroke-linecap="round" stroke-linejoin="round"/>
<path d="M132 43H118" stroke="#1062AA" stroke-miterlimit="10" stroke-linecap="round" stroke-linejoin="round"/>
<path d="M338 170H318" stroke="#1062AA" stroke-width="2" stroke-miterlimit="10" stroke-linecap="round" stroke-linejoin="round"/>
<path d="M196.7 28.9H170.6" stroke="#1062AA" stroke-width="2" stroke-miterlimit="10" stroke-linecap="round" stroke-linejoin="round"/>
<path d="M27 129H7" stroke="#1062AA" stroke-width="2" stroke-miterlimit="10" stroke-linecap="round" stroke-linejoin="round"/>
<path d="M132 47H118" stroke="#1062AA" stroke-miterlimit="10" stroke-linecap="round" stroke-linejoin="round"/>
<path d="M338 176H318" stroke="#1062AA" stroke-width="2" stroke-miterlimit="10" stroke-linecap="round" stroke-linejoin="round"/>
<path d="M258.2 124.2H203.8C194.7 124.2 187.2 131.6 187.2 140.8V163.7C187.2 172.8 194.6 180.3 203.8 180.3V191.2L216.7 180.3H258.2C267.3 180.3 274.8 172.9 274.8 163.7V140.8C274.8 131.7 267.3 124.2 258.2 124.2Z" fill="#6FC6AD"/>
<path d="M210.8 156.4C212.733 156.4 214.3 154.833 214.3 152.9C214.3 150.967 212.733 149.4 210.8 149.4C208.867 149.4 207.3 150.967 207.3 152.9C207.3 154.833 208.867 156.4 210.8 156.4Z" fill="white"/>
<path d="M231 156.4C232.933 156.4 234.5 154.833 234.5 152.9C234.5 150.967 232.933 149.4 231 149.4C229.067 149.4 227.5 150.967 227.5 152.9C227.5 154.833 229.067 156.4 231 156.4Z" fill="white"/>
<path d="M251.2 156.4C253.133 156.4 254.7 154.833 254.7 152.9C254.7 150.967 253.133 149.4 251.2 149.4C249.267 149.4 247.7 150.967 247.7 152.9C247.7 154.833 249.267 156.4 251.2 156.4Z" fill="white"/>
<path d="M114.2 82.7H168.6C177.7 82.7 185.2 90.1 185.2 99.3V122.2C185.2 131.3 177.8 138.8 168.6 138.8V149.7L155.7 138.8H114.2C105.1 138.8 97.6001 131.4 97.6001 122.2V99.3C97.6001 90.2 105.1 82.7 114.2 82.7Z" fill="white"/>
<path d="M161.6 114.9C163.533 114.9 165.1 113.333 165.1 111.4C165.1 109.467 163.533 107.9 161.6 107.9C159.667 107.9 158.1 109.467 158.1 111.4C158.1 113.333 159.667 114.9 161.6 114.9Z" fill="#F7B916"/>
<path d="M141.4 114.9C143.333 114.9 144.9 113.333 144.9 111.4C144.9 109.467 143.333 107.9 141.4 107.9C139.467 107.9 137.9 109.467 137.9 111.4C137.9 113.333 139.467 114.9 141.4 114.9Z" fill="#F7B916"/>
<path d="M121.2 114.9C123.133 114.9 124.7 113.333 124.7 111.4C124.7 109.467 123.133 107.9 121.2 107.9C119.267 107.9 117.7 109.467 117.7 111.4C117.7 113.333 119.267 114.9 121.2 114.9Z" fill="#F7B916"/>
</g>
<defs>
<clipPath id="clip0">
<rect width="351.3" height="231.6" fill="white"/>
</clipPath>
</defs>
</svg>
