<svg width="90" height="72" viewBox="0 0 90 72" fill="none" xmlns="http://www.w3.org/2000/svg">
<path d="M24.8849 11.3668L25.0981 11.7554C24.4195 10.5963 24.0414 9.26168 24.0032 7.89087C23.965 6.52005 24.2682 5.1633 24.8811 3.96227C25.494 2.76124 26.3942 1.75998 27.4875 1.06301C28.5809 0.366039 29.8274 -0.00107183 31.097 2.72758e-06L59.043 3.94914e-06C60.2474 -0.00077855 61.4321 0.329816 62.4854 0.960616C63.5388 1.59142 64.4261 2.50164 65.0636 3.60545C65.7012 4.70926 66.068 5.9703 66.1294 7.26965C66.1909 8.56901 65.945 9.86387 65.4149 11.0321C65.1765 11.5442 64.8872 12.0268 64.5522 12.4714C61.4745 16.5914 50.6059 30.1423 50.6059 30.1423C49.9272 31.0532 49.0646 31.7843 48.084 32.2794C47.1033 32.7745 46.0308 33.0205 44.9486 32.9987C43.8663 32.9768 42.8031 32.6876 41.8403 32.1531C40.8775 31.6187 40.0408 30.8533 39.3942 29.9156L39.5574 30.1459L25.6377 12.5578C24.7776 11.4378 24.2304 10.0765 24.0601 8.633C23.8899 7.18948 24.1035 5.72343 24.6761 4.40627C25.2488 3.0891 26.1567 1.97525 27.2937 1.19497C28.4307 0.414683 29.7499 0.000206677 31.097 2.72758e-06L59.043 3.94914e-06C60.3823 0.000340889 61.6942 0.410203 62.8269 1.18219C63.9597 1.95419 64.867 3.05677 65.444 4.36245C66.021 5.66813 66.244 7.12357 66.0874 8.56047C65.9308 9.99737 65.4009 11.357 64.5589 12.4822" fill="#F9BA16"/>
<path d="M55.17 35.44C56.1199 35.44 56.8899 34.6699 56.8899 33.72C56.8899 32.7701 56.1199 32 55.17 32C54.22 32 53.45 32.7701 53.45 33.72C53.45 34.6699 54.22 35.44 55.17 35.44Z" stroke="#1062AA" stroke-width="3" stroke-linecap="round" stroke-linejoin="round"/>
<path d="M45.75 44.54C46.7 44.54 47.47 43.7699 47.47 42.82C47.47 41.8701 46.7 41.1 45.75 41.1C44.8001 41.1 44.03 41.8701 44.03 42.82C44.03 43.7699 44.8001 44.54 45.75 44.54Z" stroke="#1062AA" stroke-width="3" stroke-linecap="round" stroke-linejoin="round"/>
<path d="M38.49 53.64C39.4399 53.64 40.21 52.8699 40.21 51.92C40.21 50.9701 39.4399 50.2 38.49 50.2C37.5401 50.2 36.77 50.9701 36.77 51.92C36.77 52.8699 37.5401 53.64 38.49 53.64Z" stroke="#1062AA" stroke-width="3" stroke-linecap="round" stroke-linejoin="round"/>
<path d="M31 33.72H53.44" stroke="#1062AA" stroke-width="3" stroke-linecap="round" stroke-linejoin="round"/>
<path d="M56.8899 33.72H60.5899" stroke="#1062AA" stroke-width="3" stroke-linecap="round" stroke-linejoin="round"/>
<path d="M31 42.82H44.03" stroke="#1062AA" stroke-width="3" stroke-linecap="round" stroke-linejoin="round"/>
<path d="M47.47 42.82H60.5" stroke="#1062AA" stroke-width="3" stroke-linecap="round" stroke-linejoin="round"/>
<path d="M40.22 51.92H60.59" stroke="#1062AA" stroke-width="3" stroke-linecap="round" stroke-linejoin="round"/>
<path d="M31 51.92H36.77" stroke="#1062AA" stroke-width="3" stroke-linecap="round" stroke-linejoin="round"/>
<rect x="6.5" y="11.5" width="77" height="52" rx="4.5" stroke="#1062AA" stroke-width="3"/>
<rect x="1.5" y="63.5" width="87" height="7" rx="3.5" stroke="#1062AA" stroke-width="3"/>
<line x1="7" y1="23.5" x2="84" y2="23.5" stroke="#1062AA" stroke-width="3"/>
<circle cx="58.5" cy="17.5" r="1.5" stroke="#1062AA" stroke-width="2"/>
<circle cx="67.25" cy="17.5" r="1.5" stroke="#1062AA" stroke-width="2"/>
<circle cx="76" cy="17.5" r="1.5" stroke="#1062AA" stroke-width="2"/>
</svg>
