<svg width="318" height="244" viewBox="0 0 318 244" fill="none" xmlns="http://www.w3.org/2000/svg">
<g clip-path="url(#clip0)">
<path d="M281.2 207.9H8.7C4.7 207.9 1.5 204.6 1.5 200.7V8.90001C1.5 4.90001 4.8 1.70001 8.7 1.70001H281.2C285.2 1.70001 288.4 5.00001 288.4 8.90001V200.7C288.4 204.7 285.2 207.9 281.2 207.9Z" fill="white" stroke="#1062AA" stroke-width="3" stroke-miterlimit="10" stroke-linecap="round" stroke-linejoin="round"/>
<path d="M290 25.8H0V7.2C0 3.3 3.3 0 7.2 0H282.7C286.7 0 289.9 3.3 289.9 7.2V25.8H290Z" fill="#1F4A6A"/>
<path d="M155.9 207.9V241.7" stroke="#1062AA" stroke-width="3" stroke-miterlimit="10" stroke-linecap="round" stroke-linejoin="round"/>
<path d="M134.1 207.9V241.7" stroke="#1062AA" stroke-width="3" stroke-miterlimit="10" stroke-linecap="round" stroke-linejoin="round"/>
<path d="M86.8999 241.7H200.6" stroke="#1062AA" stroke-width="3" stroke-miterlimit="10" stroke-linecap="round" stroke-linejoin="round"/>
<path d="M147.9 19.3H20.5001C17.8001 19.3 15.6001 17.1 15.6001 14.4C15.6001 11.7 17.8001 9.5 20.5001 9.5H147.9C150.6 9.5 152.8 11.7 152.8 14.4C152.8 17.1 150.6 19.3 147.9 19.3Z" fill="white"/>
<path d="M268.2 18C270.961 18 273.2 15.7614 273.2 13C273.2 10.2386 270.961 8 268.2 8C265.439 8 263.2 10.2386 263.2 13C263.2 15.7614 265.439 18 268.2 18Z" fill="#F7B916"/>
<path d="M245.5 18C248.261 18 250.5 15.7614 250.5 13C250.5 10.2386 248.261 8 245.5 8C242.739 8 240.5 10.2386 240.5 13C240.5 15.7614 242.739 18 245.5 18Z" fill="#6FC6AD"/>
<path d="M268.5 46H156.6C152.7 46 149.5 49.2 149.5 53.1V130.9C149.5 134.8 152.7 138 156.6 138H161.7V156.5L183 138H268.5C272.4 138 275.6 134.8 275.6 130.9V53.1C275.6 49.2 272.4 46 268.5 46Z" fill="#F7B916"/>
<path d="M130.5 115.9H88.3999C86.4999 115.9 84.8999 117.5 84.8999 119.4V148.2C84.8999 150.1 86.4999 151.7 88.3999 151.7H122.5L129.2 157.5V151.7H130.5C132.4 151.7 134 150.1 134 148.2V119.4C134 117.5 132.4 115.9 130.5 115.9Z" fill="#1F4A6A"/>
<path d="M23.2 188.7C19.6 188.7 16.7 185.8 16.7 182.2C16.7 178.6 19.6 175.7 23.2 175.7C26.8 175.7 29.7 178.6 29.7 182.2C29.7 185.8 26.8 188.7 23.2 188.7ZM23.2 178.5C21.1 178.5 19.5 180.2 19.5 182.2C19.5 184.2 21.2 185.9 23.2 185.9C25.2 185.9 26.9 184.2 26.9 182.2C26.9 180.2 25.2 178.5 23.2 178.5Z" fill="#6FC6AD"/>
<path d="M47.7 188.7C44.1 188.7 41.2 185.8 41.2 182.2C41.2 178.6 44.1 175.7 47.7 175.7C51.3 175.7 54.2 178.6 54.2 182.2C54.2 185.8 51.3 188.7 47.7 188.7ZM47.7 178.5C45.6 178.5 44 180.2 44 182.2C44 184.2 45.7 185.9 47.7 185.9C49.8 185.9 51.4 184.2 51.4 182.2C51.4 180.2 49.8 178.5 47.7 178.5Z" fill="#6FC6AD"/>
<path d="M72.3 188.7C68.7 188.7 65.8 185.8 65.8 182.2C65.8 178.6 68.7 175.7 72.3 175.7C75.9 175.7 78.8 178.6 78.8 182.2C78.8 185.8 75.8 188.7 72.3 188.7ZM72.3 178.5C70.2 178.5 68.6 180.2 68.6 182.2C68.6 184.2 70.3 185.9 72.3 185.9C74.3 185.9 76 184.2 76 182.2C76 180.2 74.3 178.5 72.3 178.5Z" fill="#6FC6AD"/>
<path d="M96.7 188.7C93.1 188.7 90.2 185.8 90.2 182.2C90.2 178.6 93.1 175.7 96.7 175.7C100.3 175.7 103.2 178.6 103.2 182.2C103.2 185.8 100.3 188.7 96.7 188.7ZM96.7 178.5C94.6 178.5 93 180.2 93 182.2C93 184.2 94.7 185.9 96.7 185.9C98.8 185.9 100.4 184.2 100.4 182.2C100.4 180.2 98.7 178.5 96.7 178.5Z" fill="#6FC6AD"/>
<path d="M121.2 188.7C117.6 188.7 114.7 185.8 114.7 182.2C114.7 178.6 117.6 175.7 121.2 175.7C124.8 175.7 127.7 178.6 127.7 182.2C127.7 185.8 124.8 188.7 121.2 188.7ZM121.2 178.5C119.1 178.5 117.5 180.2 117.5 182.2C117.5 184.2 119.2 185.9 121.2 185.9C123.3 185.9 124.9 184.2 124.9 182.2C124.9 180.2 123.3 178.5 121.2 178.5Z" fill="#6FC6AD"/>
<path d="M145.8 188.7C142.2 188.7 139.3 185.8 139.3 182.2C139.3 178.6 142.2 175.7 145.8 175.7C149.4 175.7 152.3 178.6 152.3 182.2C152.3 185.8 149.4 188.7 145.8 188.7ZM145.8 178.5C143.7 178.5 142.1 180.2 142.1 182.2C142.1 184.2 143.8 185.9 145.8 185.9C147.9 185.9 149.5 184.2 149.5 182.2C149.5 180.2 147.8 178.5 145.8 178.5Z" fill="#6FC6AD"/>
<path d="M170 188.7C166.4 188.7 163.5 185.8 163.5 182.2C163.5 178.6 166.4 175.7 170 175.7C173.6 175.7 176.5 178.6 176.5 182.2C176.5 185.8 173.6 188.7 170 188.7ZM170 178.5C167.9 178.5 166.3 180.2 166.3 182.2C166.3 184.2 168 185.9 170 185.9C172.1 185.9 173.7 184.2 173.7 182.2C173.7 180.2 172 178.5 170 178.5Z" fill="#6FC6AD"/>
<path d="M194.5 188.7C190.9 188.7 188 185.8 188 182.2C188 178.6 190.9 175.7 194.5 175.7C198.1 175.7 201 178.6 201 182.2C201 185.8 198.1 188.7 194.5 188.7ZM194.5 178.5C192.4 178.5 190.8 180.2 190.8 182.2C190.8 184.2 192.5 185.9 194.5 185.9C196.6 185.9 198.2 184.2 198.2 182.2C198.2 180.2 196.6 178.5 194.5 178.5Z" fill="#6FC6AD"/>
<path d="M219.1 188.7C215.5 188.7 212.6 185.8 212.6 182.2C212.6 178.6 215.5 175.7 219.1 175.7C222.7 175.7 225.6 178.6 225.6 182.2C225.6 185.8 222.7 188.7 219.1 188.7ZM219.1 178.5C217 178.5 215.4 180.2 215.4 182.2C215.4 184.2 217.1 185.9 219.1 185.9C221.2 185.9 222.8 184.2 222.8 182.2C222.8 180.2 221.1 178.5 219.1 178.5Z" fill="#6FC6AD"/>
<path d="M243.5 188.7C239.9 188.7 237 185.8 237 182.2C237 178.6 239.9 175.7 243.5 175.7C247.1 175.7 250 178.6 250 182.2C250 185.8 247.1 188.7 243.5 188.7ZM243.5 178.5C241.4 178.5 239.8 180.2 239.8 182.2C239.8 184.2 241.5 185.9 243.5 185.9C245.6 185.9 247.2 184.2 247.2 182.2C247.2 180.2 245.5 178.5 243.5 178.5Z" fill="#6FC6AD"/>
<path d="M268 188.7C264.4 188.7 261.5 185.8 261.5 182.2C261.5 178.6 264.4 175.7 268 175.7C271.6 175.7 274.5 178.6 274.5 182.2C274.5 185.8 271.6 188.7 268 188.7ZM268 178.5C265.9 178.5 264.3 180.2 264.3 182.2C264.3 184.2 266 185.9 268 185.9C270.1 185.9 271.7 184.2 271.7 182.2C271.7 180.2 270.1 178.5 268 178.5Z" fill="#6FC6AD"/>
<path d="M43.7999 86.4C40.9 88.7 37.1 89.8 32.4 89.8C29 89.8 26.1 89.4 23.7 88.6C21.1 87.7 18.7 86.2 16.7 84.1L22.1 78.7C23.4 80 24.9999 80.9 26.7999 81.5C28.4999 82 30.3 82.3 32.5 82.3C37.6 82.3 40.0999 80.5 40.0999 77C40.0999 75.4 39.6999 74.2 38.7999 73.4C38 72.7 36.7 72.2 35 71.9L29.7999 71.2C26.0999 70.7 23.3 69.5 21.5 67.6C19.4 65.5 18.4 62.7 18.4 59.1C18.4 55.2 19.6999 52 22.4 49.7C25.0999 47.3 28.8 46.1 33.4 46.1C39.2 46.1 43.7999 47.8 47.2999 51.1L42 56.3C40.7999 55.1 39.2999 54.3 37.5999 53.8C36.2999 53.5 34.8999 53.3 33.0999 53.3C28.6999 53.3 26.4 55.1 26.4 58.7C26.4 60 26.8 61 27.7 61.8C28.7 62.7 30 63.3 31.7 63.5L36.7999 64.2C40.4 64.7 43.2 65.8 45 67.5C47.2 69.6 48.2999 72.6 48.2999 76.6C48.4 80.8 46.7999 84.1 43.7999 86.4Z" fill="#6FC6AD"/>
<path d="M86.9001 89.5V64.4L78.7 80.7H73L64.7 64.4V89.5H56.3V46.4H64.6L75.9001 69.7L87 46.4H95.3001V89.5H86.9001Z" fill="#6FC6AD"/>
<path d="M128.6 86.4C125.7 88.7 121.9 89.8 117.2 89.8C113.8 89.8 110.9 89.4 108.5 88.6C105.9 87.7 103.5 86.2 101.5 84.1L106.9 78.7C108.2 80 109.8 80.9 111.6 81.5C113.3 82 115.1 82.3 117.3 82.3C122.4 82.3 124.9 80.5 124.9 77C124.9 75.4 124.5 74.2 123.6 73.4C122.8 72.7 121.5 72.2 119.8 71.9L114.6 71.2C110.9 70.7 108.1 69.5 106.3 67.6C104.2 65.5 103.2 62.7 103.2 59.1C103.2 55.2 104.5 52 107.2 49.7C109.9 47.3 113.6 46.1 118.2 46.1C124 46.1 128.6 47.8 132.1 51.1L126.8 56.4C125.6 55.2 124.1 54.4 122.4 53.9C121.1 53.6 119.7 53.4 117.9 53.4C113.5 53.4 111.2 55.2 111.2 58.8C111.2 60.1 111.6 61.1 112.5 61.9C113.5 62.8 114.8 63.4 116.5 63.6L121.6 64.3C125.2 64.8 128 65.9 129.8 67.6C132 69.7 133.1 72.7 133.1 76.7C133.2 80.8 131.6 84.1 128.6 86.4Z" fill="#6FC6AD"/>
<path d="M28.8001 110.2L29.2001 110.4C27.9001 109.6 26.5001 109.1 24.9001 109.1C20.4001 109.1 16.7001 112.8 16.7001 117.3V149.5C16.7001 154 20.4001 157.7 24.9001 157.7C26.2001 157.7 27.4001 157.4 28.5001 156.9C28.5001 156.9 29.3001 156.5 30.0001 155.9C34.4001 152.3 48.8001 139.8 48.8001 139.8C50.7001 138.3 51.8001 136 51.8001 133.4C51.8001 130.7 50.5001 128.3 48.5001 126.8L48.7001 127L30.0001 111C28.6001 109.8 26.8001 109.1 24.8001 109.1C20.3001 109.1 16.6001 112.8 16.6001 117.3V149.5C16.6001 154 20.3001 157.7 24.8001 157.7C26.7001 157.7 28.5001 157 29.9001 155.9" fill="#6FC6AD"/>
<path d="M62.8999 157.4H40.3999C36.4999 157.4 33.3999 154.3 33.3999 150.4V115.9C33.3999 112 36.4999 108.9 40.3999 108.9H62.7999C66.6999 108.9 69.7999 112 69.7999 115.9V150.4C69.8999 154.3 66.6999 157.4 62.8999 157.4ZM40.3999 111C37.6999 111 35.4999 113.2 35.4999 115.9V150.4C35.4999 153.1 37.6999 155.3 40.3999 155.3H62.7999C65.4999 155.3 67.6999 153.1 67.6999 150.4V115.9C67.6999 113.2 65.4999 111 62.7999 111H40.3999Z" fill="#1F4A6A"/>
<path d="M57.1998 149.8H46.2998C42.3998 149.8 39.2998 146.7 39.2998 142.8V123.5C39.2998 119.6 42.3998 116.5 46.2998 116.5H57.1998C61.0998 116.5 64.1998 119.6 64.1998 123.5V142.8C64.1998 146.7 60.9998 149.8 57.1998 149.8ZM46.2998 118.6C43.5998 118.6 41.3998 120.8 41.3998 123.5V142.8C41.3998 145.5 43.5998 147.7 46.2998 147.7H57.1998C59.8998 147.7 62.0998 145.5 62.0998 142.8V123.5C62.0998 120.8 59.8998 118.6 57.1998 118.6H46.2998Z" fill="#1F4A6A"/>
<path d="M55.1999 114.8H46.9999C46.3999 114.8 45.8999 114.3 45.8999 113.7C45.8999 113.1 46.3999 112.6 46.9999 112.6H55.1999C55.7999 112.6 56.2999 113.1 56.2999 113.7C56.1999 114.3 55.6999 114.8 55.1999 114.8Z" fill="#1F4A6A"/>
<path d="M51.6999 154C52.4179 154 52.9999 153.418 52.9999 152.7C52.9999 151.982 52.4179 151.4 51.6999 151.4C50.9819 151.4 50.3999 151.982 50.3999 152.7C50.3999 153.418 50.9819 154 51.6999 154Z" fill="#1F4A6A"/>
<path d="M98.4 137C100.002 137 101.3 135.702 101.3 134.1C101.3 132.498 100.002 131.2 98.4 131.2C96.7984 131.2 95.5 132.498 95.5 134.1C95.5 135.702 96.7984 137 98.4 137Z" fill="white"/>
<path d="M109.3 137C110.902 137 112.2 135.702 112.2 134.1C112.2 132.498 110.902 131.2 109.3 131.2C107.698 131.2 106.4 132.498 106.4 134.1C106.4 135.702 107.698 137 109.3 137Z" fill="white"/>
<path d="M120.1 137C121.702 137 123 135.702 123 134.1C123 132.498 121.702 131.2 120.1 131.2C118.498 131.2 117.2 132.498 117.2 134.1C117.2 135.702 118.498 137 120.1 137Z" fill="white"/>
<path d="M172.2 62.9H254.9" stroke="white" stroke-width="3" stroke-miterlimit="10" stroke-linecap="round" stroke-linejoin="round"/>
<path d="M172.2 119.9H213.6" stroke="white" stroke-width="3" stroke-miterlimit="10" stroke-linecap="round" stroke-linejoin="round"/>
<path d="M172.2 82.6H254.9" stroke="#1062AA" stroke-width="3" stroke-miterlimit="10" stroke-linecap="round" stroke-linejoin="round"/>
<path d="M172.2 92H254.9" stroke="#1062AA" stroke-width="3" stroke-miterlimit="10" stroke-linecap="round" stroke-linejoin="round"/>
<path d="M172.2 101.4H254.9" stroke="#1062AA" stroke-width="3" stroke-miterlimit="10" stroke-linecap="round" stroke-linejoin="round"/>
<path d="M311.4 99.1H238.9C235.6 99.1 232.8 101.8 232.8 105.2V154.8C232.8 158.1 235.5 160.9 238.9 160.9H297.7L309.2 170.9V160.9H311.4C314.7 160.9 317.5 158.2 317.5 154.8V105.1C317.4 101.8 314.7 99.1 311.4 99.1Z" fill="#81859C"/>
<path d="M245 116.2H305.8" stroke="white" stroke-width="3" stroke-miterlimit="10" stroke-linecap="round" stroke-linejoin="round"/>
<path d="M245 130.2H305.8" stroke="white" stroke-width="3" stroke-miterlimit="10" stroke-linecap="round" stroke-linejoin="round"/>
<path d="M245 144.3H305.8" stroke="white" stroke-width="3" stroke-miterlimit="10" stroke-linecap="round" stroke-linejoin="round"/>
<line x1="1" y1="197.5" x2="288" y2="197.5" stroke="#1062AA" stroke-width="3"/>
</g>
<defs>
<clipPath id="clip0">
<rect width="317.4" height="243.2" fill="white"/>
</clipPath>
</defs>
</svg>
