<svg width="90" height="72" viewBox="0 0 90 72" fill="none" xmlns="http://www.w3.org/2000/svg">
<path d="M24.8849 11.3668L25.0981 11.7554C24.4195 10.5963 24.0414 9.26168 24.0032 7.89087C23.965 6.52005 24.2682 5.1633 24.8811 3.96227C25.494 2.76124 26.3942 1.75997 27.4875 1.06301C28.5809 0.366037 29.8274 -0.00107373 31.097 8.20229e-07L59.043 2.04179e-06C60.2474 -0.000780457 61.4321 0.329814 62.4854 0.960614C63.5388 1.59141 64.4261 2.50163 65.0636 3.60545C65.7012 4.70926 66.068 5.9703 66.1294 7.26965C66.1909 8.56901 65.945 9.86386 65.4149 11.0321C65.1765 11.5442 64.8872 12.0268 64.5522 12.4714C61.4745 16.5914 50.6059 30.1423 50.6059 30.1423C49.9272 31.0532 49.0646 31.7843 48.084 32.2794C47.1033 32.7745 46.0308 33.0205 44.9486 32.9987C43.8663 32.9768 42.8031 32.6875 41.8403 32.1531C40.8775 31.6187 40.0408 30.8533 39.3942 29.9156L39.5574 30.1459L25.6377 12.5578C24.7776 11.4378 24.2304 10.0765 24.0601 8.633C23.8899 7.18948 24.1035 5.72343 24.6761 4.40626C25.2488 3.0891 26.1567 1.97525 27.2937 1.19497C28.4307 0.414681 29.7499 0.00020477 31.097 8.20229e-07L59.043 2.04179e-06C60.3823 0.000338982 61.6942 0.410201 62.8269 1.18219C63.9597 1.95418 64.867 3.05677 65.444 4.36245C66.021 5.66813 66.244 7.12357 66.0874 8.56047C65.9308 9.99736 65.4009 11.357 64.5589 12.4822" fill="#F9BA16"/>
<path d="M45.4099 48.1408C48.0222 48.1408 50.1399 46.0231 50.1399 43.4108C50.1399 40.7985 48.0222 38.6808 45.4099 38.6808C42.7976 38.6808 40.6799 40.7985 40.6799 43.4108C40.6799 46.0231 42.7976 48.1408 45.4099 48.1408Z" stroke="#1062AA" stroke-width="3" stroke-linecap="round" stroke-linejoin="round"/>
<path d="M42.6 52.9808V57.5508C43.5253 57.7355 44.4665 57.8293 45.41 57.8308C46.3941 57.871 47.3729 57.6684 48.26 57.2408V52.9808L50.18 52.1808L53.18 55.1808L53.46 55.3508C54.999 54.3345 56.3239 53.0265 57.36 51.5008L57.19 51.2208L54.19 48.2208L54.96 46.2808H59.56C59.9334 44.4126 59.9334 42.489 59.56 40.6208H54.96L54.19 38.6908L57.19 35.6908L57.31 35.4408C56.3409 33.8666 55.0408 32.5221 53.5 31.5008L53.22 31.6808L50.22 34.6808L48.3 33.8708V29.2808C47.3613 29.0956 46.4068 29.0018 45.45 29.0008C44.5235 28.9907 43.5984 29.0778 42.69 29.2608L42.64 29.5908V33.8408L40.69 34.6508L37.69 31.6508H37.37C35.8476 32.632 34.5327 33.9027 33.5 35.3908L33.63 35.6408L36.63 38.6408L35.8 40.5708H31.28C30.9067 42.439 30.9067 44.3626 31.28 46.2308H35.82L36.65 48.1708L33.65 51.1708L33.4 51.5008C34.3815 53.0647 35.7263 54.3684 37.32 55.3008L37.64 55.1908L40.64 52.1908L42.6 52.9808Z" stroke="#1062AA" stroke-width="3" stroke-linecap="round" stroke-linejoin="round"/>
<rect x="6.5" y="11.5" width="77" height="52" rx="4.5" stroke="#1062AA" stroke-width="3"/>
<rect x="1.5" y="63.5" width="87" height="7" rx="3.5" stroke="#1062AA" stroke-width="3"/>
<line x1="6" y1="23.5" x2="83" y2="23.5" stroke="#1062AA" stroke-width="3"/>
<circle cx="57.5" cy="17.5" r="1.5" stroke="#1062AA" stroke-width="2"/>
<circle cx="66.25" cy="17.5" r="1.5" stroke="#1062AA" stroke-width="2"/>
<circle cx="75" cy="17.5" r="1.5" stroke="#1062AA" stroke-width="2"/>
</svg>
