<svg width="63" height="64" viewBox="0 0 63 64" fill="none" xmlns="http://www.w3.org/2000/svg">
<path d="M15.83 1.34459L16.37 1.66459C14.754 0.647234 12.8948 0.0817465 10.9861 0.0270271C9.07729 -0.0276923 7.18875 0.430358 5.51714 1.35347C3.84553 2.27659 2.45199 3.631 1.48165 5.27565C0.511315 6.9203 -0.000320835 8.79503 2.83142e-05 10.7046V52.7946C0.00195495 54.6082 0.465256 56.3915 1.34634 57.9767C2.22742 59.5618 3.49731 60.8968 5.03653 61.8559C6.57574 62.8151 8.33367 63.3668 10.1449 63.4593C11.9561 63.5518 13.7611 63.182 15.39 62.3846C16.1023 62.0259 16.773 61.5899 17.39 61.0846C23.12 56.4346 42.01 40.0846 42.01 40.0846C43.2789 39.0612 44.297 37.7611 44.9863 36.2838C45.6756 34.8065 46.0179 33.1911 45.987 31.5612C45.9561 29.9313 45.5529 28.3301 44.8081 26.8799C44.0633 25.4298 42.9968 24.1692 41.69 23.1946L42.01 23.4446L17.48 2.44459C15.9163 1.15342 14.0173 0.334126 12.0051 0.0825254C9.99284 -0.169075 7.95056 0.157415 6.11706 1.02382C4.28356 1.89022 2.73463 3.26072 1.65138 4.97505C0.568138 6.68939 -0.00464036 8.6767 2.83142e-05 10.7046V52.7946C0.00261303 54.8116 0.575811 56.7868 1.6534 58.4919C2.73099 60.197 4.26899 61.5624 6.08973 62.4304C7.91046 63.2984 9.93962 63.6336 11.9428 63.3972C13.9459 63.1609 15.8413 62.3626 17.41 61.0946" fill="#F7B916"/>
<path d="M52.6899 14.1145H23.6899C19.2717 14.1145 15.6899 17.6962 15.6899 22.1145V43.1845C15.6899 47.6028 19.2717 51.1845 23.6899 51.1845H52.6899C57.1082 51.1845 60.6899 47.6028 60.6899 43.1845V22.1145C60.6899 17.6962 57.1082 14.1145 52.6899 14.1145Z" stroke="#1062AA" stroke-width="3" stroke-linecap="round" stroke-linejoin="round"/>
<path d="M19.01 16.3645L38.19 32.3245L57.52 16.7045" stroke="#1062AA" stroke-width="3" stroke-linecap="round" stroke-linejoin="round"/>
<path d="M30.8801 34.2146L38.1901 40.2946L45.7201 34.2146" stroke="#1062AA" stroke-width="3" stroke-linecap="round" stroke-linejoin="round"/>
</svg>
