<svg width="63" height="64" viewBox="0 0 63 64" fill="none" xmlns="http://www.w3.org/2000/svg">
<path d="M15.83 1.34459L16.37 1.66459C14.754 0.647234 12.8948 0.0817465 10.9861 0.0270271C9.07729 -0.0276923 7.18875 0.430358 5.51714 1.35347C3.84553 2.27659 2.45199 3.631 1.48165 5.27565C0.511315 6.9203 -0.000320835 8.79503 2.83142e-05 10.7046V52.7946C0.00195495 54.6082 0.465256 56.3915 1.34634 57.9767C2.22742 59.5618 3.49731 60.8968 5.03653 61.8559C6.57574 62.8151 8.33367 63.3668 10.1449 63.4593C11.9561 63.5518 13.7611 63.182 15.39 62.3846C16.1023 62.0259 16.773 61.5899 17.39 61.0846C23.12 56.4346 42.01 40.0846 42.01 40.0846C43.2789 39.0612 44.297 37.7611 44.9863 36.2838C45.6756 34.8065 46.0179 33.1911 45.987 31.5612C45.9561 29.9313 45.5529 28.3301 44.8081 26.8799C44.0633 25.4298 42.9968 24.1692 41.69 23.1946L42.01 23.4446L17.48 2.44459C15.9163 1.15342 14.0173 0.334126 12.0051 0.0825254C9.99284 -0.169075 7.95056 0.157415 6.11706 1.02382C4.28356 1.89022 2.73463 3.26072 1.65138 4.97505C0.568138 6.68939 -0.00464036 8.6767 2.83142e-05 10.7046V52.7946C0.00261303 54.8116 0.575811 56.7868 1.6534 58.4919C2.73099 60.197 4.26899 61.5624 6.08973 62.4304C7.91046 63.2984 9.93962 63.6336 11.9428 63.3972C13.9459 63.1609 15.8413 62.3626 17.41 61.0946" fill="#F7B916"/>
<path d="M31 49.2246L23 56.0946V49.2146C21.0761 49.2093 19.2326 48.4427 17.8722 47.0824C16.5119 45.722 15.7453 43.8784 15.74 41.9546V16.4646C15.7453 14.5407 16.5119 12.6972 17.8722 11.3368C19.2326 9.97645 21.0761 9.20987 23 9.20459H53.33C55.2538 9.20987 57.0974 9.97645 58.4578 11.3368C59.8181 12.6972 60.5847 14.5407 60.59 16.4646V41.9546C60.5847 43.8784 59.8181 45.722 58.4578 47.0824C57.0974 48.4427 55.2538 49.2093 53.33 49.2146H31" stroke="#1062AA" stroke-width="3" stroke-linecap="round" stroke-linejoin="round"/>
<path d="M32.67 35.0247H26.53C26.1322 35.0247 25.7507 35.1827 25.4694 35.464C25.1881 35.7453 25.03 36.1268 25.03 36.5247C25.03 36.9225 25.1881 37.304 25.4694 37.5853C25.7507 37.8666 26.1322 38.0247 26.53 38.0247H36.19L32.67 35.0247Z" fill="#1062AA"/>
<path d="M50 35.0247H44.65L42.56 37.5147C42.3888 37.701 42.2014 37.8716 42 38.0247H50C50.3978 38.0247 50.7794 37.8666 51.0607 37.5853C51.342 37.304 51.5 36.9225 51.5 36.5247C51.5 36.1268 51.342 35.7453 51.0607 35.464C50.7794 35.1827 50.3978 35.0247 50 35.0247Z" fill="#1062AA"/>
<path d="M43.12 22.9346L45.64 19.9346H26.53C26.1322 19.9346 25.7507 20.0926 25.4694 20.3739C25.1881 20.6552 25.03 21.0367 25.03 21.4346C25.03 21.8324 25.1881 22.2139 25.4694 22.4952C25.7507 22.7765 26.1322 22.9346 26.53 22.9346H43.12Z" fill="#1062AA"/>
<path d="M30.6101 27.1245L39.0401 34.3245L50.1801 21.1145" stroke="#1062AA" stroke-width="3" stroke-linecap="round" stroke-linejoin="round"/>
</svg>
