<svg width="64" height="64" viewBox="0 0 64 64" fill="none" xmlns="http://www.w3.org/2000/svg">
<path d="M15.83 1.34459L16.37 1.66459C14.754 0.647234 12.8948 0.0817465 10.9861 0.0270271C9.07729 -0.0276923 7.18875 0.430358 5.51714 1.35347C3.84553 2.27659 2.45199 3.631 1.48165 5.27565C0.511315 6.9203 -0.000320835 8.79503 2.83142e-05 10.7046V52.7946C0.00195495 54.6082 0.465256 56.3915 1.34634 57.9767C2.22742 59.5618 3.49731 60.8968 5.03653 61.8559C6.57574 62.8151 8.33367 63.3668 10.1449 63.4593C11.9561 63.5518 13.7611 63.182 15.39 62.3846C16.1023 62.0259 16.773 61.5899 17.39 61.0846C23.12 56.4346 42.01 40.0846 42.01 40.0846C43.2789 39.0612 44.297 37.7611 44.9863 36.2838C45.6756 34.8065 46.0179 33.1911 45.987 31.5612C45.9561 29.9313 45.5529 28.3301 44.8081 26.8799C44.0633 25.4298 42.9968 24.1692 41.69 23.1946L42.01 23.4446L17.48 2.44459C15.9163 1.15342 14.0173 0.334126 12.0051 0.0825254C9.99284 -0.169075 7.95056 0.157415 6.11706 1.02382C4.28356 1.89022 2.73463 3.26072 1.65138 4.97505C0.568138 6.68939 -0.00464036 8.6767 2.83142e-05 10.7046V52.7946C0.00261303 54.8116 0.575811 56.7868 1.6534 58.4919C2.73099 60.197 4.26899 61.5624 6.08973 62.4304C7.91046 63.2984 9.93962 63.6336 11.9428 63.3972C13.9459 63.1609 15.8413 62.3626 17.41 61.0946" fill="#F7B916"/>
<path d="M43.2301 32.0845C42.8442 32.0849 42.4729 31.9365 42.1935 31.6702C41.9141 31.4039 41.7482 31.0401 41.7301 30.6545C41.6501 28.9445 41.0101 28.2745 39.3801 28.1845C39.1832 28.174 38.9902 28.1248 38.8122 28.0397C38.6342 27.9546 38.4748 27.8353 38.3429 27.6886C38.2111 27.5419 38.1094 27.3706 38.0437 27.1846C37.978 26.9986 37.9496 26.8015 37.9601 26.6045C37.9706 26.4075 38.0198 26.2145 38.1049 26.0366C38.19 25.8586 38.3093 25.6991 38.4561 25.5673C38.6028 25.4354 38.774 25.3337 38.96 25.2681C39.146 25.2024 39.3432 25.174 39.5401 25.1845C42.7301 25.3545 44.5401 27.1845 44.7301 30.5045C44.7465 30.9018 44.6055 31.2894 44.3378 31.5834C44.07 31.8773 43.6972 32.0538 43.3001 32.0745L43.2301 32.0845Z" fill="#1062AA"/>
<path d="M48.22 31.3946C47.8212 31.3841 47.4428 31.2162 47.1674 30.9277C46.892 30.6392 46.7419 30.2534 46.75 29.8546C46.8018 28.9977 46.6826 28.1391 46.3993 27.3287C46.1161 26.5184 45.6744 25.7725 45.1 25.1346C44.456 24.4749 43.6882 23.9489 42.8404 23.5868C41.9927 23.2247 41.0817 23.0337 40.16 23.0246C39.7636 22.9964 39.3946 22.8121 39.134 22.5121C38.8734 22.2121 38.7425 21.821 38.77 21.4246C38.78 21.2265 38.8297 21.0325 38.9162 20.854C39.0027 20.6756 39.1242 20.5163 39.2735 20.3857C39.4227 20.2551 39.5967 20.1559 39.785 20.0938C39.9734 20.0318 40.1723 20.0082 40.37 20.0246C42.9849 20.1014 45.4655 21.2 47.28 23.0846C48.1156 24.0047 48.7614 25.0809 49.1801 26.2512C49.5988 27.4216 49.7823 28.6631 49.72 29.9046C49.7173 30.3006 49.5581 30.6796 49.2771 30.9588C48.9961 31.2379 48.6161 31.3946 48.22 31.3946Z" fill="#1062AA"/>
<path d="M53.38 30.8445C52.9839 30.8445 52.6039 30.6879 52.3229 30.4087C52.0418 30.1296 51.8826 29.7506 51.88 29.3545C51.88 25.7545 50.83 23.0145 48.75 20.9745C47.728 19.9734 46.5155 19.1877 45.1842 18.6638C43.853 18.1398 42.4302 17.8885 41 17.9245C40.6022 17.9245 40.2206 17.7665 39.9393 17.4852C39.658 17.2039 39.5 16.8224 39.5 16.4245C39.5 16.0267 39.658 15.6452 39.9393 15.3639C40.2206 15.0826 40.6022 14.9245 41 14.9245C42.8159 14.8922 44.6201 15.2212 46.3076 15.8924C47.9952 16.5637 49.5325 17.5638 50.83 18.8345C53.47 21.4145 54.83 24.9545 54.83 29.3345C54.8313 29.5315 54.7938 29.7268 54.7197 29.9093C54.6455 30.0918 54.5361 30.2579 54.3977 30.3981C54.2594 30.5384 54.0948 30.6499 53.9133 30.7265C53.7318 30.8031 53.537 30.8432 53.34 30.8445H53.38Z" fill="#1062AA"/>
<path d="M45.5201 46.3845H45.3801C44.9554 46.3846 44.5335 46.3171 44.1301 46.1845L43.9301 46.1045C42.0252 45.4296 40.19 44.5723 38.4501 43.5445C36.7781 42.6385 35.1887 41.5878 33.7001 40.4045C32.9416 39.8127 32.2202 39.1749 31.5401 38.4945L31.4601 38.4245L31.3301 38.2845L31.2601 38.2145C30.5785 37.522 29.9375 36.7908 29.3401 36.0245C28.1613 34.5383 27.114 32.9523 26.2101 31.2845C25.1832 29.5356 24.3228 27.6942 23.6401 25.7845C23.6124 25.7263 23.589 25.6661 23.5701 25.6045C23.4322 25.1918 23.3613 24.7597 23.3601 24.3245C23.3448 24.1482 23.3448 23.9709 23.3601 23.7945C23.5162 22.7895 23.9609 21.8516 24.6401 21.0945L24.7301 20.9945C25.5115 20.1186 26.4302 19.3756 27.4501 18.7945H27.5301C28.2012 18.4148 28.9844 18.2828 29.7429 18.4217C30.5014 18.5607 31.187 18.9616 31.6801 19.5545C32.0101 19.9345 33.0701 21.2445 33.4601 21.7745C33.9801 22.4945 34.6701 23.5945 35.0301 24.2345C35.4592 24.9542 35.6185 25.803 35.4792 26.6293C35.34 27.4555 34.9114 28.2053 34.2701 28.7445L33.1901 29.6145C33.5101 30.6145 35.1901 35.1745 40.0801 36.5245L41.0001 35.4145C41.5388 34.7779 42.2871 34.3545 43.1103 34.2206C43.9335 34.0868 44.7774 34.2513 45.4901 34.6845C46.3531 35.1644 47.1909 35.6885 48.0001 36.2545C48.7301 36.7945 50.1601 37.9845 50.2201 38.0345C50.8221 38.5229 51.231 39.2094 51.3739 39.9713C51.5167 40.7333 51.3843 41.5212 51.0001 42.1945V42.2645C50.3947 43.2992 49.6284 44.2309 48.7301 45.0245L48.6401 45.1045C47.8796 45.7785 46.9432 46.2224 45.9401 46.3845C45.8002 46.3943 45.6599 46.3943 45.5201 46.3845ZM45.2001 43.3845C45.2998 43.3951 45.4003 43.3951 45.5001 43.3845C45.9394 43.2945 46.3447 43.0832 46.6701 42.7745C47.306 42.1968 47.846 41.5217 48.2701 40.7745C48.4401 40.4545 48.3501 40.3845 48.2701 40.3045C48.1901 40.2245 46.8601 39.1245 46.2101 38.6445C45.5601 38.1645 44.6701 37.6445 44.0401 37.2645C43.941 37.1979 43.8244 37.1623 43.7051 37.1623C43.5857 37.1623 43.4691 37.1979 43.3701 37.2645L42.4401 38.4445C42.1165 38.8202 41.7086 39.1139 41.2498 39.3016C40.7909 39.4893 40.2941 39.5657 39.8001 39.5245C39.717 39.535 39.6331 39.535 39.5501 39.5245C32.3101 37.6745 30.3501 30.5245 30.2701 30.2545C30.2486 30.1689 30.2319 30.0821 30.2201 29.9945C30.1793 29.5 30.2548 29.0027 30.4406 28.5426C30.6264 28.0824 30.9173 27.6721 31.2901 27.3445L32.4701 26.4045C32.5372 26.302 32.5729 26.1821 32.5729 26.0595C32.5729 25.937 32.5372 25.8171 32.4701 25.7145C32.0473 24.9746 31.5867 24.257 31.0901 23.5645C30.6501 22.9545 29.5701 21.6445 29.4501 21.5045C29.3701 21.4145 29.2901 21.3245 28.9601 21.5045C28.2331 21.9084 27.5721 22.421 27.0001 23.0245C26.708 23.3456 26.5076 23.7394 26.4201 24.1645C26.4262 24.1806 26.4262 24.1984 26.4201 24.2145C26.4301 24.2471 26.4301 24.282 26.4201 24.3145C26.4151 24.3811 26.4151 24.448 26.4201 24.5145C26.4587 24.584 26.4889 24.6579 26.5101 24.7345C27.1147 26.5066 27.9058 28.2095 28.8701 29.8145C29.7017 31.3347 30.6583 32.783 31.7301 34.1445C32.2605 34.8157 32.828 35.4567 33.4301 36.0645L33.5601 36.1945L33.6401 36.2745C34.27 36.8954 34.938 37.4765 35.6401 38.0145C36.9983 39.0908 38.447 40.0477 39.9701 40.8745C41.557 41.8532 43.243 42.661 45.0001 43.2845L45.2001 43.3845Z" fill="#1062AA"/>
<path d="M24.05 58.9047C23.8358 58.9025 23.6244 58.8548 23.43 58.7647C23.1686 58.646 22.9467 58.4547 22.7907 58.2137C22.6347 57.9726 22.5512 57.6918 22.55 57.4047V51.9047C20.5183 51.5455 18.6777 50.4832 17.3504 48.9036C16.0231 47.324 15.2938 45.3279 15.29 43.2647V17.7747C15.2953 15.4539 16.2203 13.2299 17.8622 11.5898C19.5042 9.9497 21.7293 9.0273 24.05 9.02466H54.4C56.7225 9.0273 58.9491 9.95108 60.5914 11.5933C62.2336 13.2356 63.1574 15.4622 63.16 17.7847V43.2647C63.1548 45.5863 62.2301 47.8114 60.5885 49.4531C58.9468 51.0948 56.7217 52.0194 54.4 52.0247H32.59L25 58.5347C24.7372 58.7666 24.4005 58.8977 24.05 58.9047ZM24.05 12.0147C22.5224 12.0147 21.0573 12.6215 19.9771 13.7017C18.8969 14.7819 18.29 16.247 18.29 17.7747V43.2647C18.2927 44.7915 18.9004 46.255 19.98 47.3347C21.0597 48.4143 22.5232 49.022 24.05 49.0247C24.4461 49.0247 24.8262 49.1813 25.1072 49.4605C25.3882 49.7396 25.5474 50.1186 25.55 50.5147V54.1247L31 49.4647C31.2645 49.195 31.6226 49.0374 32 49.0247H54.4C55.9286 49.022 57.3937 48.4129 58.4736 47.3311C59.5535 46.2493 60.16 44.7832 60.16 43.2547V17.7747C60.1574 16.2487 59.5494 14.7862 58.4694 13.7082C57.3895 12.6301 55.926 12.0247 54.4 12.0247L24.05 12.0147Z" fill="#1062AA"/>
</svg>
