<svg width="64" height="64" viewBox="0 0 64 64" fill="none" xmlns="http://www.w3.org/2000/svg">
<path d="M15.83 1.34459L16.37 1.66459C14.754 0.647234 12.8948 0.0817465 10.9861 0.0270271C9.07729 -0.0276923 7.18875 0.430358 5.51714 1.35347C3.84553 2.27659 2.45199 3.631 1.48165 5.27565C0.511315 6.9203 -0.000320835 8.79503 2.83142e-05 10.7046V52.7946C0.00195495 54.6082 0.465256 56.3915 1.34634 57.9767C2.22742 59.5618 3.49731 60.8968 5.03653 61.8559C6.57574 62.8151 8.33367 63.3668 10.1449 63.4593C11.9561 63.5518 13.7611 63.182 15.39 62.3846C16.1023 62.0259 16.773 61.5899 17.39 61.0846C23.12 56.4346 42.01 40.0846 42.01 40.0846C43.2789 39.0612 44.297 37.7611 44.9863 36.2838C45.6756 34.8065 46.0179 33.1911 45.987 31.5612C45.9561 29.9313 45.5529 28.3301 44.8081 26.8799C44.0633 25.4298 42.9968 24.1692 41.69 23.1946L42.01 23.4446L17.48 2.44459C15.9163 1.15342 14.0173 0.334126 12.0051 0.0825254C9.99284 -0.169075 7.95056 0.157415 6.11706 1.02382C4.28356 1.89022 2.73463 3.26072 1.65138 4.97505C0.568138 6.68939 -0.00464036 8.6767 2.83142e-05 10.7046V52.7946C0.00261303 54.8116 0.575811 56.7868 1.6534 58.4919C2.73099 60.197 4.26899 61.5624 6.08973 62.4304C7.91046 63.2984 9.93962 63.6336 11.9428 63.3972C13.9459 63.1609 15.8413 62.3626 17.41 61.0946" fill="#F7B916"/>
<path d="M32 50.5346L24 57.4046V50.5346C22.0752 50.5267 20.2317 49.7579 18.8716 48.396C17.5115 47.034 16.7453 45.1894 16.74 43.2646V17.7746C16.7479 15.8516 17.5153 14.0096 18.8751 12.6498C20.2349 11.29 22.077 10.5225 24 10.5146H54.4C56.323 10.5225 58.1651 11.29 59.5249 12.6498C60.8847 14.0096 61.6521 15.8516 61.66 17.7746V43.2646C61.6547 45.1894 60.8885 47.034 59.5284 48.396C58.1683 49.7579 56.3248 50.5267 54.4 50.5346H32" stroke="#1062AA" stroke-width="3" stroke-linecap="round" stroke-linejoin="round"/>
<path d="M27.76 24.1846H44.41" stroke="#1062AA" stroke-width="3" stroke-linecap="round" stroke-linejoin="round"/>
<path d="M27.76 31.7546H37.69" stroke="#1062AA" stroke-width="3" stroke-linecap="round" stroke-linejoin="round"/>
<path d="M27.76 39.3147H35.81" stroke="#1062AA" stroke-width="3" stroke-linecap="round" stroke-linejoin="round"/>
<path d="M44.41 37.4046C48.0607 37.4046 51.0201 34.4452 51.0201 30.7946C51.0201 27.144 48.0607 24.1846 44.41 24.1846C40.7594 24.1846 37.8 27.144 37.8 30.7946C37.8 34.4452 40.7594 37.4046 44.41 37.4046Z" stroke="#1062AA" stroke-width="3" stroke-linecap="round" stroke-linejoin="round"/>
<path d="M48.24 36.2246C52.72 38.0746 56.05 43.0946 56.51 49.1546" stroke="#1062AA" stroke-width="3" stroke-linecap="round" stroke-linejoin="round"/>
<path d="M32.3401 49.9646C32.5601 43.5446 35.9801 38.1546 40.6501 36.2346" stroke="#1062AA" stroke-width="3" stroke-linecap="round" stroke-linejoin="round"/>
</svg>
