<svg width="63" height="64" viewBox="0 0 63 64" fill="none" xmlns="http://www.w3.org/2000/svg">
<path d="M15.83 1.34459L16.37 1.66459C14.754 0.647234 12.8948 0.0817465 10.9861 0.0270271C9.07729 -0.0276923 7.18875 0.430358 5.51714 1.35347C3.84553 2.27659 2.45199 3.631 1.48165 5.27565C0.511315 6.9203 -0.000320835 8.79503 2.83142e-05 10.7046V52.7946C0.00195495 54.6082 0.465256 56.3915 1.34634 57.9767C2.22742 59.5618 3.49731 60.8968 5.03653 61.8559C6.57574 62.8151 8.33367 63.3668 10.1449 63.4593C11.9561 63.5518 13.7611 63.182 15.39 62.3846C16.1023 62.0259 16.773 61.5899 17.39 61.0846C23.12 56.4346 42.01 40.0846 42.01 40.0846C43.2789 39.0612 44.297 37.7611 44.9863 36.2838C45.6756 34.8065 46.0179 33.1911 45.987 31.5612C45.9561 29.9313 45.5529 28.3301 44.8081 26.8799C44.0633 25.4298 42.9968 24.1692 41.69 23.1946L42.01 23.4446L17.48 2.44459C15.9163 1.15342 14.0173 0.334126 12.0051 0.0825254C9.99284 -0.169075 7.95056 0.157415 6.11706 1.02382C4.28356 1.89022 2.73463 3.26072 1.65138 4.97505C0.568138 6.68939 -0.00464036 8.6767 2.83142e-05 10.7046V52.7946C0.00261303 54.8116 0.575811 56.7868 1.6534 58.4919C2.73099 60.197 4.26899 61.5624 6.08973 62.4304C7.91046 63.2984 9.93962 63.6336 11.9428 63.3972C13.9459 63.1609 15.8413 62.3626 17.41 61.0946" fill="#F7B916"/>
<path d="M38.4 54.1647C50.7932 54.1647 60.84 44.1179 60.84 31.7247C60.84 19.3314 50.7932 9.28467 38.4 9.28467C26.0067 9.28467 15.96 19.3314 15.96 31.7247C15.96 44.1179 26.0067 54.1647 38.4 54.1647Z" stroke="#1062AA" stroke-width="3" stroke-linecap="round" stroke-linejoin="round"/>
<path d="M17.4301 39.3846C16.2501 33.3846 20.1801 32.6746 20.9201 32.5546C21.265 32.5359 21.6097 32.5954 21.9283 32.7288C22.2469 32.8621 22.5313 33.0658 22.7601 33.3246C23.4155 33.9983 23.8484 34.857 24.0001 35.7846C24.0334 36.6114 24.1338 37.4341 24.3001 38.2446C24.5701 39.0246 25.4001 39.7246 26.1701 39.4346C26.6601 39.2546 26.9401 38.7446 27.2901 38.3546C27.6401 37.9646 28.2901 37.6346 28.6601 37.9446C28.8311 38.0871 28.9534 38.2794 29.0101 38.4946C29.2801 39.3146 29.1501 40.2146 29.3401 41.0546C29.5301 41.8946 30.3401 42.7446 31.1501 42.4846C31.9601 42.2246 32.1501 41.2146 32.8801 40.8046C33.2794 40.6557 33.7135 40.6265 34.1291 40.7207C34.5447 40.8148 34.9239 41.0282 35.2201 41.3346C36.3624 42.3161 37.1449 43.6504 37.4438 45.1265C37.7426 46.6026 37.5407 48.1362 36.8701 49.4846C36.1276 50.7425 34.9748 51.7065 33.6053 52.2145C32.2359 52.7226 30.7333 52.7438 29.3501 52.2746" stroke="#1062AA" stroke-width="3" stroke-linecap="round" stroke-linejoin="round"/>
<path d="M49.0001 11.9245C48.2804 11.4909 47.4709 11.2275 46.6338 11.1547C45.7966 11.082 44.9539 11.2016 44.1701 11.5045C43.434 11.8572 42.829 12.4348 42.4426 13.1538C42.0561 13.8728 41.9082 14.696 42.0201 15.5045C42.2101 16.7245 43.0201 17.7745 43.2901 18.9645C43.5382 19.9207 43.4795 20.9307 43.1221 21.8517C42.7647 22.7726 42.1268 23.5578 41.2986 24.0963C40.4704 24.6348 39.4939 24.8993 38.5071 24.8523C37.5204 24.8053 36.5734 24.4493 35.8001 23.8345C34.8601 23.0745 33.7201 21.8845 32.7101 22.5445C32.3475 22.8395 32.0884 23.2423 31.9701 23.6945C31.4219 24.9259 31.1065 26.2482 31.0401 27.5945C31.0204 28.2676 31.1899 28.9327 31.5293 29.5143C31.8687 30.0959 32.3644 30.5706 32.9601 30.8845C34.5101 31.5645 36.2501 30.6445 37.7701 29.8845C39.2901 29.1245 41.3201 28.5845 42.5301 29.7745C43.9901 31.2145 43.4801 34.4945 45.5301 34.8245C46.7001 34.6045 47.2001 32.9945 48.3701 32.7745C48.763 32.7377 49.1574 32.8276 49.4956 33.0309C49.8339 33.2342 50.0982 33.5403 50.2501 33.9045C50.5302 34.6437 50.6229 35.4408 50.5201 36.2245C50.3901 38.4245 50.0001 40.7445 50.8901 42.7645C51.7801 44.7845 55.1501 46.3145 56.7201 44.7645" stroke="#1062AA" stroke-width="3" stroke-linecap="round" stroke-linejoin="round"/>
<path d="M22 16.4446C22.4988 17.2754 23.2665 17.9107 24.1759 18.2454C25.0853 18.58 26.0817 18.5939 27 18.2846C27.8804 17.9216 28.6719 17.3724 29.32 16.6746C30.87 15.1546 32.22 13.1446 32.04 10.9846" stroke="#1062AA" stroke-width="3" stroke-linecap="round" stroke-linejoin="round"/>
</svg>
