<svg width="60" height="64" viewBox="0 0 60 64" fill="none" xmlns="http://www.w3.org/2000/svg">
<path d="M15.83 1.34459L16.37 1.66459C14.754 0.647234 12.8948 0.0817465 10.9861 0.0270271C9.07729 -0.0276923 7.18875 0.430358 5.51714 1.35347C3.84553 2.27659 2.45199 3.631 1.48165 5.27565C0.511315 6.9203 -0.000320835 8.79503 2.83142e-05 10.7046V52.7946C0.00195495 54.6082 0.465256 56.3915 1.34634 57.9767C2.22742 59.5618 3.49731 60.8968 5.03653 61.8559C6.57574 62.8151 8.33367 63.3668 10.1449 63.4593C11.9561 63.5518 13.7611 63.182 15.39 62.3846C16.1023 62.0259 16.773 61.5899 17.39 61.0846C23.12 56.4346 42.01 40.0846 42.01 40.0846C43.2789 39.0612 44.297 37.7611 44.9863 36.2838C45.6756 34.8065 46.0179 33.1911 45.987 31.5612C45.9561 29.9313 45.5529 28.3301 44.8081 26.8799C44.0633 25.4298 42.9968 24.1692 41.69 23.1946L42.01 23.4446L17.48 2.44459C15.9163 1.15342 14.0173 0.334126 12.0051 0.0825254C9.99284 -0.169075 7.95056 0.157415 6.11706 1.02382C4.28356 1.89022 2.73463 3.26072 1.65138 4.97505C0.568138 6.68939 -0.00464036 8.6767 2.83142e-05 10.7046V52.7946C0.00261303 54.8116 0.575811 56.7868 1.6534 58.4919C2.73099 60.197 4.26899 61.5624 6.08973 62.4304C7.91046 63.2984 9.93962 63.6336 11.9428 63.3972C13.9459 63.1609 15.8413 62.3626 17.41 61.0946" fill="#F7B916"/>
<path d="M35.94 9.29468C40.3786 9.29468 44.7176 10.611 48.408 13.0772C52.0985 15.5434 54.9747 19.0486 56.6728 23.1496C58.371 27.2505 58.8148 31.763 57.9481 36.1162C57.0814 40.4694 54.9432 44.4678 51.8039 47.6057C48.6646 50.7436 44.6653 52.88 40.3117 53.7447C35.9581 54.6094 31.4459 54.1636 27.3457 52.4637C23.2455 50.7637 19.7415 47.886 17.277 44.1944C14.8124 40.5028 13.498 36.1633 13.5 31.7247" stroke="#1062AA" stroke-width="3" stroke-linecap="round" stroke-linejoin="round"/>
<path d="M31 9.84448C32.641 9.47566 34.3181 9.29118 36 9.29448" stroke="#1062AA" stroke-width="3" stroke-linecap="round" stroke-linejoin="round"/>
<path d="M14.45 25.2447C15.0335 23.3301 15.8674 21.5009 16.93 19.8047" stroke="#1062AA" stroke-width="3" stroke-linecap="round" stroke-linejoin="round"/>
<path d="M20.6699 15.2845C22.1389 13.9217 23.7834 12.7614 25.5599 11.8345" stroke="#1062AA" stroke-width="3" stroke-linecap="round" stroke-linejoin="round"/>
<path d="M6.32007 37.6845L13.6301 31.6045L21.1601 37.6845" stroke="#1062AA" stroke-width="3" stroke-linecap="round" stroke-linejoin="round"/>
<path d="M38.4801 37.4146C38.7304 37.4353 38.9822 37.4003 39.2173 37.3121C39.4525 37.224 39.6652 37.0848 39.8401 36.9046L40.7601 35.7346C41.084 35.3816 41.5208 35.1526 41.9954 35.0869C42.4699 35.0212 42.9525 35.1229 43.3601 35.3746C43.9501 35.7146 45.0101 36.3746 45.6701 36.8446C46.3301 37.3146 47.8101 38.5646 47.8101 38.5646C48.1472 38.8395 48.3719 39.2283 48.442 39.6575C48.512 40.0868 48.4224 40.5268 48.1901 40.8946C47.6739 41.7889 47.0191 42.5956 46.2501 43.2846C45.6902 43.7893 44.9951 44.1195 44.2501 44.2346C44.1571 44.2452 44.0631 44.2452 43.9701 44.2346C43.6855 44.2396 43.4019 44.1991 43.1301 44.1146V44.1146C41.2443 43.4727 39.4311 42.6348 37.7201 41.6146C36.1258 40.7482 34.61 39.7444 33.1901 38.6146C32.4891 38.0539 31.8213 37.4529 31.1901 36.8146L31.1201 36.7446L31.0001 36.6746V36.6046L30.9301 36.5446C30.2907 35.9115 29.6864 35.2438 29.1201 34.5446C27.996 33.117 26.9926 31.5984 26.1201 30.0046C25.1041 28.2963 24.2695 26.4865 23.6301 24.6046V24.6046C23.5384 24.3342 23.4944 24.05 23.5001 23.7646C23.4895 23.6682 23.4895 23.571 23.5001 23.4746C23.6152 22.7296 23.9454 22.0345 24.4501 21.4746V21.4746C25.1357 20.7087 25.9392 20.0572 26.8301 19.5446V19.5446C27.1963 19.313 27.6347 19.2238 28.0623 19.2938C28.4899 19.3638 28.8769 19.5883 29.1501 19.9246C29.1501 19.9246 30.3501 21.3646 30.8701 22.0746C31.4009 22.8178 31.8916 23.5889 32.3401 24.3846C32.5898 24.7808 32.6925 25.252 32.6304 25.7162C32.5682 26.1804 32.3452 26.608 32.0001 26.9246L30.8401 27.8546C30.6598 28.0299 30.5199 28.2423 30.4301 28.4772C30.3403 28.7121 30.3027 28.9637 30.3201 29.2146C30.3201 29.2146 32.0001 35.7646 38.4801 37.4146Z" stroke="#1062AA" stroke-width="3" stroke-linecap="round" stroke-linejoin="round"/>
</svg>
