<svg width="1140" height="454" viewBox="0 0 1140 454" fill="none" xmlns="http://www.w3.org/2000/svg">
<rect y="242" width="1140" height="118" rx="12" fill="#6FC6AD"/>
<path d="M904.376 41.5441C903.192 40.5274 901.436 39.8636 900.091 40.645C897.839 41.9642 898.747 45.9302 896.604 47.4259C896.143 47.6885 895.666 47.9214 895.176 48.1233C894.31 48.5935 893.62 49.3315 893.21 50.2269C892.799 51.1222 892.69 52.1265 892.899 53.0892C892.994 53.5675 893.235 54.0047 893.588 54.3411C893.984 54.6365 894.45 54.8247 894.94 54.8873C896.603 55.2123 898.312 55.2322 899.982 54.9461C901.247 54.6138 902.548 54.4416 903.855 54.4336C905.998 54.61 908.233 56.1141 910.132 55.1058C910.467 54.9027 910.754 54.6311 910.977 54.3088C911.199 53.9865 911.35 53.6209 911.421 53.236C911.491 52.851 911.48 52.4555 911.386 52.0754C911.293 51.6953 911.121 51.3392 910.88 51.0306C910.166 50.1903 908.964 49.829 908.494 48.8543" fill="#F7B916"/>
<path d="M1140 241.944C1112.78 226.889 990.197 202.446 787.266 210.987C684.328 215.321 583.962 245.98 482.073 232.953C351.539 216.191 219.188 186.613 60.9206 224.255C41.0611 228.979 14.7216 236.104 4.2 239.197C1.16825 240.088 0 240.933 0 240.933V295C16.2857 295 72.381 295 88.0635 295C122.444 295 147.175 295 178.54 295C209.905 295 244.889 295 280.476 295C424.635 295 560.349 295 702.698 295C782.921 295 860.73 295 944.571 295C983.778 295 1018.16 295 1066.41 295C1095.37 295 1114.67 295 1140 295V241.944Z" fill="#6FC6AD"/>
<path d="M875.992 168.724C877.353 170.287 879.697 170.405 881.764 170.405L927.272 170.22C927.978 168.313 928.558 166.019 927.348 164.389C926.306 162.994 924.365 162.708 922.634 162.515C911.083 161.38 899.443 161.49 887.915 162.843C886.234 163.044 884.478 163.288 882.756 163.347C881.378 163.347 879.395 162.691 878.151 162.918C875.723 163.33 874.236 166.716 875.992 168.724Z" fill="#F7B916"/>
<path d="M863.439 212.115C865.27 213.334 867.64 213.468 869.791 213.552C874.532 213.825 879.284 213.825 884.025 213.552C888.083 213.241 892.108 212.535 896.15 212.09C902.995 211.46 909.87 211.199 916.744 211.309C923.029 211.309 929.348 211.309 935.574 211.888C937.381 212.056 939.372 212.233 940.826 211.141C942.649 209.771 942.725 207.107 942.632 204.83L942.54 202.52C942.574 202.345 942.564 202.165 942.512 201.995C942.459 201.824 942.366 201.67 942.24 201.545C942.113 201.419 941.958 201.327 941.788 201.276C941.617 201.224 941.437 201.216 941.263 201.251C930.524 200.562 919.761 199.873 909.014 200.41C900.233 200.856 891.486 202.091 882.697 201.856C876.63 201.679 870.791 201.276 864.774 202.301C859.951 203.167 859.431 209.46 863.439 212.115Z" fill="#F7B916"/>
<path d="M954.143 249.556C956.031 249.426 957.927 249.551 959.781 249.926C960.709 250.122 961.588 250.5 962.368 251.038C963.148 251.576 963.814 252.263 964.327 253.06C964.518 253.331 964.638 253.645 964.676 253.974C964.714 254.302 964.669 254.635 964.546 254.942C964.125 255.682 963.109 255.783 962.26 255.741C955.331 255.584 948.413 255.186 941.506 254.548C939.75 254.388 937.179 254.623 936.397 252.682C934.944 249.044 940.531 249.867 942.481 249.817L954.143 249.556Z" fill="#F7B916"/>
<path d="M862.49 256.724C864.044 256.917 865.725 257.111 867.077 256.321C869.296 255.027 869.43 251.943 869.304 249.38L855.188 248.229C852.292 247.888 849.367 247.865 846.466 248.162C842.786 248.683 832.577 255.136 841.055 255.481C848.239 255.766 855.348 255.825 862.49 256.724Z" fill="#F7B916"/>
<path d="M761.951 66.9112C789.948 74.0954 820.475 81.1115 846.934 69.474C853.917 66.3987 860.941 61.2395 862.227 53.7193C862.397 53.011 862.368 52.2694 862.143 51.5766C861.151 49.0559 857.429 50.1146 855.093 51.4506C836.015 62.2199 813.453 65.0107 792.326 59.2145C784.764 57.1055 777.546 53.9209 769.866 52.4253C762.186 50.9296 753.675 51.3414 747.305 55.8955C738.911 61.9285 758.54 66.0374 761.951 66.9112Z" fill="#F7B916"/>
<path d="M768.347 39.9896C776.346 39.0149 784.429 40.3089 792.386 41.5945L834.399 48.3837C841.658 49.56 849.817 50.5263 855.716 46.1402C859.01 43.6951 861.06 39.9056 864.186 37.2504C867.311 34.5952 872.588 33.4944 875.193 36.679C866.555 41.6617 863.656 52.6438 857.018 60.0968C849.758 68.2472 838.348 71.625 827.441 71.7931C816.535 71.9611 805.797 69.3312 795.075 67.3146C782.711 64.9888 770.21 63.4648 757.65 62.752C753.592 62.5167 749.096 62.189 746.265 59.2565C737.24 49.8877 762.809 40.6618 768.347 39.9896Z" fill="white" stroke="#333333" stroke-width="2" stroke-linecap="round" stroke-linejoin="round"/>
<path d="M788.043 41.9643C793.85 39.1144 799.297 35.5828 804.268 31.4443C805.571 30.3604 806.848 29.226 808.217 28.2345C811.092 26.1688 814.353 24.7031 817.806 23.925C821.259 23.1469 824.834 23.0723 828.316 23.7056C819.554 29.2729 811.65 36.0892 804.856 43.9388" stroke="#333333" stroke-width="2" stroke-linecap="round" stroke-linejoin="round"/>
<path d="M750.105 47.6695L762.633 48.5602C763.553 48.7199 764.501 48.5938 765.347 48.1989C766.166 47.5847 766.757 46.7156 767.028 45.7286L769.053 40.4014" stroke="#333333" stroke-width="2" stroke-linecap="round" stroke-linejoin="round"/>
<path d="M788.042 52.5007C789.94 52.5007 791.479 50.9621 791.479 49.0641C791.479 47.1661 789.94 45.6274 788.042 45.6274C786.144 45.6274 784.606 47.1661 784.606 49.0641C784.606 50.9621 786.144 52.5007 788.042 52.5007Z" stroke="#333333" stroke-width="2" stroke-linecap="round" stroke-linejoin="round"/>
<path d="M801.957 54.9542C803.855 54.9542 805.394 53.4156 805.394 51.5176C805.394 49.6196 803.855 48.0809 801.957 48.0809C800.059 48.0809 798.521 49.6196 798.521 51.5176C798.521 53.4156 800.059 54.9542 801.957 54.9542Z" stroke="#333333" stroke-width="2" stroke-linecap="round" stroke-linejoin="round"/>
<path d="M816.2 57.0799C818.098 57.0799 819.636 55.5413 819.636 53.6433C819.636 51.7453 818.098 50.2067 816.2 50.2067C814.302 50.2067 812.763 51.7453 812.763 53.6433C812.763 55.5413 814.302 57.0799 816.2 57.0799Z" stroke="#333333" stroke-width="2" stroke-linecap="round" stroke-linejoin="round"/>
<path d="M781.716 65.8357C776.809 67.2641 773.658 71.8603 770.28 75.7002C768.444 77.7976 766.437 79.7396 764.281 81.5064C762.062 83.3045 759.474 85.3211 759.374 88.1696C760.347 88.6609 761.408 88.954 762.496 89.0319C763.583 89.1098 764.676 88.9709 765.709 88.6233C767.774 87.9253 769.732 86.9411 771.524 85.6992C780.139 80.2656 788.511 74.4735 796.639 68.3228" stroke="#333333" stroke-width="2" stroke-linecap="round" stroke-linejoin="round"/>
<path d="M302.369 181.202C302.227 181.438 302.151 181.708 302.15 181.984C302.209 182.521 302.806 182.824 303.327 182.984C304.078 183.319 304.914 183.416 305.721 183.261C307.116 182.832 307.662 181.101 308.898 180.328C310.133 179.555 311.948 179.967 313.418 180.496C315.314 181.135 317.16 181.916 318.939 182.832C319.815 183.384 320.778 183.785 321.787 184.017C322.299 184.123 322.83 184.068 323.309 183.859C323.788 183.649 324.19 183.297 324.459 182.849C324.636 182.332 324.64 181.771 324.47 181.251C324.3 180.731 323.966 180.28 323.518 179.967C322.599 179.37 321.556 178.99 320.468 178.858L313.418 177.446C312.585 177.331 311.777 177.072 311.032 176.682C310.659 176.483 310.343 176.195 310.111 175.843C309.879 175.49 309.739 175.085 309.704 174.665C309.704 173.674 310.46 172.623 309.948 171.775C309.779 171.528 309.558 171.321 309.301 171.17C308.063 170.33 306.664 169.757 305.192 169.489C302.898 169.086 303.512 170.018 303.78 171.817C304.229 175.016 303.739 178.277 302.369 181.202Z" fill="#F7B916"/>
<path d="M282.733 179.278C282.733 179.53 282.669 179.779 282.548 180C282.306 180.293 281.965 180.488 281.59 180.547C279.918 181.047 278.185 181.313 276.439 181.336C275.566 181.36 274.699 181.167 273.919 180.773C273.529 180.576 273.196 180.283 272.95 179.921C272.705 179.56 272.555 179.142 272.515 178.706C272.602 177.94 272.798 177.191 273.095 176.48C273.297 175.732 273.162 174.757 272.448 174.463C271.898 174.325 271.315 174.409 270.827 174.698C269.274 175.339 267.644 175.774 265.978 175.992C264.651 176.248 263.278 176.12 262.021 175.623C261.399 175.364 260.872 174.919 260.514 174.349C260.156 173.778 259.983 173.111 260.021 172.438C260.248 170.8 262.063 169.808 263.718 169.766C265.373 169.724 266.961 170.346 268.591 170.606C269.52 170.775 270.464 170.84 271.406 170.8C271.693 170.793 271.977 170.739 272.247 170.64C272.846 170.253 273.304 169.68 273.549 169.01C274.563 167.185 276.252 165.83 278.254 165.237C279.565 164.859 281.75 164.624 282.993 165.355C284.237 166.086 283.699 167.136 283.598 168.296C283.321 171.976 283.035 175.614 282.733 179.278Z" fill="#F7B916"/>
<path d="M175.279 15.076C173.128 15.9198 171.323 17.4614 170.154 19.4537C169.583 20.4501 169.263 21.5695 169.219 22.7166C169.175 23.8637 169.409 25.0043 169.902 26.0413C170.488 27.0735 171.277 27.9766 172.221 28.6965C173.45 29.6965 174.824 30.504 176.296 31.0912C177.464 31.5534 178.674 31.8727 179.833 32.3516C185.791 34.8219 189.219 40.981 192.185 46.7199C193.496 45.1234 193.655 42.7539 195.143 41.3171C196.63 39.8803 198.697 39.8635 200.646 39.8382L207.276 39.7374C213.326 39.6534 219.502 39.5442 225.19 37.4855C226.084 37.2409 226.901 36.7758 227.568 36.1327C227.892 35.7968 228.1 35.3668 228.164 34.9047C228.227 34.4426 228.142 33.9723 227.921 33.5616C227.623 33.1699 227.256 32.8366 226.837 32.5785C224.316 30.7047 223.232 27.4193 223.232 24.2936C223.232 21.1679 224.224 18.1346 225.156 15.1265C225.997 12.4208 226.837 9.42955 225.778 6.81637C224.577 3.96791 221.291 2.45546 218.216 2.44706C215.901 2.47693 213.645 3.17906 211.722 4.46798C209.799 5.75691 208.292 7.57704 207.385 9.70683C205.576 7.00981 203.136 4.79478 200.277 3.2537C198.845 2.4947 197.26 2.06876 195.641 2.00766C194.022 1.94655 192.409 2.25185 190.925 2.9008C188.708 4.13749 186.891 5.98317 185.69 8.21959C184.917 9.48837 182.993 15.3869 181.799 15.5886C181.169 15.6894 179.497 14.4543 178.598 14.4038C177.455 14.3741 176.32 14.604 175.279 15.076Z" fill="white"/>
<path d="M201.772 81.2204C206.571 87.814 210.455 95.0273 213.317 102.664C213.931 104.294 214.561 106.025 215.914 107.134C217.838 108.697 220.602 108.503 223.047 108.125C228.637 107.256 234.124 105.82 239.424 103.84C239.877 103.754 240.306 103.571 240.683 103.305C241.06 103.039 241.375 102.696 241.608 102.298C241.841 101.9 241.987 101.457 242.035 100.998C242.082 100.54 242.032 100.076 241.886 99.6388C241.355 91.8212 240.132 84.0661 238.231 76.4646C240.749 75.839 243.407 76.1155 245.743 77.246C246.523 77.5608 247.186 78.1097 247.642 78.8173C247.986 79.5911 248.153 80.4325 248.129 81.2793C248.373 85.6738 249.507 89.9675 250.65 94.2275L271.001 171.279C269.662 170.594 268.225 170.124 266.74 169.884C264.774 169.564 262.539 169.741 261.111 171.085C259.682 172.43 259.523 175.211 261.245 176.202C262.825 177.11 264.766 176.11 266.396 175.295C268.026 174.48 270.32 173.967 271.437 175.421C271.907 176.222 272.108 177.153 272.009 178.076L271.942 192.008C272.07 192.554 272.071 193.123 271.943 193.67C271.816 194.217 271.564 194.727 271.207 195.16C270.85 195.594 270.397 195.939 269.885 196.169C269.373 196.399 268.814 196.507 268.253 196.486L243.222 201.309L220.627 205.653C219.031 205.964 217.216 206.233 215.897 205.267C215.038 204.49 214.425 203.48 214.132 202.359C211.561 195.212 209.594 187.863 208.251 180.387C208 179.515 208.044 178.584 208.377 177.74C208.824 177.073 209.454 176.548 210.192 176.228C223.475 168.711 234.643 157.959 242.659 144.97C243.555 143.767 244.075 142.326 244.155 140.828C244.07 138.576 242.062 136.811 239.953 136.047C237.844 135.282 235.525 135.207 233.324 134.744C231.752 134.4 230.173 133.829 228.585 134.047C224.72 134.585 223.098 139.089 221.443 142.643C218.707 148.438 214.028 153.091 208.217 155.793C207.503 156.12 206.536 156.364 206.032 155.742C205.879 155.51 205.781 155.246 205.747 154.969C203.293 143.206 200.915 131.19 201.772 119.183C202.134 114.2 203.033 109.1 201.932 104.277C200.882 99.6471 198.168 95.5887 197.067 90.9842C195.748 85.3377 197.495 84.2285 201.772 81.2204Z" fill="white"/>
<path d="M206.31 56.1389L207.151 56.87" stroke="#333333" stroke-width="2" stroke-linecap="round" stroke-linejoin="round"/>
<path d="M225.51 50.1146L225.275 51.1061" stroke="#333333" stroke-width="2" stroke-linecap="round" stroke-linejoin="round"/>
<path d="M217.024 68.2387C217.672 68.7908 218.459 69.1533 219.3 69.2863C220.14 69.4194 221.001 69.3178 221.788 68.9929C222.574 68.6679 223.255 68.1321 223.757 67.4445C224.258 66.7569 224.56 65.9443 224.629 65.0962" stroke="#333333" stroke-width="2" stroke-linecap="round" stroke-linejoin="round"/>
<path d="M197.498 60.3488C195.783 57.8995 194.351 55.2639 193.229 52.4925C192.23 49.7196 192.263 46.3418 194.213 44.132C196.162 41.9221 199.414 41.4768 202.355 41.1911L227.386 38.7208C228.982 37.8805 228.856 35.4942 227.873 33.9985C226.89 32.5029 225.352 31.4106 224.512 29.7973C224.308 29.3114 224.067 28.8422 223.789 28.3941C222.437 26.5455 219.588 27.3017 217.437 28.1588C211.66 30.4875 205.652 32.1971 199.515 33.2591C196.994 33.7045 194.255 34.0994 192.162 35.6202C188.062 38.6283 188.297 45.7032 192.347 48.7786" stroke="#333333" stroke-width="2" stroke-linecap="round" stroke-linejoin="round"/>
<path d="M189.296 43.3673C188.044 39.0904 183.414 36.4016 179.322 34.6287C174.524 32.5449 169.449 29.1166 168.903 23.9155C168.741 22.311 169.045 20.6941 169.778 19.2576C170.511 17.8211 171.641 16.6258 173.035 15.8144C174.428 15.0029 176.026 14.6096 177.637 14.6813C179.248 14.753 180.804 15.2867 182.12 16.2188C181.028 11.9251 184.145 7.6146 187.834 5.16947C191.195 2.91759 195.396 1.62361 199.421 2.37143C203.445 3.11925 207.101 6.21978 207.823 10.2278C207.613 6.65671 211.26 4.08554 214.68 3.02683C216.931 2.32942 219.427 1.96811 221.586 2.90919C224.216 4.05193 225.788 6.9424 226.073 9.79085C226.359 12.6393 225.729 15.4962 225.057 18.2858L222.914 27.2597" stroke="#333333" stroke-width="2" stroke-linecap="round" stroke-linejoin="round"/>
<path d="M189.768 10.7907C192.642 9.60596 195.751 8.50523 198.792 9.02618C201.834 9.54714 204.75 12.3032 204.33 15.3785" stroke="#333333" stroke-width="2" stroke-linecap="round" stroke-linejoin="round"/>
<path d="M213.807 8.40421C215.991 7.19424 220.058 7.21105 221.092 8.92516C223.058 12.1937 221.856 15.8572 220.403 17.0336" stroke="#333333" stroke-width="2" stroke-linecap="round" stroke-linejoin="round"/>
<path d="M193.967 58.2901C194.513 59.1808 195.715 60.0799 196.488 59.3656C196.814 58.9327 196.961 58.3914 196.9 57.8532C196.963 56.3409 197.325 54.8561 197.966 53.4846C198.606 52.1131 199.512 50.882 200.63 49.8624C202.469 48.3804 204.527 47.1927 206.731 46.3417L220.62 40.1575C218.503 38.6282 215.579 39.855 213.058 40.4432C210.209 41.0986 207.243 40.8549 204.336 41.1406C200.773 41.4935 195.555 42.5774 193.472 45.6527C191.11 49.123 191.925 54.9375 193.967 58.2901Z" fill="#333333"/>
<path d="M211.118 77.6245C199.382 82.1491 188.841 89.3061 180.306 98.5446C171.771 107.783 165.47 118.857 161.887 130.913C159.971 137.551 158.913 144.593 160.156 151.399C162.921 166.574 177.608 178.077 193.01 179.127C208.412 180.177 234.182 162.935 232.813 159.457C231.695 155.835 223.091 160.364 218.949 164.061C221.201 162.473 222.537 161.431 224.486 160.23C226.435 159.028 228.124 157.247 226.654 155.793C224.133 153.323 217.159 159.7 212.722 160.658C215.747 158.625 222.805 155.617 220.646 153.264C218.898 150.693 211.739 153.617 208.345 156.087C203.875 159.339 198.682 161.851 193.161 162.187C187.641 162.524 181.793 160.364 178.591 155.86C173.365 148.475 176.718 138.215 181.112 130.317C186.288 121.024 193.918 113.512 204.387 111.705C202.244 127.922 202.522 141.727 205.916 157.726" stroke="#333333" stroke-width="2" stroke-linecap="round" stroke-linejoin="round"/>
<path d="M230.257 74.5491C249.112 74.0113 266.035 86.6991 277.748 101.488C307.72 139.341 306.535 183.286 299.393 183.345C297.712 183.345 295.922 181.48 296.326 178.522C296.729 175.564 297.527 173.564 297.536 170.06C297.368 172.657 296.569 175.715 296.326 178.522C296.082 181.328 294.04 183.647 291.889 183.278C288.528 183.126 290.024 173.867 290.007 169.304C289.78 172.665 290.133 176.22 289.024 179.387C288.553 180.732 287.806 182.253 286.402 182.513C283.882 182.958 282.546 179.354 282.991 176.85C288.654 145.097 273.11 128.241 254.532 110.957C261.144 130.964 267.404 149.936 270.883 170.103" stroke="#333333" stroke-width="2" stroke-linecap="round" stroke-linejoin="round"/>
<path d="M204.386 111.697C203.137 102.392 200.66 93.2937 197.017 84.6406" stroke="#333333" stroke-width="2" stroke-linecap="round" stroke-linejoin="round"/>
<path d="M248.684 78.4141L254.566 110.839" stroke="#333333" stroke-width="2" stroke-linecap="round" stroke-linejoin="round"/>
<path d="M215.21 152.751C218.428 147.642 222.184 141.315 225.402 136.207C225.811 135.452 226.365 134.787 227.033 134.249C228.545 133.19 230.595 133.593 232.385 134.039L241.821 136.4C242.88 136.55 243.867 137.026 244.644 137.761C245.879 139.198 245.216 141.399 244.409 143.113C241.527 149.197 236.847 156.843 231.998 161.498" stroke="#333333" stroke-width="2" stroke-linecap="round" stroke-linejoin="round"/>
<path d="M303.098 169.01C305.114 169.439 305.963 169.758 307.971 170.186C308.398 170.22 308.812 170.343 309.188 170.549C309.563 170.754 309.89 171.038 310.147 171.38C310.946 172.884 308.929 174.909 309.921 176.287C310.393 176.783 311.035 177.083 311.719 177.127L320.793 178.984C321.957 179.127 323.069 179.548 324.037 180.211C324.495 180.469 324.848 180.881 325.032 181.373C325.217 181.866 325.222 182.408 325.046 182.904C324.87 183.4 324.525 183.818 324.072 184.085C323.618 184.351 323.085 184.449 322.566 184.361C321.686 184.263 320.832 184.004 320.046 183.597L312.836 180.446C311.878 180.026 310.643 179.606 309.87 180.353C309.566 180.719 309.317 181.126 309.131 181.563C308.695 182.191 308.096 182.688 307.398 183C306.701 183.312 305.932 183.429 305.173 183.336C303.876 183.231 302.617 182.844 301.484 182.202" stroke="#333333" stroke-width="2" stroke-linecap="round" stroke-linejoin="round"/>
<path d="M271.969 174.967C272.503 174.947 273.035 175.059 273.515 175.295C273.178 175.648 272.917 176.067 272.75 176.526C272.583 176.985 272.513 177.474 272.545 177.961C272.577 178.448 272.709 178.924 272.934 179.357C273.159 179.791 273.471 180.173 273.851 180.479C275.052 181.32 281.959 180.698 283.421 180.404" stroke="#333333" stroke-width="2" stroke-linecap="round" stroke-linejoin="round"/>
<path d="M284.145 166.036C282.583 165.59 278.717 165.851 277.113 166.111C275.508 166.372 273.928 167.531 273.752 169.153C273.676 169.808 273.752 170.632 273.189 170.968C272.893 171.097 272.565 171.135 272.248 171.077L264.971 170.422C263.827 170.23 262.654 170.316 261.551 170.674C261.005 170.871 260.547 171.255 260.258 171.758C259.969 172.261 259.867 172.851 259.971 173.421C260.125 173.799 260.353 174.143 260.642 174.431C260.93 174.72 261.274 174.948 261.652 175.102C263.731 176.148 266.116 176.413 268.374 175.85C269.558 175.447 270.78 175.165 272.021 175.009" stroke="#333333" stroke-width="2" stroke-linecap="round" stroke-linejoin="round"/>
<path d="M216.059 203.998C217.967 212.493 217.799 211.266 219.63 220.165C220.882 226.307 221.588 232.542 222.462 238.743L225.68 261.681C225.646 261.973 225.682 262.269 225.787 262.544C225.892 262.819 226.063 263.064 226.283 263.258C226.504 263.452 226.769 263.59 227.054 263.659C227.34 263.729 227.638 263.728 227.924 263.656L234.999 263.564L234.839 237.23C234.755 224.82 234.57 212.611 238.334 200.78" stroke="#333333" stroke-width="2" stroke-linecap="round" stroke-linejoin="round"/>
<path d="M251.828 198.377C253.408 204.108 256.08 212.737 257.651 218.468C259.474 225.089 261.298 231.735 262.071 238.558C262.819 245.137 262.575 251.809 263.398 258.38C263.617 260.127 263.945 261.951 265.079 263.303C266.213 264.656 268.364 265.312 269.759 264.236C270.994 263.287 271.137 261.514 271.179 259.951C271.624 241.23 271.944 214.897 272.389 196.176" stroke="#333333" stroke-width="2" stroke-linecap="round" stroke-linejoin="round"/>
<path d="M227.124 263.757C224.943 264.854 222.956 266.302 221.242 268.042C219.629 269.874 218.629 272.437 219.276 274.764C222.775 274.929 226.231 273.941 229.115 271.953C231.999 269.965 234.151 267.086 235.241 263.757L226.376 263.58" fill="#333333"/>
<path d="M262.97 261.774C262.273 265.135 261.693 269.059 263.92 271.697C264.686 272.528 265.58 273.231 266.567 273.781C269.651 275.688 272.841 277.418 276.12 278.965C276.507 275.378 276.801 271.403 274.684 268.504C273.121 266.345 270.541 265.211 268.079 264.177L262.492 261.816" fill="#333333"/>
<path d="M202.572 81.9348C206.72 89.9909 210.335 98.3104 213.394 106.84C213.563 107.587 213.981 108.253 214.579 108.73C215.025 108.966 215.52 109.093 216.024 109.1C221.469 109.554 226.948 108.722 232.317 107.899L236.93 107.193C238.989 106.873 241.282 106.42 242.476 104.672C243.366 103.403 243.4 101.739 243.375 100.193C243.246 91.8867 242.269 83.6149 240.459 75.5068" stroke="#333333" stroke-width="2" stroke-linecap="round" stroke-linejoin="round"/>
<path d="M209.941 177.051C209.7 184.607 210.627 192.154 212.688 199.427C212.939 200.573 213.425 201.655 214.117 202.603C216.293 205.216 220.385 204.561 223.679 203.737C239.222 199.863 255.099 197.48 271.094 196.621C271.559 196.659 272.02 196.514 272.38 196.217C272.632 195.849 272.743 195.401 272.691 194.957C272.691 191.924 272.573 178.295 271.968 175.009" stroke="#333333" stroke-width="2" stroke-linecap="round" stroke-linejoin="round"/>
<path d="M193.63 54.2319C195.588 62.6344 198.487 71.6923 205.78 76.2885C208.223 77.7906 210.984 78.6986 213.841 78.9394C216.698 79.1802 219.572 78.7471 222.232 77.6749C224.872 76.5583 227.225 74.86 229.116 72.7067C231.008 70.5534 232.388 68.0007 233.155 65.2392C235.676 56.0636 231.071 46.51 225.77 38.62" stroke="#333333" stroke-width="2" stroke-linecap="round" stroke-linejoin="round"/>
<path d="M399.216 107.294C399.156 107.47 399.124 107.654 399.123 107.84C399.107 108.05 399.154 108.261 399.258 108.445C399.428 108.636 399.652 108.77 399.9 108.831C400.148 108.891 400.409 108.875 400.648 108.784C400.887 108.693 401.092 108.531 401.237 108.32C401.382 108.11 401.459 107.86 401.459 107.604C401.405 107.364 401.279 107.147 401.098 106.98C400.916 106.814 400.689 106.706 400.445 106.673C400.201 106.639 399.953 106.68 399.733 106.791C399.514 106.902 399.333 107.077 399.216 107.294Z" fill="#F7B916"/>
<path d="M412.349 111.285C412.287 111.46 412.259 111.645 412.265 111.831C412.246 112.041 412.29 112.251 412.391 112.436C412.559 112.632 412.783 112.77 413.033 112.834C413.283 112.897 413.546 112.882 413.787 112.79C414.028 112.698 414.234 112.534 414.378 112.32C414.523 112.106 414.597 111.853 414.592 111.596C414.538 111.356 414.412 111.138 414.231 110.971C414.049 110.805 413.822 110.698 413.578 110.664C413.334 110.63 413.086 110.671 412.866 110.782C412.647 110.893 412.466 111.069 412.349 111.285Z" fill="#F7B916"/>
<path d="M383.461 93.6729C382.426 94.0948 381.571 94.8644 381.042 95.8492C380.683 96.4455 380.519 97.1384 380.571 97.8322C380.726 98.684 381.154 99.4624 381.789 100.05C382.781 101.109 384.184 102.033 385.596 101.731C387.226 101.336 389.847 98.3699 389.318 96.6306C388.882 95.4994 388.041 94.5704 386.959 94.0239C385.877 93.4774 384.631 93.3523 383.461 93.6729Z" fill="#F7B916"/>
<path d="M367.034 148.323C366.63 157.285 366.496 166.273 366.63 175.286C366.723 182.303 366.235 189.63 369.731 195.713C370.481 197.107 371.524 198.322 372.787 199.276C374.05 200.23 375.504 200.901 377.049 201.242C380.537 201.88 384.086 202.117 387.628 201.948L397.997 201.847C398.837 200.292 398.879 198.528 398.963 196.805L399.341 189.193C399.341 188.991 399.417 188.722 399.619 188.722C399.619 185.496 399.862 182.345 399.862 179.118C399.847 178.203 399.894 177.287 400.005 176.379C400.168 175.279 400.526 174.218 401.064 173.245C400.585 167.615 401.988 161.977 401.761 156.339C401.512 151.375 401.649 146.4 402.173 141.458C402.643 137.408 401.954 133.307 401.778 129.232C401.817 126.701 401.428 124.181 400.627 121.779C400.131 120.519 399.787 119.015 399.375 117.721L398.921 116.259C398.535 115.032 398.156 113.814 397.694 112.62C397.232 111.427 397.005 110.209 396.535 109.167L394.157 103.924C393.132 101.647 391.972 99.5798 390.838 97.3615C390.493 96.6977 389.939 95.9247 389.208 96.0759C388.788 97.538 389.762 99.2857 388.931 100.563C388.444 101.165 387.764 101.58 387.006 101.739C385.659 102.215 384.213 102.339 382.805 102.101C382.11 101.982 381.457 101.689 380.907 101.248C380.357 100.807 379.929 100.233 379.663 99.5798C379.469 99 379.36 98.269 378.822 98.0505C378.498 97.9552 378.149 97.9883 377.848 98.143C377.218 98.4567 376.658 98.8946 376.201 99.4303C375.745 99.966 375.402 100.588 375.192 101.26C374.784 102.602 374.464 103.969 374.235 105.352C373.302 109.554 371.025 113.503 371.075 117.796C371.075 121.359 369.319 124.745 368.975 128.291C368.893 128.752 368.913 129.225 369.033 129.678C369.344 130.518 370.302 130.988 371.1 131.459C372.126 132.108 373.083 132.86 373.957 133.702L380.889 139.945C381.891 140.796 382.813 141.735 383.645 142.752C384.419 143.838 385.088 144.994 385.645 146.205L387.704 150.306C388.689 151.984 389.321 153.845 389.561 155.776C389.593 155.951 389.564 156.133 389.477 156.288C389.403 156.374 389.314 156.445 389.213 156.495C389.112 156.546 389.001 156.575 388.889 156.582C386.456 157.071 383.973 157.262 381.494 157.154C380.755 157.16 380.023 157.014 379.343 156.725C378.76 156.399 378.232 155.982 377.78 155.49C374.63 152.51 370.996 150.086 367.034 148.323Z" fill="white"/>
<path d="M365.916 147.281C365.672 147.281 366.067 147.575 366.269 147.432L376.797 139.87C377.579 139.307 378.478 138.408 378.041 137.543C377.811 137.175 377.478 136.882 377.083 136.702C373.701 134.808 370.483 132.635 367.462 130.207C365.227 128.409 363.051 126.443 360.379 125.401C357.69 125.569 354.875 123.88 353.194 121.763C351.582 119.566 350.574 116.984 350.27 114.276C350.009 112.966 350.043 111.614 350.371 110.318C350.844 109.044 351.573 107.88 352.514 106.899C355.396 103.538 358.791 100.462 362.992 99.1179C367.193 97.7735 372.31 98.6054 375.066 102.042C375.552 101.105 376.383 100.395 377.384 100.061C378.385 99.7265 379.476 99.7953 380.427 100.252C379.855 99.3252 379.582 98.2446 379.645 97.157C379.708 96.0695 380.104 95.0276 380.779 94.1726C381.454 93.3177 382.376 92.6911 383.419 92.3778C384.462 92.0645 385.577 92.0796 386.611 92.4211C387.895 92.9371 389.065 93.6992 390.056 94.6646C387.146 88.7096 385.287 82.2966 384.561 75.7085C384.376 73.9608 381.973 72.7424 380.225 72.5828C378.478 72.4231 376.738 72.8517 374.982 72.8433C373.621 72.8433 372.268 72.5912 370.907 72.7004C369.385 72.9061 367.903 73.3425 366.512 73.9944C364.17 74.8901 361.89 75.9428 359.69 77.1454C358.253 77.9856 356.278 78.2293 354.951 79.2124C348.229 84.1951 341.507 89.5727 337.12 96.74C332.734 103.907 331.197 113.31 335.146 120.712C339.624 129.115 346.817 135.837 354.413 141.593C355.89 142.8 357.513 143.816 359.244 144.618C361.757 145.685 364.303 145.088 365.916 147.281Z" fill="white"/>
<path d="M398.653 202.225C399.939 198.419 399.494 194.276 399.653 190.252C399.88 183.202 401.871 176.177 400.989 169.178C399.704 158.868 401.93 148.626 402.434 138.248C402.471 134.962 401.977 131.69 400.972 128.56C400.4 126.278 399.982 123.959 399.72 121.62L399.04 116.578C401.561 115.604 402.51 112.52 403.283 109.932C406.426 99.4205 406.568 88.2871 406.686 77.3134C408.459 75.8934 410.249 74.5406 412.022 73.1122C419.863 76.1583 427.425 79.8777 434.624 84.2287C435.874 84.9371 437.041 85.7825 438.103 86.7495C439.842 88.43 441.01 90.7239 443.077 91.9674C445.691 93.5387 446.531 96.1183 448.018 98.7735C450.539 103.218 455.051 106.134 458.219 110.142C461 113.671 463.017 118.284 467.209 119.906C470.856 121.317 474.822 121.485 478.133 119.452C479.81 118.42 481.215 116.999 482.228 115.31C483.242 113.621 483.834 111.713 483.956 109.747C488.708 112.007 493.834 113.38 499.08 113.797C499.596 113.772 500.101 113.947 500.492 114.285C500.645 114.533 500.741 114.813 500.773 115.104C500.805 115.395 500.772 115.689 500.677 115.965C499.719 121.007 498.744 126.09 496.585 130.737C494.425 135.383 490.921 139.61 486.191 141.576C483.432 142.632 480.488 143.121 477.536 143.013C471.391 142.893 465.369 141.273 459.993 138.294C454.617 135.315 450.051 131.068 446.69 125.922C446.02 125.111 445.278 124.363 444.472 123.687C439.608 118.391 435.412 112.519 431.978 106.201C429.642 101.908 423.012 101.16 418.231 102.151C423.273 106.941 425.424 113.915 427.474 120.502C428.546 123.805 429.408 127.173 430.054 130.585C430.507 133.257 430.692 135.971 431.112 138.652C432.297 146.071 435.313 153.465 433.935 160.834C433.389 163.733 432.255 166.884 432.457 169.825C432.658 172.766 433.297 175.707 433.541 178.614C434.129 185.093 432.868 191.596 431.314 197.94C431.474 197.94 430.986 197.94 430.835 198.007C430.684 198.074 430.667 198.284 430.65 198.444C430.511 199.442 430.081 200.377 429.415 201.133C428.749 201.889 427.875 202.432 426.903 202.696C424.942 203.186 422.882 203.11 420.962 202.477C414.122 202.813 407.039 202.007 400.191 201.814C399.92 201.755 399.64 201.762 399.372 201.833C399.105 201.905 398.858 202.039 398.653 202.225Z" fill="white"/>
<path d="M373.665 42.3506C373.659 40.1038 373.794 37.8587 374.068 35.6286C375.749 23.9912 385.916 14.1266 397.595 12.8158C409.275 11.505 421.391 18.8572 425.609 29.8309C428.811 38.1662 427.676 47.4762 426.055 56.2484C425.374 59.9791 424.5 63.9031 421.904 66.6591C419.307 69.4151 414.341 67.4994 412.77 64.1384C411.199 60.7774 411.93 56.8114 412.669 53.1731C413.409 49.5348 414.257 45.7369 415.056 42.0145C415.257 41.0483 415.442 39.9559 414.888 39.1409C414.355 38.5289 413.634 38.112 412.837 37.9561C406.089 35.913 399.098 34.7826 392.05 34.5951C390.436 34.5447 388.621 34.5951 387.504 35.8051C386.529 36.8302 386.403 38.3763 386.327 39.7963L385.033 64.4661C369.43 63.0797 373.413 56.6685 373.665 42.3506Z" fill="#333333"/>
<path d="M377.915 62.1805C377.311 67.3313 380.932 72.0703 385.066 75.2044C389.847 78.8259 396.031 81.2038 401.871 79.8006C407.711 78.3974 411.887 73.7844 415.802 69.3731L419.205 65.5415L419.147 66.1549" stroke="#333333" stroke-width="2" stroke-linecap="round" stroke-linejoin="round"/>
<path d="M389.345 49.4674V50.3498" stroke="#333333" stroke-width="2" stroke-linecap="round" stroke-linejoin="round"/>
<path d="M406.493 52.61L407.779 51.7025" stroke="#333333" stroke-width="2" stroke-linecap="round" stroke-linejoin="round"/>
<path d="M391.082 58.4329C391.032 59.8781 392.359 60.9536 393.552 61.735C394.034 62.1517 394.613 62.4408 395.235 62.5758C395.857 62.7109 396.504 62.6876 397.115 62.5081C398.594 62.2644 400.3 61.8527 400.913 60.4915" stroke="#333333" stroke-width="2" stroke-linecap="round" stroke-linejoin="round"/>
<path d="M390.686 69.0117C391.358 70.9023 393.644 71.6753 395.652 71.7342C398.299 71.8182 401.223 70.8939 402.509 68.5664" stroke="#333333" stroke-width="2" stroke-linecap="round" stroke-linejoin="round"/>
<path d="M367.036 148.306C366.078 160.93 365.926 173.601 366.582 186.244C366.742 189.378 366.994 192.638 368.565 195.352C372.136 201.52 380.581 202.276 387.706 202.326L425.055 202.561C426.492 202.561 428.03 202.561 429.206 201.721C430.702 200.696 431.181 198.73 431.5 196.949C437.339 164.46 432.84 130.957 418.636 101.16" stroke="#333333" stroke-width="2" stroke-linecap="round" stroke-linejoin="round"/>
<path d="M374.371 101.395C372.153 110.638 370.38 120.032 369.061 129.468" stroke="#333333" stroke-width="2" stroke-linecap="round" stroke-linejoin="round"/>
<path d="M385.99 78.1874C386.88 94.1522 398.644 107.596 401.434 123.317C402.274 128.292 402.274 133.4 402.181 138.442C401.8 160.036 400.582 181.603 398.526 203.141" stroke="#333333" stroke-width="2" stroke-linecap="round" stroke-linejoin="round"/>
<path d="M400.511 118.864C402.544 112.982 404.586 107.159 405.695 101.076C407.065 93.5135 406.964 85.8336 406.863 78.179" stroke="#333333" stroke-width="2" stroke-linecap="round" stroke-linejoin="round"/>
<path d="M375.511 74.4988C372.456 79.5049 371.196 85.4023 371.94 91.2198C372.635 91.4784 373.385 91.5578 374.119 91.4506C374.853 91.3434 375.549 91.0531 376.141 90.6064C377.091 89.8754 378.435 88.7242 379.216 89.6485C379.353 89.8698 379.443 90.1166 379.48 90.3738C379.518 90.631 379.502 90.8931 379.435 91.1442L378.208 100.118L388.442 106.84C393.484 110.142 398.862 113.923 400.5 119.713" stroke="#333333" stroke-width="2" stroke-linecap="round" stroke-linejoin="round"/>
<path d="M400.339 116.511L414.699 96.572C413.314 95.0617 412.49 93.1219 412.363 91.0768C412.271 89.5307 413.246 87.4973 414.75 87.9006C416.724 88.4384 416.102 92.3119 418.111 92.6312C419.561 90.6867 420.6 88.4675 421.165 86.1085C421.73 83.7495 421.808 81.3003 421.396 78.9099" stroke="#333333" stroke-width="2" stroke-linecap="round" stroke-linejoin="round"/>
<path d="M373.782 157.062C379.45 157.304 385.128 157.096 390.763 156.44V160.893L378.008 161.179C376.695 161.335 375.365 161.11 374.176 160.532C373.059 159.843 372.429 158.188 373.269 157.171" stroke="#333333" stroke-width="2" stroke-linecap="round" stroke-linejoin="round"/>
<path d="M411.919 156.44L411.995 161.481L426.17 162.322C427.43 162.397 429.052 162.229 429.396 161.011C429.825 159.465 427.716 158.566 426.094 158.389L411.961 156.818" stroke="#333333" stroke-width="2" stroke-linecap="round" stroke-linejoin="round"/>
<path d="M376.522 118.956H389.008" stroke="#333333" stroke-width="2" stroke-linecap="round" stroke-linejoin="round"/>
<path d="M380.924 72.457C372.936 72.2335 365.014 73.9572 357.841 77.4793C350.668 81.0014 344.46 86.2161 339.752 92.6735C335.752 98.2779 332.929 104.958 333.03 111.84C333.156 119.032 336.525 125.914 341.315 131.283C346.104 136.652 352.238 140.643 358.649 143.971C365.312 147.441 372.564 150.458 377.336 156.255" stroke="#333333" stroke-width="2" stroke-linecap="round" stroke-linejoin="round"/>
<path d="M373.656 102.084C371.564 100.861 369.206 100.165 366.785 100.056C364.364 99.9468 361.952 100.427 359.758 101.457C357.564 102.486 355.653 104.033 354.189 105.965C352.726 107.896 351.753 110.155 351.356 112.545C351.069 113.955 351.069 115.408 351.358 116.818C351.647 118.227 352.218 119.563 353.037 120.746C354.507 122.653 356.725 123.805 358.851 124.947C365.17 128.25 371.455 131.787 376.74 136.56C382.761 141.996 387.321 148.858 389.999 156.516" stroke="#333333" stroke-width="2" stroke-linecap="round" stroke-linejoin="round"/>
<path d="M483.467 108.823C483.282 112.831 482.476 116.629 479.501 119.116C475.3 122.62 468.729 121.385 464.435 118.032C460.142 114.679 457.478 109.73 454.47 105.185C444.387 89.892 428.741 77.8512 410.777 74.1793" stroke="#333333" stroke-width="2" stroke-linecap="round" stroke-linejoin="round"/>
<path d="M418.061 101.672C421.893 100.101 426.422 101.496 429.665 104.084C432.909 106.672 435.127 110.285 437.337 113.789C443.907 124.191 451.394 134.711 462.351 140.307C473.308 145.903 488.634 144.811 495.743 134.762C500.045 128.678 500.532 120.839 500.599 113.327" stroke="#333333" stroke-width="2" stroke-linecap="round" stroke-linejoin="round"/>
<path d="M366.093 147.6C370.541 145.145 374.681 142.169 378.427 138.736" stroke="#333333" stroke-width="2" stroke-linecap="round" stroke-linejoin="round"/>
<path d="M358.17 144.122L370.522 132.148" stroke="#333333" stroke-width="2" stroke-linecap="round" stroke-linejoin="round"/>
<path d="M483.116 109.714C485.637 110.041 487.721 111.738 490.074 112.671C491.342 113.144 492.654 113.493 493.989 113.713C496.426 114.192 498.871 114.553 501.325 114.898" stroke="#333333" stroke-width="2" stroke-linecap="round" stroke-linejoin="round"/>
<path d="M480.771 118.351C482.473 118.579 484.141 119.016 485.737 119.654C486.577 119.99 487.417 120.393 488.257 120.788L500.021 126.393" stroke="#333333" stroke-width="2" stroke-linecap="round" stroke-linejoin="round"/>
<path d="M367.354 195.545C370.508 213.941 373.056 232.427 375 251.002C375.21 253.01 375.462 255.153 376.723 256.732C377.983 258.312 380.647 258.959 382.025 257.472C383.436 239.356 385.514 221.307 388.259 203.326" stroke="#333333" stroke-width="2" stroke-linecap="round" stroke-linejoin="round"/>
<path d="M429.105 202.133C425.795 213.107 422.728 224.148 419.652 235.188L414.687 253.069C414.233 254.665 413.746 256.346 412.561 257.514C411.376 258.682 409.242 259.06 408.082 257.867C407.909 239.538 408.231 221.218 409.049 202.906" stroke="#333333" stroke-width="2" stroke-linecap="round" stroke-linejoin="round"/>
<path d="M366.977 265.378C366.053 267.605 365.675 270.588 367.582 272.1C368.294 272.625 369.16 272.9 370.044 272.882C373.178 272.882 375.632 270.302 377.564 267.84C379.774 265.017 381.976 261.673 381.387 258.135C381.387 258.245 373.985 256.455 373.582 256.547C370.792 257.413 368.002 262.925 366.977 265.378Z" fill="#333333"/>
<path d="M407.988 264.143C409.089 266.045 410.598 267.678 412.407 268.925C414.449 270.462 416.768 271.798 419.323 271.991C420.65 272.084 422.196 271.739 422.827 270.555C423.667 269.017 422.432 267.236 421.297 265.916L417.348 261.354C416.46 260.156 415.311 259.176 413.987 258.489C409.248 256.472 405.417 259.295 407.988 264.143Z" fill="#333333"/>
<path d="M378.463 67.281C370.598 70.1547 381.782 81.1452 382.765 93.228" stroke="#333333" stroke-width="2" stroke-linecap="round" stroke-linejoin="round"/>
<path d="M384.865 102.168C387.334 102.168 389.335 100.167 389.335 97.698C389.335 95.2293 387.334 93.2279 384.865 93.2279C382.396 93.2279 380.395 95.2293 380.395 97.698C380.395 100.167 382.396 102.168 384.865 102.168Z" stroke="#333333" stroke-width="2" stroke-linecap="round" stroke-linejoin="round"/>
<path d="M384.864 99.1097C385.644 99.1097 386.276 98.4777 386.276 97.6981C386.276 96.9185 385.644 96.2865 384.864 96.2865C384.085 96.2865 383.453 96.9185 383.453 97.6981C383.453 98.4777 384.085 99.1097 384.864 99.1097Z" stroke="#333333" stroke-width="2" stroke-linecap="round" stroke-linejoin="round"/>
<path d="M400.057 109.218C400.837 109.218 401.469 108.586 401.469 107.806C401.469 107.026 400.837 106.394 400.057 106.394C399.278 106.394 398.646 107.026 398.646 107.806C398.646 108.586 399.278 109.218 400.057 109.218Z" stroke="#333333" stroke-width="2" stroke-linecap="round" stroke-linejoin="round"/>
<path d="M413.434 113.184C414.213 113.184 414.845 112.552 414.845 111.772C414.845 110.992 414.213 110.36 413.434 110.36C412.654 110.36 412.022 110.992 412.022 111.772C412.022 112.552 412.654 113.184 413.434 113.184Z" stroke="#333333" stroke-width="2" stroke-linecap="round" stroke-linejoin="round"/>
<path d="M401.198 106.714C403.097 104.126 403.055 100.656 403.601 97.471C404.148 94.2865 405.979 90.749 409.181 90.4633C410.127 90.4255 411.068 90.6275 411.916 91.0506C412.763 91.4736 413.49 92.1041 414.029 92.8833C415.092 94.4542 415.737 96.2704 415.903 98.16C416.425 102.296 415.791 106.496 414.071 110.293" stroke="#333333" stroke-width="2" stroke-linecap="round" stroke-linejoin="round"/>
<path d="M417.147 67.6672C417.584 67.5664 417.92 68.037 418.063 68.4571C418.71 70.3056 418.155 72.3727 417.222 74.0868C416.29 75.8009 414.971 77.3049 413.945 78.9854C411.836 82.3464 410.971 86.3713 410.139 90.2784" stroke="#333333" stroke-width="2" stroke-linecap="round" stroke-linejoin="round"/>
<path d="M486.206 93.7319L486.618 100.009C486.601 100.606 486.772 101.193 487.106 101.689C487.452 102.038 487.888 102.285 488.366 102.403C491.071 103.296 493.933 103.613 496.768 103.336C497.069 103.334 497.363 103.24 497.609 103.067C497.848 102.801 497.985 102.458 497.995 102.101C498.953 95.6315 499.466 89.1043 499.533 82.5649C499.533 80.2963 499.398 77.7587 497.726 76.2378C496.382 75.0195 494.433 74.8178 492.626 74.675L487.837 74.2885C487.079 74.1557 486.298 74.2492 485.593 74.5573C483.299 75.8765 486.022 90.9338 486.206 93.7319Z" stroke="#333333" stroke-width="2" stroke-linecap="round" stroke-linejoin="round"/>
<path d="M500.382 81.8254C498.362 82.4605 496.49 83.4949 494.878 84.8672C494.164 85.3881 493.628 86.1154 493.34 86.951C493.213 87.3709 493.245 87.8228 493.429 88.221C493.614 88.6191 493.938 88.9356 494.34 89.1104C494.713 89.1677 495.093 89.1425 495.455 89.0365C495.816 88.9305 496.15 88.7463 496.432 88.497C498.039 87.4022 499.494 86.0997 500.76 84.6235C501.117 84.2867 501.343 83.8342 501.398 83.3463C501.398 82.859 500.894 82.3632 500.449 82.5649" fill="#F5F4F4"/>
<path d="M500.382 81.8254C498.362 82.4605 496.49 83.4949 494.878 84.8672C494.164 85.3881 493.628 86.1154 493.34 86.951C493.213 87.3709 493.245 87.8228 493.429 88.221C493.614 88.6191 493.938 88.9356 494.34 89.1104C494.713 89.1677 495.093 89.1425 495.455 89.0365C495.816 88.9305 496.15 88.7463 496.432 88.497C498.039 87.4022 499.494 86.0997 500.76 84.6235C501.117 84.2867 501.343 83.8342 501.398 83.3463C501.398 82.859 500.894 82.3632 500.449 82.5649" stroke="#333333" stroke-width="2" stroke-linecap="round" stroke-linejoin="round"/>
<path d="M502.282 87.6654C502.887 86.7411 501.744 85.4723 500.643 85.5396C499.543 85.7503 498.565 86.376 497.912 87.2873C496.876 88.4076 495.882 89.5812 494.93 90.8079C494.241 91.6482 493.543 92.8497 494.089 93.8328C494.309 94.1731 494.63 94.4366 495.006 94.5871C495.382 94.7376 495.796 94.7676 496.19 94.6731C496.976 94.4767 497.705 94.0965 498.316 93.5639C500.038 92.2364 501.677 90.5306 501.962 88.3712" fill="#F5F4F4"/>
<path d="M502.282 87.6654C502.887 86.7411 501.744 85.4723 500.643 85.5396C499.543 85.7503 498.565 86.376 497.912 87.2873C496.876 88.4076 495.882 89.5812 494.93 90.8079C494.241 91.6482 493.543 92.8497 494.089 93.8328C494.309 94.1731 494.63 94.4366 495.006 94.5871C495.382 94.7376 495.796 94.7676 496.19 94.6731C496.976 94.4767 497.705 94.0965 498.316 93.5639C500.038 92.2364 501.677 90.5306 501.962 88.3712" stroke="#333333" stroke-width="2" stroke-linecap="round" stroke-linejoin="round"/>
<path d="M503.817 92.5051C504.557 91.6649 503.498 90.2617 502.38 90.2785C501.263 90.2953 500.355 91.1187 499.565 91.959C497.448 94.0596 495.154 96.7148 495.784 99.6305C497.751 99.7482 499.684 99.0853 501.165 97.7858C502.645 96.4862 503.553 94.655 503.691 92.69" fill="#F5F4F4"/>
<path d="M503.817 92.5051C504.557 91.6649 503.498 90.2617 502.38 90.2785C501.263 90.2953 500.355 91.1187 499.565 91.959C497.448 94.0596 495.154 96.7148 495.784 99.6305C497.751 99.7482 499.684 99.0853 501.165 97.7858C502.645 96.4862 503.553 94.655 503.691 92.69" stroke="#333333" stroke-width="2" stroke-linecap="round" stroke-linejoin="round"/>
<path d="M483.779 109.436C483.434 107.779 483.357 106.077 483.552 104.395C483.654 103.55 483.951 102.742 484.421 102.033C484.891 101.324 485.52 100.734 486.257 100.311" stroke="#333333" stroke-width="2" stroke-linecap="round" stroke-linejoin="round"/>
<path d="M503.366 95.9419C504.006 97.925 504.232 100.018 504.03 102.093C503.358 106.025 499.627 109.462 500.577 113.335" stroke="#333333" stroke-width="2" stroke-linecap="round" stroke-linejoin="round"/>
<path d="M512.573 24.1172C508.531 19.563 500.162 20.9662 496.969 26.1506C493.776 31.3349 495.499 38.6115 499.994 42.7287C504.489 46.846 511.077 48.0727 517.093 47.1233C523.109 46.1738 528.638 43.2749 533.755 39.9727C533.066 45.8545 537.058 51.4758 542.158 54.5259C547.258 57.576 553.241 58.5675 559.081 59.5002C567.844 60.9034 576.852 62.2982 585.523 60.4244C594.195 58.5507 602.597 52.6353 604.74 44.0227C609.26 49.5684 619.612 48.1736 622.511 41.628C628.149 48.0139 640.156 43.5186 642.459 35.3093C644.761 27.1001 639.619 18.3278 632.594 13.4628C627.565 10.1056 621.713 8.18975 615.673 7.92313C609.632 7.6565 603.634 9.04928 598.329 11.9503C596.362 13.0679 594.455 14.4039 592.254 14.9164C586.103 16.3448 580.7 11.1269 575.449 7.62304C564.685 0.472496 550.392 0.506107 539.083 6.32905C536.562 7.61463 534.335 10.4715 531.73 11.2193C529.126 11.9671 525.706 9.98414 522.555 10.9168C516.95 12.6057 512.035 18.0253 512.573 24.1172Z" stroke="#F7B916" stroke-width="3" stroke-linecap="round" stroke-linejoin="round"/>
<path d="M640.334 62.6512C638.114 64.1787 636.301 66.2244 635.051 68.611C633.8 70.9975 633.151 73.653 633.158 76.3473C633.102 78.8466 633.91 81.2888 635.444 83.2626C637.351 85.5061 640.326 86.5144 643.191 87.1866C652.635 89.4048 664.079 88.3041 669.802 80.4646C674.793 88.783 687.959 90.4888 694.891 83.7079C695.481 82.9907 696.24 82.4331 697.101 82.0862C698.236 81.7753 699.404 82.3467 700.53 82.708C707.252 84.8591 714.175 79.347 717.335 73.0619C718.813 70.1042 719.855 66.7432 719.2 63.4831C717.906 56.5174 710.285 52.9547 703.639 50.4928C699.983 49.14 696.228 47.7704 692.337 47.8376C684.775 47.9804 678.448 53.4505 671.6 56.7695C661.634 61.5841 649.005 56.8031 640.334 62.6512Z" stroke="#F7B916" stroke-width="3" stroke-linecap="round" stroke-linejoin="round"/>
<path d="M763.505 48.4256C763.878 48.4221 764.247 48.3568 764.598 48.2323C764.989 48.0296 765.33 47.7426 765.598 47.3921C767.275 45.3758 768.452 42.992 769.034 40.4348C769.072 40.3087 769.072 40.1743 769.034 40.0483C768.9 39.7794 768.513 39.8382 768.194 39.9391L758.716 43.3757C757.188 43.8922 755.7 44.5184 754.263 45.2494C753.271 45.7872 750.708 46.9972 752.414 47.9382C753.809 48.7113 756.355 48.5768 757.918 48.6104C759.766 48.6441 761.64 48.5348 763.505 48.4256Z" fill="#333333"/>
<path d="M682.01 138.845C683.867 139.525 685.421 140.819 687.152 141.777C690.412 143.567 694.252 144.13 697.445 146.029C699.285 147.13 700.806 148.625 702.613 149.844C705.251 151.667 708.301 152.827 710.889 154.717C712.634 156.077 714.249 157.596 715.712 159.254C719.913 163.708 724.115 168.237 726.955 173.648C729.253 178.029 730.572 182.857 730.82 187.798C730.879 188.899 730.921 190.125 731.711 190.907C732.176 191.303 732.725 191.59 733.315 191.747C738.088 193.385 743.903 194.217 747.734 190.907C748.099 190.66 748.389 190.318 748.573 189.918C748.757 189.518 748.827 189.075 748.776 188.638C748.574 187.907 747.818 187.487 747.154 187.117C742.953 184.739 739.651 180.908 737.164 176.732C734.677 172.556 732.904 168.052 730.988 163.548C729.866 160.617 728.459 157.802 726.787 155.146C725.324 153.03 723.661 151.061 721.821 149.264C710.973 138.341 697.042 130.224 681.875 127.552C678.514 126.947 674.699 126.711 671.792 128.568C670.901 129.14 670.136 129.887 669.544 130.765C668.953 131.643 668.548 132.633 668.353 133.674C668.159 134.714 668.179 135.784 668.414 136.816C668.648 137.849 669.092 138.822 669.717 139.677C671.011 141.466 671.549 141.811 673.179 140.685C675.859 138.87 678.691 137.635 682.01 138.845Z" fill="white"/>
<path d="M654.526 126.208C655.442 130.838 658.676 134.61 660.744 138.862C662.277 142.335 663.429 145.964 664.18 149.685C668.457 167.498 672.751 185.975 669.222 203.956C667.44 213.107 667.541 222.652 665.583 231.769C665.272 233.189 665.062 234.97 666.23 235.844C667.398 236.718 668.86 236.104 670.096 235.533C678.429 231.726 686.994 228.448 695.74 225.719C699.613 224.4 703.616 223.496 707.68 223.022C711.394 222.686 715.141 222.98 718.872 222.837C726.384 222.543 733.845 220.451 741.332 221.156C745.149 221.636 748.911 222.48 752.566 223.677C762.868 226.685 773.766 230.08 780.757 238.222C781.303 238.86 781.79 238.045 782.185 237.306C783.311 235.447 784.093 233.401 784.496 231.265C784.765 229.114 784.118 226.702 782.345 225.45C781.219 224.66 779.824 224.425 778.496 223.963C773.934 222.35 770.716 217.241 771.774 212.527C772.833 207.813 778.496 204.503 782.933 206.376L778.69 195.453C776.648 190.193 769.296 189.21 763.683 188.597C758.07 187.983 752.423 188.697 746.777 188.79C738.013 188.933 729.283 187.555 720.519 187.235C712.099 187.079 703.679 187.478 695.311 188.429C691.875 188.765 688.253 189.092 685.094 187.706C683.245 180.623 683.934 172.783 681.607 165.859C680.884 163.717 679.859 161.658 679.002 159.608C677.605 156.194 676.645 152.617 676.145 148.962C675.238 142.24 673.7 135.367 674.633 128.645C674.761 128.159 674.711 127.643 674.49 127.191C674.298 126.98 674.065 126.812 673.804 126.696C673.544 126.581 673.262 126.52 672.978 126.519C666.793 125.611 660.559 124.435 654.526 126.208Z" fill="white"/>
<path d="M517.996 223.433C516.76 221.055 517.828 217.988 519.785 216.156C521.743 214.325 524.381 213.451 526.953 212.678C530.448 211.636 534.112 210.619 536.834 208.191C539.556 205.763 541.035 201.469 539.002 198.385C532.134 196.332 524.733 197.072 518.407 200.444C524.524 194.386 531.851 188.764 540.388 187.84C546.48 187.185 552.547 188.983 558.361 190.924C564.176 192.865 570.058 194.999 576.191 195.041C582.325 195.083 588.862 192.571 591.87 187.235C604.941 192.226 618.997 194.091 632.917 192.68C635.026 192.47 637.252 192.125 638.899 190.789C640.798 189.26 641.555 186.756 642.076 184.378C644.111 175.179 644.225 165.66 642.412 156.415C640.325 145.861 635.404 136.075 628.178 128.106C635.647 126.426 643.285 125.611 650.94 125.678C651.929 125.539 652.934 125.773 653.76 126.333C654.586 126.894 655.174 127.741 655.41 128.711C671.304 162.23 674.649 200.337 664.838 236.112C646.033 243.591 623.783 238.532 604.667 231.911C585.552 225.29 566.73 216.442 546.531 215.291C536.279 214.711 525.541 216.459 517.996 223.433Z" fill="white"/>
<path d="M773.774 207.283C772.656 207.905 772.312 209.325 772.094 210.586C771.421 214.199 770.875 218.366 773.261 221.156C773.935 221.88 774.694 222.521 775.522 223.063L779.143 225.668C780.454 226.609 782.445 227.491 783.479 226.256C783.874 225.674 784.061 224.975 784.008 224.273C784.134 219.358 783.639 201.788 773.774 207.283Z" fill="#F7B916"/>
<path d="M536.319 208.897C536.849 208.805 537.351 208.589 537.781 208.266C538.299 207.726 538.628 207.034 538.722 206.292C539.136 204.497 539.417 202.675 539.563 200.839C539.621 200.116 539.563 199.242 538.974 198.856C538.672 198.704 538.338 198.626 538 198.629C531.37 198.2 518.22 197.461 517.077 206.451C516.867 208.132 516.8 211.955 517.783 213.384C519.548 215.904 520.128 214.224 522.497 212.829C526.698 210.375 531.698 210.065 536.319 208.897Z" fill="#F7B916"/>
<path d="M517.709 215.014C517.155 210.619 516.609 206.074 517.852 201.822C520.919 191.386 533.565 186.773 544.421 187.538C555.277 188.302 565.562 192.815 576.351 193.94C581.148 194.445 586.627 193.991 589.795 190.327C593.5 186 592.173 179.522 591.778 173.842C591.372 167.244 592.498 160.642 595.068 154.552C597.638 148.462 601.582 143.049 606.591 138.736C618.086 128.997 633.857 126.132 648.898 125.368C679.449 123.83 714.438 132.476 728.722 159.499C734.192 169.834 737.259 183.227 748.048 187.723C756.585 191.268 767.222 187.647 775.07 192.537C783.212 197.579 784.078 208.931 784.044 218.526C784.044 227.819 783.817 237.684 778.759 245.481C773.701 253.279 761.878 257.396 754.896 251.271C756.198 240.255 747.586 230.382 736.788 227.836C725.991 225.29 713.261 230.777 709.472 241.213C707.716 246.103 708.707 251.54 704.951 255.128C701.498 258.421 696.246 258.715 691.507 258.766C657.057 259.136 636.008 256.69 601.97 251.456C600.84 251.27 599.778 250.796 598.886 250.078C597.206 248.817 596.584 246.717 596.248 244.666C594.382 233.088 578.174 221.744 561.797 230.231C554.235 234.155 550.143 240.868 551.034 249.363C551.378 252.607 525.826 249.876 523.137 246.952C517.567 240.961 518.676 222.669 517.709 215.014Z" stroke="#333333" stroke-width="2" stroke-linecap="round" stroke-linejoin="round"/>
<path d="M573.065 233.432C569.409 233.432 565.835 234.516 562.795 236.548C559.755 238.579 557.386 241.466 555.987 244.844C554.588 248.221 554.222 251.938 554.935 255.524C555.648 259.11 557.409 262.404 559.994 264.989C562.579 267.574 565.873 269.335 569.459 270.048C573.045 270.761 576.761 270.395 580.139 268.996C583.517 267.597 586.404 265.228 588.435 262.188C590.467 259.148 591.551 255.574 591.551 251.918C591.551 247.015 589.603 242.313 586.136 238.846C582.67 235.38 577.968 233.432 573.065 233.432ZM573.065 260.53C571.366 260.532 569.705 260.029 568.291 259.087C566.878 258.144 565.776 256.802 565.125 255.233C564.474 253.664 564.303 251.936 564.634 250.27C564.965 248.603 565.783 247.072 566.985 245.871C568.186 244.669 569.717 243.851 571.383 243.52C573.05 243.189 574.777 243.36 576.347 244.011C577.916 244.662 579.257 245.764 580.2 247.177C581.143 248.591 581.646 250.252 581.644 251.951C581.644 254.227 580.74 256.409 579.131 258.018C577.522 259.626 575.34 260.53 573.065 260.53Z" fill="#333333"/>
<path d="M730.661 233.432C727.005 233.432 723.431 234.516 720.391 236.548C717.351 238.579 714.982 241.466 713.583 244.844C712.184 248.221 711.818 251.938 712.531 255.524C713.244 259.11 715.005 262.404 717.59 264.989C720.175 267.574 723.469 269.335 727.055 270.048C730.641 270.761 734.358 270.395 737.735 268.996C741.113 267.597 744 265.228 746.031 262.188C748.063 259.148 749.147 255.574 749.147 251.918C749.147 247.015 747.199 242.313 743.733 238.846C740.266 235.38 735.564 233.432 730.661 233.432ZM730.661 260.53C728.963 260.53 727.302 260.026 725.89 259.082C724.477 258.138 723.377 256.797 722.727 255.227C722.077 253.658 721.908 251.93 722.24 250.264C722.572 248.598 723.39 247.068 724.592 245.868C725.794 244.667 727.325 243.85 728.991 243.519C730.658 243.189 732.384 243.36 733.953 244.012C735.522 244.663 736.863 245.765 737.806 247.178C738.748 248.591 739.25 250.253 739.249 251.951C739.246 254.227 738.341 256.409 736.731 258.018C735.12 259.627 732.937 260.53 730.661 260.53Z" fill="#333333"/>
<path d="M654.367 125.199C673.692 166.456 676.213 215.552 660.089 258.169" stroke="#333333" stroke-width="2" stroke-linecap="round" stroke-linejoin="round"/>
<path d="M592.271 186.538C605.094 191.924 619.454 191.848 633.36 191.697C635.561 191.697 637.981 191.562 639.603 190.075C641.006 188.781 641.451 186.773 641.745 184.882C643.285 174.964 642.718 164.832 640.082 155.146C637.445 145.461 632.799 136.44 626.445 128.67" stroke="#333333" stroke-width="2" stroke-linecap="round" stroke-linejoin="round"/>
<path d="M683.198 168.523C684.153 175.048 684.714 181.626 684.878 188.218L726.437 188.302C727.605 188.302 728.882 188.302 729.798 187.504C731.302 186.193 730.697 183.757 729.899 181.925C722.987 166.44 711.206 153.638 696.348 145.466C692.197 143.181 677.593 134.829 674.703 140.501C673.123 143.5 682.45 163.641 683.198 168.523Z" stroke="#333333" stroke-width="2" stroke-linecap="round" stroke-linejoin="round"/>
<path d="M622.648 138.963C619.116 141.745 615.951 144.964 613.229 148.542C611.985 150.172 610.784 152.213 611.431 154.154C615.751 151.148 620.417 148.671 625.329 146.777C626.076 147.466 625.623 148.701 625.076 149.558C621.186 155.692 615.128 160.658 613.212 167.657C619.934 168.044 624.135 159.389 630.782 158.675C631.546 159.246 631.16 160.448 630.681 161.271C626.774 167.993 620.421 173.581 619.052 181.219" stroke="#F7B916" stroke-width="6" stroke-linecap="round" stroke-linejoin="round"/>
<path d="M691.421 148.945C690.143 150.372 689.17 152.045 688.56 153.861C687.951 155.677 687.717 157.598 687.875 159.507C692.202 160.49 695.563 154.566 699.991 154.911C701.436 158.692 698.798 162.641 697.126 166.321C696.376 167.991 695.812 169.738 695.446 171.531C695.329 171.865 695.287 172.22 695.324 172.571C695.36 172.923 695.473 173.262 695.656 173.564C695.958 173.828 696.328 174.003 696.724 174.07C697.12 174.137 697.527 174.093 697.899 173.943C701.563 172.968 703.94 169.489 707.142 167.498C708.411 166.716 710.192 166.212 711.343 167.212C712.982 168.666 711.452 171.413 712.099 173.522" stroke="#F7B916" stroke-width="6" stroke-linecap="round" stroke-linejoin="round"/>
<path d="M518.308 223.147C528.231 218.52 539.046 216.117 549.995 216.107C560.945 216.097 571.764 218.48 581.696 223.089C587.217 225.693 592.384 228.97 597.846 231.693C615.431 240.4 635.377 243.132 654.655 239.473C667.318 237.037 679.283 231.911 691.677 228.365C707.345 223.903 723.634 222.016 739.907 222.778C755.032 223.5 771.484 227.323 780.836 239.289" stroke="#333333" stroke-width="2" stroke-linecap="round" stroke-linejoin="round"/>
<path d="M782.018 206.763C778.657 205.973 774.455 205.519 772.556 208.376C771.878 209.639 771.529 211.051 771.54 212.485C771.313 215.652 771.212 219.207 773.355 221.568C775.993 224.467 781.034 224.315 783.345 227.491" stroke="#333333" stroke-width="2" stroke-linecap="round" stroke-linejoin="round"/>
<path d="M517.837 215.375C524.055 212.482 530.561 210.251 537.247 208.72C537.954 208.639 538.614 208.322 539.12 207.821C539.486 207.226 539.64 206.524 539.557 205.83V201.452C539.606 201.056 539.573 200.654 539.46 200.271C539.347 199.888 539.157 199.532 538.902 199.226C538.458 198.895 537.926 198.704 537.373 198.679C530.323 197.705 524.534 198.377 518.047 201.326" stroke="#333333" stroke-width="2" stroke-linecap="round" stroke-linejoin="round"/>
<path d="M684.406 200.604C685.016 201.036 685.764 201.228 686.507 201.141L700.052 201.225C701.016 201.311 701.986 201.155 702.875 200.772C703.31 200.565 703.656 200.208 703.849 199.766C704.042 199.325 704.069 198.828 703.925 198.368C703.698 198.019 703.396 197.725 703.042 197.506C702.687 197.286 702.289 197.148 701.875 197.1C700.052 196.621 678.331 195.007 684.406 200.604Z" stroke="#333333" stroke-width="2" stroke-linecap="round" stroke-linejoin="round"/>
<path d="M621.933 200.746C622.542 201.179 623.291 201.371 624.033 201.284L637.578 201.368C638.54 201.453 639.507 201.297 640.393 200.914C640.828 200.708 641.174 200.351 641.367 199.909C641.56 199.468 641.587 198.971 641.443 198.511C641.215 198.162 640.914 197.868 640.559 197.649C640.205 197.429 639.807 197.291 639.393 197.242C637.578 196.78 615.874 195.15 621.933 200.746Z" stroke="#333333" stroke-width="2" stroke-linecap="round" stroke-linejoin="round"/>
<path d="M883.712 163.489C892.401 128.703 895.123 92.068 895.535 56.0464" stroke="#333333" stroke-width="2" stroke-linecap="round" stroke-linejoin="round"/>
<path d="M870.931 202.377C875.204 192.094 878.827 181.554 881.779 170.817" stroke="#333333" stroke-width="2" stroke-linecap="round" stroke-linejoin="round"/>
<path d="M838.44 254.22C847.817 245.221 855.068 234.222 861.219 222.786C863.258 218.999 865.182 215.168 866.991 211.292" stroke="#333333" stroke-width="2" stroke-linecap="round" stroke-linejoin="round"/>
<path d="M920.54 163.489C911.844 128.703 909.13 92.068 908.718 56.0464" stroke="#333333" stroke-width="2" stroke-linecap="round" stroke-linejoin="round"/>
<path d="M933.323 202.377C929.049 192.094 925.426 181.554 922.475 170.817" stroke="#333333" stroke-width="2" stroke-linecap="round" stroke-linejoin="round"/>
<path d="M965.807 254.22C956.439 245.221 949.187 234.222 943.028 222.786C941.152 219.285 939.373 215.742 937.693 212.157" stroke="#333333" stroke-width="2" stroke-linecap="round" stroke-linejoin="round"/>
<path d="M910.592 48.9381H893.342V56.0466H910.592V48.9381Z" stroke="#333333" stroke-width="2" stroke-linecap="round" stroke-linejoin="round"/>
<path d="M868.371 254.22C869.647 246.061 873.797 238.626 880.071 233.257C886.346 227.887 894.332 224.937 902.591 224.937C910.849 224.937 918.835 227.887 925.11 233.257C931.384 238.626 935.534 246.061 936.81 254.22" stroke="#333333" stroke-width="2" stroke-linecap="round" stroke-linejoin="round"/>
<path d="M942.481 202.376H862.473V211.804H942.481V202.376Z" stroke="#333333" stroke-width="2" stroke-linecap="round" stroke-linejoin="round"/>
<path d="M928.01 163.363H876.502V170.816H928.01V163.363Z" stroke="#333333" stroke-width="2" stroke-linecap="round" stroke-linejoin="round"/>
<path d="M896.267 48.7367L896.914 46.7117C897.312 45.076 898.064 43.5473 899.116 42.2331C899.528 41.7685 900.033 41.3964 900.6 41.1415C901.166 40.8866 901.78 40.7546 902.401 40.7543C902.855 40.7623 903.302 40.8775 903.703 41.0904C904.082 41.3257 904.429 41.608 904.737 41.9306C906.653 43.754 908.207 46.1319 908.384 48.7619C908.384 48.8711 908.56 48.6778 908.451 48.6862" stroke="#333333" stroke-width="2" stroke-linecap="round" stroke-linejoin="round"/>
<path d="M902.585 27.7891V40.7541" stroke="#333333" stroke-width="2" stroke-linecap="round" stroke-linejoin="round"/>
<path d="M891.57 202.376L898.308 177.387H906.534L913.433 202.376" stroke="#333333" stroke-width="2" stroke-linecap="round" stroke-linejoin="round"/>
<path d="M898.475 163.364L902.474 109.327L907.02 163.364" stroke="#333333" stroke-width="2" stroke-linecap="round" stroke-linejoin="round"/>
<path d="M895.097 71.1627C899.912 70.4149 904.853 72.7844 909.617 71.8097" stroke="#333333" stroke-width="2" stroke-linecap="round" stroke-linejoin="round"/>
<path d="M893.897 86.1361C893.956 86.3546 894.241 86.3966 894.46 86.405L910.257 86.9091" stroke="#333333" stroke-width="2" stroke-linecap="round" stroke-linejoin="round"/>
<path d="M893.157 100.647C899.089 100.547 905.019 100.907 910.895 101.723" stroke="#333333" stroke-width="2" stroke-linecap="round" stroke-linejoin="round"/>
<path d="M891.627 115.797H908.281C909.934 115.709 911.59 115.882 913.188 116.309" stroke="#333333" stroke-width="2" stroke-linecap="round" stroke-linejoin="round"/>
<path d="M889.637 130.703C889.645 130.608 889.621 130.513 889.569 130.432C889.518 130.352 889.441 130.291 889.351 130.258H900.829" stroke="#333333" stroke-width="2" stroke-linecap="round" stroke-linejoin="round"/>
<path d="M904.994 130.468C908.284 130.57 911.578 130.491 914.859 130.232" stroke="#333333" stroke-width="2" stroke-linecap="round" stroke-linejoin="round"/>
<path d="M887.459 144.937C891.678 144.405 895.94 144.292 900.181 144.601" stroke="#333333" stroke-width="2" stroke-linecap="round" stroke-linejoin="round"/>
<path d="M905.879 145.214L917.054 144.903" stroke="#333333" stroke-width="2" stroke-linecap="round" stroke-linejoin="round"/>
<path d="M877.813 182C884.099 182.045 890.384 181.95 896.669 181.715" stroke="#333333" stroke-width="2" stroke-linecap="round" stroke-linejoin="round"/>
<path d="M908.283 181.261C914.719 181.311 921.144 181.617 927.558 182.177" stroke="#333333" stroke-width="2" stroke-linecap="round" stroke-linejoin="round"/>
<path d="M873.83 194.386C880.443 193.865 887.056 192.361 893.66 193.066" stroke="#333333" stroke-width="2" stroke-linecap="round" stroke-linejoin="round"/>
<path d="M910.911 194.05H929.859C930.211 194.05 930.699 194.184 930.699 194.537" stroke="#333333" stroke-width="2" stroke-linecap="round" stroke-linejoin="round"/>
<path d="M843.186 249.069H870.142" stroke="#333333" stroke-width="2" stroke-linecap="round" stroke-linejoin="round"/>
<path d="M853.052 234.735C861.152 235.205 869.274 235.516 877.419 235.667" stroke="#333333" stroke-width="2" stroke-linecap="round" stroke-linejoin="round"/>
<path d="M935.69 249.784C944.569 248.593 953.567 248.571 962.452 249.716" stroke="#333333" stroke-width="2" stroke-linecap="round" stroke-linejoin="round"/>
<path d="M927.354 235.272H951.242" stroke="#333333" stroke-width="2" stroke-linecap="round" stroke-linejoin="round"/>
<path d="M862.473 220.425H941.784" stroke="#333333" stroke-width="2" stroke-linecap="round" stroke-linejoin="round"/>
<path d="M838.039 254.354C848.141 255.095 858.277 255.252 868.397 254.825" stroke="#333333" stroke-width="2" stroke-linecap="round" stroke-linejoin="round"/>
<path d="M936.853 254.22C946.575 255.06 956.112 253.758 965.816 254.733" stroke="#333333" stroke-width="2" stroke-linecap="round" stroke-linejoin="round"/>
<path d="M1073 358C1068.31 405.214 1058.52 425.743 1035.22 454C1035.22 454 1044.78 418.889 1024.33 389.778C1003.89 360.667 973 358 973 358L1073 358Z" fill="#6FC6AD"/>
</svg>
