<svg width="373" height="340" viewBox="0 0 373 340" fill="none" xmlns="http://www.w3.org/2000/svg">
<g clip-path="url(#clip0)">
<path d="M249.03 114.94C284.731 142.967 284.731 197.034 249.03 225.06L129.225 319.114C83.2915 355.174 16 322.45 16 264.054L16 75.947C16 17.5502 83.2915 -15.1729 129.225 20.887L249.03 114.94Z" fill="#F9BA16" fill-opacity="0.16"/>
<path d="M323.933 181.552C325.205 181.329 326.175 180.365 327.135 179.514C331.411 175.695 336.839 173.364 341.166 169.613C342.075 168.822 342.898 167.979 343.902 167.265C345.105 166.405 346.455 165.7 347.727 164.908C349.364 163.852 350.929 162.688 352.41 161.425L355.821 158.664C356.581 158.066 357.306 157.425 357.993 156.745C359.238 155.431 360.167 153.854 360.713 152.132C361.258 150.41 361.406 148.588 361.144 146.802C361.137 146.725 361.116 146.649 361.083 146.578C361.003 146.467 360.882 146.391 360.746 146.367C360.61 146.342 360.47 146.372 360.356 146.449C360.136 146.618 359.963 146.84 359.854 147.095C359.109 148.51 358.162 149.811 357.041 150.957C356.224 151.737 355.356 152.464 354.444 153.133L343.27 161.674C342.272 162.468 341.229 163.203 340.145 163.876C339.487 164.272 338.803 164.616 338.137 164.994C333.134 167.833 329.343 172.435 324.452 175.454C323.414 176.099 319.631 177.596 319.389 178.894C319.086 180.46 322.79 181.759 323.933 181.552Z" fill="#FBBF36"/>
<path d="M247.997 179.935C248.711 181.584 249.652 183.127 250.793 184.52L259.552 196.235L263.88 202.032C265.434 204.282 267.234 206.353 269.247 208.208C271.279 210.076 273.88 211.217 276.639 211.451C279.261 211.426 281.831 210.717 284.091 209.395C287.63 207.46 291.01 205.251 294.201 202.789L306.085 194.093C306.321 193.943 306.527 193.751 306.691 193.526C307.167 192.751 306.553 191.805 305.964 191.1C305.686 190.666 305.248 190.357 304.744 190.24C304.246 190.262 303.773 190.467 303.419 190.816L291.094 200.364C286.705 203.804 281.642 207.357 276.128 206.574C271.488 205.912 267.896 202.273 264.875 198.686C261.604 194.738 258.6 190.575 255.596 186.412L253.649 183.72C252.212 181.724 250.836 178.955 249.027 177.294C246.82 175.29 247.555 178.387 247.997 179.935Z" fill="#FBBF36"/>
<path d="M123.372 319.822C132.166 318.153 140.969 314.136 149.711 316.089C155.078 317.285 159.665 320.613 164.573 323.091C174.002 327.826 184.702 329.461 195.128 327.761C203.463 326.376 212.136 322.11 215.2 314.283C215.971 312.321 216.135 309.655 214.335 308.528C213.669 308.174 212.94 307.954 212.188 307.883C203.908 306.415 196.105 302.985 189.442 297.884C182.779 292.782 177.452 286.16 173.912 278.578C186.354 275.575 197.488 268.664 205.662 258.871C208.916 254.941 211.781 250.107 211.132 245.057C210.725 241.935 209.029 239.157 207.375 236.456L187.978 205.086C183.313 197.525 178.509 189.818 171.532 184.236C159.795 174.774 142.735 172.848 128.721 178.447C114.707 184.047 103.992 196.639 99.6637 211.021C96.6861 220.896 96.5476 231.372 96.4351 241.686C96.2273 259.964 96.011 278.32 98.0104 296.529C99.7416 311.934 104.866 323.331 123.372 319.822Z" fill="#6FC6AD"/>
<path d="M359.188 155.739C364.528 185.208 359.776 220.75 349.286 246.916C313.157 337.137 178.586 326.299 154.255 251.38" stroke="#333333" stroke-width="2" stroke-miterlimit="10"/>
<path d="M318.082 177.312C318.479 178.305 319.091 179.199 319.875 179.93C320.66 180.66 321.597 181.21 322.62 181.538C323.643 181.867 324.727 181.967 325.793 181.831C326.86 181.695 327.883 181.327 328.789 180.752C329.563 180.257 330.229 179.612 330.75 178.858C331.27 178.103 331.633 177.253 331.819 176.357" stroke="#333333" stroke-width="2" stroke-miterlimit="10"/>
<path d="M268.623 203.297L248.715 176.46C246.962 174.097 246.224 171.14 246.664 168.237C247.104 165.334 248.685 162.723 251.061 160.978L323.249 108.001C325.628 106.261 328.604 105.529 331.524 105.966C334.445 106.403 337.072 107.973 338.83 110.332L358.738 137.16C360.486 139.524 361.221 142.481 360.782 145.383C360.342 148.284 358.764 150.895 356.392 152.643L284.203 205.62C281.826 207.36 278.851 208.093 275.93 207.658C273.01 207.223 270.382 205.654 268.623 203.297V203.297ZM338.155 110.805C336.517 108.622 334.079 107.171 331.37 106.767C328.661 106.362 325.901 107.038 323.691 108.646L251.502 161.623C249.308 163.249 247.85 165.671 247.443 168.361C247.036 171.051 247.714 173.791 249.33 175.987L269.238 202.824C270.875 205.004 273.312 206.454 276.018 206.858C278.725 207.262 281.483 206.588 283.693 204.983L355.881 152.006C358.077 150.381 359.537 147.96 359.946 145.27C360.354 142.58 359.677 139.838 358.063 137.642L338.155 110.805Z" fill="#333333" stroke="#333333" stroke-miterlimit="10"/>
<path d="M285.995 200.089L256.843 160.909C256.811 160.867 256.787 160.82 256.774 160.769C256.76 160.718 256.757 160.665 256.764 160.613C256.771 160.561 256.789 160.511 256.816 160.466C256.843 160.42 256.878 160.381 256.921 160.35L325.985 109.669C326.686 109.155 327.482 108.783 328.329 108.575C329.175 108.368 330.054 108.328 330.915 108.459C331.777 108.59 332.604 108.889 333.348 109.339C334.093 109.789 334.741 110.381 335.255 111.08L338.267 115.131C338.33 115.219 338.356 115.327 338.34 115.433C338.324 115.539 338.267 115.634 338.181 115.699L337.056 116.559C336.613 116.884 336.318 117.369 336.236 117.909C336.153 118.449 336.289 119 336.614 119.441L349.52 136.816C349.849 137.255 350.34 137.546 350.885 137.627C351.43 137.707 351.984 137.57 352.428 137.246L353.553 136.386C353.596 136.354 353.644 136.331 353.696 136.318C353.747 136.306 353.8 136.303 353.853 136.311C353.905 136.319 353.956 136.338 354.001 136.365C354.046 136.393 354.085 136.429 354.116 136.472L356.998 140.351C358.037 141.75 358.474 143.501 358.214 145.22C357.954 146.939 357.019 148.486 355.613 149.52L286.558 200.201C286.515 200.232 286.465 200.254 286.412 200.266C286.36 200.277 286.305 200.278 286.252 200.268C286.199 200.257 286.149 200.236 286.105 200.205C286.061 200.174 286.023 200.135 285.995 200.089V200.089ZM257.761 160.754L286.402 199.297L355.137 148.858C356.373 147.949 357.195 146.59 357.424 145.079C357.653 143.568 357.269 142.029 356.358 140.798L353.709 137.237L352.904 137.831C352.6 138.055 352.255 138.216 351.888 138.307C351.521 138.398 351.14 138.416 350.766 138.36C350.392 138.304 350.033 138.175 349.709 137.981C349.385 137.787 349.103 137.531 348.879 137.229L335.965 119.862C335.513 119.249 335.324 118.483 335.439 117.732C335.554 116.981 335.964 116.305 336.58 115.854L337.376 115.26L334.606 111.527C333.691 110.3 332.323 109.483 330.803 109.255C329.283 109.028 327.734 109.409 326.496 110.315L257.761 160.754Z" fill="#333333" stroke="#333333" stroke-miterlimit="10"/>
<path d="M347.434 132.309C347.306 132.136 347.232 131.929 347.223 131.715C347.213 131.501 347.268 131.289 347.379 131.105C347.491 130.922 347.655 130.776 347.851 130.685C348.046 130.594 348.264 130.563 348.478 130.596C348.691 130.628 348.89 130.723 349.049 130.868C349.208 131.012 349.32 131.201 349.372 131.409C349.423 131.617 349.411 131.836 349.337 132.038C349.263 132.239 349.131 132.414 348.957 132.541C348.724 132.711 348.433 132.782 348.147 132.738C347.861 132.695 347.605 132.54 347.434 132.309V132.309ZM348.542 131.5C348.495 131.446 348.429 131.412 348.357 131.404C348.286 131.396 348.214 131.415 348.156 131.457C348.098 131.499 348.058 131.562 348.045 131.632C348.031 131.702 348.045 131.775 348.083 131.836C348.104 131.869 348.131 131.897 348.164 131.92C348.196 131.942 348.233 131.957 348.271 131.964C348.31 131.972 348.35 131.971 348.388 131.962C348.427 131.954 348.463 131.937 348.495 131.914C348.526 131.891 348.553 131.862 348.572 131.828C348.592 131.794 348.605 131.756 348.609 131.717C348.613 131.679 348.61 131.639 348.598 131.602C348.587 131.564 348.567 131.53 348.542 131.5V131.5Z" fill="#333333" stroke="#333333" stroke-miterlimit="10"/>
<path d="M345.252 129.143L339.998 122.064C339.92 121.958 339.863 121.838 339.831 121.711C339.8 121.584 339.793 121.451 339.813 121.321C339.833 121.192 339.878 121.067 339.946 120.955C340.014 120.842 340.104 120.744 340.21 120.666C340.317 120.588 340.437 120.532 340.566 120.5C340.694 120.469 340.827 120.463 340.958 120.482C341.088 120.502 341.214 120.547 341.327 120.614C341.44 120.682 341.538 120.771 341.617 120.877L346.88 127.956C346.971 128.061 347.04 128.184 347.082 128.317C347.124 128.449 347.137 128.589 347.122 128.728C347.106 128.866 347.062 128.999 346.992 129.12C346.922 129.24 346.827 129.345 346.714 129.427C346.601 129.51 346.473 129.568 346.336 129.598C346.199 129.629 346.058 129.63 345.921 129.604C345.783 129.577 345.653 129.522 345.538 129.443C345.423 129.364 345.326 129.262 345.252 129.143ZM340.968 121.35C340.937 121.308 340.89 121.28 340.838 121.272C340.786 121.264 340.733 121.276 340.691 121.307C340.669 121.322 340.65 121.342 340.635 121.365C340.621 121.388 340.612 121.413 340.608 121.44C340.604 121.466 340.605 121.493 340.612 121.519C340.619 121.545 340.631 121.57 340.647 121.591L345.901 128.67C345.935 128.711 345.983 128.738 346.036 128.746C346.089 128.754 346.143 128.742 346.187 128.713C346.224 128.675 346.244 128.624 346.244 128.571C346.244 128.518 346.224 128.467 346.187 128.429L340.968 121.35Z" fill="#333333" stroke="#333333" stroke-miterlimit="10"/>
<path d="M261.62 188.735C261.002 187.916 260.643 186.932 260.588 185.91C260.534 184.887 260.787 183.872 261.315 182.993C261.843 182.113 262.622 181.41 263.553 180.972C264.485 180.534 265.526 180.382 266.545 180.533C267.564 180.685 268.515 181.135 269.276 181.825C270.037 182.516 270.574 183.415 270.819 184.41C271.064 185.404 271.006 186.449 270.652 187.411C270.298 188.372 269.664 189.207 268.831 189.81C267.728 190.608 266.353 190.942 265.004 190.741C263.655 190.54 262.439 189.819 261.62 188.735V188.735ZM269.263 183.127C268.755 182.443 268.054 181.924 267.249 181.636C266.444 181.348 265.572 181.303 264.741 181.508C263.911 181.713 263.16 182.157 262.584 182.785C262.008 183.414 261.632 184.198 261.504 185.038C261.376 185.879 261.501 186.738 261.864 187.508C262.227 188.278 262.812 188.923 263.544 189.363C264.276 189.803 265.123 190.017 265.978 189.979C266.833 189.94 267.657 189.651 268.346 189.148C268.805 188.813 269.192 188.391 269.487 187.907C269.781 187.423 269.977 186.886 270.062 186.326C270.147 185.767 270.12 185.196 269.983 184.647C269.846 184.098 269.602 183.582 269.263 183.127V183.127Z" fill="#333333" stroke="#333333" stroke-miterlimit="10"/>
<path d="M160.435 151.877V177.372Z" fill="white"/>
<path d="M160.435 151.877V177.372" stroke="#333333" stroke-width="2" stroke-miterlimit="10"/>
<path d="M134.623 101.395C130.521 103.322 125.431 100.896 122.895 97.1544C114.819 85.2241 121.969 81.1126 122.782 80.8975C125.379 80.2266 128.071 79.5557 130.573 80.3642C133.074 81.1728 135.091 84.1059 133.914 86.4627" stroke="#333333" stroke-width="2" stroke-linecap="round" stroke-linejoin="round"/>
<path d="M121.069 93.094C120.204 89.1115 118.187 84.157 121.355 81.5594C123.181 80.0713 125.813 80.3293 128.176 80.1573C140.294 79.2972 147.01 66.3948 154.428 56.8041C155.441 55.4967 156.644 54.1377 158.289 53.8624C159.422 53.7778 160.561 53.9453 161.621 54.3527C173.65 57.8135 186.556 56.567 197.69 50.8691C203.749 47.7123 209.66 42.1557 209.21 35.3863C208.674 27.5417 197.854 20.6433 190.047 19.3358C150.68 12.7041 109.886 6.70879 89.6662 43.6008C87.4331 47.6865 86.9743 52.4776 87.2773 57.1138C88.541 76.5705 98.9452 102.857 108.466 119.604C116.984 116.155 123.017 101.816 121.069 93.094Z" fill="#333333"/>
<path d="M359.984 140.403C362.883 146.561 361.646 154.862 355.924 158.999L286.107 209.439C282.976 211.685 279.078 212.61 275.264 212.01C271.45 211.411 268.029 209.336 265.749 206.239L250.082 184.821C247.788 181.69 246.741 176.219 247.226 172.65" stroke="#333333" stroke-width="2" stroke-miterlimit="10"/>
<path d="M309.227 143.912C310.531 143.279 312.024 143.143 313.423 143.53C314.822 143.917 316.029 144.799 316.818 146.011C317.178 146.669 317.44 147.376 317.597 148.11C317.951 149.406 317.969 150.77 317.649 152.075C317.485 152.725 317.176 153.331 316.745 153.846C316.313 154.361 315.77 154.773 315.156 155.051C314.7 155.218 314.227 155.333 313.745 155.395C312.014 155.662 310.092 155.722 308.552 154.802C304.449 152.299 305.063 146.019 309.227 143.912Z" fill="#6FC6AD"/>
<path d="M101.317 228.921C96.6425 208.183 108.821 184.976 128.599 176.916C148.378 168.856 173.453 176.916 184.758 194.936C190.072 203.409 192.427 213.335 196.201 222.582C204.224 242.227 219.571 259.37 239.375 267.198C259.18 275.025 283.442 272.522 299.723 258.82C316.004 245.118 322.28 220.035 312.282 201.31C305.574 188.752 299.299 180.787 295.984 166.904C295.006 162.818 294.296 158.397 295.863 154.492C297.429 150.587 302.06 147.611 305.964 149.236C309.201 150.587 310.612 154.285 311.685 157.605C313.82 164.177 315.952 170.754 318.082 177.337" stroke="#333333" stroke-width="2" stroke-miterlimit="10"/>
<path d="M304.302 185.406C303.87 184.502 303.668 183.507 303.714 182.507C303.904 181.045 304.735 180.4 305.869 179.454C308.242 177.462 310.86 175.777 313.659 174.439C313.998 174.241 314.383 174.134 314.776 174.129C315.762 174.198 316.42 175.308 316.784 176.219C317.502 178.077 318.515 180.167 320.125 181.286C321.482 182.235 323.096 182.756 324.756 182.782C329.187 182.61 328.33 191.384 325.621 194.885C323.336 197.758 319.493 198.79 315.91 199.659C314.637 199.968 312.542 199.985 311.963 198.798C311.383 197.611 304.302 185.406 304.302 185.406Z" fill="white"/>
<path d="M299.039 162.689C299.122 163.096 299.313 163.474 299.593 163.782C299.91 164.036 300.296 164.192 300.701 164.229C302.64 164.521 304.57 163.782 306.397 163.059C307.375 162.672 308.457 162.199 308.864 161.21C309.106 160.287 309.011 159.309 308.595 158.449L307.427 155.103C307.266 154.423 306.904 153.806 306.388 153.331C305.237 152.471 303.61 153.236 302.398 154.01C300.961 154.931 299.143 155.619 298.555 157.184C297.897 158.974 299.039 161.012 299.039 162.689Z" stroke="#333333" stroke-width="2" stroke-linecap="round" stroke-linejoin="round"/>
<path d="M310.093 150.785C311.2 149.833 312.3 148.869 313.39 147.895L310.672 148.11C311.51 148.109 312.344 148.008 313.157 147.809V149.942" stroke="white" stroke-linecap="round" stroke-linejoin="round"/>
<path d="M178.024 55.3851C181.659 55.8754 185.303 54.8776 188.809 53.811C198.416 50.8951 208.474 46.9298 214.04 38.5949C217.358 33.593 218.69 27.546 217.779 21.6241C217.484 19.0367 216.424 16.5943 214.732 14.6052C212.958 12.7043 210.102 11.6291 207.661 12.429C207.799 16.8158 198.139 20.8929 188.237 18.9662C186.385 18.6049 180.058 25.8904 178.465 26.9054C164.927 35.4812 156.601 52.5036 178.024 55.3851Z" fill="#333333"/>
<path d="M107.298 109.987C109.092 129.834 110.073 149.729 110.241 169.673C110.292 175.952 110.241 182.455 108.509 188.442" stroke="#333333" stroke-width="2" stroke-linecap="round" stroke-linejoin="round"/>
<path d="M136.242 123.286C135.396 126.966 135.602 130.808 136.836 134.378C138.071 137.948 140.284 141.104 143.227 143.491" stroke="#333333" stroke-width="2" stroke-linecap="round" stroke-linejoin="round"/>
<path d="M170.346 89.7483C171.731 85.895 174.303 82.5737 177.697 80.2572C181.091 77.9408 185.134 76.7471 189.25 76.846" stroke="#333333" stroke-width="2" stroke-linecap="round" stroke-linejoin="round"/>
<path d="M178.889 91.09C180.06 89.4423 181.573 88.0631 183.326 87.0453C185.079 86.0275 187.031 85.3946 189.051 85.1894C188.14 85.067 187.215 85.2671 186.438 85.7547C185.661 86.2423 185.081 86.9861 184.801 87.8558C184.603 88.6395 184.694 89.4677 185.058 90.1904C185.421 90.9131 186.033 91.4825 186.783 91.7953C187.552 92.0525 188.392 92.0003 189.124 91.6499C189.855 91.2995 190.419 90.6786 190.695 89.9202C190.796 89.5345 190.813 89.1322 190.748 88.7392C190.682 88.3462 190.535 87.9712 190.315 87.6382C190.095 87.3053 189.807 87.0218 189.47 86.8059C189.133 86.5901 188.754 86.4467 188.358 86.385" stroke="#333333" stroke-width="2" stroke-linecap="round" stroke-linejoin="round"/>
<path d="M167.801 35.8768C182.343 34.2081 197.438 43.4375 202.485 57.0796C205.687 65.7327 205.081 75.2374 205.687 84.4324C206.293 93.6275 208.648 103.528 215.91 109.265C210.076 109.798 205.8 116.637 207.903 122.064C200.782 122.999 193.565 122.961 186.454 121.952C187.309 123.953 188.655 125.71 190.368 127.062C192.08 128.414 194.107 129.319 196.261 129.694C200.295 130.356 206.189 130.442 206.319 134.511C206.406 137.478 202.701 139.224 201.939 142.106C201.524 143.663 202.043 145.314 201.939 146.931C201.61 152.694 194.409 155.103 188.618 155.576C177.92 156.436 165.784 155.24 156.592 150.836" stroke="#333333" stroke-width="2" stroke-linecap="round" stroke-linejoin="round"/>
<path d="M279.4 73.9964L256.774 71.4306C253.924 71.1074 251.35 73.1412 251.025 75.9731L249.04 93.2618C248.715 96.0937 250.761 98.6514 253.611 98.9746L276.237 101.54C279.087 101.864 281.661 99.8298 281.986 96.9979L283.971 79.7091C284.297 76.8772 282.25 74.3195 279.4 73.9964Z" stroke="#333333" stroke-width="2" stroke-miterlimit="10"/>
<path d="M253.458 73.3279L266.511 86.471L282.213 76.5879" stroke="#333333" stroke-width="2" stroke-linecap="round" stroke-linejoin="round"/>
<path d="M303.38 20.4434L286.041 15.9905C283.264 15.2774 280.431 16.9363 279.714 19.696L276.355 32.6126C275.637 35.3722 277.306 38.1875 280.083 38.9007L297.422 43.3536C300.199 44.0668 303.032 42.4078 303.75 39.6481L307.109 26.7315C307.827 23.9719 306.157 21.1566 303.38 20.4434Z" stroke="#333333" stroke-width="2" stroke-miterlimit="10"/>
<path d="M282.273 17.022L291.743 29.6576L306.189 23.1549" stroke="#333333" stroke-width="2" stroke-linecap="round" stroke-linejoin="round"/>
<path d="M369.989 73.4733L354.135 57.0958C352.146 55.0417 348.859 54.9784 346.792 56.9544L334.116 69.0717C332.049 71.0478 331.985 74.3149 333.974 76.369L349.828 92.7465C351.817 94.8006 355.104 94.8639 357.171 92.8878L369.847 80.7705C371.914 78.7945 371.978 75.5274 369.989 73.4733Z" stroke="#333333" stroke-width="2" stroke-miterlimit="10"/>
<path d="M350.359 56.4688L351.987 74.9104L370.475 77.2501" stroke="#333333" stroke-width="2" stroke-linecap="round" stroke-linejoin="round"/>
<path d="M231.542 80.4326C231.313 80.4669 231.079 80.4091 230.892 80.2719C230.705 80.1348 230.581 79.9296 230.547 79.7015C230.512 79.4734 230.571 79.241 230.709 79.0555C230.846 78.87 231.053 78.7466 231.283 78.7123L246.863 73.9041C247.082 73.8356 247.32 73.8566 247.523 73.9622C247.727 74.0679 247.88 74.2496 247.949 74.4675C248.018 74.6853 247.997 74.9215 247.891 75.1239C247.784 75.3264 247.601 75.4785 247.382 75.547L231.802 80.3552C231.72 80.3944 231.632 80.4206 231.542 80.4326V80.4326Z" fill="#FBBF36"/>
<path d="M236.606 86.1358C236.4 86.1353 236.201 86.0621 236.045 85.9293C235.889 85.7964 235.785 85.6126 235.753 85.4107C235.721 85.2088 235.762 85.0022 235.869 84.8277C235.976 84.6532 236.142 84.5223 236.337 84.4585C239.172 83.5281 241.95 82.4339 244.656 81.1813C244.863 81.0894 245.098 81.0818 245.31 81.1603C245.523 81.2388 245.696 81.397 245.792 81.601C245.889 81.8049 245.901 82.0384 245.826 82.251C245.751 82.4637 245.595 82.6386 245.391 82.7382C242.623 84.0254 239.778 85.1456 236.874 86.0928C236.787 86.1196 236.697 86.1341 236.606 86.1358V86.1358Z" fill="#FBBF36"/>
<path d="M240.484 90.2815C240.254 90.2895 240.031 90.2065 239.863 90.0509C239.695 89.8952 239.596 89.6796 239.588 89.4515C239.58 89.2233 239.663 89.0014 239.82 88.8344C239.976 88.6675 240.193 88.5692 240.423 88.5612C241.542 88.483 242.63 88.1599 243.608 87.615C243.707 87.5585 243.816 87.522 243.929 87.5074C244.043 87.4928 244.157 87.5005 244.268 87.5301C244.378 87.5596 244.481 87.6105 244.571 87.6796C244.662 87.7488 244.737 87.835 244.794 87.9333C244.851 88.0316 244.888 88.14 244.902 88.2524C244.917 88.3648 244.909 88.479 244.88 88.5884C244.85 88.6978 244.799 88.8004 244.729 88.8901C244.659 88.9799 244.573 89.0552 244.474 89.1117C243.271 89.7782 241.935 90.1745 240.561 90.2729L240.484 90.2815Z" fill="#FBBF36"/>
<path d="M301.125 89.0429C300.949 89.0425 300.777 88.9885 300.632 88.8881C299.472 88.0881 298.182 87.1678 296.867 86.1958C294.954 84.811 292.98 83.3745 291.284 82.2649C290.351 81.6231 289.373 81.0482 288.358 80.5446C288.253 80.498 288.158 80.431 288.08 80.3476C288.001 80.2642 287.94 80.166 287.9 80.0589C287.86 79.9517 287.842 79.8377 287.846 79.7235C287.851 79.6093 287.879 79.4972 287.928 79.3937C287.977 79.2902 288.046 79.1975 288.131 79.1209C288.217 79.0443 288.317 78.9854 288.425 78.9476C288.534 78.9098 288.649 78.8938 288.763 78.9007C288.878 78.9076 288.991 78.9372 289.094 78.9877C290.184 79.5218 291.235 80.1342 292.236 80.8199C293.967 81.9553 295.958 83.4003 297.888 84.7938C299.195 85.7485 300.485 86.6775 301.619 87.4688C301.77 87.5735 301.883 87.7232 301.942 87.8963C302.002 88.0694 302.004 88.2567 301.949 88.4312C301.894 88.6058 301.785 88.7583 301.637 88.8667C301.488 88.9752 301.309 89.0339 301.125 89.0343V89.0429Z" fill="#FBBF36"/>
<path d="M295.638 93.0166C295.515 93.016 295.394 92.9897 295.283 92.9392C292.655 91.651 290.141 90.1432 287.77 88.432C287.68 88.3622 287.604 88.2754 287.548 88.1766C287.492 88.0777 287.456 87.9688 287.442 87.856C287.428 87.7433 287.437 87.6289 287.468 87.5196C287.499 87.4103 287.552 87.3082 287.623 87.2192C287.687 87.1198 287.771 87.0347 287.87 86.9692C287.969 86.9036 288.08 86.8589 288.197 86.8379C288.314 86.8169 288.434 86.8201 288.55 86.8472C288.665 86.8743 288.774 86.9248 288.869 86.9955C291.128 88.6279 293.523 90.0667 296.027 91.2963C296.132 91.3427 296.226 91.4093 296.304 91.4921C296.383 91.5749 296.444 91.6723 296.484 91.7786C296.524 91.885 296.543 91.9982 296.539 92.1118C296.535 92.2254 296.508 92.337 296.46 92.4403C296.401 92.6095 296.289 92.7561 296.142 92.8594C295.995 92.9627 295.818 93.0177 295.638 93.0166V93.0166Z" fill="#FBBF36"/>
<path d="M290.877 98.5478C290.693 98.5484 290.514 98.4912 290.366 98.3843C289.151 97.5105 288.023 96.5225 286.999 95.434C286.912 95.3534 286.843 95.256 286.796 95.1478C286.749 95.0396 286.724 94.9229 286.725 94.805C286.725 94.6871 286.749 94.5704 286.797 94.4623C286.844 94.3542 286.913 94.2569 287 94.1766C287.087 94.0962 287.19 94.0344 287.301 93.9951C287.413 93.9557 287.532 93.9397 287.651 93.9479C287.769 93.9561 287.884 93.9884 287.99 94.0428C288.095 94.0973 288.188 94.1726 288.263 94.2642C289.214 95.2671 290.257 96.1799 291.379 96.9909C291.564 97.1237 291.689 97.324 291.726 97.5479C291.763 97.7719 291.71 98.0014 291.578 98.1865C291.498 98.2977 291.393 98.3884 291.271 98.4512C291.149 98.514 291.014 98.5471 290.877 98.5478V98.5478Z" fill="#FBBF36"/>
<path d="M261.794 19.1123C261.564 19.1192 261.342 19.0351 261.174 18.8787C261.007 18.7222 260.909 18.5061 260.902 18.278C260.896 18.0499 260.98 17.8284 261.138 17.6622C261.295 17.4961 261.513 17.3989 261.742 17.392C266.001 17.0996 270.303 16.6093 274.518 15.947C274.632 15.9289 274.748 15.9333 274.86 15.9598C274.972 15.9863 275.077 16.0345 275.171 16.1016C275.264 16.1687 275.343 16.2534 275.403 16.3508C275.463 16.4483 275.504 16.5565 275.522 16.6695C275.54 16.7825 275.536 16.8979 275.509 17.0091C275.482 17.1204 275.434 17.2254 275.366 17.318C275.299 17.4107 275.214 17.4892 275.116 17.5491C275.018 17.6091 274.909 17.6492 274.795 17.6673C270.519 18.3382 266.139 18.8285 261.811 19.1209L261.794 19.1123Z" fill="#FBBF36"/>
<path d="M267.367 24.4711C266.796 24.4711 266.234 24.4711 265.636 24.4711C265.407 24.4711 265.187 24.3805 265.024 24.2192C264.862 24.0579 264.771 23.8391 264.771 23.6109C264.771 23.3828 264.862 23.164 265.024 23.0027C265.187 22.8414 265.407 22.7508 265.636 22.7508C268.42 22.8339 271.206 22.7103 273.972 22.3809C274.201 22.3536 274.432 22.4179 274.614 22.5599C274.796 22.7018 274.914 22.9097 274.941 23.1379C274.969 23.366 274.904 23.5956 274.761 23.7763C274.618 23.957 274.409 24.0739 274.18 24.1012C271.918 24.3593 269.644 24.4828 267.367 24.4711V24.4711Z" fill="#FBBF36"/>
<path d="M269.489 30.5439C269.047 30.5439 268.623 30.5439 268.173 30.4923C267.943 30.4775 267.729 30.3726 267.577 30.2008C267.426 30.029 267.349 29.8044 267.364 29.5762C267.379 29.3481 267.484 29.1352 267.657 28.9844C267.83 28.8336 268.056 28.7572 268.285 28.772C269.528 28.8552 270.775 28.8091 272.007 28.6344C272.121 28.6186 272.237 28.6251 272.348 28.6538C272.459 28.6824 272.563 28.7325 272.655 28.8011C272.747 28.8698 272.824 28.9558 272.882 29.0541C272.94 29.1524 272.978 29.2611 272.994 29.3741C273.01 29.4871 273.003 29.602 272.975 29.7124C272.946 29.8228 272.895 29.9265 272.826 30.0176C272.757 30.1086 272.671 30.1853 272.572 30.2431C272.473 30.301 272.363 30.3389 272.25 30.3547C271.335 30.4821 270.412 30.5454 269.489 30.5439V30.5439Z" fill="#FBBF36"/>
<path d="M322.063 35.6361C321.947 35.6359 321.832 35.6125 321.725 35.5673C321.582 35.5063 321.455 35.4119 321.355 35.2922C321.256 35.1725 321.187 35.0309 321.154 34.8792L319.163 33.1159C318.237 32.2987 317.285 31.4558 316.324 30.6816C314.567 29.2603 312.697 27.9831 310.732 26.8626C310.629 26.8088 310.538 26.7348 310.464 26.645C310.39 26.5552 310.335 26.4515 310.302 26.34C310.27 26.2286 310.26 26.1118 310.274 25.9967C310.288 25.8815 310.326 25.7704 310.384 25.6699C310.443 25.5695 310.521 25.4818 310.614 25.4122C310.708 25.3426 310.814 25.2925 310.928 25.2649C311.041 25.2373 311.159 25.2328 311.274 25.2516C311.389 25.2705 311.499 25.3123 311.598 25.3745C313.648 26.5454 315.599 27.8802 317.432 29.3656C318.427 30.1655 319.388 31.0171 320.323 31.8428L322.625 33.8556C322.831 34.0115 322.971 34.2375 323.019 34.49C323.067 34.7424 323.019 35.0036 322.885 35.2233C322.794 35.355 322.671 35.4619 322.527 35.534C322.383 35.6062 322.224 35.6413 322.063 35.6361Z" fill="#FBBF36"/>
<path d="M315.762 37.3133C315.575 37.3133 315.393 37.2529 315.243 37.1412L309.738 32.9953C309.647 32.9275 309.571 32.8426 309.513 32.7454C309.455 32.6482 309.417 32.5406 309.401 32.4288C309.384 32.317 309.391 32.2031 309.419 32.0937C309.447 31.9843 309.497 31.8814 309.565 31.7911C309.633 31.7007 309.719 31.6246 309.816 31.567C309.914 31.5095 310.022 31.4716 310.135 31.4557C310.248 31.4397 310.362 31.4459 310.472 31.4739C310.582 31.502 310.686 31.5513 310.777 31.6191L316.29 35.765C316.473 35.9031 316.592 36.1075 316.623 36.3333C316.654 36.5591 316.594 36.7878 316.455 36.9692C316.374 37.076 316.27 37.1627 316.15 37.2225C316.029 37.2822 315.897 37.3133 315.762 37.3133V37.3133Z" fill="#FBBF36"/>
<path d="M311.936 41.4075C311.785 41.4086 311.635 41.37 311.504 41.2957C310.148 40.5086 309.009 39.4005 308.188 38.0701C308.115 37.8801 308.112 37.6705 308.18 37.4786C308.248 37.2866 308.382 37.1247 308.558 37.0216C308.734 36.9185 308.942 36.8808 309.144 36.9153C309.345 36.9498 309.528 37.0542 309.66 37.21C310.337 38.2941 311.27 39.1976 312.378 39.842C312.476 39.8989 312.562 39.9746 312.631 40.0647C312.7 40.1548 312.751 40.2575 312.78 40.367C312.809 40.4764 312.816 40.5905 312.8 40.7026C312.785 40.8148 312.747 40.9228 312.689 41.0204C312.608 41.1437 312.496 41.2441 312.364 41.3119C312.232 41.3797 312.085 41.4126 311.936 41.4075Z" fill="#FBBF36"/>
<path d="M378.092 102.246C377.916 102.245 377.745 102.191 377.602 102.091C377.458 101.991 377.348 101.851 377.287 101.687C375.181 96.2518 373.486 90.6684 372.214 84.9831C372.179 84.7661 372.228 84.5439 372.353 84.3621C372.477 84.1803 372.666 84.0526 372.882 84.0053C373.098 83.958 373.324 83.9946 373.514 84.1076C373.704 84.2207 373.842 84.4016 373.902 84.6132C375.155 90.2151 376.822 95.7177 378.888 101.077C378.928 101.182 378.947 101.295 378.944 101.408C378.941 101.52 378.915 101.632 378.868 101.735C378.822 101.838 378.755 101.931 378.672 102.008C378.589 102.086 378.492 102.146 378.386 102.186C378.291 102.221 378.192 102.241 378.092 102.246Z" fill="#FBBF36"/>
<path d="M370.648 99.0896C370.475 99.0897 370.306 99.0382 370.162 98.9416C370.019 98.8449 369.908 98.7077 369.843 98.5477L366.875 91.0471C366.828 91.0235 366.785 90.9947 366.745 90.9611C366.591 90.8387 366.48 90.6721 366.426 90.4842C366.371 90.2963 366.377 90.0963 366.442 89.9117C366.51 89.7339 366.627 89.5789 366.781 89.4647C366.934 89.3505 367.116 89.2818 367.307 89.2666C367.537 89.2654 367.761 89.3375 367.946 89.4722C368.132 89.6069 368.269 89.7971 368.337 90.015L371.462 97.9198C371.545 98.1309 371.54 98.3658 371.449 98.5735C371.358 98.7813 371.189 98.9451 370.977 99.0294C370.873 99.0705 370.761 99.0909 370.648 99.0896V99.0896Z" fill="#FBBF36"/>
<path d="M363.464 98.6249C363.298 98.6253 363.136 98.5785 362.996 98.4901C362.857 98.4017 362.745 98.2753 362.676 98.126C361.95 96.6014 361.651 94.9108 361.81 93.2318C361.822 93.1193 361.856 93.0104 361.911 92.911C361.965 92.8117 362.038 92.724 362.127 92.6529C362.215 92.5818 362.317 92.5287 362.426 92.4967C362.535 92.4647 362.649 92.4543 362.762 92.4662C362.989 92.4901 363.197 92.602 363.342 92.7776C363.486 92.9531 363.555 93.1782 363.533 93.4038C363.399 94.7737 363.635 96.1544 364.217 97.4035C364.314 97.61 364.325 97.8465 364.247 98.061C364.169 98.2755 364.009 98.4505 363.801 98.5475C363.695 98.5944 363.58 98.6207 363.464 98.6249V98.6249Z" fill="#FBBF36"/>
<path d="M344.352 54.542C344.15 54.546 343.952 54.4794 343.794 54.3536C343.636 54.2279 343.527 54.051 343.487 53.8538C337.812 51.897 331.868 50.8235 325.863 50.6713C325.634 50.6656 325.416 50.5695 325.258 50.4041C325.1 50.2388 325.014 50.0177 325.02 49.7896C325.025 49.5615 325.122 49.345 325.288 49.1877C325.455 49.0304 325.677 48.9452 325.907 48.951C332.202 49.1106 338.432 50.2543 344.369 52.34C344.646 52.437 344.885 52.6162 345.056 52.8531C345.226 53.0901 345.319 53.3734 345.322 53.6646C345.298 53.8763 345.206 54.0748 345.06 54.23C344.913 54.3852 344.719 54.4886 344.508 54.5247C344.457 54.5377 344.405 54.5435 344.352 54.542Z" fill="#FBBF36"/>
<path d="M338.267 60.1847C338.144 60.1842 338.023 60.1578 337.912 60.1073C335.036 58.8556 332.024 57.9405 328.936 57.3806C328.706 57.3396 328.503 57.2096 328.369 57.0192C328.236 56.8289 328.185 56.5938 328.226 56.3656C328.267 56.1375 328.398 55.935 328.59 55.8028C328.781 55.6705 329.018 55.6192 329.247 55.6603C332.469 56.2485 335.612 57.2038 338.613 58.5074C338.717 58.5531 338.811 58.6187 338.889 58.7005C338.968 58.7824 339.03 58.8787 339.07 58.9842C339.111 59.0896 339.131 59.2021 339.128 59.3151C339.126 59.4281 339.1 59.5395 339.054 59.6428C338.991 59.8002 338.883 59.9355 338.743 60.0319C338.603 60.1283 338.437 60.1815 338.267 60.1847Z" fill="#FBBF36"/>
<path d="M333.324 64.8383C333.211 64.837 333.1 64.8136 332.996 64.7695C331.527 64.1755 329.959 63.866 328.373 63.8578C328.144 63.8578 327.924 63.7671 327.761 63.6058C327.599 63.4445 327.508 63.2257 327.508 62.9976C327.508 62.7695 327.599 62.5507 327.761 62.3894C327.924 62.2281 328.144 62.1375 328.373 62.1375C330.181 62.1504 331.97 62.5035 333.645 63.1782C333.833 63.2521 333.989 63.3893 334.086 63.5658C334.183 63.7423 334.215 63.947 334.176 64.1444C334.137 64.3418 334.029 64.5193 333.872 64.6461C333.715 64.7728 333.518 64.8409 333.316 64.8383H333.324Z" fill="#FBBF36"/>
</g>
<defs>
<clipPath id="clip0">
<rect width="373" height="340" fill="white"/>
</clipPath>
</defs>
</svg>
