<svg width="326" height="197" viewBox="0 0 326 197" fill="none" xmlns="http://www.w3.org/2000/svg">
<path d="M316.29 196.2C333.29 158.81 322.87 75.4304 297.63 40.7004L256 165.5L229.11 181.66L226.44 196.17L316.29 196.2Z" fill="#F7B916"/>
<path d="M317.82 92.5705C319.09 119.95 308.14 177.16 227.17 192.04L234.47 152.14C247.21 146.02 258.2 137.62 266.06 126.74C266.06 126.74 279.15 109.05 278.17 81.1205C277.17 51.4605 254.05 36.2605 254.05 36.2605C246.17 30.1505 231.98 26.2605 217.13 25.6505L221.72 1.00049C238.37 1.00049 254.23 4.19049 265.72 10.0005C272.068 13.2794 277.944 17.3999 283.19 22.2505C300.63 38.1405 312.19 60.0605 316.76 83.2505C317.335 86.338 317.69 89.4626 317.82 92.6005" fill="#F7B916"/>
<path d="M48.73 87.7204H6C4.4087 87.7204 2.88258 87.0883 1.75736 85.9631C0.632141 84.8379 0 83.3117 0 81.7204L0 21.2004C0 19.6091 0.632141 18.083 1.75736 16.9578C2.88258 15.8326 4.4087 15.2004 6 15.2004H102C103.591 15.2004 105.117 15.8326 106.243 16.9578C107.368 18.083 108 19.6091 108 21.2004V81.7204C108 83.3117 107.368 84.8379 106.243 85.9631C105.117 87.0883 103.591 87.7204 102 87.7204H61.36" fill="#81859C"/>
<path d="M151.35 86.8906C158.883 86.8906 164.99 80.7838 164.99 73.2506C164.99 65.7174 158.883 59.6106 151.35 59.6106C143.817 59.6106 137.71 65.7174 137.71 73.2506C137.71 80.7838 143.817 86.8906 151.35 86.8906Z" fill="#EF5237"/>
<path d="M154.38 72.9706C154.339 71.8411 153.916 70.7589 153.18 69.9006C152.813 69.4834 152.342 69.1711 151.815 68.9954C151.288 68.8197 150.724 68.787 150.18 68.9006C149.705 69.0573 149.27 69.3182 148.909 69.6642C148.547 70.0102 148.267 70.4326 148.09 70.9006C147.746 71.8612 147.603 72.8824 147.67 73.9006C147.622 74.4009 147.676 74.9057 147.827 75.385C147.978 75.8642 148.224 76.3083 148.55 76.6906C148.996 77.0362 149.542 77.2279 150.107 77.2369C150.671 77.246 151.223 77.0718 151.68 76.7406C152.581 76.0436 153.221 75.0648 153.5 73.9606C153.82 72.8906 153.97 71.7606 154.28 70.6806L153.52 74.8706C153.376 75.4012 153.335 75.9546 153.4 76.5006C153.442 76.7657 153.558 77.0135 153.735 77.2153C153.912 77.417 154.143 77.5645 154.4 77.6406C155.21 77.8206 155.89 77.0306 156.27 76.2906C156.93 74.9925 157.299 73.566 157.35 72.1106C157.404 71.3988 157.308 70.6836 157.07 70.0106C156.29 68.0106 153.94 67.1206 151.82 66.6406C150.896 66.3885 149.936 66.2938 148.98 66.3606C148.094 66.5151 147.253 66.8643 146.518 67.3831C145.783 67.9019 145.172 68.5773 144.73 69.3606C143.92 70.6604 143.49 72.1614 143.49 73.6931C143.491 75.2247 143.92 76.7256 144.73 78.0254C145.541 79.3252 146.699 80.3717 148.074 81.0461C149.449 81.7205 150.986 81.9957 152.51 81.8406" stroke="white" stroke-linecap="round" stroke-linejoin="round"/>
<path d="M118.57 35.4005V32.2705C118.57 30.7032 117.958 29.1979 116.862 28.0766C115.767 26.9553 114.277 26.3071 112.71 26.2705H19C17.4331 26.3071 15.9427 26.9553 14.8476 28.0766C13.7525 29.1979 13.1396 30.7032 13.14 32.2705V35.4005H118.57Z" fill="#F7B916"/>
<path d="M63.46 98.7905H61.11" stroke="#333333" stroke-linecap="round" stroke-linejoin="round"/>
<path d="M68.59 98.7905H66.65" stroke="#333333" stroke-linecap="round" stroke-linejoin="round"/>
<path d="M59.3 98.7905H16.57C14.9787 98.7905 13.4526 98.1584 12.3274 97.0331C11.2021 95.9079 10.57 94.3818 10.57 92.7905V32.2705C10.57 30.6792 11.2021 29.1531 12.3274 28.0279C13.4526 26.9026 14.9787 26.2705 16.57 26.2705H112.57C114.161 26.2705 115.687 26.9026 116.813 28.0279C117.938 29.1531 118.57 30.6792 118.57 32.2705V92.7905C118.57 94.3818 117.938 95.9079 116.813 97.0331C115.687 98.1584 114.161 98.7905 112.57 98.7905H71.93" fill="white"/>
<path d="M59.3 98.7905H16.57C14.9787 98.7905 13.4526 98.1584 12.3274 97.0331C11.2021 95.9079 10.57 94.3818 10.57 92.7905V32.2705C10.57 30.6792 11.2021 29.1531 12.3274 28.0279C13.4526 26.9026 14.9787 26.2705 16.57 26.2705H112.57C114.161 26.2705 115.687 26.9026 116.813 28.0279C117.938 29.1531 118.57 30.6792 118.57 32.2705V92.7905C118.57 94.3818 117.938 95.9079 116.813 97.0331C115.687 98.1584 114.161 98.7905 112.57 98.7905H71.93" stroke="#333333" stroke-linecap="round" stroke-linejoin="round"/>
<path d="M10.57 35.4006H118.57" stroke="#333333" stroke-linecap="round" stroke-linejoin="round"/>
<path d="M18.45 32.0705C19.0741 32.0705 19.58 31.5646 19.58 30.9405C19.58 30.3165 19.0741 29.8105 18.45 29.8105C17.8259 29.8105 17.32 30.3165 17.32 30.9405C17.32 31.5646 17.8259 32.0705 18.45 32.0705Z" fill="#1F4A6A"/>
<path d="M23.78 32.0705C24.4041 32.0705 24.91 31.5646 24.91 30.9405C24.91 30.3165 24.4041 29.8105 23.78 29.8105C23.1559 29.8105 22.65 30.3165 22.65 30.9405C22.65 31.5646 23.1559 32.0705 23.78 32.0705Z" fill="#EF5237"/>
<path d="M29.11 32.0705C29.7341 32.0705 30.24 31.5646 30.24 30.9405C30.24 30.3165 29.7341 29.8105 29.11 29.8105C28.4859 29.8105 27.98 30.3165 27.98 30.9405C27.98 31.5646 28.4859 32.0705 29.11 32.0705Z" fill="#6FC6AD"/>
<path d="M27.19 49.1605C29.0899 49.1605 30.63 47.6204 30.63 45.7205C30.63 43.8207 29.0899 42.2805 27.19 42.2805C25.2901 42.2805 23.75 43.8207 23.75 45.7205C23.75 47.6204 25.2901 49.1605 27.19 49.1605Z" fill="#1F4A6A"/>
<path d="M47.28 45.1406H35.3C34.8968 45.1406 34.57 45.4675 34.57 45.8706V46.2306C34.57 46.6338 34.8968 46.9606 35.3 46.9606H47.28C47.6832 46.9606 48.01 46.6338 48.01 46.2306V45.8706C48.01 45.4675 47.6832 45.1406 47.28 45.1406Z" fill="#81859C"/>
<path d="M58.47 45.1406H51.19C50.7868 45.1406 50.46 45.4675 50.46 45.8706V46.2306C50.46 46.6338 50.7868 46.9606 51.19 46.9606H58.47C58.8732 46.9606 59.2 46.6338 59.2 46.2306V45.8706C59.2 45.4675 58.8732 45.1406 58.47 45.1406Z" fill="#81859C"/>
<path d="M27.19 63.6305C29.0899 63.6305 30.63 62.0903 30.63 60.1905C30.63 58.2906 29.0899 56.7505 27.19 56.7505C25.2901 56.7505 23.75 58.2906 23.75 60.1905C23.75 62.0903 25.2901 63.6305 27.19 63.6305Z" fill="#EF5237"/>
<path d="M47.28 59.6106H35.3C34.8968 59.6106 34.57 59.9374 34.57 60.3406V60.7006C34.57 61.1038 34.8968 61.4306 35.3 61.4306H47.28C47.6832 61.4306 48.01 61.1038 48.01 60.7006V60.3406C48.01 59.9374 47.6832 59.6106 47.28 59.6106Z" fill="#81859C"/>
<path d="M58.47 59.6106H51.19C50.7868 59.6106 50.46 59.9374 50.46 60.3406V60.7006C50.46 61.1038 50.7868 61.4306 51.19 61.4306H58.47C58.8732 61.4306 59.2 61.1038 59.2 60.7006V60.3406C59.2 59.9374 58.8732 59.6106 58.47 59.6106Z" fill="#81859C"/>
<path d="M27.19 78.1005C29.0899 78.1005 30.63 76.5603 30.63 74.6605C30.63 72.7606 29.0899 71.2205 27.19 71.2205C25.2901 71.2205 23.75 72.7606 23.75 74.6605C23.75 76.5603 25.2901 78.1005 27.19 78.1005Z" fill="#6FC6AD"/>
<path d="M47.28 74.0806H35.3C34.8968 74.0806 34.57 74.4074 34.57 74.8106V75.1706C34.57 75.5737 34.8968 75.9006 35.3 75.9006H47.28C47.6832 75.9006 48.01 75.5737 48.01 75.1706V74.8106C48.01 74.4074 47.6832 74.0806 47.28 74.0806Z" fill="#81859C"/>
<path d="M58.47 74.0806H51.19C50.7868 74.0806 50.46 74.4074 50.46 74.8106V75.1706C50.46 75.5737 50.7868 75.9006 51.19 75.9006H58.47C58.8732 75.9006 59.2 75.5737 59.2 75.1706V74.8106C59.2 74.4074 58.8732 74.0806 58.47 74.0806Z" fill="#81859C"/>
<path d="M27.19 92.5704C29.0899 92.5704 30.63 91.0303 30.63 89.1304C30.63 87.2306 29.0899 85.6904 27.19 85.6904C25.2901 85.6904 23.75 87.2306 23.75 89.1304C23.75 91.0303 25.2901 92.5704 27.19 92.5704Z" fill="#F7B916"/>
<path d="M47.28 88.5505H35.3C34.8968 88.5505 34.57 88.8774 34.57 89.2805V89.6405C34.57 90.0437 34.8968 90.3705 35.3 90.3705H47.28C47.6832 90.3705 48.01 90.0437 48.01 89.6405V89.2805C48.01 88.8774 47.6832 88.5505 47.28 88.5505Z" fill="#81859C"/>
<path d="M58.47 88.5505H51.19C50.7868 88.5505 50.46 88.8774 50.46 89.2805V89.6405C50.46 90.0437 50.7868 90.3705 51.19 90.3705H58.47C58.8732 90.3705 59.2 90.0437 59.2 89.6405V89.2805C59.2 88.8774 58.8732 88.5505 58.47 88.5505Z" fill="#81859C"/>
<path d="M73.38 49.1605C75.2799 49.1605 76.82 47.6204 76.82 45.7205C76.82 43.8207 75.2799 42.2805 73.38 42.2805C71.4801 42.2805 69.94 43.8207 69.94 45.7205C69.94 47.6204 71.4801 49.1605 73.38 49.1605Z" fill="#F7B916"/>
<path d="M93.47 45.1406H81.49C81.0868 45.1406 80.76 45.4675 80.76 45.8706V46.2306C80.76 46.6338 81.0868 46.9606 81.49 46.9606H93.47C93.8732 46.9606 94.2 46.6338 94.2 46.2306V45.8706C94.2 45.4675 93.8732 45.1406 93.47 45.1406Z" fill="#81859C"/>
<path d="M104.66 45.1406H97.38C96.9768 45.1406 96.65 45.4675 96.65 45.8706V46.2306C96.65 46.6338 96.9768 46.9606 97.38 46.9606H104.66C105.063 46.9606 105.39 46.6338 105.39 46.2306V45.8706C105.39 45.4675 105.063 45.1406 104.66 45.1406Z" fill="#81859C"/>
<path d="M73.38 63.6305C75.2799 63.6305 76.82 62.0903 76.82 60.1905C76.82 58.2906 75.2799 56.7505 73.38 56.7505C71.4801 56.7505 69.94 58.2906 69.94 60.1905C69.94 62.0903 71.4801 63.6305 73.38 63.6305Z" fill="#1F4A6A"/>
<path d="M93.47 59.6106H81.49C81.0868 59.6106 80.76 59.9374 80.76 60.3406V60.7006C80.76 61.1038 81.0868 61.4306 81.49 61.4306H93.47C93.8732 61.4306 94.2 61.1038 94.2 60.7006V60.3406C94.2 59.9374 93.8732 59.6106 93.47 59.6106Z" fill="#81859C"/>
<path d="M104.66 59.6106H97.38C96.9768 59.6106 96.65 59.9374 96.65 60.3406V60.7006C96.65 61.1038 96.9768 61.4306 97.38 61.4306H104.66C105.063 61.4306 105.39 61.1038 105.39 60.7006V60.3406C105.39 59.9374 105.063 59.6106 104.66 59.6106Z" fill="#81859C"/>
<path d="M73.38 78.1005C75.2799 78.1005 76.82 76.5603 76.82 74.6605C76.82 72.7606 75.2799 71.2205 73.38 71.2205C71.4801 71.2205 69.94 72.7606 69.94 74.6605C69.94 76.5603 71.4801 78.1005 73.38 78.1005Z" fill="#6FC6AD"/>
<path d="M93.47 74.0806H81.49C81.0868 74.0806 80.76 74.4074 80.76 74.8106V75.1706C80.76 75.5737 81.0868 75.9006 81.49 75.9006H93.47C93.8732 75.9006 94.2 75.5737 94.2 75.1706V74.8106C94.2 74.4074 93.8732 74.0806 93.47 74.0806Z" fill="#81859C"/>
<path d="M104.66 74.0806H97.38C96.9768 74.0806 96.65 74.4074 96.65 74.8106V75.1706C96.65 75.5737 96.9768 75.9006 97.38 75.9006H104.66C105.063 75.9006 105.39 75.5737 105.39 75.1706V74.8106C105.39 74.4074 105.063 74.0806 104.66 74.0806Z" fill="#81859C"/>
<path d="M73.38 92.5704C75.2799 92.5704 76.82 91.0303 76.82 89.1304C76.82 87.2306 75.2799 85.6904 73.38 85.6904C71.4801 85.6904 69.94 87.2306 69.94 89.1304C69.94 91.0303 71.4801 92.5704 73.38 92.5704Z" fill="#6FC6AD"/>
<path d="M93.47 88.5505H81.49C81.0868 88.5505 80.76 88.8774 80.76 89.2805V89.6405C80.76 90.0437 81.0868 90.3705 81.49 90.3705H93.47C93.8732 90.3705 94.2 90.0437 94.2 89.6405V89.2805C94.2 88.8774 93.8732 88.5505 93.47 88.5505Z" fill="#81859C"/>
<path d="M104.66 88.5505H97.38C96.9768 88.5505 96.65 88.8774 96.65 89.2805V89.6405C96.65 90.0437 96.9768 90.3705 97.38 90.3705H104.66C105.063 90.3705 105.39 90.0437 105.39 89.6405V89.2805C105.39 88.8774 105.063 88.5505 104.66 88.5505Z" fill="#81859C"/>
<path d="M183.05 195.64C125.36 195.64 80.76 170.35 63.21 136.45C57.83 126.07 54.31 113.97 57.31 102.67C58.74 97.2805 62.31 97.1305 62.07 102.56C61.88 107.17 62.07 109.23 61.94 114.05C61.94 109.38 62.02 107.51 62.02 104.19C62.02 99.0105 66.57 92.4505 67.58 103.31C68.06 108.49 67.94 108.13 68.58 113.81C68 110.67 66.86 96.5005 70.53 96.5005C73.33 96.5005 71.95 123.7 98.53 144.24C137.71 174.56 230.84 173.97 264.95 126.75" stroke="#333333" stroke-linecap="round" stroke-linejoin="round"/>
<path d="M227.13 191.841C212.587 194.478 197.83 195.75 183.05 195.641" stroke="#333333" stroke-linecap="round" stroke-linejoin="round"/>
<path d="M138.65 47.5605C151.58 -0.709457 229.06 -8.01946 264.59 10.0205C270.941 13.2993 276.821 17.4198 282.07 22.2705C294.017 33.3094 303.333 46.8901 309.33 62.0105" stroke="#333333" stroke-linecap="round" stroke-linejoin="round"/>
<path d="M138.65 47.5606C137.875 50.8374 137.486 54.1935 137.49 57.5606C137.49 58.7906 136.81 67.9506 137.49 69.1506C138.49 70.9206 141 70.6806 141.08 68.7106C141.17 65.1606 142.08 56.5506 142.2 52.9306C142.03 56.9306 141.2 66.9306 141 70.8406C140.917 71.2867 140.932 71.7453 141.042 72.1853C141.153 72.6253 141.357 73.0364 141.64 73.3906C141.878 73.5472 142.145 73.6552 142.425 73.7083C142.705 73.7614 142.992 73.7586 143.271 73.7C143.55 73.6415 143.814 73.5283 144.049 73.3671C144.284 73.2059 144.485 72.9997 144.64 72.7606C145.32 71.8206 146.13 64.5306 146.2 63.3706L146.77 54.3706C146.52 58.2206 145.55 68.1406 145.3 71.9906C145.24 72.8706 145.66 73.9906 146.53 74.1606C147.4 74.3306 148.24 73.3106 148.53 72.7706C151.22 68.2906 150.53 56.7706 152.82 52.0906C153.4 50.9106 154.39 49.6906 155.7 49.7406C157.19 49.7906 158.11 51.4606 158.15 52.9406C158.28 57.0706 152.67 62.7206 153.84 64.4106C154.6 65.1706 157.12 64.4106 159.75 60.7106C161.13 58.7106 162.66 53.5006 163.28 51.1706C171.74 19.3506 232.78 20.6606 252.87 36.2406" stroke="#333333" stroke-linecap="round" stroke-linejoin="round"/>
<path d="M223.73 77.5805C225.4 54.4105 240.59 36.2605 259.09 36.2605C278.71 36.2605 294.61 56.6505 294.61 81.8105C294.61 106.97 278.71 127.361 259.09 127.361C241.38 127.361 226.69 110.72 224.02 88.9605" stroke="#333333" stroke-linecap="round" stroke-linejoin="round"/>
<path d="M223.73 77.5806C223.39 80.2106 219.05 84.1506 218.6 88.0406C218.56 88.2406 218.588 88.4484 218.68 88.6306C218.84 88.8806 219.2 88.9106 219.5 88.9206H224.02" stroke="#333333" stroke-linecap="round" stroke-linejoin="round"/>
<path d="M246.57 33.8204C243.26 34.6604 240.17 37.4004 240.1 40.8204C238.57 38.8204 235.39 38.6504 233.1 39.8204C230.81 40.9904 229.34 43.2304 227.94 45.3604C226.54 47.4904 225.07 49.8104 224.63 52.3604C224.19 54.9104 224.95 57.8804 227.14 59.3004C228.158 59.8688 229.304 60.1672 230.47 60.1672C231.636 60.1672 232.782 59.8688 233.8 59.3004C235.822 58.138 237.625 56.6322 239.13 54.8504C238.84 58.9404 243.29 62.5904 247.25 61.5304C250.85 60.5304 254.25 56.5304 257.5 58.3804C259.9 59.7404 259.77 63.1604 259.4 65.8904C259.03 68.6204 259.17 72.1204 261.7 73.1904C263.34 73.8804 265.19 73.1904 266.97 73.0304C268.679 72.9179 270.373 73.4038 271.762 74.4048C273.152 75.4058 274.149 76.8593 274.583 78.5156C275.018 80.172 274.862 81.9279 274.142 83.4817C273.422 85.0355 272.184 86.2903 270.64 87.0304C269.564 87.4062 268.536 87.9098 267.58 88.5304C265.24 90.5304 266.52 94.6704 269.2 96.1404C271.88 97.6104 275.2 97.1404 278.2 96.5804C278.62 102.78 279.94 110.26 285.75 112.48C290.6 114.33 295.99 111.23 299.47 107.37C301.81 104.77 303.77 101.58 303.9 98.0804C304.03 94.5804 301.9 90.8204 298.44 90.0804C300.143 88.3126 301.42 86.1797 302.174 83.8439C302.928 81.5082 303.14 79.0313 302.793 76.6014C302.446 74.1716 301.549 71.853 300.171 69.8219C298.793 67.7908 296.97 66.1008 294.84 64.8804C293.945 64.4826 293.15 63.8918 292.51 63.1504C291.72 61.9904 291.92 60.4604 292.04 59.0604C292.489 54.7842 291.508 50.4796 289.25 46.8204C288.106 45.0134 286.551 43.502 284.713 42.409C282.875 41.316 280.804 40.6724 278.67 40.5304C277.776 40.5815 276.88 40.5007 276.01 40.2904C274.01 39.6104 273.19 37.2904 272.01 35.5804C269.48 31.8904 264.74 31.0904 260.67 32.1504C258.67 32.6804 257.2 33.6704 255.06 33.8204C252.15 34.0604 249.51 33.0704 246.57 33.8204Z" fill="#333333"/>
<path d="M264.28 85.3004C264.541 85.6166 264.888 85.8495 265.28 85.9704C266.002 86.2312 266.777 86.3066 267.536 86.1895C268.294 86.0724 269.011 85.7667 269.62 85.3004C270.295 84.7641 270.842 84.084 271.221 83.3096C271.6 82.5353 271.801 81.6863 271.811 80.8242C271.821 79.9622 271.638 79.1088 271.276 78.3263C270.914 77.5438 270.383 76.8517 269.72 76.3004C268.965 75.7214 268.044 75.3984 267.093 75.3787C266.142 75.3589 265.209 75.6433 264.43 76.1904C264.054 76.4462 263.757 76.8014 263.572 77.2164C263.386 77.6315 263.32 78.0899 263.38 78.5404" stroke="#333333" stroke-linecap="round" stroke-linejoin="round"/>
<path d="M233.33 76.3405C234.103 76.3405 234.73 75.4227 234.73 74.2905C234.73 73.1583 234.103 72.2405 233.33 72.2405C232.557 72.2405 231.93 73.1583 231.93 74.2905C231.93 75.4227 232.557 76.3405 233.33 76.3405Z" fill="#333333"/>
<path d="M234.73 82.6706C237.519 82.6706 239.78 79.0799 239.78 74.6506C239.78 70.2213 237.519 66.6306 234.73 66.6306C231.941 66.6306 229.68 70.2213 229.68 74.6506C229.68 79.0799 231.941 82.6706 234.73 82.6706Z" stroke="#333333" stroke-linecap="round" stroke-linejoin="round"/>
<path d="M222.9 74.2905C222.9 73.4099 223.25 72.5655 223.872 71.9429C224.495 71.3202 225.339 70.9705 226.22 70.9705C227.101 70.9705 227.945 71.3202 228.568 71.9429C229.19 72.5655 229.54 73.4099 229.54 74.2905" stroke="#333333" stroke-linecap="round" stroke-linejoin="round"/>
<path d="M239.85 72.9206C248.617 72.6406 257.4 72.5539 266.2 72.6606" stroke="#333333" stroke-linecap="round" stroke-linejoin="round"/>
<path d="M245.07 84.5705C245.429 84.5705 245.72 84.2795 245.72 83.9205C245.72 83.5615 245.429 83.2705 245.07 83.2705C244.711 83.2705 244.42 83.5615 244.42 83.9205C244.42 84.2795 244.711 84.5705 245.07 84.5705Z" fill="#333333"/>
<path d="M241.33 86.9006C241.689 86.9006 241.98 86.6096 241.98 86.2506C241.98 85.8916 241.689 85.6006 241.33 85.6006C240.971 85.6006 240.68 85.8916 240.68 86.2506C240.68 86.6096 240.971 86.9006 241.33 86.9006Z" fill="#333333"/>
<path d="M244.43 89.6105C244.789 89.6105 245.08 89.3195 245.08 88.9605C245.08 88.6016 244.789 88.3105 244.43 88.3105C244.071 88.3105 243.78 88.6016 243.78 88.9605C243.78 89.3195 244.071 89.6105 244.43 89.6105Z" fill="#333333"/>
<path d="M231.91 111.33C233.824 111.144 235.669 110.519 237.302 109.504C238.936 108.49 240.314 107.113 241.33 105.48" stroke="#333333" stroke-linecap="round" stroke-linejoin="round"/>
<path d="M298 40.7004C323.23 75.4304 333.7 158.81 316.66 196.2" stroke="#333333" stroke-linecap="round" stroke-linejoin="round"/>
</svg>
