<svg width="66" height="66" viewBox="0 0 66 66" fill="none" xmlns="http://www.w3.org/2000/svg">
<path d="M3.02 40.68C2.86177 39.3542 3.15033 38.0134 3.84 36.87C4.28674 36.2251 4.84967 35.6689 5.5 35.23C5.95535 34.8578 6.48238 34.5831 7.04835 34.4231C7.61432 34.2631 8.20715 34.2212 8.79 34.3C9.14023 34.3865 9.47677 34.5211 9.79 34.7C10.9026 35.2791 11.8025 36.1965 12.36 37.32C12.697 38.1948 12.9384 39.1034 13.08 40.03C13.2137 40.9621 13.5857 41.8439 14.16 42.59C14.4497 42.96 14.844 43.2341 15.2917 43.3768C15.7394 43.5195 16.2197 43.5241 16.67 43.39C17.55 43.04 18.02 42.07 18.8 41.53C18.9206 41.4298 19.0733 41.3765 19.23 41.38C19.52 41.38 19.66 41.74 19.74 42.02C20.21 43.68 20.58 45.51 21.87 46.65C22.0893 46.868 22.3737 47.0084 22.68 47.05C23.27 47.05 23.68 46.54 24.18 46.2C25.51 45.2 27.44 45.82 28.73 46.84C29.6959 47.6069 30.4833 48.5748 31.0376 49.6765C31.5919 50.7782 31.8998 51.9874 31.94 53.22C31.9662 54.0012 31.8649 54.7814 31.64 55.53C30.9239 57.4347 29.6257 59.0652 27.93 60.19C27.3193 60.6952 26.6113 61.0696 25.85 61.29C25.3211 61.4015 24.7792 61.4386 24.24 61.4C23.0357 61.4072 21.8377 61.225 20.69 60.86C19.5257 60.3893 18.4267 59.7709 17.42 59.02C14.8867 57.3829 12.495 55.5365 10.27 53.5C8.34728 51.721 6.81493 49.5621 5.77 47.16C5.54 46.58 5.39 45.97 5.15 45.39C4.91 44.81 4.58 44.64 4.15 44.22C3.3 43.44 3.12 41.8 3.02 40.68Z" fill="#F7B916"/>
<path d="M13.16 13.84C14.1895 14.3975 15.3791 14.5846 16.53 14.37C17.203 14.1464 17.8323 13.8081 18.39 13.37C19.7255 12.539 20.8953 11.4676 21.84 10.21C23.01 8.43 23.2 6.21 23.35 4.06C23.3595 4.01552 23.3599 3.96959 23.3513 3.92493C23.3428 3.88027 23.3253 3.83779 23.3 3.8C23.2627 3.76978 23.2189 3.74863 23.1721 3.73822C23.1252 3.72781 23.0766 3.72841 23.03 3.74C22.4111 3.86866 21.8399 4.16635 21.38 4.6C19.23 6.19 16.78 7.31 14.5 8.74C13.3558 9.42383 12.2982 10.2431 11.35 11.18C10.76 11.77 10.35 12.04 11.05 12.65C11.6965 13.1399 12.4063 13.5402 13.16 13.84Z" fill="#F7B916"/>
<path d="M61.78 22.5C62.42 24.92 63.06 27.34 63.47 29.8C64.0624 32.7509 64.0283 35.7932 63.37 38.73C62.9976 40.0555 62.5297 41.3522 61.97 42.61C60.54 46.04 58.97 49.61 56.16 52.01C56.0724 52.1011 55.9619 52.1667 55.84 52.2C55.6539 52.2154 55.4679 52.1697 55.31 52.07C54.1263 51.525 53.02 50.8256 52.02 49.99C51.543 49.5553 51.1576 49.0298 50.8863 48.4443C50.615 47.8587 50.4632 47.2249 50.44 46.58C49.5409 45.4761 48.9037 44.1827 48.5763 42.7971C48.249 41.4114 48.24 39.9696 48.55 38.58C48.87 37.21 49.47 35.66 48.66 34.51C48.4072 34.1608 48.0675 33.8839 47.6745 33.7067C47.2815 33.5295 46.849 33.4583 46.42 33.5C45.5758 33.6168 44.7856 33.9823 44.15 34.55C43.47 35.1 42.73 35.84 41.88 35.66C41.2759 35.4478 40.78 35.0058 40.5 34.43C39.767 33.0511 38.8851 31.7567 37.87 30.57C37.3538 29.9822 36.7091 29.5212 35.9859 29.2229C35.2627 28.9246 34.4805 28.797 33.7 28.85C31.77 29.1 30.27 30.85 28.33 30.99C27.4467 30.989 26.5847 30.7184 25.8593 30.2145C25.1338 29.7106 24.5794 28.9974 24.27 28.17C23.6771 26.4979 23.6005 24.6862 24.05 22.97C24.3 21.75 24.93 20.33 26.16 20.24C26.6711 20.2403 27.1736 20.3711 27.62 20.62C29.186 21.3941 30.8194 22.0234 32.5 22.5C34.2132 22.981 36.04 22.8538 37.67 22.14C38.1027 21.9428 38.4958 21.6683 38.83 21.33C40.15 19.98 40.1 17.8 39.58 15.98C39.06 14.16 38.19 12.4 38.15 10.51C38.1793 9.70628 38.2967 8.90818 38.5 8.13002C38.614 7.35144 38.8899 6.6054 39.31 5.94002C39.7383 5.41105 40.289 4.99438 40.9146 4.72606C41.5401 4.45773 42.2215 4.34583 42.9 4.40002C44.2832 4.53367 45.6348 4.89522 46.9 5.47002C49.97 6.67002 52.33 9.13002 54.9 11.22C55.7146 11.8364 56.465 12.5333 57.14 13.3C57.9166 14.3417 58.5584 15.4773 59.05 16.68C59.91 18.7 61.21 20.34 61.78 22.5Z" fill="#F7B916"/>
<path d="M32.93 63.86C50.0122 63.86 63.86 50.0122 63.86 32.93C63.86 15.8478 50.0122 2 32.93 2C15.8478 2 2 15.8478 2 32.93C2 50.0122 15.8478 63.86 32.93 63.86Z" stroke="#1062AA" stroke-width="3" stroke-linecap="round" stroke-linejoin="round"/>
<path d="M4.03 43.5C2.39 35.18 7.81 34.25 8.83 34.09C9.30705 34.0619 9.78417 34.1438 10.2246 34.3293C10.6649 34.5148 11.0568 34.799 11.37 35.16C12.2797 36.0665 12.8844 37.2339 13.1 38.5C13.1353 39.646 13.2692 40.7869 13.5 41.91C13.87 42.99 15.01 43.96 16.08 43.56C16.76 43.3 17.14 42.56 17.62 42.06C18.1 41.56 18.93 41.06 19.52 41.5C19.7537 41.6926 19.9186 41.9557 19.99 42.25C20.36 43.38 20.18 44.63 20.45 45.79C20.72 46.95 21.81 48.12 22.95 47.79C24.09 47.46 24.35 46.03 25.33 45.47C26.31 44.91 27.65 45.47 28.56 46.21C30.1318 47.5639 31.2081 49.4026 31.6192 51.436C32.0302 53.4695 31.7525 55.5818 30.83 57.44C28.9 61.1 24.43 62.44 20.46 61.28" stroke="#1062AA" stroke-width="3" stroke-linecap="round" stroke-linejoin="round"/>
<path d="M47.5 5.63C46.5081 5.03062 45.392 4.66667 44.2374 4.56612C43.0828 4.46557 41.9206 4.63111 40.84 5.05C39.8187 5.53247 38.9775 6.32746 38.4382 7.31987C37.8988 8.31228 37.6893 9.45059 37.84 10.57C38.11 12.25 39.17 13.69 39.6 15.33C39.9443 16.6491 39.8645 18.043 39.3719 19.3142C38.8793 20.5853 37.9989 21.669 36.8557 22.4116C35.7125 23.1542 34.3644 23.518 33.0028 23.4513C31.6412 23.3846 30.3352 22.8908 29.27 22.04C27.97 21.04 26.4 19.36 25.01 20.27C24.5151 20.6793 24.1645 21.2366 24.01 21.86C23.2471 23.5528 22.8128 25.3751 22.73 27.23C22.7057 28.1571 22.9397 29.0728 23.4059 29.8745C23.8722 30.6763 24.5522 31.3326 25.37 31.77C27.52 32.7 29.91 31.44 32.01 30.4C34.11 29.36 36.9 28.61 38.57 30.25C40.57 32.25 39.88 36.75 42.67 37.25C44.28 36.95 44.96 34.73 46.57 34.42C47.113 34.3691 47.6581 34.4931 48.1258 34.7737C48.5935 35.0543 48.9593 35.4769 49.17 35.98C49.5563 36.9996 49.6868 38.0983 49.55 39.18C49.36 42.18 48.82 45.41 50.06 48.18C51.3 50.95 55.92 53.08 58.06 50.95" stroke="#1062AA" stroke-width="3" stroke-linecap="round" stroke-linejoin="round"/>
<path d="M10.36 11.86C11.0458 13.0065 12.1034 13.8837 13.3568 14.3457C14.6103 14.8078 15.9841 14.827 17.25 14.4C18.4777 13.8974 19.5853 13.1408 20.5 12.18C22.65 10.08 24.5 7.32002 24.26 4.33002" stroke="#1062AA" stroke-width="3" stroke-linecap="round" stroke-linejoin="round"/>
</svg>
