<svg width="49" height="43" viewBox="0 0 49 43" fill="none" xmlns="http://www.w3.org/2000/svg">
<path d="M10.5179 0.890573L10.8936 1.10673C9.8186 0.423517 8.58188 0.043647 7.31214 0.00665292C6.04241 -0.0303412 4.78605 0.276893 3.67383 0.89638C2.56161 1.51587 1.63418 2.42497 0.988067 3.52906C0.341949 4.63316 0.000758273 5.89189 3.36739e-06 7.17427V35.449C-0.000789921 36.6677 0.305925 37.8665 0.891222 38.9324C1.47652 39.9983 2.3211 40.8961 3.34533 41.5411C4.36955 42.1862 5.53965 42.5572 6.74528 42.6193C7.9509 42.6813 9.15231 42.4323 10.2362 41.8958C10.7135 41.6539 11.1632 41.3602 11.5772 41.0198C15.4013 37.895 27.9552 26.9014 27.9552 26.9052C28.8006 26.2179 29.479 25.3443 29.9383 24.3515C30.3977 23.3586 30.6257 22.2727 30.6051 21.1771C30.5844 20.0815 30.3155 19.0052 29.8191 18.0307C29.3227 17.0562 28.6118 16.2093 27.741 15.5551L27.9552 15.7219L11.6449 1.65281C10.6058 0.782599 9.34269 0.229168 8.0034 0.057287C6.6641 -0.114594 5.30402 0.102185 4.08233 0.682253C2.86063 1.26232 1.82787 2.18168 1.1049 3.33273C0.381941 4.48379 -0.00131061 5.81891 3.36739e-06 7.18185V35.449C7.16621e-05 36.8042 0.380341 38.1317 1.09679 39.2778C1.81324 40.4239 2.83656 41.3417 4.0483 41.925C5.26004 42.5083 6.61063 42.7332 7.94373 42.5736C9.27683 42.4141 10.5379 41.8767 11.581 41.0236" fill="#FF6341"/>
<path d="M28.9097 39.4584C38.9007 39.4584 47 31.3594 47 21.3688C47 11.3782 38.9007 3.27917 28.9097 3.27917C18.9187 3.27917 10.8194 11.3782 10.8194 21.3688C10.8194 31.3594 18.9187 39.4584 28.9097 39.4584Z" stroke="#1062AA" stroke-width="3" stroke-miterlimit="10"/>
<path d="M34.3421 11.8716L24.8447 21.3686H34.3421L23.9402 30.4134" stroke="#1062AA" stroke-width="3" stroke-linecap="round" stroke-linejoin="round"/>
</svg>
