<svg width="45" height="43" viewBox="0 0 45 43" fill="none" xmlns="http://www.w3.org/2000/svg">
<path d="M10.6251 0.887304L10.9879 1.10344C9.90313 0.419863 8.6548 0.0398307 7.37312 0.0029638C6.09143 -0.0339031 4.82333 0.273745 3.70102 0.893832C2.57872 1.51392 1.64332 2.42373 0.99235 3.52841C0.341383 4.63309 -0.00130993 5.89218 3.7628e-06 7.17439V35.4296C0.000558993 36.6471 0.310911 37.8444 0.901845 38.9088C1.49278 39.9733 2.34486 40.8698 3.37788 41.5141C4.4109 42.1584 5.59088 42.5292 6.80674 42.5917C8.02261 42.6541 9.23437 42.4061 10.328 41.8711C10.8086 41.6267 11.2626 41.3331 11.6826 40.995C15.5421 37.8727 28.2089 26.8886 28.2089 26.8886C29.0617 26.2021 29.7461 25.3294 30.2094 24.3375C30.6727 23.3455 30.9028 22.2606 30.8819 21.166C30.8611 20.0714 30.5898 18.9961 30.089 18.0225C29.5882 17.049 28.8712 16.203 27.9928 15.5495L28.2089 15.7154L11.7405 1.64762C10.6919 0.780551 9.41827 0.229712 8.06831 0.0594327C6.71836 -0.110847 5.34781 0.106462 4.11674 0.685981C2.88566 1.2655 1.84488 2.18331 1.11592 3.33222C0.386961 4.48114 -7.70433e-05 5.81374 3.7628e-06 7.17439V35.4296C0.000260116 36.7842 0.384175 38.111 1.1073 39.2564C1.83042 40.4018 2.86317 41.3189 4.08599 41.9017C5.3088 42.4844 6.67166 42.7089 8.01677 42.5491C9.36188 42.3893 10.6342 41.8518 11.6865 40.9988" fill="#E5E5E5"/>
<path d="M34.7364 25.9854H24.5435C24.2351 25.9751 23.9327 25.8976 23.6574 25.7583C23.3821 25.619 23.1405 25.4212 22.9496 25.1788C22.3822 24.3837 22.6177 23.4767 22.8454 22.8631C23.3579 21.4852 24.276 20.2951 25.4786 19.4496C26.6812 18.6042 28.1119 18.1431 29.5819 18.1272C31.0519 18.1113 32.4922 18.5414 33.7128 19.3607C34.9334 20.1799 35.877 21.35 36.4191 22.7164C36.5913 23.1054 36.6715 23.5289 36.6534 23.954C36.6354 24.379 36.5195 24.7942 36.3149 25.1672C36.1315 25.4148 35.894 25.6173 35.6204 25.7591C35.3468 25.9009 35.0445 25.9783 34.7364 25.9854ZM29.6612 19.3008C28.4189 19.3044 27.2072 19.6864 26.1875 20.3958C25.1677 21.1053 24.3883 22.1086 23.953 23.2722C23.679 24.0132 23.7678 24.2949 23.9106 24.4918C24.0785 24.6776 24.3128 24.7899 24.5628 24.8044H34.7364C34.8557 24.7999 34.9728 24.7708 35.0804 24.719C35.188 24.6672 35.2837 24.5938 35.3617 24.5034C35.4564 24.2908 35.5053 24.0607 35.5053 23.8279C35.5053 23.5952 35.4564 23.3651 35.3617 23.1525C34.9141 22.0083 34.1292 21.0271 33.1111 20.3392C32.093 19.6513 30.8898 19.2891 29.6612 19.3008Z" fill="#81859C" stroke="#81859C" stroke-linecap="round" stroke-linejoin="round"/>
<path d="M29.6602 19.3008C28.8577 19.3016 28.0731 19.0643 27.4056 18.6191C26.738 18.1738 26.2175 17.5406 25.9099 16.7994C25.6023 16.0583 25.5214 15.2426 25.6775 14.4555C25.8336 13.6684 26.2196 12.9453 26.7867 12.3776C27.3538 11.8099 28.0766 11.4232 28.8635 11.2664C29.6505 11.1096 30.4663 11.1897 31.2077 11.4966C31.9491 11.8035 32.5829 12.3234 33.0287 12.9905C33.4746 13.6577 33.7126 14.4421 33.7126 15.2445C33.7116 16.3193 33.2844 17.3499 32.5248 18.1102C31.7651 18.8706 30.735 19.2987 29.6602 19.3008ZM29.6602 12.3537C29.0906 12.353 28.5335 12.5212 28.0595 12.8371C27.5856 13.153 27.2159 13.6024 26.9974 14.1284C26.7789 14.6544 26.7213 15.2335 26.832 15.7922C26.9427 16.351 27.2166 16.8644 27.6191 17.2674C28.0216 17.6705 28.5346 17.9451 29.0932 18.0565C29.6518 18.1679 30.2309 18.1111 30.7572 17.8933C31.2836 17.6755 31.7335 17.3064 32.05 16.8329C32.3665 16.3593 32.5355 15.8025 32.5355 15.2329C32.5294 14.4736 32.224 13.7474 31.6857 13.212C31.1473 12.6765 30.4195 12.375 29.6602 12.373V12.3537Z" fill="#81859C" stroke="#81859C" stroke-linecap="round" stroke-linejoin="round"/>
<path d="M29.1746 4.39148C32.1661 4.39148 35.0904 5.27856 37.5777 6.94055C40.0651 8.60254 42.0037 10.9648 43.1485 13.7286C44.2933 16.4924 44.5928 19.5335 44.0092 22.4676C43.4256 25.4016 41.9851 28.0967 39.8698 30.212C37.7545 32.3273 35.0594 33.7678 32.1254 34.3514C29.1914 34.935 26.1502 34.6355 23.3864 33.4907C20.6226 32.3459 18.2603 30.4073 16.5984 27.9199C14.9364 25.4326 14.0493 22.5083 14.0493 19.5168C14.0534 15.5065 15.6482 11.6617 18.4839 8.82609C21.3196 5.99043 25.1644 4.39557 29.1746 4.39148ZM29.1746 31.8401C31.6119 31.8401 33.9945 31.1173 36.021 29.7632C38.0476 28.4091 39.6271 26.4845 40.5598 24.2327C41.4925 21.9809 41.7366 19.5031 41.2611 17.1126C40.7856 14.7221 39.6119 12.5263 37.8885 10.8029C36.165 9.07943 33.9692 7.90575 31.5787 7.43025C29.1882 6.95475 26.7104 7.19879 24.4586 8.13152C22.2069 9.06424 20.2822 10.6437 18.9281 12.6703C17.574 14.6969 16.8513 17.0794 16.8513 19.5168C16.8584 22.7829 18.159 25.9133 20.4686 28.2228C22.7781 30.5323 25.9084 31.8329 29.1746 31.8401Z" fill="#81859C"/>
<path d="M18.7379 27.0196C19.0245 27.0194 19.3041 27.1071 19.5393 27.2708C19.7744 27.4345 19.9537 27.6664 20.053 27.9352C20.1523 28.204 20.1667 28.4967 20.0945 28.774C20.0222 29.0513 19.8666 29.2997 19.6488 29.4858L9.3401 38.2854C9.20047 38.4048 9.0387 38.4955 8.86401 38.5523C8.68933 38.6091 8.50517 38.631 8.32203 38.6167C8.1389 38.6023 7.96038 38.5521 7.79667 38.4687C7.63296 38.3854 7.48727 38.2707 7.36791 38.131C7.24855 37.9914 7.15786 37.8296 7.10102 37.6549C7.04419 37.4803 7.02231 37.2961 7.03665 37.113C7.05098 36.9298 7.10125 36.7513 7.18457 36.5876C7.2679 36.4239 7.38266 36.2782 7.52229 36.1588L17.831 27.3592C18.0831 27.1415 18.4048 27.021 18.7379 27.0196Z" fill="#81859C"/>
</svg>
