<svg width="453" height="202" viewBox="0 0 453 202" fill="none" xmlns="http://www.w3.org/2000/svg">
<path d="M218.549 156.785C216.779 148.855 213.219 140.705 208.679 136.275C205.029 132.768 200.647 130.113 195.85 128.5C191.052 126.887 185.957 126.356 180.929 126.945C166.589 128.725 166.609 140.015 153.089 145.085C112.349 160.375 75.6892 80.1747 162.879 71.2947" stroke="#81859C" stroke-linecap="round" stroke-linejoin="round" stroke-dasharray="6 6"/>
<path d="M92.4192 187.105C102.243 177.616 115.079 171.866 128.699 170.855C132.76 170.434 136.865 170.85 140.759 172.075C144.319 173.335 147.449 175.565 150.549 177.725C158.989 183.605 167.799 189.245 177.679 192.115C187.559 194.985 198.679 194.795 207.519 189.465C212.729 186.315 221.969 175.045 219.139 160.375" stroke="#81859C" stroke-linecap="round" stroke-linejoin="round" stroke-dasharray="6 6"/>
<path d="M64.7392 33.8147C50.5792 34.8147 36.5192 39.0747 24.9892 47.1147C13.4592 55.1547 4.6492 67.1447 1.7992 80.6347C-0.150799 89.9147 1.2292 100.705 8.5992 106.915C12.4192 110.135 17.4192 111.755 22.4092 112.555C38.4092 115.135 55.0692 109.865 68.3092 100.735C81.5492 91.6047 91.7292 78.8847 100.339 65.5047C108.949 52.1247 116.149 37.9547 124.669 24.5047C128.989 17.6847 133.749 10.9647 140.159 5.92469C143.499 3.32469 147.499 1.12469 151.819 1.00469C158.359 0.824694 164.379 5.84469 166.129 12.0047C167.879 18.1647 165.819 24.9147 161.679 29.8347" stroke="#81859C" stroke-linecap="round" stroke-linejoin="round" stroke-dasharray="6 6"/>
<path d="M88.0792 20.7746C88.5192 20.6946 89.0792 20.6546 89.3192 21.0246C89.407 21.1766 89.4532 21.349 89.4532 21.5246C89.4532 21.7001 89.407 21.8726 89.3192 22.0246C88.8305 23.073 88.1525 24.0223 87.3192 24.8246L79.7492 32.9246C78.4292 34.3446 76.9392 35.8446 75.0192 36.0546L75.2492 29.5046C75.2891 29.221 75.2327 28.9323 75.0892 28.6846C74.9227 28.5008 74.702 28.3748 74.4592 28.3246C71.9735 27.6127 69.5353 26.7443 67.1592 25.7246C70.1492 21.7046 83.1692 21.6746 88.0792 20.7746Z" fill="#F7B916"/>
<path d="M185.269 77.1648C185.559 77.3548 185.889 77.6248 185.829 77.9648C185.789 78.0889 185.72 78.2017 185.628 78.2939C185.536 78.386 185.423 78.4549 185.299 78.4948C184.462 78.812 183.574 78.9714 182.679 78.9648L174.149 79.4348C172.659 79.5148 171.029 79.5548 169.849 78.6448L173.499 75.1848C173.589 75.1319 173.667 75.0602 173.726 74.9746C173.785 74.8889 173.826 74.7914 173.844 74.6886C173.862 74.5859 173.857 74.4805 173.831 74.3797C173.804 74.2789 173.756 74.1851 173.689 74.1048C172.688 72.3825 171.796 70.599 171.019 68.7648C174.809 68.1148 182.059 75.0448 185.269 77.1648Z" fill="#F7B916"/>
<path d="M80.2192 200.925C79.8992 201.045 79.4892 201.145 79.2192 200.925C79.1443 200.82 79.0953 200.7 79.0762 200.573C79.0571 200.446 79.0684 200.316 79.1092 200.195C79.3413 199.329 79.7349 198.515 80.2692 197.795L84.9092 190.625C85.7092 189.375 86.6392 188.025 88.0692 187.625L88.7492 192.625C88.7571 192.84 88.8342 193.047 88.9692 193.215C89.1257 193.333 89.3135 193.402 89.5092 193.415C91.4889 193.62 93.4531 193.954 95.3892 194.415C93.6892 197.785 83.8292 199.575 80.2192 200.925Z" fill="#F7B916"/>
<path d="M171.719 17.0847H157.969C156.312 17.0847 154.969 18.4279 154.969 20.0847V30.5847C154.969 32.2416 156.312 33.5847 157.969 33.5847H171.719C173.376 33.5847 174.719 32.2416 174.719 30.5847V20.0847C174.719 18.4279 173.376 17.0847 171.719 17.0847Z" fill="#EB008B"/>
<path d="M127.434 55.0018L110.177 47.1957C108.668 46.5128 106.89 47.183 106.207 48.6926L100.194 61.9858C99.5112 63.4953 100.181 65.2727 101.691 65.9556L118.948 73.7617C120.457 74.4446 122.234 73.7744 122.917 72.2648L128.931 58.9716C129.613 57.462 128.943 55.6847 127.434 55.0018Z" fill="#EB008B"/>
<path d="M56.2898 68.941L41.3223 57.3351C40.0129 56.3199 38.1285 56.5583 37.1132 57.8676L28.1729 69.3975C27.1576 70.7069 27.396 72.5914 28.7054 73.6066L43.6729 85.2125C44.9823 86.2277 46.8667 85.9893 47.882 84.68L56.8223 73.1501C57.8376 71.8407 57.5992 69.9563 56.2898 68.941Z" fill="#6FC6AD"/>
<path d="M194.934 148.311L179.149 147.63C177.494 147.559 176.094 148.843 176.023 150.498L175.506 162.477C175.434 164.132 176.718 165.532 178.374 165.603L194.159 166.284C195.814 166.356 197.214 165.072 197.286 163.416L197.802 151.437C197.874 149.782 196.59 148.382 194.934 148.311Z" fill="#6FC6AD"/>
<path d="M301.859 1.00464H243.589C240.275 1.00464 237.589 3.69093 237.589 7.00464V87.4046C237.589 90.7183 240.275 93.4046 243.589 93.4046H301.859C305.173 93.4046 307.859 90.7183 307.859 87.4046V7.00464C307.859 3.69093 305.173 1.00464 301.859 1.00464Z" fill="#81859C"/>
<path d="M416.319 79.5547L417.869 79.7747C423.199 80.5647 428.579 81.9247 433.029 84.8947C440.609 89.9547 444.379 98.8947 446.739 107.495C456.149 141.925 451.739 166.005 444.919 201.005H444.279L353.959 201.595C360.159 185.525 366.439 169.015 366.319 151.865C366.319 149.665 365.709 146.865 363.489 146.455C362.328 146.368 361.171 146.659 360.189 147.285C346.27 154.175 331.613 159.459 316.499 163.035C315.783 163.271 315.018 163.316 314.279 163.165C312.799 162.715 312.279 160.975 312.049 159.495C310.049 148.315 296.049 130.215 307.099 127.495C322.799 123.605 353.419 91.3147 372.619 86.4947C384.499 83.5647 416.319 79.5547 416.319 79.5547Z" fill="#811A3E"/>
<path d="M307.869 40.4048V59.3648" stroke="black" stroke-miterlimit="10"/>
<path d="M234.819 52.7546V7.00464C234.819 5.41334 235.451 3.88722 236.577 2.762C237.702 1.63678 239.228 1.00464 240.819 1.00464H301.869C303.461 1.00464 304.987 1.63678 306.112 2.762C307.237 3.88722 307.869 5.41334 307.869 7.00464V32.4146" stroke="black" stroke-miterlimit="10"/>
<path d="M307.869 66.9546V87.4046C307.869 88.9959 307.237 90.522 306.112 91.6472C304.987 92.7725 303.461 93.4046 301.869 93.4046H240.819C239.228 93.4046 237.702 92.7725 236.577 91.6472C235.451 90.522 234.819 88.9959 234.819 87.4046V75.3346" stroke="black" stroke-miterlimit="10"/>
<path d="M235.369 52.7547V11.0447H294.949V82.6547H235.369V75.4647" fill="white"/>
<path d="M240.719 20.5046L245.049 26.8446C245.819 24.185 246.924 21.6344 248.339 19.2546" stroke="#6FC6AD" stroke-linecap="round" stroke-linejoin="round"/>
<path d="M242.279 36.8347C243.822 38.5957 245.519 40.2155 247.349 41.6747" stroke="#EB008B" stroke-linecap="round" stroke-linejoin="round"/>
<path d="M241.279 43.7347C243.119 41.248 245.073 38.848 247.139 36.5347" stroke="#EB008B" stroke-linecap="round" stroke-linejoin="round"/>
<path d="M243.029 55.0246C243.689 55.9546 244.389 56.8546 245.129 57.7146C245.239 57.8446 245.399 57.9946 245.559 57.9246C245.63 57.8801 245.689 57.8181 245.729 57.7446L249.789 50.9446" stroke="#6FC6AD" stroke-linecap="round" stroke-linejoin="round"/>
<path d="M242.749 68.9448C242.749 69.0448 242.589 68.8748 242.679 68.8348C242.769 68.7948 242.869 68.8948 242.929 68.9848C244.396 71.3114 245.896 73.6214 247.429 75.9148C247.429 75.9848 247.539 76.0647 247.619 76.0747C247.699 76.0847 247.859 75.9748 247.929 75.8648L251.189 70.7747" stroke="#6FC6AD" stroke-linecap="round" stroke-linejoin="round"/>
<path d="M270.399 20.6147C272.943 22.7243 275.199 25.1584 277.109 27.8547" stroke="#EB008B" stroke-linecap="round" stroke-linejoin="round"/>
<path d="M269.939 28.1848C272.693 25.1448 275.476 22.1448 278.289 19.1848" stroke="#EB008B" stroke-linecap="round" stroke-linejoin="round"/>
<path d="M271.089 37.9148C272.363 40.0948 273.643 42.2748 274.929 44.4548C275.039 44.6448 275.179 44.8548 275.399 44.8948C275.512 44.9003 275.625 44.8797 275.729 44.8347C275.834 44.7896 275.926 44.7212 275.999 44.6348C277.459 43.2548 277.849 41.0048 279.349 39.6348" stroke="#6FC6AD" stroke-linecap="round" stroke-linejoin="round"/>
<path d="M270.819 51.8748V51.4048C270.899 51.976 271.119 52.5187 271.459 52.9848L275.109 58.9848C276.774 56.8553 278.629 54.8806 280.649 53.0848" stroke="#6FC6AD" stroke-linecap="round" stroke-linejoin="round"/>
<path d="M234.749 41.5047C232.874 44.1959 231.933 47.4275 232.069 50.7047C232.028 51.4114 232.269 52.1056 232.739 52.6347C233.859 53.6347 235.549 52.4747 236.599 51.3947C240.702 47.1157 245.169 43.2011 249.949 39.6947C250.487 39.2324 251.134 38.9157 251.829 38.7747C253.279 38.6047 254.529 40.0747 254.609 41.5247C254.569 43.0005 254.014 44.4157 253.039 45.5247C249.879 49.6947 245.109 52.3247 241.519 56.1247C237.379 60.5047 223.439 103.795 244.209 124.125C260.979 140.575 300.909 137.915 333.749 111.555" stroke="black" stroke-linecap="round" stroke-linejoin="round"/>
<path d="M234.669 24.9646C226.359 33.6546 222.499 45.5046 218.979 57.0346C188.709 157.435 264.889 191.875 362.829 146.805" stroke="black" stroke-linecap="round" stroke-linejoin="round"/>
<path d="M301.609 54.3746C307.419 50.5746 312.469 45.4546 318.959 42.9846C319.605 42.6723 320.334 42.5742 321.039 42.7046C321.21 42.7468 321.37 42.8238 321.51 42.9307C321.65 43.0377 321.766 43.1724 321.852 43.3263C321.937 43.4802 321.99 43.6501 322.007 43.8253C322.023 44.0005 322.004 44.1773 321.949 44.3446C321.726 44.6677 321.413 44.9181 321.049 45.0646C311.899 49.6903 303.222 55.1963 295.139 61.5046C290.899 64.8146 286.749 68.4046 281.779 70.5046C279.871 71.3287 277.847 71.8549 275.779 72.0646C281.189 63.1646 293.279 59.8346 301.609 54.3746Z" fill="black"/>
<path d="M339.499 106.585C330.709 83.2548 316.499 68.8248 307.499 67.0948C304.739 66.5548 302.909 63.7548 301.239 61.4848C300.362 60.3821 299.72 59.1112 299.354 57.7507C298.988 56.3901 298.904 54.9688 299.109 53.5748C299.319 52.4948 300.109 51.2548 301.199 51.5148C302.289 51.7748 302.429 53.0548 302.679 54.0648C303.819 58.5548 309.049 60.4048 313.529 61.5548C314.139 61.751 314.779 61.8357 315.419 61.8048C316.093 61.6808 316.715 61.3631 317.211 60.8907C317.706 60.4182 318.053 59.8115 318.209 59.1448C318.487 57.8152 318.411 56.4359 317.989 55.1448C317.277 52.605 316.078 50.2277 314.459 48.1448C313.049 46.3348 309.349 41.8248 307.459 40.4648C306.72 39.8579 305.804 39.507 304.849 39.4648C302.699 39.4648 301.539 41.9348 300.849 43.9848L296.499 57.2548H294.549C293.937 51.5881 294.638 45.8565 296.599 40.5048C297.839 37.1248 299.869 33.6648 303.259 32.4248C306.649 31.1848 310.489 32.5248 313.899 33.8748C317.459 35.2848 323.899 36.8748 328.749 40.1748C331.699 42.1748 348.169 65.5148 357.749 93.4448" stroke="black" stroke-linecap="round" stroke-linejoin="round"/>
<path d="M445.229 201.005C451.849 166.005 456.139 141.925 446.999 107.495C444.709 98.8547 441.049 89.9547 433.689 84.8947C429.369 81.8947 424.149 80.5647 418.959 79.7747L417.459 79.5547" stroke="black" stroke-miterlimit="10"/>
<path d="M333.409 111.865C346.819 99.4048 363.919 88.7648 381.939 83.1748" stroke="black" stroke-miterlimit="10"/>
<path d="M362.499 146.945C363.159 146.665 363.179 146.495 363.959 146.525C364.609 154.375 362.399 162.175 359.909 169.645C355.969 181.465 353.079 189.795 347.639 201.005" stroke="black" stroke-linecap="round" stroke-linejoin="round"/>
<path d="M350.209 152.375L352.549 163.695C352.822 165.544 353.425 167.329 354.329 168.965C354.792 169.777 355.463 170.451 356.274 170.917C357.084 171.382 358.004 171.623 358.939 171.615" stroke="black" stroke-linecap="round" stroke-linejoin="round"/>
<path d="M169.709 17.0847H156.199C154.542 17.0847 153.199 18.4279 153.199 20.0847V29.1147C153.199 30.7716 154.542 32.1147 156.199 32.1147H169.709C171.366 32.1147 172.709 30.7716 172.709 29.1147V20.0847C172.709 18.4279 171.366 17.0847 169.709 17.0847Z" stroke="black" stroke-miterlimit="10"/>
<path d="M153.089 20.4348C154.464 21.1806 155.74 22.0943 156.889 23.1548C158.531 24.4288 160.387 25.4006 162.369 26.0248C163.186 26.3415 164.071 26.4447 164.939 26.3248C165.662 26.1178 166.34 25.7787 166.939 25.3248C168.879 23.9915 170.776 22.6248 172.629 21.2248" stroke="black" stroke-miterlimit="10"/>
<path d="M128.388 54.0274L108.125 44.8612C106.615 44.1783 104.838 44.8485 104.155 46.3581L97.6553 60.7264C96.9724 62.236 97.6426 64.0133 99.1522 64.6962L119.415 73.8624C120.925 74.5453 122.702 73.8751 123.385 72.3655L129.885 57.9972C130.568 56.4876 129.897 54.7103 128.388 54.0274Z" stroke="black" stroke-miterlimit="10"/>
<path d="M103.249 47.9746C104.769 49.6546 105.589 51.8346 106.639 53.8346C108.052 56.49 109.917 58.8791 112.149 60.8946C113.041 61.8012 114.149 62.4655 115.369 62.8246C116.467 62.9994 117.587 62.9587 118.669 62.7046C122.003 62.1313 125.316 61.4646 128.609 60.7046" stroke="black" stroke-miterlimit="10"/>
<path d="M120.672 103.355L98.3658 112.399C96.8303 113.022 96.0903 114.771 96.7128 116.307L103.788 133.757C104.411 135.292 106.16 136.032 107.695 135.41L130.002 126.366C131.537 125.743 132.277 123.994 131.655 122.458L124.579 105.008C123.957 103.473 122.208 102.733 120.672 103.355Z" fill="#6FC6AD"/>
<path d="M119.787 101.557L94.2925 111.893C92.757 112.516 92.017 114.265 92.6395 115.801L100.087 134.168C100.709 135.704 102.459 136.444 103.994 135.821L129.488 125.485C131.024 124.862 131.764 123.113 131.141 121.577L123.694 103.21C123.072 101.674 121.322 100.934 119.787 101.557Z" stroke="black" stroke-miterlimit="10"/>
<path d="M93.4992 118.425C96.1892 118.495 98.7292 119.575 101.309 120.305C104.751 121.25 108.331 121.589 111.889 121.305C113.397 121.28 114.874 120.87 116.179 120.115C117.225 119.316 118.104 118.32 118.769 117.185C121.009 113.851 123.146 110.451 125.179 106.985" stroke="black" stroke-miterlimit="10"/>
<path d="M56.4787 68.9926L39.3142 55.6833C38.0049 54.668 36.1204 54.9064 35.1052 56.2158L25.693 68.3542C24.6777 69.6635 24.9161 71.548 26.2255 72.5633L43.39 85.8726C44.6993 86.8879 46.5838 86.6495 47.5991 85.3401L57.0112 73.2017C58.0265 71.8924 57.7881 70.0079 56.4787 68.9926Z" stroke="black" stroke-miterlimit="10"/>
<path d="M33.8992 57.5046C34.9692 59.5046 35.2492 61.7146 35.8092 63.8646C36.5406 66.7253 37.773 69.4339 39.4492 71.8646C40.095 72.9329 41.0039 73.8178 42.0892 74.4346C43.0916 74.8615 44.1697 75.0826 45.2592 75.0846C48.5792 75.2946 51.8892 75.4146 55.2592 75.4246" stroke="black" stroke-miterlimit="10"/>
<path d="M195.317 147.138L176.595 146.33C174.94 146.259 173.54 147.543 173.468 149.198L172.906 162.246C172.834 163.902 174.118 165.301 175.773 165.373L194.496 166.18C196.151 166.252 197.551 164.968 197.623 163.312L198.185 150.265C198.257 148.609 196.973 147.209 195.317 147.138Z" stroke="black" stroke-miterlimit="10"/>
<path d="M173.289 150.425C174.991 151.444 176.559 152.67 177.959 154.075C179.97 155.777 182.265 157.111 184.739 158.015C185.762 158.458 186.879 158.637 187.989 158.535C188.937 158.315 189.833 157.914 190.629 157.355C193.149 155.808 195.623 154.181 198.049 152.475" stroke="black" stroke-miterlimit="10"/>
<path d="M85.4992 20.2548C85.9392 20.1748 86.4992 20.1348 86.7392 20.5048C86.827 20.6568 86.8732 20.8293 86.8732 21.0048C86.8732 21.1803 86.827 21.3528 86.7392 21.5048C86.2504 22.5503 85.5723 23.4962 84.7392 24.2948L77.1792 32.4048C75.8592 33.8248 74.3692 35.3248 72.4392 35.5348L72.7092 29.0448C72.7529 28.7624 72.7 28.4735 72.5592 28.2248C72.39 28.0392 72.1656 27.913 71.9192 27.8648C69.434 27.1514 66.9959 26.283 64.6192 25.2648C67.4992 21.1848 80.5592 21.1548 85.4992 20.2548Z" stroke="black" stroke-miterlimit="10"/>
<path d="M184.099 76.1347C184.399 76.3647 184.739 76.6747 184.659 77.0447C184.609 77.1772 184.527 77.2956 184.42 77.3896C184.314 77.4836 184.187 77.5506 184.049 77.5847C183.124 77.8869 182.151 78.0157 181.179 77.9647L171.859 78.0247C170.239 78.0247 168.459 78.0247 167.219 76.9347L171.349 73.3547C171.547 73.2188 171.688 73.0165 171.749 72.7847C171.767 72.575 171.718 72.365 171.609 72.1847C170.607 70.2435 169.732 68.2393 168.989 66.1847C173.189 65.7247 180.709 73.6547 184.099 76.1347Z" stroke="black" stroke-miterlimit="10"/>
<path d="M79.3792 199.615C79.0592 199.755 78.6492 199.865 78.3792 199.615C78.2993 199.513 78.2449 199.394 78.2205 199.267C78.1962 199.14 78.2026 199.009 78.2392 198.885C78.4477 198.008 78.8173 197.177 79.3292 196.435L83.7492 189.085C84.5192 187.795 85.3992 186.415 86.8292 185.945L87.6692 190.945C87.6856 191.163 87.7734 191.371 87.9192 191.535C88.0791 191.642 88.2666 191.701 88.4592 191.705C90.4536 191.845 92.4374 192.109 94.3992 192.495C92.8092 196.025 82.9592 198.145 79.3792 199.615Z" stroke="black" stroke-miterlimit="10"/>
<path d="M391.769 12.4048C387.85 12.5141 384.002 13.4836 380.499 15.2448C374.879 17.8748 369.499 22.3448 368.499 28.4748C367.939 31.9748 368.899 35.4748 369.499 39.0048C370.099 42.5348 370.299 46.3348 368.419 49.3448C367.519 50.7848 366.169 51.9648 365.589 53.5648C365.009 55.1648 365.739 57.4448 367.429 57.5648C368.639 57.6548 370.019 56.6548 370.939 57.4448C371.296 57.8479 371.511 58.3575 371.549 58.8948C372.846 66.2055 375.753 73.1362 380.059 79.1848C381.11 80.7932 382.469 82.1767 384.059 83.2548C385.956 84.3052 388.081 84.8751 390.249 84.9148C395.602 85.1038 400.951 84.4285 406.089 82.9148C410.539 81.7448 415.229 80.0848 417.869 76.3148C420.409 72.7048 420.489 67.9848 420.479 63.5748C420.479 56.7748 420.429 49.9448 419.299 43.2348C418.169 36.5248 415.799 29.8948 411.659 24.5048C407.169 18.6548 399.499 12.4048 391.769 12.4048Z" stroke="black" stroke-miterlimit="10"/>
<path d="M366.729 12.7347C361.799 17.9147 359.579 25.4147 361.659 32.0547C361.86 32.7796 362.2 33.4588 362.659 34.0547C363.294 34.6872 364.075 35.1538 364.933 35.4137C365.791 35.6735 366.7 35.7185 367.579 35.5447C369.344 35.197 371.055 34.6187 372.669 33.8247C376.515 32.2182 380.546 31.0995 384.669 30.4947C387.771 29.9105 390.963 30.0163 394.019 30.8047C399.889 32.6047 403.469 38.0547 405.919 43.3247C408.369 48.5947 410.399 54.3247 414.919 58.2147C416.979 59.9747 419.919 61.2947 422.529 60.3147C425.589 59.1447 426.449 55.5447 426.529 52.4747C426.652 44.6822 425.132 36.9512 422.069 29.7847C415.549 13.5047 400.859 0.504689 381.059 4.96469C375.625 6.09707 370.643 8.79861 366.729 12.7347Z" fill="black"/>
<path d="M376.499 72.9248C377.192 72.9378 377.878 72.7835 378.499 72.4748C380.579 71.6348 382.619 70.6948 384.599 69.6548" stroke="black" stroke-linecap="round" stroke-linejoin="round"/>
<path d="M402.549 52.4148C404.018 52.5624 405.495 52.2222 406.751 51.4468C408.007 50.6714 408.973 49.504 409.499 48.1248C409.914 47.0157 409.914 45.794 409.499 44.6848C409.261 44.1109 408.886 43.6035 408.408 43.2061C407.931 42.8088 407.363 42.5334 406.755 42.4036C406.148 42.2737 405.517 42.2934 404.919 42.4608C404.32 42.6282 403.771 42.9385 403.319 43.3648" fill="white"/>
<path d="M402.549 52.4148C404.018 52.5624 405.495 52.2222 406.751 51.4468C408.007 50.6714 408.973 49.504 409.499 48.1248C409.914 47.0157 409.914 45.794 409.499 44.6848C409.261 44.1109 408.886 43.6035 408.408 43.2061C407.931 42.8088 407.363 42.5334 406.755 42.4036C406.148 42.2737 405.517 42.2934 404.919 42.4608C404.32 42.6282 403.771 42.9385 403.319 43.3648" stroke="black" stroke-miterlimit="10"/>
<path d="M378.749 39.4347C380.142 38.9724 381.651 39.009 383.02 39.5381C384.388 40.0672 385.53 41.056 386.249 42.3347" stroke="black" stroke-linecap="round" stroke-linejoin="round"/>
<path d="M380.799 42.1946C380.704 42.1744 380.605 42.1744 380.509 42.1946C380.424 42.2377 380.348 42.2991 380.289 42.3746C380.072 42.6021 379.908 42.8755 379.809 43.1746C379.764 43.3231 379.748 43.4792 379.764 43.6337C379.779 43.7882 379.825 43.9381 379.899 44.0746C379.985 44.215 380.097 44.3373 380.229 44.4346C380.652 44.7944 381.157 45.045 381.699 45.1646C381.943 45.2145 382.195 45.2145 382.439 45.1646C382.637 45.1056 382.819 45.0008 382.969 44.8587C383.12 44.7166 383.235 44.5412 383.305 44.3466C383.375 44.152 383.398 43.9436 383.373 43.7383C383.348 43.533 383.274 43.3365 383.159 43.1646C382.858 42.8442 382.491 42.5919 382.084 42.4247C381.677 42.2574 381.239 42.1789 380.799 42.1946Z" fill="black"/>
</svg>
