<svg width="41" height="46" viewBox="0 0 41 46" fill="none" xmlns="http://www.w3.org/2000/svg">
<path d="M11.3458 0.952389L11.7185 1.20084C10.5591 0.414082 9.15121 0 7.66052 0C3.43688 0 0 3.43688 0 7.66052V37.8471C0 42.1121 3.43688 45.549 7.66052 45.549C8.86136 45.549 10.0208 45.2592 11.056 44.7623C11.056 44.7623 11.7599 44.431 12.5053 43.8099C16.6047 40.4558 30.1866 28.7373 30.1866 28.7373C31.8843 27.3294 33.0023 25.1762 33.0023 22.7745C33.0023 20.2486 31.8015 18.0126 29.8967 16.6461L30.1452 16.8117L12.5467 1.73914C11.2216 0.662531 9.52389 0 7.66052 0C3.43688 0 0 3.43688 0 7.66052V37.8471C0 42.1121 3.43688 45.549 7.66052 45.549C9.48248 45.549 11.1802 44.9279 12.5053 43.8513" fill="#FFE735"/>
<path d="M26.8758 39.6277C23.7288 39.6277 21.12 38.7167 19.0496 36.8948C16.8136 34.9486 15.737 32.2985 15.737 28.8616C15.737 27.3709 16.0682 25.7146 16.7722 23.8926C17.0206 23.1887 17.3519 22.4019 17.766 21.4909L18.8012 19.4205C18.884 19.3377 18.9254 19.2135 18.9254 19.1306L25.3437 5.88002H33.791L27.1656 18.965C27.4555 18.8822 27.7868 18.7994 28.1594 18.758C28.3251 18.7166 28.4907 18.7166 28.6149 18.7166H29.029C31.2651 18.7166 33.2941 19.5861 35.0332 21.2839C36.9794 23.1886 37.9318 25.7145 37.9318 28.7788C37.9318 32.1742 36.8138 34.8658 34.5777 36.8119C32.6315 38.7167 30.0228 39.6277 26.8758 39.6277ZM26.8758 25.052C24.5983 25.052 23.4389 26.3357 23.4389 28.8616C23.4389 31.3875 24.5983 32.6711 26.8758 32.6711C29.1532 32.6711 30.3127 31.3875 30.3127 28.8616C30.2713 26.3357 29.1532 25.052 26.8758 25.052ZM26.8758 41.6153C30.5197 41.6153 33.5839 40.5387 35.9856 38.3855C38.6357 36.0666 40.0022 32.8782 40.0022 28.8616C40.0022 25.2176 38.8428 22.1949 36.4825 19.9174C34.7019 18.1783 32.7143 17.1845 30.5197 16.8532L35.6129 6.791C35.9442 6.16988 35.9028 5.42453 35.5301 4.84481C35.1574 4.2651 34.5363 3.89243 33.8324 3.89243H25.3437C24.5983 3.89243 23.8944 4.34792 23.5631 5.01045L17.1449 18.2611C17.1035 18.3025 17.1035 18.3439 17.1035 18.3853C17.062 18.4267 17.062 18.4681 17.0206 18.5095L15.9854 20.5799C15.9854 20.6213 15.944 20.6213 15.944 20.6627C15.5299 21.6151 15.1573 22.4433 14.9088 23.1886C14.1635 25.2177 13.7494 27.1224 13.7494 28.8616C13.7494 32.8368 15.0745 36.0666 17.7246 38.3855C20.1263 40.5387 23.1905 41.6153 26.8758 41.6153ZM26.8758 27.081C27.704 27.081 28.3251 27.081 28.3251 28.903C28.3251 30.7249 27.704 30.7249 26.8758 30.7249C26.089 30.7249 25.4265 30.7249 25.4265 28.903C25.4265 27.081 26.0062 27.081 26.8758 27.081Z" fill="#1062AA"/>
</svg>
