<svg width="67" height="69" viewBox="0 0 67 69" fill="none" xmlns="http://www.w3.org/2000/svg">
<path d="M23.27 57.89L12.15 67.5V57.9C9.45968 57.8947 6.88105 56.8236 4.9787 54.9213C3.07635 53.0189 2.00529 50.4403 2 47.75V12.14C2.00791 9.45314 3.07877 6.87859 4.97868 4.97868C6.87859 3.07877 9.45314 2.00791 12.14 2H54.5C57.1921 1.99999 59.7743 3.06735 61.6807 4.96811C63.5871 6.86887 64.6621 9.44795 64.67 12.14V47.75C64.6621 50.4421 63.5871 53.0211 61.6807 54.9219C59.7743 56.8227 57.1921 57.89 54.5 57.89H23.27Z" stroke="#1062AA" stroke-width="3" stroke-linecap="round" stroke-linejoin="round"/>
<path d="M19.34 33.37C20.9251 33.37 22.21 32.0851 22.21 30.5C22.21 28.9149 20.9251 27.63 19.34 27.63C17.7549 27.63 16.47 28.9149 16.47 30.5C16.47 32.0851 17.7549 33.37 19.34 33.37Z" fill="#F7B916"/>
<path d="M33.33 33.37C34.9151 33.37 36.2 32.0851 36.2 30.5C36.2 28.9149 34.9151 27.63 33.33 27.63C31.7449 27.63 30.46 28.9149 30.46 30.5C30.46 32.0851 31.7449 33.37 33.33 33.37Z" fill="#F7B916"/>
<path d="M47.32 33.37C48.9051 33.37 50.19 32.0851 50.19 30.5C50.19 28.9149 48.9051 27.63 47.32 27.63C45.7349 27.63 44.45 28.9149 44.45 30.5C44.45 32.0851 45.7349 33.37 47.32 33.37Z" fill="#F7B916"/>
</svg>
