<svg width="47" height="47" viewBox="0 0 47 47" fill="none" xmlns="http://www.w3.org/2000/svg">
<path d="M11.5603 0.96959L11.9732 1.20492C10.7917 0.461094 9.43239 0.0475197 8.03681 0.00724321C6.64124 -0.0330332 5.26037 0.301461 4.03793 0.975913C2.81548 1.65036 1.79614 2.64012 1.08599 3.84218C0.375838 5.04424 0.000833422 6.41466 3.70111e-06 7.81081V38.5943C-0.000868206 39.9211 0.336244 41.2263 0.979546 42.3867C1.62285 43.5472 2.55114 44.5246 3.67687 45.2269C4.80259 45.9292 6.08866 46.3332 7.41377 46.4007C8.73887 46.4683 10.0594 46.1972 11.2507 45.613C11.7752 45.3497 12.2695 45.0299 12.7246 44.6593C16.9276 41.2573 30.7257 29.2882 30.7257 29.2923C31.6549 28.5441 32.4005 27.5931 32.9054 26.5121C33.4102 25.4311 33.6609 24.2489 33.6382 23.0561C33.6154 21.8632 33.32 20.6914 32.7743 19.6305C32.2287 18.5695 31.4474 17.6475 30.4903 16.9352L30.7257 17.1169L12.7989 1.79946C11.6569 0.852036 10.2686 0.249501 8.79657 0.0623698C7.32455 -0.124762 5.82968 0.111251 4.4869 0.742787C3.14413 1.37432 2.00902 2.37525 1.2144 3.62843C0.419793 4.88162 -0.00144049 6.3352 3.70111e-06 7.81907V38.5943C7.87642e-05 40.0697 0.418034 41.515 1.20549 42.7628C1.99294 44.0106 3.11768 45.0098 4.44951 45.6448C5.78133 46.2799 7.26578 46.5247 8.731 46.351C10.1962 46.1773 11.5823 45.5922 12.7287 44.6634" fill="#00F3FF"/>
<path d="M40.4303 6.56396H16.8968C14.1606 6.56396 11.9424 8.78213 11.9424 11.5184V35.0519C11.9424 37.7881 14.1606 40.0063 16.8968 40.0063H40.4303C43.1666 40.0063 45.3848 37.7881 45.3848 35.0519V11.5184C45.3848 8.78213 43.1666 6.56396 40.4303 6.56396Z" stroke="#1062AA" stroke-width="3" stroke-miterlimit="10"/>
<path d="M16.8981 32.1619L24.3297 25.556L27.2198 28.859L37.9544 18.1244" stroke="#1062AA" stroke-width="3" stroke-linecap="round" stroke-linejoin="round"/>
<path d="M31.7618 18.5371L39.6063 16.0599L38.3677 23.9044" stroke="#1062AA" stroke-width="3" stroke-linecap="round" stroke-linejoin="round"/>
</svg>
