<svg width="66" height="66" viewBox="0 0 66 66" fill="none" xmlns="http://www.w3.org/2000/svg">
<path d="M34.4 57.05L26.4 63.92V57.05C24.4752 57.0421 22.6317 56.2733 21.2716 54.9113C19.9115 53.5494 19.1453 51.7048 19.14 49.78V24.29C19.1453 22.3662 19.9119 20.5226 21.2723 19.1623C22.6326 17.8019 24.4762 17.0353 26.4 17.03H56.78C58.7039 17.0353 60.5474 17.8019 61.9078 19.1623C63.2682 20.5226 64.0347 22.3662 64.04 24.29V49.78C64.0348 51.7048 63.2685 53.5494 61.9084 54.9113C60.5483 56.2733 58.7048 57.0421 56.78 57.05H34.4Z" stroke="#1062AA" stroke-width="3" stroke-linecap="round" stroke-linejoin="round"/>
<path d="M17.23 42.02L9.23 48.89V42.02C7.31217 42.0042 5.47781 41.2333 4.12447 39.8744C2.77113 38.5154 2.00783 36.6779 2 34.76V9.26C2.0079 7.33696 2.77532 5.49494 4.13513 4.13513C5.49494 2.77532 7.33696 2.0079 9.26 2H39.61C41.533 2.0079 43.3751 2.77532 44.7349 4.13513C46.0947 5.49494 46.8621 7.33696 46.87 9.26V34.76C46.8621 36.683 46.0947 38.5251 44.7349 39.8849C43.3751 41.2447 41.533 42.0121 39.61 42.02H17.23" stroke="#1062AA" stroke-width="3" stroke-linecap="round" stroke-linejoin="round"/>
<path d="M29.67 23.15C28.6922 23.1527 27.7551 23.5423 27.0637 24.2337C26.3723 24.9252 25.9827 25.8622 25.98 26.84V35.84H36.37C37.3478 35.8374 38.2849 35.4478 38.9763 34.7563C39.6678 34.0649 40.0574 33.1279 40.06 32.15V23.15H29.67Z" fill="#F7B916"/>
</svg>
