<svg width="66" height="66" viewBox="0 0 66 66" fill="none" xmlns="http://www.w3.org/2000/svg">
<path d="M40.72 43.71C41.0185 43.7362 41.319 43.6949 41.5994 43.5894C41.8798 43.4838 42.1329 43.3165 42.34 43.1L43.44 41.72C43.8199 41.3028 44.3337 41.0315 44.8924 40.953C45.4512 40.8745 46.0198 40.9937 46.5 41.29C47.4467 41.8247 48.3647 42.4088 49.25 43.04C50.08 43.65 51.8 45.04 51.8 45.04C52.1972 45.3671 52.4618 45.8275 52.5446 46.3353C52.6274 46.8431 52.5227 47.3637 52.25 47.8C51.641 48.8642 50.8644 49.8232 49.95 50.64C49.2995 51.2349 48.4899 51.6275 47.62 51.77C47.5072 51.7863 47.3927 51.7863 47.28 51.77C46.9407 51.7749 46.6029 51.7242 46.28 51.62C44.0406 50.8481 41.8888 49.8425 39.86 48.62C37.9632 47.5833 36.1568 46.3891 34.46 45.05C33.6155 44.3807 32.8076 43.6663 32.04 42.91L31.96 42.83L31.88 42.75L31.8 42.67L31.72 42.59C30.9363 41.8526 30.1951 41.0714 29.5 40.25C28.1631 38.5572 26.9722 36.7541 25.94 34.86C24.7212 32.8293 23.7158 30.6778 22.94 28.44C22.8306 28.1183 22.7798 27.7796 22.79 27.44C22.7791 27.3269 22.7791 27.2131 22.79 27.1C22.9301 26.2264 23.3229 25.4129 23.92 24.76C24.736 23.8488 25.6912 23.0725 26.75 22.46C27.1868 22.1863 27.7087 22.082 28.2172 22.1667C28.7257 22.2515 29.1856 22.5194 29.51 22.92C29.51 22.92 30.94 24.63 31.51 25.47C32.08 26.31 32.86 27.47 33.26 28.21C33.5597 28.6927 33.6808 29.2651 33.6022 29.8278C33.5237 30.3905 33.2504 30.9079 32.83 31.29L31.44 32.4C31.2248 32.606 31.0584 32.8575 30.9529 33.136C30.8473 33.4146 30.8054 33.7132 30.83 34.01C30.83 34.01 33.03 41.75 40.72 43.71Z" fill="#F7B916"/>
<path d="M37.21 10.29C42.4835 10.2979 47.6364 11.869 52.0172 14.8048C56.398 17.7406 59.8101 21.9092 61.8223 26.7838C63.8344 31.6584 64.3563 37.0201 63.3219 42.1912C62.2875 47.3623 59.7433 52.1107 56.0109 55.8361C52.2784 59.5616 47.5253 62.0969 42.3522 63.1216C37.1792 64.1463 31.8185 63.6144 26.9477 61.5931C22.0769 59.5718 17.9147 56.1519 14.9871 51.7656C12.0595 47.3793 10.498 42.2235 10.5 36.95" stroke="#1062AA" stroke-width="3" stroke-linecap="round" stroke-linejoin="round"/>
<path d="M31.3 10.94C33.2397 10.5045 35.222 10.2865 37.21 10.29V2" stroke="#1062AA" stroke-width="3" stroke-linecap="round" stroke-linejoin="round"/>
<path d="M11.67 29.25C12.2472 27.3337 13.0389 25.4887 14.03 23.75" stroke="#1062AA" stroke-width="3" stroke-linecap="round" stroke-linejoin="round"/>
<path d="M19.91 16.66C21.4448 15.3581 23.1222 14.2343 24.91 13.31" stroke="#1062AA" stroke-width="3" stroke-linecap="round" stroke-linejoin="round"/>
<path d="M2 44.04L10.69 36.81L19.64 44.04" stroke="#1062AA" stroke-width="3" stroke-linecap="round" stroke-linejoin="round"/>
<path d="M26.67 2H47.75" stroke="#1062AA" stroke-width="3" stroke-linecap="round" stroke-linejoin="round"/>
<path d="M40.23 43.71C40.5269 43.7346 40.8255 43.6927 41.104 43.5871C41.3825 43.4816 41.634 43.3152 41.84 43.1L42.95 41.72C43.331 41.2979 43.8486 41.0234 44.4118 40.9448C44.975 40.8661 45.5479 40.9884 46.03 41.29C46.972 41.8271 47.8865 42.4112 48.77 43.04C49.61 43.65 51.32 45.04 51.32 45.04C51.7208 45.3645 51.9882 45.8252 52.0712 46.3342C52.1542 46.8432 52.047 47.365 51.77 47.8C51.1722 48.8811 50.4059 49.86 49.5 50.7C48.8471 51.2971 48.0336 51.6899 47.16 51.83C47.0473 51.8466 46.9327 51.8466 46.82 51.83C46.4807 51.8353 46.1428 51.7846 45.82 51.68V51.68C43.5813 50.9064 41.4297 49.9009 39.4 48.68C37.5063 47.6435 35.7032 46.4492 34.01 45.11C33.1356 44.4528 32.2977 43.7485 31.5 43L31.42 42.92L31.34 42.84L31.26 42.76L31.18 42.68C30.4232 41.9064 29.7056 41.0954 29.03 40.25C27.7067 38.5538 26.526 36.751 25.5 34.86C24.275 32.8325 23.2693 30.6804 22.5 28.44V28.44C22.3906 28.1183 22.3398 27.7796 22.35 27.44C22.3334 27.3273 22.3334 27.2127 22.35 27.1C22.492 26.2171 22.8921 25.3959 23.5 24.74V24.74C24.3173 23.8261 25.2762 23.0495 26.34 22.44" stroke="#1062AA" stroke-width="3" stroke-linecap="round" stroke-linejoin="round"/>
</svg>
