<svg width="50" height="43" viewBox="0 0 50 43" fill="none" xmlns="http://www.w3.org/2000/svg">
<path d="M10.6251 0.887304L10.9879 1.10344C9.90313 0.419863 8.6548 0.0398307 7.37312 0.0029638C6.09143 -0.0339031 4.82333 0.273745 3.70102 0.893832C2.57872 1.51392 1.64332 2.42373 0.99235 3.52841C0.341383 4.63309 -0.00130993 5.89218 3.7628e-06 7.17439V35.4296C0.000558993 36.6471 0.310911 37.8444 0.901845 38.9088C1.49278 39.9733 2.34486 40.8698 3.37788 41.5141C4.4109 42.1584 5.59088 42.5292 6.80674 42.5917C8.02261 42.6541 9.23437 42.4061 10.328 41.8711C10.8086 41.6267 11.2626 41.3331 11.6826 40.995C15.5421 37.8727 28.2089 26.8886 28.2089 26.8886C29.0617 26.2021 29.7461 25.3294 30.2094 24.3375C30.6727 23.3455 30.9028 22.2606 30.8819 21.166C30.8611 20.0714 30.5898 18.9961 30.089 18.0225C29.5882 17.0489 28.8712 16.203 27.9928 15.5495L28.2089 15.7154L11.7405 1.64762C10.6919 0.780551 9.41827 0.229712 8.06831 0.0594327C6.71836 -0.110847 5.34781 0.106462 4.11674 0.685981C2.88566 1.2655 1.84488 2.18331 1.11592 3.33222C0.386961 4.48114 -7.70433e-05 5.81374 3.7628e-06 7.17439V35.4296C0.000260116 36.7842 0.384175 38.111 1.1073 39.2564C1.83042 40.4018 2.86317 41.319 4.08599 41.9017C5.3088 42.4844 6.67166 42.7089 8.01677 42.5491C9.36188 42.3893 10.6342 41.8518 11.6865 40.9988" fill="#E5E5E5"/>
<path d="M30.8953 38.5983C27.4985 38.5983 24.1779 37.591 21.3536 35.7038C18.5292 33.8166 16.3279 31.1343 15.028 27.996C13.7281 24.8578 13.388 21.4045 14.0507 18.073C14.7133 14.7414 16.3491 11.6812 18.751 9.27925C21.1529 6.87733 24.2131 5.2416 27.5447 4.57892C30.8763 3.91623 34.3295 4.25634 37.4678 5.55625C40.606 6.85616 43.2884 9.05748 45.1755 11.8818C47.0627 14.7062 48.07 18.0268 48.07 21.4236" stroke="#81859C" stroke-width="3" stroke-linecap="round" stroke-linejoin="round"/>
<path d="M30.8953 30.4934C35.9044 30.4934 39.9651 26.4327 39.9651 21.4236C39.9651 16.4145 35.9044 12.3538 30.8953 12.3538C25.8862 12.3538 21.8255 16.4145 21.8255 21.4236C21.8255 26.4327 25.8862 30.4934 30.8953 30.4934Z" stroke="#81859C" stroke-width="3" stroke-miterlimit="10"/>
<path d="M48.0702 21.2306C48.0702 23.8435 46.2563 25.6767 44.0178 25.6767C43.4849 25.6767 42.9573 25.5716 42.4652 25.3675C41.973 25.1634 41.5259 24.8642 41.1495 24.487C40.7731 24.1099 40.4748 23.6623 40.2716 23.1697C40.0684 22.6772 39.9643 22.1494 39.9653 21.6165" stroke="#81859C" stroke-width="3" stroke-miterlimit="10"/>
</svg>
