<svg width="66" height="69" viewBox="0 0 66 69" fill="none" xmlns="http://www.w3.org/2000/svg">
<path d="M45.73 37.79H45.64C47.2568 36.6746 48.4746 35.0716 49.1156 33.215C49.7567 31.3584 49.7874 29.3454 49.2033 27.4701C48.6192 25.5948 47.4508 23.9553 45.8689 22.7912C44.2869 21.627 42.3742 20.999 40.41 20.999C38.4458 20.999 36.5331 21.627 34.9511 22.7912C33.3691 23.9553 32.2008 25.5948 31.6167 27.4701C31.0326 29.3454 31.0633 31.3584 31.7043 33.215C32.3454 35.0716 33.5632 36.6746 35.18 37.79C28.67 40.5 23.92 47.97 23.62 56.9H57.27C56.63 48.5 51.97 40.35 45.73 37.79Z" fill="#F7B916"/>
<path d="M23.2 57.69L12.11 67.25V57.68C9.43201 57.6747 6.86507 56.6092 4.97051 54.7166C3.07595 52.8239 2.00793 50.258 2 47.58V12.1C2.01053 9.42456 3.07802 6.8617 4.96986 4.96986C6.8617 3.07802 9.42456 2.01053 12.1 2H54.33C57.0072 2.0079 59.5726 3.07422 61.4666 4.96635C63.3606 6.85847 64.4294 9.42283 64.44 12.1V47.58C64.4321 50.258 63.3641 52.8239 61.4695 54.7166C59.5749 56.6092 57.008 57.6747 54.33 57.68H23.2" stroke="#1062AA" stroke-width="3" stroke-linecap="round" stroke-linejoin="round"/>
<path d="M17.27 21.02H40.43" stroke="#1062AA" stroke-width="3" stroke-linecap="round" stroke-linejoin="round"/>
<path d="M17.27 31.55H31.08" stroke="#1062AA" stroke-width="3" stroke-linecap="round" stroke-linejoin="round"/>
<path d="M17.27 42.08H28.46" stroke="#1062AA" stroke-width="3" stroke-linecap="round" stroke-linejoin="round"/>
<path d="M40.43 39.42C45.511 39.42 49.63 35.301 49.63 30.22C49.63 25.139 45.511 21.02 40.43 21.02C35.349 21.02 31.23 25.139 31.23 30.22C31.23 35.301 35.349 39.42 40.43 39.42Z" stroke="#1062AA" stroke-width="3" stroke-linecap="round" stroke-linejoin="round"/>
<path d="M45.76 37.79C51.99 40.35 56.63 47.33 57.27 55.79" stroke="#1062AA" stroke-width="3" stroke-linecap="round" stroke-linejoin="round"/>
<path d="M23.64 56.9C23.94 47.97 28.7 40.47 35.21 37.79" stroke="#1062AA" stroke-width="3" stroke-linecap="round" stroke-linejoin="round"/>
</svg>
