<svg width="65" height="67" viewBox="0 0 65 67" fill="none" xmlns="http://www.w3.org/2000/svg">
<path d="M3 16C3 13.6131 3.95886 11.3239 5.66565 9.63604C7.37243 7.94821 9.68733 7 12.1011 7H54.8989C57.3127 7 59.6276 7.94821 61.3344 9.63604C63.0411 11.3239 64 13.6131 64 16" fill="#F7B916"/>
<path d="M53.904 5.94647H11.096C6.07241 5.94647 2 10.0189 2 15.0425V55.5537C2 60.5773 6.07241 64.6497 11.096 64.6497H53.904C58.9276 64.6497 63 60.5773 63 55.5537V15.0425C63 10.0189 58.9276 5.94647 53.904 5.94647Z" stroke="#1062AA" stroke-width="3" stroke-linecap="round" stroke-linejoin="round"/>
<path d="M16.3141 54.9172C17.6014 54.9172 18.6449 53.8736 18.6449 52.5863C18.6449 51.299 17.6014 50.2555 16.3141 50.2555C15.0268 50.2555 13.9832 51.299 13.9832 52.5863C13.9832 53.8736 15.0268 54.9172 16.3141 54.9172Z" fill="#F7B916"/>
<path d="M32.3577 54.9172C33.645 54.9172 34.6886 53.8736 34.6886 52.5863C34.6886 51.299 33.645 50.2555 32.3577 50.2555C31.0704 50.2555 30.0269 51.299 30.0269 52.5863C30.0269 53.8736 31.0704 54.9172 32.3577 54.9172Z" fill="#F7B916"/>
<path d="M48.6838 54.9172C49.9711 54.9172 51.0147 53.8736 51.0147 52.5863C51.0147 51.299 49.9711 50.2555 48.6838 50.2555C47.3965 50.2555 46.353 51.299 46.353 52.5863C46.353 53.8736 47.3965 54.9172 48.6838 54.9172Z" fill="#F7B916"/>
<path d="M16.3141 42.9445C17.6014 42.9445 18.6449 41.901 18.6449 40.6137C18.6449 39.3264 17.6014 38.2828 16.3141 38.2828C15.0268 38.2828 13.9832 39.3264 13.9832 40.6137C13.9832 41.901 15.0268 42.9445 16.3141 42.9445Z" fill="#F7B916"/>
<path d="M32.3577 42.9445C33.645 42.9445 34.6886 41.901 34.6886 40.6137C34.6886 39.3264 33.645 38.2828 32.3577 38.2828C31.0704 38.2828 30.0269 39.3264 30.0269 40.6137C30.0269 41.901 31.0704 42.9445 32.3577 42.9445Z" fill="#F7B916"/>
<path d="M48.6838 42.9445C49.9711 42.9445 51.0147 41.901 51.0147 40.6137C51.0147 39.3264 49.9711 38.2828 48.6838 38.2828C47.3965 38.2828 46.353 39.3264 46.353 40.6137C46.353 41.901 47.3965 42.9445 48.6838 42.9445Z" fill="#F7B916"/>
<path d="M16.3141 30.9832C17.6014 30.9832 18.6449 29.9396 18.6449 28.6523C18.6449 27.365 17.6014 26.3215 16.3141 26.3215C15.0268 26.3215 13.9832 27.365 13.9832 28.6523C13.9832 29.9396 15.0268 30.9832 16.3141 30.9832Z" fill="#F7B916"/>
<path d="M32.3577 30.9832C33.645 30.9832 34.6886 29.9396 34.6886 28.6523C34.6886 27.365 33.645 26.3215 32.3577 26.3215C31.0704 26.3215 30.0269 27.365 30.0269 28.6523C30.0269 29.9396 31.0704 30.9832 32.3577 30.9832Z" fill="#F7B916"/>
<path d="M48.6838 30.9832C49.9711 30.9832 51.0147 29.9396 51.0147 28.6523C51.0147 27.365 49.9711 26.3215 48.6838 26.3215C47.3965 26.3215 46.353 27.365 46.353 28.6523C46.353 29.9396 47.3965 30.9832 48.6838 30.9832Z" fill="#F7B916"/>
<path d="M16 11L16 2" stroke="#1062AA" stroke-width="3" stroke-linecap="round" stroke-linejoin="round"/>
<path d="M49 11L49 2" stroke="#1062AA" stroke-width="3" stroke-linecap="round" stroke-linejoin="round"/>
<path d="M2 16.623H63" stroke="#1062AA" stroke-width="3" stroke-linecap="round" stroke-linejoin="round"/>
</svg>
