<svg width="455" height="188" viewBox="0 0 455 188" fill="none" xmlns="http://www.w3.org/2000/svg">
<path d="M207.033 44.3992C191.933 58.1592 185.233 77.0892 178.033 96.7892C167.383 126.009 156.473 155.789 159.753 186.789L251.843 186.479C265.613 166.109 277.333 148.719 286.473 125.819C295.613 102.919 299.783 77.1492 293.443 53.2992L293.393 52.4292C287.513 55.7392 282.603 57.4992 275.893 57.9292L274.753 58.0492C274.623 60.0492 274.653 62.1692 274.653 64.1992C274.603 83.4892 269.963 104.129 255.843 117.019C241.723 129.909 215.253 131.309 204.633 115.319C198.503 106.089 198.263 92.6092 201.953 82.1192C202.043 81.8592 192.443 77.7992 193.663 76.0492C195.223 73.8092 205.663 73.8092 205.663 73.8092L218.393 54.1792C213.113 51.5792 207.033 44.3992 207.033 44.3992Z" fill="#1062AA"/>
<path d="M445.293 43.6592C444.724 44.2831 444.009 44.7571 443.213 45.0392C439.928 46.4859 436.489 47.556 432.963 48.2292H433.133C434.933 67.8892 438.993 96.7392 425.503 115.399C418.403 125.229 405.633 130.279 394.003 127.859C382.373 125.439 372.473 115.659 369.613 103.769C367.963 96.9192 368.503 89.7692 369.043 82.7092C369.873 72.1792 369.523 51.3292 369.523 51.3292C368.397 51.7787 367.204 52.0388 365.993 52.0992C365.23 52.1392 364.466 52.1392 363.703 52.0992C361.72 52.0418 359.745 51.8075 357.803 51.3992C357.143 51.2705 356.475 51.1837 355.803 51.1392C355.623 51.8192 355.443 52.5092 355.273 53.1392C344.423 97.0392 347.093 143.399 359.083 186.979L448.273 186.239C451.083 153.669 453.893 121.029 453.573 88.3392C453.443 73.0192 452.443 57.0692 445.193 43.7092L445.293 43.6592Z" fill="#317179"/>
<path d="M43.4432 187.289C14.0532 154.909 -0.496763 109.509 4.62324 66.0492L4.34324 65.5092C8.72756 66.303 13.2103 66.3941 17.6232 65.7792L17.7632 66.0692L20.2832 84.7892C20.4832 86.2592 20.6832 87.7392 20.8932 89.2092L36.5532 126.689C36.5532 126.689 44.4032 132.689 53.5532 129.469C64.6032 125.639 67.9832 118.469 67.9832 118.469L75.4532 92.6392C74.1032 82.7692 70.3132 73.1792 67.2532 63.6392L66.9432 63.5092L75.9432 57.8692C78.0432 56.5492 80.2132 55.1792 81.6132 53.1292L81.7232 52.8892C106.963 93.1792 101.873 143.609 120.623 187.299L43.4432 187.289Z" fill="#F7B916"/>
<path d="M50.0232 32.949C50.2732 35.289 50.4432 36.869 50.5432 39.239C50.6234 39.7908 50.54 40.3541 50.3032 40.859C50.084 41.1395 49.7981 41.3606 49.4714 41.5021C49.1447 41.6436 48.7878 41.701 48.4332 41.669C43.4932 41.819 37.5032 37.139 33.6332 33.749L22.9932 25.939C20.4532 24.239 18.4132 22.849 15.9932 20.989C16.0634 20.5386 16.268 20.12 16.5803 19.7881C16.8926 19.4561 17.298 19.2264 17.7432 19.129C23.1122 17.2617 28.7828 16.4138 34.4632 16.629L38.2932 6.31895C38.5993 5.28068 39.1283 4.32171 39.8432 3.50895C40.1909 3.12428 40.6698 2.88335 41.1859 2.83341C41.702 2.78346 42.2182 2.92809 42.6332 3.23895C42.9996 3.61977 43.2763 4.07757 43.4432 4.57895C45.3835 9.86016 46.967 15.2656 48.1832 20.759L50.0232 32.949Z" fill="#4AE4E4"/>
<path d="M286.303 23.9991C286.478 21.7771 286.01 19.5516 284.953 17.5891C283.403 14.5891 281.083 11.8591 280.063 8.58905C279.523 6.83905 279.353 4.92905 278.303 3.43905C275.903 0.0590544 270.753 0.809054 266.783 2.02905C260.443 3.96905 244.703 6.74905 241.443 13.5091C240.443 15.5991 240.993 18.1291 242.043 20.1891C243.093 22.2491 244.623 24.0591 245.663 26.1291C247.013 28.8291 247.503 31.8691 248.663 34.6391C249.823 37.4091 252.043 40.0791 255.023 40.4591C257.113 40.7291 259.153 39.8291 261.073 38.9591L271.443 34.1991" fill="#4AE4E4"/>
<path d="M388.273 23.8992C387.173 24.8992 385.963 26.2692 386.573 27.5992C386.837 28.0778 387.219 28.4807 387.683 28.7692C391.683 31.5692 396.683 32.3392 401.493 33.0192L415.913 35.0792C417.586 35.432 419.311 35.4558 420.993 35.1492C421.831 34.9798 422.604 34.5774 423.223 33.9884C423.842 33.3993 424.282 32.6474 424.493 31.8192C424.923 29.1992 422.293 27.1992 420.003 25.8692L412.123 21.2592C411.427 20.922 410.813 20.4375 410.323 19.8392C409.373 18.4992 409.803 16.6592 410.263 15.0892C411.263 11.8392 412.363 8.57917 413.053 5.27917C406.323 3.35917 393.023 19.7592 388.273 23.8992Z" fill="#4AE4E4"/>
<path d="M77.8832 53.0791C103.133 93.3691 98.9932 142.729 117.743 186.429" stroke="#333333" stroke-linecap="round" stroke-linejoin="round"/>
<path d="M72.8332 91.849C71.4432 81.989 67.4932 66.5691 65.1932 61.7791" stroke="#333333" stroke-linecap="round" stroke-linejoin="round"/>
<path d="M36.4432 126.449C40.6722 128.773 45.5206 129.72 50.3132 129.159C57.7232 128.159 63.6632 123.339 67.6032 116.929" stroke="#333333" stroke-linecap="round" stroke-linejoin="round"/>
<path d="M40.8132 186.509C26.166 170.183 15.1328 150.947 8.43602 130.06C1.73928 109.174 -0.469869 87.1085 1.95324 65.3091" stroke="#333333" stroke-linecap="round" stroke-linejoin="round"/>
<path d="M291.443 52.769C297.903 76.629 295.583 102.889 286.293 125.769C277.003 148.649 265.093 166.059 251.093 186.429" stroke="#333333" stroke-linecap="round" stroke-linejoin="round"/>
<path d="M202.053 81.779C201.953 82.039 201.863 82.299 201.773 82.559C198.023 93.049 197.923 105.429 204.163 114.669C214.953 130.669 240.813 129.909 255.163 117.019C269.513 104.129 273.913 88.339 275.443 57.769" stroke="#333333" stroke-linecap="round" stroke-linejoin="round"/>
<path d="M217.913 54.179C215.243 57.819 207.843 69.939 205.633 74.009" stroke="#333333" stroke-linecap="round" stroke-linejoin="round"/>
<path d="M157.533 186.759C154.213 155.759 165.293 126.009 176.113 96.7592C183.443 77.0892 190.443 56.9192 205.773 43.1492" stroke="#333333" stroke-linecap="round" stroke-linejoin="round"/>
<path d="M444.833 43.969C452.343 57.329 453.893 73.019 454.043 88.349C454.373 121.039 451.463 153.679 448.563 186.249" stroke="#333333" stroke-linecap="round" stroke-linejoin="round"/>
<path d="M367.783 51.509C367.693 62.079 367.483 72.199 366.643 82.729C366.073 89.729 365.513 96.939 367.223 103.789C368.715 109.777 371.876 115.219 376.338 119.483C380.8 123.746 386.38 126.656 392.43 127.874C398.48 129.092 404.752 128.568 410.516 126.364C416.28 124.159 421.3 120.364 424.993 115.419C438.933 96.759 435.063 67.909 433.203 48.249" stroke="#333333" stroke-linecap="round" stroke-linejoin="round"/>
<path d="M356.323 186.779C343.997 143.158 343.449 97.0508 354.733 53.1492C354.903 52.4692 355.083 51.7792 355.273 51.1492" stroke="#333333" stroke-linecap="round" stroke-linejoin="round"/>
<path d="M47.8532 21.5089C46.4744 15.8501 44.6863 10.2988 42.5032 4.89894C42.3205 4.37421 42.0194 3.8986 41.6232 3.50894C41.1452 3.17687 40.5667 3.02122 39.9866 3.06865C39.4065 3.11608 38.8609 3.36363 38.4432 3.76894C37.6414 4.5895 37.0421 5.58595 36.6932 6.67894L32.4432 17.2389C26.0729 17.0237 19.7123 17.8927 13.6332 19.8089C13.146 19.8842 12.6934 20.1065 12.336 20.4461C11.9786 20.7856 11.7334 21.2262 11.6332 21.7089C14.3032 23.6189 16.6332 25.0289 19.4632 26.7689" stroke="#333333" stroke-linecap="round" stroke-linejoin="round"/>
<path d="M31.4432 34.769C35.8032 38.239 42.5532 43.039 48.1232 42.889C48.5138 42.9251 48.9075 42.8688 49.2723 42.7246C49.6371 42.5804 49.9629 42.3524 50.2232 42.059C50.4918 41.5498 50.5899 40.968 50.5032 40.399C50.3932 37.979 50.1932 36.399 49.9132 33.949" stroke="#333333" stroke-linecap="round" stroke-linejoin="round"/>
<path d="M284.263 23.9991C284.43 21.7765 283.958 19.5526 282.903 17.5891C281.353 14.5891 279.033 11.8591 278.023 8.58905C277.483 6.83905 277.313 4.92905 276.253 3.43905C273.863 0.0590544 268.703 0.809054 264.733 2.02905C258.443 3.96905 242.663 6.74905 239.443 13.5091C238.443 15.5991 238.993 18.1291 240.053 20.1891C241.113 22.2491 242.623 24.0591 243.663 26.1291C245.013 28.8291 245.513 31.8691 246.663 34.6391C247.813 37.4091 250.033 40.0791 253.023 40.4591C255.113 40.7291 257.153 39.8291 259.023 38.9591L269.443 34.1991" stroke="#333333" stroke-linecap="round" stroke-linejoin="round"/>
<path d="M239.893 19.5889C247.92 22.3051 256.312 23.7919 264.783 23.9989C265.693 24.0854 266.609 23.948 267.453 23.5989C268.219 23.1144 268.857 22.4524 269.313 21.6689C272.326 17.2023 274.851 12.4249 276.843 7.41895" stroke="#333333" stroke-linecap="round" stroke-linejoin="round"/>
<path d="M386.273 23.199C385.173 24.199 383.953 25.569 384.563 26.899C384.824 27.377 385.207 27.7772 385.673 28.059C389.673 30.869 394.673 31.639 399.483 32.319L413.903 34.379C415.577 34.7268 417.301 34.7505 418.983 34.449C419.822 34.283 420.597 33.8818 421.217 33.2921C421.836 32.7025 422.276 31.9488 422.483 31.119C422.913 28.499 420.293 26.499 418.003 25.169L410.113 20.559C409.421 20.2158 408.808 19.7322 408.313 19.139C407.363 17.799 407.793 15.959 408.263 14.389C409.263 11.139 410.353 7.87897 411.053 4.57897C404.323 2.65897 391.013 19.059 386.273 23.199Z" stroke="#333333" stroke-linecap="round" stroke-linejoin="round"/>
<path d="M205.773 43.1489C214.174 36.0585 223.405 30.0142 233.263 25.1489C235.813 23.8889 238.503 22.6889 241.343 22.6689L241.223 24.7289C237.076 25.8478 233.189 27.7709 229.783 30.3889C233.967 27.8418 238.822 26.6151 243.713 26.8689C239.673 28.9021 235.795 31.2423 232.113 33.8689C236.169 31.8462 240.435 30.2735 244.833 29.1789C245.053 30.5689 243.663 31.6489 242.453 32.3689L233.253 37.8789C236.923 35.1281 241.257 33.4025 245.813 32.8789C245.173 35.3289 242.753 36.8089 240.573 38.0889C232.528 42.7278 224.941 48.1186 217.913 54.1889" stroke="#333333" stroke-linecap="round" stroke-linejoin="round"/>
<path d="M275.443 57.769C275.703 51.699 271.533 40.769 269.633 35.009L267.213 27.509C268.213 26.789 269.733 27.509 270.393 28.509C270.949 29.6288 271.288 30.8434 271.393 32.089C271.729 33.932 272.408 35.6957 273.393 37.289C272.419 33.4399 271.958 29.4789 272.023 25.509C272.286 25.3256 272.604 25.2393 272.923 25.2648C273.243 25.2903 273.543 25.4262 273.773 25.649C274.239 26.0987 274.583 26.6596 274.773 27.279L278.033 35.409L276.443 25.019C276.313 24.239 276.373 23.179 277.143 23.019C277.913 22.859 278.383 23.699 278.643 24.399L281.573 32.199C281.073 28.399 280.74 24.5823 280.573 20.749L282.233 20.689C286.703 28.569 290.813 41.609 291.483 52.779" stroke="#333333" stroke-linecap="round" stroke-linejoin="round"/>
<path d="M1.95325 65.309C2.70325 58.859 9.30325 38.309 12.8432 32.999C16.3832 27.689 22.9232 23.729 29.1532 25.239C29.1532 26.629 27.3532 27.169 25.9632 27.169C24.5732 27.169 22.7632 27.349 22.3932 28.689L32.3932 26.689C32.0432 28.319 30.1032 29.009 28.4532 29.259C26.8032 29.509 24.8732 29.729 23.9632 31.139C27.1132 32.429 30.2132 28.679 33.6232 28.709C32.8132 32.129 26.6232 31.429 25.5232 34.709C28.6832 34.929 31.2632 30.769 34.2632 31.789C32.2632 35.369 28.1732 37.219 24.9932 39.849C15.2632 47.849 17.7032 76.949 18.3532 82.729" stroke="#333333" stroke-linecap="round" stroke-linejoin="round"/>
<path d="M65.1932 61.7791C60.8707 52.1558 55.7985 42.8873 50.0232 34.0591C47.5032 30.2091 44.7332 26.0591 45.1332 21.4391C47.4261 24.2017 49.3893 27.2221 50.9832 30.4391C48.8308 27.0763 47.0376 23.4966 45.6332 19.7591C48.8932 21.7591 51.0932 25.0591 53.1732 28.2591C50.6836 25.5134 49.264 21.9643 49.1732 18.2591L55.7732 26.5091C52.9238 23.6127 51.1582 19.8238 50.7732 15.7791C52.327 16.5807 53.6909 17.706 54.7732 19.0791C63.5032 29.1891 70.1532 40.3491 77.7732 53.0791" stroke="#333333" stroke-linecap="round" stroke-linejoin="round"/>
<path d="M355.313 50.969L357.653 38.059C358.653 32.669 359.803 26.889 363.783 23.119C366.703 20.349 370.703 19.119 374.563 17.929C375.363 17.689 376.613 17.729 376.633 18.569C376.633 19.209 375.883 19.569 375.273 19.679C372.69 20.3511 370.243 21.4678 368.043 22.979C371.132 21.269 374.454 20.0192 377.903 19.269C378.353 19.739 377.713 20.449 377.143 20.769L370.073 24.769C372.823 23.099 375.653 21.409 378.823 20.839C378.874 21.1912 378.827 21.5507 378.686 21.8774C378.544 22.2041 378.315 22.485 378.023 22.689C377.447 23.1087 376.814 23.4454 376.143 23.689C374.391 24.4717 372.844 25.6491 371.623 27.129C374.082 24.938 377.065 23.419 380.283 22.719C380.873 23.469 380.283 24.569 379.513 25.189C378.063 26.419 376.183 27.089 374.753 28.359C373.55 29.5379 372.601 30.9501 371.963 32.509C369.241 38.4752 367.816 44.9512 367.783 51.509" stroke="#333333" stroke-linecap="round" stroke-linejoin="round"/>
<path d="M444.833 44.0491L441.143 33.3991C439.343 28.2291 437.293 22.6991 432.783 19.5891C429.473 17.2991 425.323 16.6791 421.333 16.1191C420.503 15.9991 419.273 16.2391 419.383 17.1191C419.463 17.7391 420.273 17.9291 420.903 17.9891C423.559 18.2597 426.148 18.9906 428.553 20.1491C425.237 18.9314 421.76 18.207 418.233 17.9991C417.863 18.5391 418.613 19.1291 419.233 19.3591L426.833 22.1991C423.833 20.9791 420.833 19.7491 417.583 19.6691C417.584 20.0256 417.685 20.3747 417.874 20.6769C418.063 20.9791 418.333 21.2224 418.653 21.3791C419.289 21.6848 419.961 21.9099 420.653 22.0491C422.505 22.5534 424.216 23.4772 425.653 24.7491C422.884 22.9682 419.701 21.9347 416.413 21.7491C415.943 22.5791 416.733 23.5591 417.553 24.0591C419.173 25.0591 421.143 25.4291 422.743 26.4691C424.129 27.468 425.29 28.7453 426.153 30.2191C429.751 35.678 432.154 41.8361 433.203 48.2891" stroke="#333333" stroke-linecap="round" stroke-linejoin="round"/>
<path d="M359.983 149.589C360.42 149.589 360.773 149.235 360.773 148.799C360.773 148.363 360.42 148.009 359.983 148.009C359.547 148.009 359.193 148.363 359.193 148.799C359.193 149.235 359.547 149.589 359.983 149.589Z" fill="white"/>
<path d="M359.983 153.989C360.42 153.989 360.773 153.635 360.773 153.199C360.773 152.763 360.42 152.409 359.983 152.409C359.547 152.409 359.193 152.763 359.193 153.199C359.193 153.635 359.547 153.989 359.983 153.989Z" fill="white"/>
<path d="M364.703 149.589C365.14 149.589 365.493 149.235 365.493 148.799C365.493 148.363 365.14 148.009 364.703 148.009C364.267 148.009 363.913 148.363 363.913 148.799C363.913 149.235 364.267 149.589 364.703 149.589Z" fill="white"/>
<path d="M364.703 153.989C365.14 153.989 365.493 153.635 365.493 153.199C365.493 152.763 365.14 152.409 364.703 152.409C364.267 152.409 363.913 152.763 363.913 153.199C363.913 153.635 364.267 153.989 364.703 153.989Z" fill="white"/>
<path d="M371.163 149.589C371.6 149.589 371.953 149.235 371.953 148.799C371.953 148.363 371.6 148.009 371.163 148.009C370.727 148.009 370.373 148.363 370.373 148.799C370.373 149.235 370.727 149.589 371.163 149.589Z" fill="white"/>
<path d="M371.163 153.989C371.6 153.989 371.953 153.635 371.953 153.199C371.953 152.763 371.6 152.409 371.163 152.409C370.727 152.409 370.373 152.763 370.373 153.199C370.373 153.635 370.727 153.989 371.163 153.989Z" fill="white"/>
<path d="M375.873 149.589C376.31 149.589 376.663 149.235 376.663 148.799C376.663 148.363 376.31 148.009 375.873 148.009C375.437 148.009 375.083 148.363 375.083 148.799C375.083 149.235 375.437 149.589 375.873 149.589Z" fill="white"/>
<path d="M375.873 153.989C376.31 153.989 376.663 153.635 376.663 153.199C376.663 152.763 376.31 152.409 375.873 152.409C375.437 152.409 375.083 152.763 375.083 153.199C375.083 153.635 375.437 153.989 375.873 153.989Z" fill="white"/>
<path d="M382.333 149.589C382.77 149.589 383.123 149.235 383.123 148.799C383.123 148.363 382.77 148.009 382.333 148.009C381.897 148.009 381.543 148.363 381.543 148.799C381.543 149.235 381.897 149.589 382.333 149.589Z" fill="white"/>
<path d="M382.333 153.989C382.77 153.989 383.123 153.635 383.123 153.199C383.123 152.763 382.77 152.409 382.333 152.409C381.897 152.409 381.543 152.763 381.543 153.199C381.543 153.635 381.897 153.989 382.333 153.989Z" fill="white"/>
<path d="M387.053 149.589C387.49 149.589 387.843 149.235 387.843 148.799C387.843 148.363 387.49 148.009 387.053 148.009C386.617 148.009 386.263 148.363 386.263 148.799C386.263 149.235 386.617 149.589 387.053 149.589Z" fill="white"/>
<path d="M387.053 153.989C387.49 153.989 387.843 153.635 387.843 153.199C387.843 152.763 387.49 152.409 387.053 152.409C386.617 152.409 386.263 152.763 386.263 153.199C386.263 153.635 386.617 153.989 387.053 153.989Z" fill="white"/>
<path d="M393.513 149.589C393.95 149.589 394.303 149.235 394.303 148.799C394.303 148.363 393.95 148.009 393.513 148.009C393.077 148.009 392.723 148.363 392.723 148.799C392.723 149.235 393.077 149.589 393.513 149.589Z" fill="white"/>
<path d="M393.513 153.989C393.95 153.989 394.303 153.635 394.303 153.199C394.303 152.763 393.95 152.409 393.513 152.409C393.077 152.409 392.723 152.763 392.723 153.199C392.723 153.635 393.077 153.989 393.513 153.989Z" fill="white"/>
<path d="M398.223 149.589C398.66 149.589 399.013 149.235 399.013 148.799C399.013 148.363 398.66 148.009 398.223 148.009C397.787 148.009 397.433 148.363 397.433 148.799C397.433 149.235 397.787 149.589 398.223 149.589Z" fill="white"/>
<path d="M398.223 153.989C398.66 153.989 399.013 153.635 399.013 153.199C399.013 152.763 398.66 152.409 398.223 152.409C397.787 152.409 397.433 152.763 397.433 153.199C397.433 153.635 397.787 153.989 398.223 153.989Z" fill="white"/>
<path d="M404.683 149.589C405.12 149.589 405.473 149.235 405.473 148.799C405.473 148.363 405.12 148.009 404.683 148.009C404.247 148.009 403.893 148.363 403.893 148.799C403.893 149.235 404.247 149.589 404.683 149.589Z" fill="white"/>
<path d="M404.683 153.989C405.12 153.989 405.473 153.635 405.473 153.199C405.473 152.763 405.12 152.409 404.683 152.409C404.247 152.409 403.893 152.763 403.893 153.199C403.893 153.635 404.247 153.989 404.683 153.989Z" fill="white"/>
<path d="M409.403 149.589C409.84 149.589 410.193 149.235 410.193 148.799C410.193 148.363 409.84 148.009 409.403 148.009C408.967 148.009 408.613 148.363 408.613 148.799C408.613 149.235 408.967 149.589 409.403 149.589Z" fill="white"/>
<path d="M409.403 153.989C409.84 153.989 410.193 153.635 410.193 153.199C410.193 152.763 409.84 152.409 409.403 152.409C408.967 152.409 408.613 152.763 408.613 153.199C408.613 153.635 408.967 153.989 409.403 153.989Z" fill="white"/>
<path d="M415.863 149.589C416.3 149.589 416.653 149.235 416.653 148.799C416.653 148.363 416.3 148.009 415.863 148.009C415.427 148.009 415.073 148.363 415.073 148.799C415.073 149.235 415.427 149.589 415.863 149.589Z" fill="white"/>
<path d="M415.863 153.989C416.3 153.989 416.653 153.635 416.653 153.199C416.653 152.763 416.3 152.409 415.863 152.409C415.427 152.409 415.073 152.763 415.073 153.199C415.073 153.635 415.427 153.989 415.863 153.989Z" fill="white"/>
<path d="M420.573 149.589C421.01 149.589 421.363 149.235 421.363 148.799C421.363 148.363 421.01 148.009 420.573 148.009C420.137 148.009 419.783 148.363 419.783 148.799C419.783 149.235 420.137 149.589 420.573 149.589Z" fill="white"/>
<path d="M420.573 153.989C421.01 153.989 421.363 153.635 421.363 153.199C421.363 152.763 421.01 152.409 420.573 152.409C420.137 152.409 419.783 152.763 419.783 153.199C419.783 153.635 420.137 153.989 420.573 153.989Z" fill="white"/>
<path d="M427.033 149.589C427.47 149.589 427.823 149.235 427.823 148.799C427.823 148.363 427.47 148.009 427.033 148.009C426.597 148.009 426.243 148.363 426.243 148.799C426.243 149.235 426.597 149.589 427.033 149.589Z" fill="white"/>
<path d="M427.033 153.989C427.47 153.989 427.823 153.635 427.823 153.199C427.823 152.763 427.47 152.409 427.033 152.409C426.597 152.409 426.243 152.763 426.243 153.199C426.243 153.635 426.597 153.989 427.033 153.989Z" fill="white"/>
<path d="M431.753 149.589C432.19 149.589 432.543 149.235 432.543 148.799C432.543 148.363 432.19 148.009 431.753 148.009C431.317 148.009 430.963 148.363 430.963 148.799C430.963 149.235 431.317 149.589 431.753 149.589Z" fill="white"/>
<path d="M431.753 153.989C432.19 153.989 432.543 153.635 432.543 153.199C432.543 152.763 432.19 152.409 431.753 152.409C431.317 152.409 430.963 152.763 430.963 153.199C430.963 153.635 431.317 153.989 431.753 153.989Z" fill="white"/>
<path d="M438.213 149.589C438.65 149.589 439.003 149.235 439.003 148.799C439.003 148.363 438.65 148.009 438.213 148.009C437.777 148.009 437.423 148.363 437.423 148.799C437.423 149.235 437.777 149.589 438.213 149.589Z" fill="white"/>
<path d="M438.213 153.989C438.65 153.989 439.003 153.635 439.003 153.199C439.003 152.763 438.65 152.409 438.213 152.409C437.777 152.409 437.423 152.763 437.423 153.199C437.423 153.635 437.777 153.989 438.213 153.989Z" fill="white"/>
<path d="M442.923 149.589C443.36 149.589 443.713 149.235 443.713 148.799C443.713 148.363 443.36 148.009 442.923 148.009C442.487 148.009 442.133 148.363 442.133 148.799C442.133 149.235 442.487 149.589 442.923 149.589Z" fill="white"/>
<path d="M442.923 153.989C443.36 153.989 443.713 153.635 443.713 153.199C443.713 152.763 443.36 152.409 442.923 152.409C442.487 152.409 442.133 152.763 442.133 153.199C442.133 153.635 442.487 153.989 442.923 153.989Z" fill="white"/>
<path d="M172.973 149.589C173.41 149.589 173.763 149.235 173.763 148.799C173.763 148.363 173.41 148.009 172.973 148.009C172.537 148.009 172.183 148.363 172.183 148.799C172.183 149.235 172.537 149.589 172.973 149.589Z" fill="white"/>
<path d="M172.973 153.989C173.41 153.989 173.763 153.635 173.763 153.199C173.763 152.763 173.41 152.409 172.973 152.409C172.537 152.409 172.183 152.763 172.183 153.199C172.183 153.635 172.537 153.989 172.973 153.989Z" fill="white"/>
<path d="M177.683 149.589C178.12 149.589 178.473 149.235 178.473 148.799C178.473 148.363 178.12 148.009 177.683 148.009C177.247 148.009 176.893 148.363 176.893 148.799C176.893 149.235 177.247 149.589 177.683 149.589Z" fill="white"/>
<path d="M177.683 153.989C178.12 153.989 178.473 153.635 178.473 153.199C178.473 152.763 178.12 152.409 177.683 152.409C177.247 152.409 176.893 152.763 176.893 153.199C176.893 153.635 177.247 153.989 177.683 153.989Z" fill="white"/>
<path d="M184.143 149.589C184.58 149.589 184.933 149.235 184.933 148.799C184.933 148.363 184.58 148.009 184.143 148.009C183.707 148.009 183.353 148.363 183.353 148.799C183.353 149.235 183.707 149.589 184.143 149.589Z" fill="white"/>
<path d="M184.143 153.989C184.58 153.989 184.933 153.635 184.933 153.199C184.933 152.763 184.58 152.409 184.143 152.409C183.707 152.409 183.353 152.763 183.353 153.199C183.353 153.635 183.707 153.989 184.143 153.989Z" fill="white"/>
<path d="M188.853 149.589C189.29 149.589 189.643 149.235 189.643 148.799C189.643 148.363 189.29 148.009 188.853 148.009C188.417 148.009 188.063 148.363 188.063 148.799C188.063 149.235 188.417 149.589 188.853 149.589Z" fill="white"/>
<path d="M188.853 153.989C189.29 153.989 189.643 153.635 189.643 153.199C189.643 152.763 189.29 152.409 188.853 152.409C188.417 152.409 188.063 152.763 188.063 153.199C188.063 153.635 188.417 153.989 188.853 153.989Z" fill="white"/>
<path d="M195.313 149.589C195.75 149.589 196.103 149.235 196.103 148.799C196.103 148.363 195.75 148.009 195.313 148.009C194.877 148.009 194.523 148.363 194.523 148.799C194.523 149.235 194.877 149.589 195.313 149.589Z" fill="white"/>
<path d="M195.313 153.989C195.75 153.989 196.103 153.635 196.103 153.199C196.103 152.763 195.75 152.409 195.313 152.409C194.877 152.409 194.523 152.763 194.523 153.199C194.523 153.635 194.877 153.989 195.313 153.989Z" fill="white"/>
<path d="M200.033 149.589C200.47 149.589 200.823 149.235 200.823 148.799C200.823 148.363 200.47 148.009 200.033 148.009C199.597 148.009 199.243 148.363 199.243 148.799C199.243 149.235 199.597 149.589 200.033 149.589Z" fill="white"/>
<path d="M200.033 153.989C200.47 153.989 200.823 153.635 200.823 153.199C200.823 152.763 200.47 152.409 200.033 152.409C199.597 152.409 199.243 152.763 199.243 153.199C199.243 153.635 199.597 153.989 200.033 153.989Z" fill="white"/>
<path d="M206.493 149.589C206.93 149.589 207.283 149.235 207.283 148.799C207.283 148.363 206.93 148.009 206.493 148.009C206.057 148.009 205.703 148.363 205.703 148.799C205.703 149.235 206.057 149.589 206.493 149.589Z" fill="white"/>
<path d="M206.493 153.989C206.93 153.989 207.283 153.635 207.283 153.199C207.283 152.763 206.93 152.409 206.493 152.409C206.057 152.409 205.703 152.763 205.703 153.199C205.703 153.635 206.057 153.989 206.493 153.989Z" fill="white"/>
<path d="M211.203 149.589C211.64 149.589 211.993 149.235 211.993 148.799C211.993 148.363 211.64 148.009 211.203 148.009C210.767 148.009 210.413 148.363 210.413 148.799C210.413 149.235 210.767 149.589 211.203 149.589Z" fill="white"/>
<path d="M211.203 153.989C211.64 153.989 211.993 153.635 211.993 153.199C211.993 152.763 211.64 152.409 211.203 152.409C210.767 152.409 210.413 152.763 210.413 153.199C210.413 153.635 210.767 153.989 211.203 153.989Z" fill="white"/>
<path d="M217.663 149.589C218.1 149.589 218.453 149.235 218.453 148.799C218.453 148.363 218.1 148.009 217.663 148.009C217.227 148.009 216.873 148.363 216.873 148.799C216.873 149.235 217.227 149.589 217.663 149.589Z" fill="white"/>
<path d="M217.663 153.989C218.1 153.989 218.453 153.635 218.453 153.199C218.453 152.763 218.1 152.409 217.663 152.409C217.227 152.409 216.873 152.763 216.873 153.199C216.873 153.635 217.227 153.989 217.663 153.989Z" fill="white"/>
<path d="M222.383 149.589C222.82 149.589 223.173 149.235 223.173 148.799C223.173 148.363 222.82 148.009 222.383 148.009C221.947 148.009 221.593 148.363 221.593 148.799C221.593 149.235 221.947 149.589 222.383 149.589Z" fill="white"/>
<path d="M222.383 153.989C222.82 153.989 223.173 153.635 223.173 153.199C223.173 152.763 222.82 152.409 222.383 152.409C221.947 152.409 221.593 152.763 221.593 153.199C221.593 153.635 221.947 153.989 222.383 153.989Z" fill="white"/>
<path d="M228.843 149.589C229.28 149.589 229.633 149.235 229.633 148.799C229.633 148.363 229.28 148.009 228.843 148.009C228.407 148.009 228.053 148.363 228.053 148.799C228.053 149.235 228.407 149.589 228.843 149.589Z" fill="white"/>
<path d="M228.843 153.989C229.28 153.989 229.633 153.635 229.633 153.199C229.633 152.763 229.28 152.409 228.843 152.409C228.407 152.409 228.053 152.763 228.053 153.199C228.053 153.635 228.407 153.989 228.843 153.989Z" fill="white"/>
<path d="M233.553 149.589C233.99 149.589 234.343 149.235 234.343 148.799C234.343 148.363 233.99 148.009 233.553 148.009C233.117 148.009 232.763 148.363 232.763 148.799C232.763 149.235 233.117 149.589 233.553 149.589Z" fill="white"/>
<path d="M233.553 153.989C233.99 153.989 234.343 153.635 234.343 153.199C234.343 152.763 233.99 152.409 233.553 152.409C233.117 152.409 232.763 152.763 232.763 153.199C232.763 153.635 233.117 153.989 233.553 153.989Z" fill="white"/>
<path d="M240.013 149.589C240.45 149.589 240.803 149.235 240.803 148.799C240.803 148.363 240.45 148.009 240.013 148.009C239.577 148.009 239.223 148.363 239.223 148.799C239.223 149.235 239.577 149.589 240.013 149.589Z" fill="white"/>
<path d="M240.013 153.989C240.45 153.989 240.803 153.635 240.803 153.199C240.803 152.763 240.45 152.409 240.013 152.409C239.577 152.409 239.223 152.763 239.223 153.199C239.223 153.635 239.577 153.989 240.013 153.989Z" fill="white"/>
<path d="M244.733 149.589C245.17 149.589 245.523 149.235 245.523 148.799C245.523 148.363 245.17 148.009 244.733 148.009C244.297 148.009 243.943 148.363 243.943 148.799C243.943 149.235 244.297 149.589 244.733 149.589Z" fill="white"/>
<path d="M244.733 153.989C245.17 153.989 245.523 153.635 245.523 153.199C245.523 152.763 245.17 152.409 244.733 152.409C244.297 152.409 243.943 152.763 243.943 153.199C243.943 153.635 244.297 153.989 244.733 153.989Z" fill="white"/>
<path d="M251.193 149.589C251.63 149.589 251.983 149.235 251.983 148.799C251.983 148.363 251.63 148.009 251.193 148.009C250.757 148.009 250.403 148.363 250.403 148.799C250.403 149.235 250.757 149.589 251.193 149.589Z" fill="white"/>
<path d="M251.193 153.989C251.63 153.989 251.983 153.635 251.983 153.199C251.983 152.763 251.63 152.409 251.193 152.409C250.757 152.409 250.403 152.763 250.403 153.199C250.403 153.635 250.757 153.989 251.193 153.989Z" fill="white"/>
<path d="M255.903 149.589C256.34 149.589 256.693 149.235 256.693 148.799C256.693 148.363 256.34 148.009 255.903 148.009C255.467 148.009 255.113 148.363 255.113 148.799C255.113 149.235 255.467 149.589 255.903 149.589Z" fill="white"/>
<path d="M255.903 153.989C256.34 153.989 256.693 153.635 256.693 153.199C256.693 152.763 256.34 152.409 255.903 152.409C255.467 152.409 255.113 152.763 255.113 153.199C255.113 153.635 255.467 153.989 255.903 153.989Z" fill="white"/>
<path d="M32.9333 149.589C33.3696 149.589 33.7232 149.235 33.7232 148.799C33.7232 148.363 33.3696 148.009 32.9333 148.009C32.4969 148.009 32.1432 148.363 32.1432 148.799C32.1432 149.235 32.4969 149.589 32.9333 149.589Z" fill="white"/>
<path d="M32.9333 153.989C33.3696 153.989 33.7232 153.635 33.7232 153.199C33.7232 152.763 33.3696 152.409 32.9333 152.409C32.4969 152.409 32.1432 152.763 32.1432 153.199C32.1432 153.635 32.4969 153.989 32.9333 153.989Z" fill="white"/>
<path d="M37.6432 149.589C38.0795 149.589 38.4332 149.235 38.4332 148.799C38.4332 148.363 38.0795 148.009 37.6432 148.009C37.2069 148.009 36.8532 148.363 36.8532 148.799C36.8532 149.235 37.2069 149.589 37.6432 149.589Z" fill="white"/>
<path d="M37.6432 153.989C38.0795 153.989 38.4332 153.635 38.4332 153.199C38.4332 152.763 38.0795 152.409 37.6432 152.409C37.2069 152.409 36.8532 152.763 36.8532 153.199C36.8532 153.635 37.2069 153.989 37.6432 153.989Z" fill="white"/>
<path d="M44.1032 149.589C44.5395 149.589 44.8932 149.235 44.8932 148.799C44.8932 148.363 44.5395 148.009 44.1032 148.009C43.6669 148.009 43.3132 148.363 43.3132 148.799C43.3132 149.235 43.6669 149.589 44.1032 149.589Z" fill="white"/>
<path d="M44.1032 153.989C44.5395 153.989 44.8932 153.635 44.8932 153.199C44.8932 152.763 44.5395 152.409 44.1032 152.409C43.6669 152.409 43.3132 152.763 43.3132 153.199C43.3132 153.635 43.6669 153.989 44.1032 153.989Z" fill="white"/>
<path d="M48.8232 149.589C49.2595 149.589 49.6132 149.235 49.6132 148.799C49.6132 148.363 49.2595 148.009 48.8232 148.009C48.3869 148.009 48.0332 148.363 48.0332 148.799C48.0332 149.235 48.3869 149.589 48.8232 149.589Z" fill="white"/>
<path d="M48.8232 153.989C49.2595 153.989 49.6132 153.635 49.6132 153.199C49.6132 152.763 49.2595 152.409 48.8232 152.409C48.3869 152.409 48.0332 152.763 48.0332 153.199C48.0332 153.635 48.3869 153.989 48.8232 153.989Z" fill="white"/>
<path d="M55.2832 149.589C55.7195 149.589 56.0732 149.235 56.0732 148.799C56.0732 148.363 55.7195 148.009 55.2832 148.009C54.8469 148.009 54.4932 148.363 54.4932 148.799C54.4932 149.235 54.8469 149.589 55.2832 149.589Z" fill="white"/>
<path d="M55.2832 153.989C55.7195 153.989 56.0732 153.635 56.0732 153.199C56.0732 152.763 55.7195 152.409 55.2832 152.409C54.8469 152.409 54.4932 152.763 54.4932 153.199C54.4932 153.635 54.8469 153.989 55.2832 153.989Z" fill="white"/>
<path d="M59.9932 149.589C60.4296 149.589 60.7832 149.235 60.7832 148.799C60.7832 148.363 60.4296 148.009 59.9932 148.009C59.5569 148.009 59.2032 148.363 59.2032 148.799C59.2032 149.235 59.5569 149.589 59.9932 149.589Z" fill="white"/>
<path d="M59.9932 153.989C60.4296 153.989 60.7832 153.635 60.7832 153.199C60.7832 152.763 60.4296 152.409 59.9932 152.409C59.5569 152.409 59.2032 152.763 59.2032 153.199C59.2032 153.635 59.5569 153.989 59.9932 153.989Z" fill="white"/>
<path d="M66.4532 149.589C66.8895 149.589 67.2432 149.235 67.2432 148.799C67.2432 148.363 66.8895 148.009 66.4532 148.009C66.0169 148.009 65.6632 148.363 65.6632 148.799C65.6632 149.235 66.0169 149.589 66.4532 149.589Z" fill="white"/>
<path d="M66.4532 153.989C66.8895 153.989 67.2432 153.635 67.2432 153.199C67.2432 152.763 66.8895 152.409 66.4532 152.409C66.0169 152.409 65.6632 152.763 65.6632 153.199C65.6632 153.635 66.0169 153.989 66.4532 153.989Z" fill="white"/>
<path d="M71.1732 149.589C71.6095 149.589 71.9632 149.235 71.9632 148.799C71.9632 148.363 71.6095 148.009 71.1732 148.009C70.7369 148.009 70.3832 148.363 70.3832 148.799C70.3832 149.235 70.7369 149.589 71.1732 149.589Z" fill="white"/>
<path d="M71.1732 153.989C71.6095 153.989 71.9632 153.635 71.9632 153.199C71.9632 152.763 71.6095 152.409 71.1732 152.409C70.7369 152.409 70.3832 152.763 70.3832 153.199C70.3832 153.635 70.7369 153.989 71.1732 153.989Z" fill="white"/>
<path d="M77.6332 149.589C78.0695 149.589 78.4232 149.235 78.4232 148.799C78.4232 148.363 78.0695 148.009 77.6332 148.009C77.1969 148.009 76.8432 148.363 76.8432 148.799C76.8432 149.235 77.1969 149.589 77.6332 149.589Z" fill="white"/>
<path d="M77.6332 153.989C78.0695 153.989 78.4232 153.635 78.4232 153.199C78.4232 152.763 78.0695 152.409 77.6332 152.409C77.1969 152.409 76.8432 152.763 76.8432 153.199C76.8432 153.635 77.1969 153.989 77.6332 153.989Z" fill="white"/>
<path d="M82.3432 149.589C82.7795 149.589 83.1332 149.235 83.1332 148.799C83.1332 148.363 82.7795 148.009 82.3432 148.009C81.9069 148.009 81.5532 148.363 81.5532 148.799C81.5532 149.235 81.9069 149.589 82.3432 149.589Z" fill="white"/>
<path d="M82.3432 153.989C82.7795 153.989 83.1332 153.635 83.1332 153.199C83.1332 152.763 82.7795 152.409 82.3432 152.409C81.9069 152.409 81.5532 152.763 81.5532 153.199C81.5532 153.635 81.9069 153.989 82.3432 153.989Z" fill="white"/>
<path d="M88.8032 149.589C89.2396 149.589 89.5932 149.235 89.5932 148.799C89.5932 148.363 89.2396 148.009 88.8032 148.009C88.3669 148.009 88.0132 148.363 88.0132 148.799C88.0132 149.235 88.3669 149.589 88.8032 149.589Z" fill="white"/>
<path d="M88.8032 153.989C89.2396 153.989 89.5932 153.635 89.5932 153.199C89.5932 152.763 89.2396 152.409 88.8032 152.409C88.3669 152.409 88.0132 152.763 88.0132 153.199C88.0132 153.635 88.3669 153.989 88.8032 153.989Z" fill="white"/>
<path d="M93.5232 149.589C93.9596 149.589 94.3132 149.235 94.3132 148.799C94.3132 148.363 93.9596 148.009 93.5232 148.009C93.0869 148.009 92.7332 148.363 92.7332 148.799C92.7332 149.235 93.0869 149.589 93.5232 149.589Z" fill="white"/>
<path d="M93.5232 153.989C93.9596 153.989 94.3132 153.635 94.3132 153.199C94.3132 152.763 93.9596 152.409 93.5232 152.409C93.0869 152.409 92.7332 152.763 92.7332 153.199C92.7332 153.635 93.0869 153.989 93.5232 153.989Z" fill="white"/>
<path d="M201.693 81.5092L195.873 78.8092C194.773 78.2992 193.483 77.4792 193.603 76.2692C193.753 74.8692 195.603 74.4692 196.983 74.4192L205.323 74.1592" stroke="#333333" stroke-linecap="round" stroke-linejoin="round"/>
<path d="M241.963 116.889C240.803 117.999 239.593 119.059 238.353 120.059C233.963 123.599 227.773 126.559 222.453 126.059" stroke="#333333" stroke-linecap="round" stroke-linejoin="round"/>
<path d="M396.553 129.089C389.763 128.269 384.243 122.789 381.503 116.519C378.763 110.249 378.323 103.249 378.073 96.419C377.703 86.689 377.733 76.509 382.163 67.849C386.593 59.189 396.783 52.679 406.053 55.639C415.323 58.599 419.703 69.079 421.653 78.639C424.113 90.639 424.493 103.369 419.943 114.699C418.013 119.509 415.073 124.129 410.633 126.809" stroke="#333333" stroke-linecap="round" stroke-linejoin="round"/>
<path d="M375.743 87.8991C377.877 86.4605 379.401 84.2828 380.024 81.7861C380.646 79.2894 380.322 76.6508 379.113 74.3791C381.883 77.8891 387.793 77.3791 391.013 74.2991C394.233 71.2191 395.233 66.4191 395.203 61.9391C397.363 68.3291 406.743 70.7591 411.733 66.2191C411.063 72.9391 418.033 79.2191 424.653 77.9391C421.053 81.1091 417.123 85.0891 417.653 89.8591C418.163 94.2391 422.993 97.4591 427.323 96.5891C431.653 95.7191 434.813 91.2691 434.623 86.8691C434.473 83.4591 432.623 80.2991 432.453 76.8691C432.283 73.4391 433.733 69.4491 431.523 66.7891C429.763 64.6591 426.583 64.5891 423.833 64.6891C424.169 63.2806 424.223 61.8196 423.993 60.39C423.763 58.9605 423.253 57.5904 422.492 56.3585C421.731 55.1265 420.734 54.0569 419.559 53.211C418.384 52.3651 417.053 51.7596 415.643 51.4291C414.406 51.3097 413.188 51.0446 412.013 50.6391C411.046 50.1117 410.176 49.4216 409.443 48.5991C406.563 45.7391 403.073 43.0291 399.013 42.8591C394.953 42.6891 390.613 46.2391 391.443 50.2191C387.953 49.8191 384.153 49.5291 381.183 51.3991C378.213 53.2691 377.043 58.1891 379.913 60.2191C377.294 61.055 375.072 62.8201 373.664 65.1817C372.257 67.5432 371.762 70.338 372.273 73.0391C371.953 71.6191 365.753 76.2991 365.273 77.0391C363.053 80.3791 363.743 83.5091 365.413 86.8291C366.653 89.2991 368.633 91.0891 369.723 93.8291C370.513 95.8291 370.473 98.7591 371.723 100.509C379.333 111.349 389.443 87.7791 375.743 87.8991Z" fill="#333333"/>
<path d="M209.373 61.119C218.373 63.199 227.373 66.809 233.643 73.119C239.913 79.429 243.133 88.999 239.853 97.119C238.423 100.669 235.853 103.919 235.623 107.699C235.393 111.479 238.203 115.449 242.083 116.869H242.953C250.686 109.851 256.418 100.907 259.563 90.949C260.769 87.5011 261.444 83.8898 261.563 80.239C261.743 69.109 254.043 58.239 242.973 53.979C231.903 49.719 217.573 52.979 209.273 60.979L209.373 61.119Z" fill="#333333"/>
<path d="M18.4432 102.309C18.2632 96.7192 18.2232 91.5792 18.3232 87.9092" stroke="#333333" stroke-linecap="round" stroke-linejoin="round"/>
<path d="M199.443 105.649C203.488 106.371 207.657 105.547 211.123 103.339" stroke="#333333" stroke-linecap="round" stroke-linejoin="round"/>
<path d="M221.313 78.5591C221.296 78.456 221.258 78.3574 221.201 78.2697C221.145 78.1819 221.07 78.1068 220.983 78.0491C220.728 77.8447 220.423 77.712 220.1 77.6645C219.776 77.6171 219.446 77.6566 219.143 77.7791C218.848 77.9168 218.614 78.1572 218.483 78.4553C218.352 78.7534 218.335 79.0889 218.433 79.3991C218.581 79.663 218.786 79.8901 219.033 80.0633C219.281 80.2365 219.565 80.3513 219.863 80.3991C220.034 80.4786 220.22 80.5199 220.408 80.5199C220.597 80.5199 220.783 80.4786 220.953 80.3991C221.363 80.1391 221.403 79.5791 221.403 79.0991C221.419 78.9959 221.411 78.8905 221.382 78.7904C221.353 78.6902 221.302 78.5977 221.233 78.5191" fill="#333333"/>
<path d="M54.9732 91.839C54.9593 91.7362 54.9225 91.6379 54.8653 91.5513C54.8082 91.4647 54.7323 91.3922 54.6432 91.339C54.3911 91.1329 54.0884 90.9982 53.7665 90.9489C53.4446 90.8997 53.1154 90.9377 52.8132 91.059C52.5161 91.1969 52.2798 91.4389 52.149 91.7393C52.0181 92.0396 52.0019 92.3775 52.1032 92.689C52.2495 92.9517 52.4532 93.178 52.699 93.3512C52.9449 93.5243 53.2266 93.6398 53.5232 93.689C53.6958 93.7681 53.8834 93.809 54.0732 93.809C54.2631 93.809 54.4507 93.7681 54.6232 93.689C55.0232 93.429 55.0632 92.869 55.0632 92.389C55.0786 92.2858 55.0714 92.1804 55.042 92.0803C55.0127 91.9801 54.9619 91.8876 54.8932 91.809" fill="#333333"/>
<path d="M31.5133 97.3991C31.4688 97.3053 31.4457 97.2029 31.4457 97.0991C31.4457 96.9953 31.4688 96.8929 31.5133 96.7991C31.6267 96.4922 31.8216 96.2221 32.0771 96.0177C32.3326 95.8133 32.639 95.6824 32.9633 95.6391C33.2818 95.6075 33.601 95.691 33.8633 95.8744C34.1256 96.0579 34.3136 96.3291 34.3933 96.6391C34.4027 96.943 34.3428 97.245 34.2181 97.5223C34.0933 97.7995 33.907 98.0447 33.6733 98.2391C33.5539 98.3927 33.4027 98.5187 33.2301 98.6085C33.0575 98.6982 32.8676 98.7496 32.6733 98.7591C32.1933 98.7591 31.8733 98.2791 31.6733 97.8591C31.6067 97.7777 31.5587 97.6827 31.5328 97.5807C31.5069 97.4788 31.5036 97.3724 31.5233 97.2691" fill="#333333"/>
<path d="M392.703 83.7191C392.689 83.6178 392.652 83.5208 392.597 83.4345C392.542 83.3483 392.469 83.2749 392.383 83.2191C392.129 83.0128 391.824 82.8788 391.5 82.8313C391.177 82.7838 390.846 82.8245 390.543 82.9491C390.247 83.0851 390.011 83.3253 389.88 83.6239C389.749 83.9226 389.732 84.2589 389.833 84.5691C389.98 84.8318 390.183 85.0581 390.429 85.2312C390.675 85.4044 390.957 85.5198 391.253 85.5691C391.426 85.6463 391.614 85.6862 391.803 85.6862C391.993 85.6862 392.18 85.6463 392.353 85.5691C392.528 85.405 392.66 85.201 392.738 84.9745C392.817 84.7481 392.839 84.506 392.803 84.2691C392.817 84.1651 392.807 84.0595 392.776 83.9594C392.745 83.8594 392.693 83.7671 392.623 83.6891" fill="#333333"/>
<path d="M406.343 83.7191C406.362 83.6179 406.401 83.5215 406.458 83.4356C406.514 83.3498 406.588 83.2761 406.673 83.2191C406.927 83.0128 407.232 82.8788 407.556 82.8313C407.88 82.7838 408.211 82.8245 408.513 82.9491C408.81 83.0851 409.046 83.3253 409.177 83.6239C409.307 83.9226 409.324 84.2589 409.223 84.5691C409.076 84.8329 408.871 85.06 408.623 85.2332C408.375 85.4064 408.092 85.5212 407.793 85.5691C407.622 85.646 407.436 85.6858 407.248 85.6858C407.06 85.6858 406.875 85.646 406.703 85.5691C406.293 85.3091 406.253 84.7491 406.253 84.2691C406.238 84.1658 406.245 84.0605 406.274 83.9604C406.304 83.8602 406.355 83.7676 406.423 83.6891" fill="#333333"/>
<path d="M397.033 98.199C397.252 98.6162 397.417 99.0598 397.523 99.519C397.823 100.829 397.723 102.379 398.733 103.269C398.963 103.451 399.227 103.584 399.51 103.66C399.793 103.735 400.088 103.752 400.378 103.709C400.668 103.666 400.945 103.564 401.194 103.409C401.443 103.254 401.657 103.05 401.823 102.809C402.109 102.23 402.263 101.595 402.273 100.949L402.463 98.579" stroke="#333333" stroke-linecap="round" stroke-linejoin="round"/>
<path d="M393.593 116.409C394.617 117.453 395.891 118.217 397.293 118.629C398.4 118.936 399.545 119.084 400.693 119.069C401.295 119.076 401.896 119.043 402.493 118.969C404.371 118.722 406.112 117.857 407.443 116.509" stroke="#333333" stroke-linecap="round" stroke-linejoin="round"/>
<path d="M37.8132 127.419C32.118 129.659 26.2903 131.546 20.3632 133.069C18.9232 129.829 17.2632 126.809 16.6032 123.319C11.8332 98.1891 15.8832 82.9891 20.1132 75.6891C23.612 69.611 29.0231 64.8609 35.5032 62.1791C42.8032 59.4191 51.4532 62.7891 57.6632 67.4991C60.0185 69.3561 62.1765 71.4504 64.1032 73.7491C66.0945 75.9402 67.8229 78.3566 69.2532 80.9491C70.4009 83.3524 71.3734 85.8356 72.1632 88.3791C74.9432 96.3791 78.3632 104.239 81.7732 112.049C76.6321 113.034 71.6495 114.717 66.9632 117.049C65.4532 103.449 58.0932 80.1791 57.8232 80.0491C53.8292 79.6738 49.8066 79.7241 45.8232 80.1991C36.2232 81.9191 23.4432 88.5091 23.1832 88.9991C22.9232 89.4891 32.2932 119.159 37.8132 127.419Z" fill="#333333"/>
<path d="M46.0533 118.819C46.5222 119.269 47.0272 119.681 47.5633 120.049C48.0572 120.413 48.608 120.694 49.1933 120.879C49.8443 121.069 50.5343 121.082 51.192 120.916C51.8496 120.75 52.4511 120.411 52.9342 119.935C53.4173 119.459 53.7647 118.863 53.9403 118.208C54.1159 117.553 54.1135 116.863 53.9333 116.209" stroke="#333333" stroke-linecap="round" stroke-linejoin="round"/>
<path d="M42.0233 105.579C41.8733 106.349 41.8432 107.369 42.5632 107.669C43.2832 107.969 44.1333 107.099 44.9833 107.009C45.8333 106.919 46.7833 107.689 47.5233 107.219C48.0833 106.859 48.1833 105.919 48.8233 105.749C49.2033 105.649 49.5933 105.879 49.9833 105.889C50.2553 105.89 50.5174 105.787 50.7161 105.601C50.9149 105.415 51.0355 105.161 51.0533 104.889C51.0674 104.625 50.9849 104.364 50.8211 104.156C50.6573 103.948 50.4235 103.807 50.1633 103.759" stroke="#333333" stroke-linecap="round" stroke-linejoin="round"/>
</svg>
