<svg width="212" height="235" viewBox="0 0 212 235" fill="none" xmlns="http://www.w3.org/2000/svg">
<mask id="path-1-inside-1" fill="white">
<path d="M83.9985 135.451L84.2335 136.379C83.5905 133.545 82.1988 130.935 80.2037 128.822C78.2086 126.709 75.6831 125.169 72.8905 124.364C70.0979 123.559 67.1406 123.518 64.3267 124.246C61.5129 124.973 58.9457 126.441 56.8928 128.499L11.6073 173.784C9.65686 175.736 8.23532 178.153 7.47642 180.806C6.71752 183.459 6.64623 186.261 7.26927 188.95C7.8923 191.638 9.18917 194.124 11.0378 196.172C12.8864 198.221 15.226 199.766 17.8362 200.661C18.9983 201.04 20.1965 201.297 21.4116 201.428C32.6015 202.609 70.5075 205.306 70.5075 205.306C72.9746 205.573 75.4701 205.271 77.8025 204.424C80.1349 203.577 82.2424 202.207 83.9633 200.419C85.6843 198.631 86.973 196.473 87.7307 194.11C88.4884 191.747 88.695 189.242 88.3346 186.786L88.4151 187.399L84.5676 138.458C84.2766 135.387 83.1181 132.463 81.2274 130.027C79.3367 127.59 76.7918 125.742 73.8899 124.697C70.988 123.653 67.8489 123.456 64.8392 124.129C61.8295 124.802 59.0734 126.318 56.8928 128.499L11.6073 173.784C9.43666 175.956 7.92547 178.697 7.24868 181.692C6.57187 184.687 6.75714 187.812 7.78301 190.706C8.80888 193.6 10.6334 196.144 13.0453 198.043C15.4573 199.943 18.358 201.121 21.4116 201.44"/>
</mask>
<path d="M84.2335 136.379L81.3254 137.116L87.1592 135.715L84.2335 136.379ZM56.8928 128.499L59.0141 130.62L59.0162 130.618L56.8928 128.499ZM11.6073 173.784L9.48593 171.663L9.48496 171.664L11.6073 173.784ZM17.8362 200.661L16.8631 203.499L16.8849 203.506L16.9068 203.513L17.8362 200.661ZM21.4116 201.428L21.0892 204.411L21.0966 204.411L21.4116 201.428ZM70.5075 205.306L70.8297 202.324L70.7751 202.318L70.7204 202.314L70.5075 205.306ZM88.3346 186.786L91.3028 186.351L85.3602 187.177L88.3346 186.786ZM88.4151 187.399L85.4406 187.789L91.4058 187.164L88.4151 187.399ZM84.5676 138.458L87.5583 138.222L87.5565 138.199L87.5542 138.175L84.5676 138.458ZM56.8928 128.499L59.0141 130.62L59.0142 130.62L56.8928 128.499ZM11.6073 173.784L9.48593 171.663L9.48553 171.663L11.6073 173.784ZM81.0903 136.188L81.3254 137.116L87.1417 135.642L86.9066 134.715L81.0903 136.188ZM87.1592 135.715C86.3973 132.358 84.7487 129.266 82.3852 126.762L78.0223 130.881C79.6489 132.604 80.7836 134.732 81.3079 137.043L87.1592 135.715ZM82.3852 126.762C80.0216 124.259 77.0297 122.435 73.7214 121.482L72.0596 127.247C74.3365 127.903 76.3956 129.158 78.0223 130.881L82.3852 126.762ZM73.7214 121.482C70.4131 120.528 66.9096 120.48 63.5761 121.341L65.0774 127.15C67.3716 126.557 69.7828 126.591 72.0596 127.247L73.7214 121.482ZM63.5761 121.341C60.2426 122.202 57.2013 123.942 54.7693 126.379L59.0162 130.618C60.6901 128.941 62.7832 127.743 65.0774 127.15L63.5761 121.341ZM54.7714 126.377L9.48593 171.663L13.7286 175.905L59.0141 130.62L54.7714 126.377ZM9.48496 171.664C7.17478 173.976 5.49099 176.838 4.5921 179.981L10.3607 181.631C10.9796 179.467 12.1389 177.497 13.7295 175.904L9.48496 171.664ZM4.5921 179.981C3.6932 183.123 3.60876 186.443 4.34673 189.627L10.1918 188.272C9.6837 186.08 9.74184 183.794 10.3607 181.631L4.5921 179.981ZM4.34673 189.627C5.0847 192.811 6.6208 195.755 8.81044 198.182L13.2651 194.163C11.7575 192.492 10.6999 190.465 10.1918 188.272L4.34673 189.627ZM8.81044 198.182C11.0001 200.609 13.7712 202.438 16.8631 203.499L18.8094 197.823C16.6807 197.093 14.7727 195.833 13.2651 194.163L8.81044 198.182ZM16.9068 203.513C18.2662 203.956 19.6678 204.257 21.0892 204.411L21.734 198.445C20.7252 198.336 19.7304 198.123 18.7656 197.809L16.9068 203.513ZM21.0966 204.411C26.7458 205.008 39.0701 205.981 49.9297 206.802C55.3709 207.213 60.4617 207.587 64.1921 207.859C66.0574 207.994 67.5827 208.104 68.6418 208.181C69.1714 208.219 69.5844 208.248 69.8651 208.268C70.0055 208.278 70.1128 208.286 70.185 208.291C70.2211 208.294 70.2485 208.296 70.2668 208.297C70.276 208.298 70.2829 208.298 70.2875 208.298C70.2898 208.299 70.2916 208.299 70.2928 208.299C70.2933 208.299 70.2938 208.299 70.2941 208.299C70.2944 208.299 70.2946 208.299 70.5075 205.306C70.7204 202.314 70.7202 202.314 70.72 202.314C70.7197 202.314 70.7193 202.314 70.7187 202.314C70.7176 202.314 70.7159 202.314 70.7136 202.314C70.709 202.313 70.7022 202.313 70.6931 202.312C70.6749 202.311 70.6477 202.309 70.6118 202.306C70.5399 202.301 70.4329 202.294 70.2929 202.283C70.0129 202.263 69.6006 202.234 69.0719 202.196C68.0143 202.12 66.4908 202.01 64.6275 201.874C60.9009 201.603 55.8159 201.229 50.3818 200.819C39.4909 199.996 27.2673 199.03 21.7266 198.445L21.0966 204.411ZM70.1852 208.289C73.1078 208.605 76.0638 208.247 78.8267 207.244L76.7783 201.604C74.8764 202.295 72.8415 202.541 70.8297 202.324L70.1852 208.289ZM78.8267 207.244C81.5897 206.24 84.0861 204.617 86.1247 202.499L81.802 198.338C80.3987 199.796 78.6802 200.913 76.7783 201.604L78.8267 207.244ZM86.1247 202.499C88.1633 200.381 89.6899 197.825 90.5875 195.026L84.874 193.194C84.2561 195.121 83.2053 196.88 81.802 198.338L86.1247 202.499ZM90.5875 195.026C91.485 192.227 91.7297 189.259 91.3028 186.351L85.3665 187.222C85.6603 189.224 85.4919 191.267 84.874 193.194L90.5875 195.026ZM85.3602 187.177L85.4406 187.789L91.3895 187.008L91.3091 186.396L85.3602 187.177ZM91.4058 187.164L87.5583 138.222L81.5768 138.693L85.4243 187.634L91.4058 187.164ZM87.5542 138.175C87.2095 134.538 85.8372 131.074 83.5975 128.187L78.8573 131.866C80.399 133.853 81.3437 136.237 81.5809 138.741L87.5542 138.175ZM83.5975 128.187C81.3579 125.301 78.3432 123.112 74.9057 121.875L72.8741 127.52C75.2404 128.372 77.3156 129.879 78.8573 131.866L83.5975 128.187ZM74.9057 121.875C71.4682 120.638 67.7497 120.404 64.1845 121.201L65.4939 127.057C67.9482 126.508 70.5079 126.669 72.8741 127.52L74.9057 121.875ZM64.1845 121.201C60.6192 121.999 57.3544 123.794 54.7713 126.377L59.0142 130.62C60.7923 128.841 63.0397 127.606 65.4939 127.057L64.1845 121.201ZM54.7714 126.377L9.48593 171.663L13.7286 175.905L59.0141 130.62L54.7714 126.377ZM9.48553 171.663C6.9143 174.235 5.12419 177.483 4.32247 181.031L10.1749 182.353C10.7268 179.911 11.959 177.676 13.729 175.905L9.48553 171.663ZM4.32247 181.031C3.52075 184.578 3.74021 188.28 4.95543 191.708L10.6106 189.703C9.77407 187.344 9.623 184.795 10.1749 182.353L4.32247 181.031ZM4.95543 191.708C6.17066 195.136 8.33194 198.15 11.1891 200.4L14.9016 195.687C12.9349 194.138 11.4471 192.063 10.6106 189.703L4.95543 191.708ZM11.1891 200.4C14.0462 202.651 17.4823 204.046 21.0995 204.424L21.7237 198.457C19.2337 198.196 16.8684 197.236 14.9016 195.687L11.1891 200.4Z" fill="#F7B916" mask="url(#path-1-inside-1)"/>
<mask id="path-3-inside-2" fill="white">
<path d="M196.072 124.656L195.385 124.707C197.473 124.606 199.496 123.946 201.243 122.797C202.989 121.647 204.396 120.051 205.315 118.173C206.234 116.295 206.633 114.205 206.469 112.121C206.306 110.036 205.586 108.034 204.385 106.322L177.963 68.5794C176.824 66.9537 175.29 65.6446 173.505 64.7753C171.72 63.9061 169.743 63.5053 167.761 63.6106C165.779 63.716 163.856 64.3241 162.173 65.3777C160.491 66.4313 159.104 67.8957 158.143 69.6331C157.73 70.409 157.398 71.2257 157.153 72.0702C154.918 79.85 148.269 106.368 148.269 106.368C147.772 108.082 147.674 109.888 147.982 111.646C148.291 113.404 148.998 115.069 150.05 116.511C151.101 117.954 152.469 119.137 154.049 119.969C155.628 120.801 157.377 121.261 159.161 121.312L158.717 121.293L193.871 124.684C196.082 124.862 198.299 124.406 200.261 123.371C202.224 122.336 203.851 120.764 204.954 118.839C206.056 116.914 206.588 114.715 206.488 112.498C206.387 110.282 205.658 108.14 204.385 106.322L177.963 68.5794C176.696 66.7703 174.942 65.357 172.905 64.5032C170.868 63.6494 168.631 63.39 166.453 63.7551C164.274 64.1202 162.244 65.0948 160.597 66.5661C158.949 68.0374 157.752 69.9452 157.144 72.0686"/>
</mask>
<path d="M195.385 124.707L195.165 121.715L195.531 127.703L195.385 124.707ZM204.385 106.322L201.928 108.043L201.93 108.045L204.385 106.322ZM177.963 68.5794L180.421 66.859L180.42 66.8578L177.963 68.5794ZM158.143 69.6331L155.518 68.1816L155.507 68.2019L155.496 68.2222L158.143 69.6331ZM157.153 72.0702L154.272 71.2345L154.27 71.2416L157.153 72.0702ZM148.269 106.368L151.15 107.203L151.166 107.15L151.179 107.097L148.269 106.368ZM159.161 121.312L159.075 124.311L159.293 118.315L159.161 121.312ZM158.717 121.293L158.85 118.295L158.429 124.279L158.717 121.293ZM193.871 124.684L193.583 127.67L193.607 127.672L193.631 127.674L193.871 124.684ZM204.385 106.322L201.928 108.043L201.928 108.043L204.385 106.322ZM177.963 68.5794L180.421 66.859L180.42 66.8585L177.963 68.5794ZM195.852 121.665L195.165 121.715L195.605 127.699L196.292 127.648L195.852 121.665ZM195.531 127.703C198.155 127.576 200.697 126.747 202.892 125.303L199.594 120.291C198.296 121.145 196.792 121.635 195.24 121.711L195.531 127.703ZM202.892 125.303C205.087 123.858 206.854 121.852 208.009 119.492L202.62 116.854C201.937 118.249 200.892 119.436 199.594 120.291L202.892 125.303ZM208.009 119.492C209.165 117.132 209.666 114.505 209.46 111.886L203.479 112.355C203.6 113.904 203.304 115.458 202.62 116.854L208.009 119.492ZM209.46 111.886C209.255 109.267 208.35 106.75 206.841 104.599L201.93 108.045C202.822 109.318 203.357 110.806 203.479 112.355L209.46 111.886ZM206.843 104.602L180.421 66.859L175.505 70.2999L201.928 108.043L206.843 104.602ZM180.42 66.8578C178.988 64.8152 177.061 63.1704 174.818 62.0782L172.191 67.4724C173.518 68.1188 174.659 69.0922 175.506 70.3011L180.42 66.8578ZM174.818 62.0782C172.576 60.986 170.093 60.4825 167.602 60.6149L167.92 66.6064C169.394 66.5281 170.864 66.8261 172.191 67.4724L174.818 62.0782ZM167.602 60.6149C165.111 60.7473 162.695 61.5113 160.581 62.8351L163.765 67.9204C165.016 67.1369 166.446 66.6848 167.92 66.6064L167.602 60.6149ZM160.581 62.8351C158.467 64.1588 156.725 65.9987 155.518 68.1816L160.769 71.0845C161.483 69.7927 162.514 68.7038 163.765 67.9204L160.581 62.8351ZM155.496 68.2222C154.985 69.1813 154.575 70.1908 154.272 71.2345L160.034 72.9059C160.222 72.2607 160.475 71.6367 160.791 71.0439L155.496 68.2222ZM154.27 71.2416C153.137 75.1839 150.904 83.8073 148.966 91.3939C147.994 95.1983 147.093 98.759 146.434 101.368C146.105 102.673 145.836 103.74 145.65 104.481C145.556 104.852 145.484 105.141 145.435 105.337C145.41 105.436 145.391 105.511 145.378 105.561C145.372 105.586 145.367 105.606 145.364 105.618C145.362 105.625 145.361 105.63 145.36 105.633C145.36 105.635 145.36 105.636 145.359 105.637C145.359 105.637 145.359 105.637 145.359 105.638C145.359 105.638 145.359 105.638 148.269 106.368C151.179 107.097 151.179 107.097 151.179 107.097C151.179 107.097 151.179 107.096 151.179 107.096C151.179 107.095 151.18 107.094 151.18 107.092C151.181 107.089 151.182 107.084 151.184 107.078C151.187 107.065 151.192 107.046 151.198 107.021C151.211 106.971 151.229 106.896 151.254 106.798C151.303 106.603 151.375 106.314 151.468 105.945C151.654 105.205 151.923 104.14 152.252 102.837C152.909 100.231 153.809 96.6761 154.779 92.8787C156.725 85.2616 158.934 76.7363 160.036 72.8987L154.27 71.2416ZM145.388 105.532C144.763 107.686 144.64 109.955 145.028 112.165L150.937 111.127C150.708 109.82 150.781 108.478 151.15 107.203L145.388 105.532ZM145.028 112.165C145.416 114.374 146.304 116.466 147.625 118.278L152.474 114.744C151.692 113.672 151.167 112.434 150.937 111.127L145.028 112.165ZM147.625 118.278C148.947 120.091 150.666 121.577 152.65 122.623L155.447 117.315C154.273 116.696 153.256 115.817 152.474 114.744L147.625 118.278ZM152.65 122.623C154.635 123.669 156.832 124.246 159.075 124.311L159.248 118.313C157.921 118.275 156.621 117.933 155.447 117.315L152.65 122.623ZM159.293 118.315L158.85 118.295L158.585 124.29L159.029 124.309L159.293 118.315ZM158.429 124.279L193.583 127.67L194.159 121.698L159.006 118.306L158.429 124.279ZM193.631 127.674C196.41 127.897 199.195 127.325 201.661 126.025L198.862 120.718C197.403 121.487 195.755 121.826 194.111 121.694L193.631 127.674ZM201.661 126.025C204.127 124.724 206.172 122.749 207.557 120.33L202.351 117.348C201.531 118.78 200.321 119.948 198.862 120.718L201.661 126.025ZM207.557 120.33C208.943 117.911 209.611 115.147 209.485 112.362L203.491 112.634C203.566 114.282 203.17 115.917 202.351 117.348L207.557 120.33ZM209.485 112.362C209.358 109.577 208.442 106.885 206.843 104.602L201.928 108.043C202.874 109.394 203.416 110.987 203.491 112.634L209.485 112.362ZM206.843 104.602L180.421 66.859L175.505 70.2999L201.928 108.043L206.843 104.602ZM180.42 66.8585C178.828 64.5851 176.625 62.8092 174.065 61.7364L171.746 67.27C173.26 67.9047 174.564 68.9554 175.506 70.3004L180.42 66.8585ZM174.065 61.7364C171.505 60.6635 168.694 60.3376 165.957 60.7964L166.949 66.7139C168.568 66.4424 170.231 66.6353 171.746 67.27L174.065 61.7364ZM165.957 60.7964C163.22 61.2551 160.668 62.4798 158.598 64.3286L162.595 68.8036C163.82 67.7098 165.329 66.9853 166.949 66.7139L165.957 60.7964ZM158.598 64.3286C156.528 66.1774 155.024 68.5747 154.26 71.2429L160.028 72.8944C160.48 71.3157 161.37 69.8974 162.595 68.8036L158.598 64.3286Z" fill="#F7B916" mask="url(#path-3-inside-2)"/>
<mask id="path-5-inside-3" fill="white">
<path d="M23.9826 1.15523L24.4549 1.43662C23.0426 0.546641 21.4173 0.0518576 19.7486 0.00385872C18.0799 -0.0441402 16.4289 0.356403 14.9677 1.16373C13.5065 1.97105 12.2887 3.15558 11.4412 4.59382C10.5936 6.03206 10.1475 7.67133 10.1492 9.34071L10.1492 46.1277C10.1499 47.7127 10.554 49.2716 11.3233 50.6574C12.0927 52.0433 13.2021 53.2105 14.547 54.0494C15.8919 54.8882 17.4282 55.371 19.0112 55.4523C20.5942 55.5336 22.1719 55.2108 23.5957 54.5141C24.2215 54.1959 24.8125 53.8137 25.3594 53.3735C30.3843 49.3084 46.8758 35.0077 46.8758 35.0077C47.9862 34.1138 48.8771 32.9777 49.4804 31.6862C50.0836 30.3947 50.3831 28.9823 50.3559 27.5571C50.3288 26.132 49.9757 24.732 49.3236 23.4644C48.6716 22.1969 47.738 21.0955 46.5944 20.2446L46.8758 20.4607L25.4348 2.14512C24.0695 1.01624 22.4113 0.299074 20.6537 0.0773785C18.8961 -0.144317 17.1118 0.138609 15.509 0.893115C13.9062 1.64762 12.5511 2.84256 11.602 4.3384C10.653 5.83423 10.1491 7.5692 10.1492 9.34071L10.1492 46.1277C10.1495 47.8912 10.6493 49.6187 11.5908 51.1099C12.5323 52.6012 13.8769 53.7953 15.4689 54.554C17.061 55.3127 18.8354 55.6049 20.5866 55.3969C22.3379 55.1889 23.9944 54.4891 25.3644 53.3785"/>
</mask>
<path d="M24.4549 1.43662L22.9195 4.01392L26.0543 -1.1015L24.4549 1.43662ZM10.1492 9.34071H13.1492L13.1492 9.33764L10.1492 9.34071ZM10.1492 46.1277H7.14917L7.14918 46.129L10.1492 46.1277ZM23.5957 54.5141L24.9141 57.2089L24.9349 57.1987L24.9555 57.1883L23.5957 54.5141ZM25.3594 53.3735L27.2405 55.7105L27.2463 55.7058L25.3594 53.3735ZM46.8758 35.0077L44.9946 32.6707L44.9519 32.7052L44.9104 32.7411L46.8758 35.0077ZM46.5944 20.2446L48.3852 17.8377L44.7673 22.6241L46.5944 20.2446ZM46.8758 20.4607L45.0487 22.8402L48.8244 18.1797L46.8758 20.4607ZM25.4348 2.14512L27.3833 -0.135926L27.365 -0.151541L27.3465 -0.166862L25.4348 2.14512ZM10.1492 9.34071H13.1492V9.34053L10.1492 9.34071ZM10.1492 46.1277H7.14917L7.14917 46.1282L10.1492 46.1277ZM22.4472 3.73253L22.9195 4.01392L25.9903 -1.14068L25.518 -1.42208L22.4472 3.73253ZM26.0543 -1.1015C24.1878 -2.27761 22.0401 -2.93147 19.8349 -2.9949L19.6624 3.00262C20.7946 3.03519 21.8973 3.37089 22.8556 3.97474L26.0543 -1.1015ZM19.8349 -2.9949C17.6297 -3.05833 15.4479 -2.52901 13.5169 -1.46213L16.4185 3.78958C17.41 3.24182 18.5302 2.97005 19.6624 3.00262L19.8349 -2.9949ZM13.5169 -1.46213C11.5859 -0.395253 9.97655 1.17011 8.85654 3.07075L14.0258 6.11689C14.6008 5.14105 15.4271 4.33735 16.4185 3.78958L13.5169 -1.46213ZM8.85654 3.07075C7.73653 4.97139 7.14692 7.13769 7.14918 9.34379L13.1492 9.33764C13.148 8.20497 13.4507 7.09273 14.0258 6.11689L8.85654 3.07075ZM7.14917 9.34071L7.14917 46.1277H13.1492L13.1492 9.34071H7.14917ZM7.14918 46.129C7.15013 48.2232 7.68396 50.2826 8.70042 52.1136L13.9462 49.2013C13.424 48.2605 13.1497 47.2023 13.1492 46.1263L7.14918 46.129ZM8.70042 52.1136C9.71687 53.9445 11.1825 55.4866 12.9594 56.5949L16.1346 51.5039C15.2216 50.9345 14.4685 50.1421 13.9462 49.2013L8.70042 52.1136ZM12.9594 56.5949C14.7363 57.7031 16.7659 58.3409 18.8573 58.4484L19.1651 52.4562C18.0905 52.4011 17.0476 52.0733 16.1346 51.5039L12.9594 56.5949ZM18.8573 58.4484C20.9487 58.5558 23.0331 58.1292 24.9141 57.2089L22.2772 51.8194C21.3107 52.2923 20.2397 52.5114 19.1651 52.4562L18.8573 58.4484ZM24.9555 57.1883C25.7662 56.776 26.5319 56.2808 27.2405 55.7105L23.4783 51.0365C23.0931 51.3466 22.6767 51.6159 22.2359 51.84L24.9555 57.1883ZM27.2463 55.7058C29.8011 53.639 35.2183 49.0144 39.9574 44.9413C42.3356 42.8973 44.5563 40.9808 46.1823 39.5753C46.9953 38.8726 47.6599 38.2975 48.1212 37.898C48.3519 37.6982 48.5318 37.5424 48.6541 37.4364C48.7152 37.3835 48.7619 37.3429 48.7934 37.3156C48.8092 37.302 48.8211 37.2917 48.8291 37.2847C48.8331 37.2812 48.8361 37.2786 48.8381 37.2769C48.8392 37.276 48.8399 37.2753 48.8404 37.2749C48.8407 37.2747 48.8409 37.2745 48.841 37.2744C48.8412 37.2742 48.8412 37.2742 46.8758 35.0077C44.9104 32.7411 44.9103 32.7412 44.9102 32.7413C44.9101 32.7414 44.9099 32.7415 44.9097 32.7418C44.9092 32.7422 44.9085 32.7428 44.9075 32.7437C44.9055 32.7454 44.9025 32.7479 44.8986 32.7514C44.8907 32.7582 44.8789 32.7684 44.8633 32.782C44.8321 32.809 44.7856 32.8493 44.7247 32.9021C44.603 33.0076 44.4236 33.1629 44.1936 33.3622C43.7334 33.7606 43.0703 34.3345 42.2587 35.036C40.6355 36.439 38.4193 38.3517 36.0465 40.391C31.2836 44.4846 25.9426 49.0429 23.4725 51.0412L27.2463 55.7058ZM48.757 37.3446C50.2241 36.1635 51.4014 34.6623 52.1985 32.9558L46.7623 30.4166C46.3529 31.293 45.7482 32.0641 44.9946 32.6707L48.757 37.3446ZM52.1985 32.9558C52.9955 31.2494 53.3913 29.3831 53.3554 27.5L47.3565 27.6143C47.3749 28.5815 47.1717 29.5401 46.7623 30.4166L52.1985 32.9558ZM53.3554 27.5C53.3195 25.6169 52.8529 23.767 51.9914 22.0922L46.6559 24.8367C47.0984 25.697 47.3381 26.6471 47.3565 27.6143L53.3554 27.5ZM51.9914 22.0922C51.1299 20.4173 49.8963 18.962 48.3852 17.8377L44.8037 22.6515C45.5798 23.229 46.2134 23.9765 46.6559 24.8367L51.9914 22.0922ZM44.7673 22.6241L45.0487 22.8402L48.7029 18.0813L48.4215 17.8652L44.7673 22.6241ZM48.8244 18.1797L27.3833 -0.135926L23.4862 4.42617L44.9273 22.7418L48.8244 18.1797ZM27.3465 -0.166862C25.5426 -1.65849 23.3515 -2.6061 21.0292 -2.89904L20.2783 3.05379C21.4711 3.20425 22.5965 3.69097 23.523 4.45711L27.3465 -0.166862ZM21.0292 -2.89904C18.7068 -3.19197 16.3491 -2.81813 14.2312 -1.82118L16.7867 3.60741C17.8745 3.09535 19.0855 2.90334 20.2783 3.05379L21.0292 -2.89904ZM14.2312 -1.82118C12.1134 -0.824228 10.3229 0.754687 9.06889 2.73118L14.1352 5.94561C14.7793 4.93044 15.6989 4.11947 16.7867 3.60741L14.2312 -1.82118ZM9.06889 2.73118C7.81486 4.70766 7.14904 7.00014 7.14917 9.34089L13.1492 9.34053C13.1491 8.13827 13.4911 6.96079 14.1352 5.94561L9.06889 2.73118ZM7.14917 9.34071L7.14917 46.1277H13.1492L13.1492 9.34071H7.14917ZM7.14917 46.1282C7.14962 48.4585 7.81007 50.741 9.05406 52.7114L14.1276 49.5084C13.4886 48.4963 13.1494 47.324 13.1492 46.1271L7.14917 46.1282ZM9.05406 52.7114C10.2981 54.6819 12.0747 56.2597 14.1783 57.2622L16.7595 51.8458C15.6791 51.3309 14.7665 50.5205 14.1276 49.5084L9.05406 52.7114ZM14.1783 57.2622C16.2819 58.2647 18.6265 58.6508 20.9405 58.3759L20.2327 52.4178C19.0442 52.559 17.84 52.3607 16.7595 51.8458L14.1783 57.2622ZM20.9405 58.3759C23.2545 58.1011 25.4433 57.1764 27.2536 55.709L23.4753 51.048C22.5455 51.8017 21.4213 52.2767 20.2327 52.4178L20.9405 58.3759Z" fill="#F7B916" mask="url(#path-5-inside-3)"/>
</svg>
