<svg width="40" height="44" viewBox="0 0 40 44" fill="none" xmlns="http://www.w3.org/2000/svg">
<path d="M10.8065 0.906369L11.1925 1.12636C10.088 0.431029 8.81736 0.0444212 7.51278 0.00677092C6.2082 -0.0308794 4.91737 0.281804 3.77464 0.91228C2.6319 1.54275 1.67903 2.46798 1.01518 3.59166C0.351332 4.71533 0.00077908 5.9964 3.45979e-06 7.30152V36.0778C-0.000811596 37.3181 0.314319 38.5382 0.915676 39.623C1.51703 40.7077 2.38479 41.6215 3.43712 42.278C4.48945 42.9345 5.69166 43.3121 6.93036 43.3752C8.16907 43.4384 9.40344 43.185 10.5171 42.6389C11.0074 42.3928 11.4695 42.0938 11.8949 41.7473C15.8239 38.5671 28.7222 27.3785 28.7222 27.3824C29.5909 26.6829 30.2879 25.7939 30.7598 24.7834C31.2317 23.7729 31.4661 22.6678 31.4448 21.5527C31.4236 20.4377 31.1474 19.3423 30.6373 18.3505C30.1272 17.3587 29.3969 16.4968 28.5022 15.831L28.7222 16.0008L11.9644 1.68212C10.8968 0.79648 9.59905 0.233233 8.22301 0.0583031C6.84696 -0.116627 5.44956 0.103997 4.19434 0.694354C2.93912 1.28471 1.87802 2.22038 1.13522 3.39185C0.392421 4.56332 -0.00134657 5.92212 3.45979e-06 7.30924V36.0778C7.36285e-05 37.457 0.390777 38.8081 1.12688 39.9745C1.86299 41.1409 2.9144 42.075 4.15938 42.6686C5.40437 43.2622 6.79203 43.4911 8.1617 43.3288C9.53138 43.1664 10.8271 42.6194 11.8988 41.7512" fill="#EB008B"/>
<path d="M24.3601 37.6948C21.3141 37.6963 18.336 36.7945 15.8026 35.1033C13.2692 33.4121 11.2942 31.0076 10.1275 28.1939C8.96077 25.3802 8.65471 22.2837 9.24802 19.296C9.84134 16.3083 11.3074 13.5637 13.4607 11.4093C15.614 9.25486 18.3579 7.78746 21.3453 7.19264C24.3327 6.59783 27.4294 6.90234 30.2437 8.06765C33.058 9.23296 35.4635 11.2067 37.1559 13.7393C38.8483 16.2719 39.7517 19.2495 39.7517 22.2955C39.7466 26.3767 38.1236 30.2895 35.2384 33.1761C32.3533 36.0627 28.4413 37.6877 24.3601 37.6948ZM24.3601 9.74834C21.8774 9.74757 19.4503 10.4831 17.3857 11.862C15.3211 13.2408 13.7118 15.2009 12.7614 17.4945C11.8109 19.7881 11.562 22.312 12.0462 24.747C12.5304 27.182 13.7258 29.4187 15.4813 31.1743C17.2369 32.9298 19.4736 34.1252 21.9086 34.6094C24.3436 35.0936 26.8675 34.8447 29.1611 33.8942C31.4546 32.9438 33.4148 31.3345 34.7936 29.2699C36.1725 27.2053 36.908 24.7782 36.9073 22.2955C36.9042 18.9687 35.5813 15.7791 33.2289 13.4267C30.8765 11.0743 27.6869 9.7514 24.3601 9.74834Z" fill="#1062AA"/>
<path d="M24.361 26.159C24.1736 26.1592 23.988 26.1221 23.8151 26.0499C23.6422 25.9777 23.4853 25.8717 23.3537 25.7383L18.3981 20.7827C18.131 20.5156 17.9809 20.1532 17.9809 19.7754C17.9809 19.3976 18.131 19.0353 18.3981 18.7681C18.6653 18.5009 19.0276 18.3508 19.4055 18.3508C19.7833 18.3508 20.1456 18.5009 20.4128 18.7681L24.2144 22.5697L35.6809 7.46369C35.9091 7.16275 36.2476 6.96481 36.6218 6.91343C36.996 6.86204 37.3753 6.9614 37.6762 7.18966C37.9772 7.41793 38.1751 7.75639 38.2265 8.13059C38.2779 8.50479 38.1785 8.88408 37.9503 9.18501L25.4957 25.5955C25.372 25.7568 25.2155 25.8901 25.0366 25.9865C24.8576 26.083 24.6603 26.1404 24.4575 26.1551L24.361 26.159Z" fill="#1062AA"/>
</svg>
