<svg width="266" height="234" viewBox="0 0 266 234" fill="none" xmlns="http://www.w3.org/2000/svg">
<path d="M58.1432 4.85553L60.1284 6.03825C54.1921 2.29758 47.361 0.217962 40.3474 0.0162186C33.3337 -0.185525 26.3943 1.498 20.2528 4.89125C14.1113 8.2845 8.9926 13.2632 5.43036 19.3083C1.86812 25.3533 -0.00716824 32.2433 2.05909e-05 39.2599V193.879C0.00305894 200.541 1.70137 207.093 4.9351 212.918C8.16883 218.743 12.8316 223.649 18.4845 227.175C24.1374 230.7 30.5945 232.729 37.248 233.071C43.9015 233.413 50.5326 232.056 56.5169 229.128C59.1471 227.791 61.6314 226.184 63.93 224.334C85.05 207.248 154.366 147.14 154.366 147.14C159.032 143.384 162.777 138.608 165.313 133.18C167.848 127.752 169.107 121.815 168.993 115.825C168.879 109.835 167.394 103.951 164.654 98.6233C161.913 93.2957 157.99 88.6664 153.183 85.0901L154.366 85.9983L64.2468 9.01616C58.5086 4.27135 51.5389 1.25704 44.1516 0.325229C36.7644 -0.606578 29.2644 0.582586 22.5277 3.75384C15.791 6.9251 10.0956 11.9476 6.10656 18.2347C2.11754 24.5218 -0.000421598 31.8141 2.05909e-05 39.2599V193.879C0.00142341 201.291 2.10229 208.552 6.05938 214.82C10.0165 221.088 15.6679 226.107 22.3594 229.295C29.051 232.484 36.5088 233.713 43.8696 232.838C51.2303 231.964 58.1929 229.023 63.9512 224.355" fill="#F7B916"/>
<path d="M158.956 207.926C177.956 187.076 201.236 168.006 229.036 163.656C241.146 161.766 255.826 164.116 261.506 175.026C262.876 177.74 263.682 180.703 263.876 183.736C265.046 198.246 254.496 212.346 240.736 216.876C226.976 221.406 211.156 217.046 200.326 207.386C189.496 197.726 183.406 183.386 181.996 168.926C181.276 161.636 166.676 79.0465 155.776 60.4065C144.876 41.7665 126.976 26.0065 105.646 23.1865C101.325 22.5286 96.9201 22.6608 92.6461 23.5765C89.6925 24.3236 86.829 25.3899 84.1061 26.7565C66.3475 35.3682 52.0777 49.8075 43.6761 67.6665C39.1561 77.3565 36.6161 89.2365 42.0361 98.4665C46.7161 106.466 56.1561 110.266 65.2361 111.716C84.7561 114.836 104.846 109.296 122.406 100.156C139.966 91.0165 155.466 78.4665 171.146 66.3265C187.519 53.7065 204.233 41.5498 221.286 29.8565" stroke="#81859C" stroke-linecap="round" stroke-linejoin="round" stroke-dasharray="6 6"/>
<path d="M96.589 27.6685L60.7548 11.4586C59.2452 10.7757 57.4679 11.4459 56.785 12.9555L43.8353 41.5828C43.1524 43.0924 43.8226 44.8697 45.3322 45.5526L81.1663 61.7625C82.6759 62.4453 84.4533 61.7751 85.1361 60.2656L98.0859 31.6383C98.7688 30.1287 98.0986 28.3514 96.589 27.6685Z" fill="#EB008B"/>
<path d="M98.3389 25.9192L57.038 7.23645C55.5284 6.55358 53.7511 7.22376 53.0682 8.73335L39.2365 39.3104C38.5536 40.82 39.2238 42.5973 40.7334 43.2802L82.0342 61.963C83.5438 62.6458 85.3212 61.9757 86.004 60.4661L99.8358 29.889C100.519 28.3794 99.8485 26.6021 98.3389 25.9192Z" stroke="black" stroke-miterlimit="10"/>
<path d="M50.3961 13.8965C53.1661 16.9465 54.6461 20.8965 56.5661 24.5365C59.124 29.3677 62.5085 33.7134 66.5661 37.3765C68.2034 39.0234 70.2343 40.2248 72.4661 40.8665C74.4604 41.1926 76.4995 41.1213 78.4661 40.6565C84.4995 39.6165 90.4995 38.3965 96.4661 36.9965" stroke="black" stroke-miterlimit="10"/>
<path d="M249.372 93.1959L215.833 106.794C214.298 107.416 213.558 109.166 214.18 110.701L225.013 137.419C225.635 138.954 227.385 139.694 228.92 139.072L262.459 125.474C263.994 124.851 264.734 123.102 264.111 121.566L253.279 94.8489C252.656 93.3134 250.907 92.5734 249.372 93.1959Z" fill="#6FC6AD"/>
<path d="M248.117 90.6817L210.112 106.091C208.577 106.713 207.837 108.463 208.459 109.998L219.818 138.013C220.44 139.549 222.19 140.289 223.725 139.666L261.73 124.257C263.266 123.634 264.006 121.885 263.383 120.35L252.025 92.3347C251.402 90.7992 249.653 90.0592 248.117 90.6817Z" stroke="black" stroke-miterlimit="10"/>
<path d="M210.116 114.807C213.876 114.897 217.446 116.407 221.066 117.427C225.889 118.777 230.912 119.275 235.906 118.897C238.016 118.855 240.081 118.277 241.906 117.217C243.375 116.096 244.611 114.7 245.546 113.107C248.686 108.44 251.686 103.673 254.546 98.8066" stroke="black" stroke-miterlimit="10"/>
<path d="M135.715 154.718L107.851 133.112C106.541 132.097 104.657 132.335 103.641 133.645L86.4472 155.819C85.4319 157.129 85.6703 159.013 86.9796 160.029L114.844 181.635C116.154 182.65 118.038 182.412 119.053 181.102L136.248 158.928C137.263 157.618 137.025 155.734 135.715 154.718Z" fill="#1062AA"/>
<path d="M136.038 154.814L104.538 130.389C103.229 129.374 101.344 129.612 100.329 130.921L82.3501 154.108C81.3349 155.417 81.5733 157.301 82.8826 158.317L114.382 182.742C115.692 183.757 117.576 183.519 118.592 182.209L136.57 159.023C137.585 157.714 137.347 155.829 136.038 154.814Z" stroke="black" stroke-miterlimit="10"/>
<path d="M97.1261 134.606C98.8961 137.826 99.3661 141.606 100.276 145.126C101.491 149.855 103.522 154.335 106.276 158.366C107.345 160.13 108.846 161.593 110.636 162.616C112.302 163.315 114.09 163.676 115.896 163.676C121.376 164.036 126.863 164.23 132.356 164.256" stroke="black" stroke-miterlimit="10"/>
<path d="M261.046 7.80656C261.686 7.68656 262.486 7.62656 262.856 8.16656C262.969 8.38435 263.028 8.62615 263.028 8.87156C263.028 9.11696 262.969 9.35876 262.856 9.57656C262.119 11.1114 261.101 12.4951 259.856 13.6566L248.866 25.4666C246.946 27.5266 244.776 29.7166 241.976 30.0266L242.366 20.5666C242.427 20.1565 242.35 19.7376 242.146 19.3766C241.897 19.1102 241.572 18.9254 241.216 18.8466C237.598 17.8089 234.047 16.5465 230.586 15.0666C234.946 9.16656 253.896 9.11656 261.046 7.80656Z" fill="#F7B916"/>
<path d="M257.246 7.04652C257.896 6.92652 258.696 6.86652 259.056 7.41652C259.169 7.63254 259.228 7.87272 259.228 8.11652C259.228 8.36032 259.169 8.6005 259.056 8.81652C258.334 10.3473 257.333 11.7307 256.106 12.8965L245.106 24.6965C243.186 26.7565 241.016 28.9465 238.216 29.2565L238.606 19.7965C238.672 19.3864 238.595 18.9659 238.386 18.6065C238.135 18.3416 237.812 18.1571 237.456 18.0765C233.84 17.0405 230.293 15.778 226.836 14.2965C231.146 8.40652 250.096 8.35652 257.246 7.04652Z" stroke="black" stroke-miterlimit="10"/>
<path d="M140.976 231.767C140.456 231.957 139.806 232.117 139.416 231.767C139.298 231.599 139.22 231.406 139.189 231.203C139.158 231 139.174 230.792 139.236 230.597C139.61 229.225 140.234 227.933 141.076 226.787L148.466 215.357C149.756 213.357 151.226 211.237 153.466 210.567L154.546 218.457C154.548 218.803 154.676 219.137 154.906 219.397C155.149 219.581 155.442 219.689 155.746 219.707C158.895 220.028 162.021 220.546 165.106 221.257C162.376 226.787 146.706 229.617 140.976 231.767Z" fill="#F7B916"/>
<path d="M139.646 229.697C139.136 229.907 138.476 230.087 138.086 229.697C137.957 229.534 137.869 229.343 137.829 229.139C137.789 228.936 137.798 228.726 137.856 228.527C138.19 227.138 138.777 225.823 139.586 224.647L146.586 212.957C147.816 210.957 149.216 208.727 151.476 207.957L152.816 215.837C152.807 216.002 152.833 216.167 152.893 216.321C152.953 216.475 153.046 216.615 153.164 216.73C153.283 216.846 153.424 216.935 153.58 216.991C153.735 217.047 153.901 217.07 154.066 217.057C157.239 217.273 160.396 217.691 163.516 218.307C160.976 223.987 145.326 227.357 139.646 229.697Z" stroke="black" stroke-miterlimit="10"/>
</svg>
