<svg width="254" height="12" viewBox="0 0 254 12" fill="none" xmlns="http://www.w3.org/2000/svg">
<path d="M127.5 9.84C119.92 9.84 119.65 2 111.81 2C103.97 2 103.94 9.84 96.1 9.84C88.5 9.84 88.26 2 80.42 2C72.58 2 72.57 9.84 64.73 9.84C57.16 9.84 56.89 2 49.05 2C41.21 2 41.21 9.84 33.37 9.84C25.79 9.84 25.5 2 17.68 2C9.86 2 9.84 9.84 2 9.84" stroke="#F7B916" stroke-width="3" stroke-linecap="round" stroke-linejoin="round"/>
<path d="M252.5 9.84C244.92 9.84 244.65 2 236.81 2C228.97 2 228.94 9.84 221.1 9.84C213.5 9.84 213.26 2 205.42 2C197.58 2 197.57 9.84 189.73 9.84C182.16 9.84 181.89 2 174.05 2C166.21 2 166.21 9.84 158.37 9.84C150.79 9.84 150.5 2 142.68 2C134.86 2 134.84 9.84 127 9.84" stroke="#F7B916" stroke-width="3" stroke-linecap="round" stroke-linejoin="round"/>
</svg>
