<?xml version="1.0" encoding="utf-8"?>
<!-- Generator: Adobe Illustrator 23.0.5, SVG Export Plug-In . SVG Version: 6.00 Build 0)  -->
<svg version="1.1" id="Слой_1" xmlns="http://www.w3.org/2000/svg" xmlns:xlink="http://www.w3.org/1999/xlink" x="0px" y="0px"
	 viewBox="0 0 1055 5738" style="enable-background:new 0 0 1055 5738;" xml:space="preserve">
<style type="text/css">
	
		.st0{opacity:0.5;fill:none;stroke:#C6C8D2;stroke-linecap:round;stroke-linejoin:round;stroke-dasharray:6,6;enable-background:new    ;}
</style>
<path class="st0" d="M1054,5737.5c0-498-400.5-274-681-451C178,5167-174.5,4655,139.5,4383c108.5-91.5,332.4-76.4,501-124
	c147-41.5,254.5-99,329-182c149.1-171.6,120.5-590.5-254.7-551c-893.8,135.5-897-621-282.8-677.5 M432.1,2848.5
	c16.7-1.2,31.7-2.6,45.5-4.2c127.4-15.5,225.9-120.7,231.2-248.9c0.1-1.6,0.1-3.2,0.2-4.9 M176,1c-24.8,40.9-34.5,112.7-30.4,160.4
	c3.1,36.4,17,74.5,47.4,94.9s79.1,14.2,94.9-18.8c4.3-9,5.9-19.2,5.6-29.2c-1.3-54.6-57-95.9-111.5-98.6
	c-13.3-0.7-22.5-0.9-35.1,3.4c-39.2,13.7-65.7,58-70.2,99.3c-7.7,70.9,9.5,141.3,79.7,190c96.2,66.6,287.2,41.6,405-59.4
	c119.9-102.7,389.5-74.4,470.6,130.3l0,0c1.1,3.1,2.1,6.2,3,9.3c77.2,294.1-380.9,277.5-509.1,235.4
	c-96.7-31.8-204.9-25.5-303.3,0.8S31.7,816.4,8,915.4c-8.8,36.9-20.1,199.1,48.8,291.9c103.8,139.7,258.5,384.6,58.5,553.5
	c-80.3,67.8-83.5,175.4-80.7,215.3C67.8,2448.7,709,2091.8,709,2590.5"/>
</svg>
