<svg width="1055" height="5738" viewBox="0 0 1055 5738" fill="none" xmlns="http://www.w3.org/2000/svg">
<path opacity="0.5" d="M1054 5737.5C1054 5239.5 653.5 5463.5 373 5286.5C178 5167 -174.5 4655 139.5 4383C248 4291.5 471.882 4306.6 640.5 4259C787.5 4217.5 895 4160 969.5 4077C1118.6 3905.43 1090 3486.5 714.834 3526C-179 3661.5 -182.16 2905.02 432 2848.5M432.094 2848.5C527.504 2841.73 570 2828.5 623.514 2791.18C678.274 2736.08 706.874 2668.65 709.004 2590.46M69 1794C-147.5 2534.5 709.006 2038.5 709.006 2590.46M74.8748 1790.12C335.485 1623.43 166.875 1355.43 56.7848 1207.28C-12.1552 1114.5 -0.845165 952.3 7.98484 915.39C31.6848 816.39 124.115 745.17 222.495 718.88C320.875 692.59 429.065 686.28 525.805 718.08C654.805 760.47 1117.5 777 1033.5 477.5M176 1C151.22 41.93 141.536 113.69 145.586 161.42C148.676 197.87 162.586 235.95 192.936 256.33C223.286 276.71 272.066 270.56 287.786 237.53C292.076 228.53 293.666 218.36 293.436 208.37C292.166 153.77 236.436 112.48 181.906 109.73C168.606 109.06 159.416 108.79 146.836 113.17C107.616 126.84 81.0862 171.17 76.5962 212.49C68.8762 283.4 86.1362 353.84 156.316 402.49C252.526 469.13 443.486 444.09 561.316 343.13C681.216 240.42 950.786 268.77 1031.96 473.39" stroke="#C6C8D2" stroke-linecap="round" stroke-linejoin="round" stroke-dasharray="6 6"/>
</svg>
