<svg width="19" height="19" viewBox="0 0 19 19" fill="none" xmlns="http://www.w3.org/2000/svg">
<path d="M8.42832 1.03696C8.24354 1.03696 8.09571 1.18478 8.05876 1.33261L7.68919 3.55C7.24571 3.66087 6.83919 3.84565 6.46963 4.06739L4.65876 2.77391C4.51093 2.66304 4.32615 2.66304 4.17832 2.81087L2.73702 4.21522C2.62615 4.36304 2.58919 4.54783 2.70006 4.69565L3.99354 6.50652C3.7718 6.91304 3.62397 7.31957 3.47615 7.76304L1.29571 8.13261C1.11093 8.16957 1.00006 8.31739 1.00006 8.50217V10.5348C1.00006 10.7196 1.11093 10.8674 1.29571 10.9043L3.47615 11.3109C3.58702 11.7543 3.7718 12.1609 3.99354 12.5674L2.70006 14.3413C2.58919 14.4891 2.62615 14.6739 2.73702 14.8217L4.17832 16.263C4.28919 16.3739 4.51093 16.4109 4.65876 16.3L6.50658 15.0065C6.9131 15.2283 7.31963 15.3761 7.72615 15.5239L8.09571 17.7413C8.13267 17.9261 8.2805 18.037 8.46528 18.037H10.4979C10.6827 18.037 10.8305 17.9261 10.8675 17.7413L11.274 15.5239C11.7175 15.413 12.124 15.2283 12.4935 15.0065L14.3414 16.3C14.4892 16.4109 14.674 16.3739 14.8218 16.263L16.2631 14.8217C16.374 14.7109 16.4109 14.4891 16.3001 14.3413L14.9696 12.5304C15.1914 12.1609 15.3392 11.7543 15.487 11.3109L17.7044 10.9043C17.8892 10.8674 18.0001 10.7196 18.0001 10.5348V8.50217C18.0001 8.31739 17.8522 8.16957 17.7044 8.13261L15.487 7.76304C15.3761 7.31957 15.1914 6.91304 14.9696 6.54348L16.2631 4.69565C16.374 4.54783 16.337 4.36304 16.2261 4.21522L14.7848 2.77391C14.674 2.66304 14.4522 2.62609 14.3044 2.73696L12.4935 4.03044C12.124 3.8087 11.6805 3.66087 11.274 3.51304L10.9044 1.29565C10.8675 1.11087 10.7196 1 10.5348 1H8.42832V1.03696ZM8.76093 1.77609H10.1653L10.5348 3.88261C10.5718 4.03043 10.6827 4.1413 10.7935 4.17826C11.3479 4.32609 11.8283 4.51087 12.3088 4.80652C12.4196 4.88044 12.6044 4.88044 12.7153 4.80652L14.4522 3.55L15.4501 4.54783L14.2305 6.28478C14.1566 6.39565 14.1566 6.58044 14.2305 6.69131C14.5261 7.17174 14.7109 7.65217 14.8588 8.20652C14.8957 8.35435 15.0066 8.46522 15.1544 8.46522L17.2609 8.79783V10.2022L15.1544 10.5717C15.0066 10.6087 14.8957 10.7196 14.8588 10.8304C14.7109 11.3848 14.5261 11.8652 14.2305 12.3457C14.1566 12.4565 14.1566 12.6413 14.2305 12.7522L15.487 14.4891L14.4892 15.487L12.7522 14.2674C12.6414 14.1935 12.4566 14.1935 12.3457 14.2674C11.9022 14.563 11.3848 14.7478 10.8305 14.8957C10.6827 14.9326 10.5718 15.0435 10.5718 15.1913L10.2022 17.2978H8.79789L8.46528 15.1913C8.42832 15.0435 8.31745 14.9326 8.20658 14.8957C7.65224 14.7478 7.1718 14.563 6.69137 14.2674C6.5805 14.1935 6.39571 14.1935 6.28484 14.2674L4.54789 15.487L3.55006 14.4891L4.76963 12.7891C4.84354 12.6783 4.84354 12.4935 4.76963 12.3826C4.47397 11.9022 4.28919 11.4217 4.14137 10.8674C4.10441 10.7196 3.99354 10.6087 3.84571 10.6087L1.77615 10.2391V8.83478L3.84571 8.50217C3.99354 8.46522 4.10441 8.35435 4.14137 8.24348C4.28919 7.68913 4.47397 7.17174 4.76963 6.72826C4.84354 6.61739 4.84354 6.43261 4.76963 6.32174L3.47615 4.54783L4.47397 3.55L6.21093 4.76957C6.3218 4.84348 6.50658 4.84348 6.61745 4.76957C7.09789 4.47391 7.57832 4.28913 8.13267 4.1413C8.2805 4.10435 8.39137 3.99348 8.39137 3.84565L8.76093 1.77609Z" fill="#1062AA" stroke="#1062AA"/>
</svg>
