<svg width="18" height="18" viewBox="0 0 18 18" fill="none" xmlns="http://www.w3.org/2000/svg">
<path d="M5.48121 12.9025L5.48122 12.9025L5.47633 12.8976L5.47633 12.8976L5.09593 12.5172L5.09361 12.5148L5.09362 12.5148C3.91517 11.3051 2.83395 9.93889 2.05086 8.66741M5.48121 12.9025L9.33083 15.9474C9.80497 16.2404 10.3842 16.5637 10.9795 16.8144C11.5708 17.0635 12.1984 17.25 12.7633 17.25C13.3708 17.25 13.9802 17.0343 14.4835 16.7867C14.9898 16.5376 15.4094 16.2456 15.6429 16.0703M5.48121 12.9025L5.48369 12.9049M5.48121 12.9025L5.48369 12.9049M2.05086 8.66741L2.26373 8.53631M2.05086 8.66741L2.26373 8.53631M2.05086 8.66741C1.75885 8.1934 1.43597 7.61459 1.18538 7.01969C0.936508 6.42885 0.750061 5.80168 0.750061 5.23672C0.750061 4.62922 0.965678 4.01979 1.2133 3.51656C1.46245 3.01019 1.75448 2.59051 1.92975 2.35707C2.06629 2.17421 2.37442 1.7837 2.75362 1.43628C2.94338 1.26242 3.15673 1.09396 3.38053 0.967839C3.60252 0.842741 3.8512 0.75 4.10699 0.75C4.54121 0.75 4.95288 1.03183 5.4151 1.51217C5.83368 1.94595 6.22946 2.47941 6.48653 2.8469L6.48659 2.84697C6.83247 3.3418 7.15495 3.86173 7.39256 4.31186L7.39259 4.31192C7.77652 5.03972 7.84107 5.38725 7.84107 5.61387C7.84107 6.05469 7.60532 6.41809 7.2069 6.69177C6.95494 6.86508 6.65986 6.99282 6.39803 7.10617L6.3931 7.1083L6.39243 7.10859L6.37678 7.11542C6.28887 7.15376 6.18363 7.19967 6.08648 7.24613C6.06261 7.25755 6.04041 7.26846 6.01997 7.27878C6.09962 7.4645 6.26509 7.77926 6.57985 8.24228C6.99112 8.84717 7.52457 9.50392 8.00444 9.99528C8.49776 10.4755 9.15304 11.009 9.75773 11.4202C10.2196 11.7341 10.5347 11.8993 10.7215 11.9794C10.7318 11.9592 10.7426 11.9372 10.7539 11.9135C10.8004 11.8164 10.8463 11.7111 10.8846 11.6232L10.8917 11.6071L10.8917 11.6069L10.9015 11.5845C11.0126 11.3293 11.1387 11.0396 11.3083 10.7931C11.5819 10.3947 11.9453 10.159 12.3862 10.159C12.6128 10.159 12.9603 10.2235 13.6881 10.6074L13.6882 10.6075C14.1383 10.8451 14.6582 11.1675 15.1531 11.5134L15.1531 11.5135C15.5206 11.7706 16.0541 12.1664 16.4879 12.585L16.488 12.585C16.9661 13.0467 17.25 13.4585 17.25 13.893C17.25 14.1488 17.1573 14.3975 17.0322 14.6195C16.9061 14.8433 16.7376 15.0566 16.5637 15.2464C16.2163 15.6257 15.8257 15.9338 15.6429 16.0703M2.26373 8.53631C1.68741 7.6008 1.00006 6.26856 1.00006 5.23672C1.00006 4.13142 1.79026 2.95918 2.12985 2.50694C2.39434 2.15265 3.32006 1 4.10699 1C4.43026 1 4.77801 1.21061 5.23515 1.68571L5.2727 12.3404C4.10536 11.142 3.03597 9.79018 2.26373 8.53631ZM15.6429 16.0703C15.643 16.0702 15.6431 16.0702 15.6432 16.0701L15.4931 15.8702L15.6426 16.0705C15.6427 16.0704 15.6428 16.0704 15.6429 16.0703ZM5.48369 12.9049C6.69484 14.0831 8.05921 15.1642 9.33068 15.9473L5.48369 12.9049ZM10.0897 14.7186L10.0895 14.7185C8.91253 13.9934 7.63428 12.982 6.49653 11.8735L6.1298 11.5068C5.02129 10.369 4.00992 9.09076 3.28474 7.91374L3.28466 7.91362C2.93267 7.34303 2.65861 6.81062 2.47332 6.34857C2.28614 5.88181 2.197 5.50506 2.197 5.23999C2.197 4.76483 2.49891 4.02636 3.05597 3.2708L3.05626 3.27041C3.296 2.94392 3.56121 2.65012 3.79875 2.44455L3.79923 2.44413C3.91964 2.33939 4.01129 2.27616 4.07309 2.2392C4.0886 2.25128 4.10616 2.2655 4.12584 2.28214C4.20346 2.3478 4.3037 2.44244 4.42447 2.57086C4.6658 2.82747 4.98371 3.21319 5.36073 3.759C5.6568 4.18862 5.92716 4.62892 6.12234 5.00023C6.24437 5.2332 6.31362 5.39337 6.35246 5.49707C6.35572 5.50578 6.35876 5.51406 6.36159 5.52193C6.35145 5.52854 6.34024 5.53559 6.32788 5.54308C6.20023 5.6187 6.02744 5.69401 5.83837 5.77639L5.81961 5.78457L5.81934 5.78469L5.80502 5.79091C5.57698 5.88997 5.31692 6.00293 5.10217 6.14491L5.10162 6.14528C4.73121 6.3916 4.50612 6.72444 4.51501 7.1376L4.51501 7.13791C4.51974 7.34575 4.55483 7.83478 5.38772 9.05746L5.38775 9.0575C5.84609 9.73006 6.43973 10.4599 6.97949 11.013L6.97948 11.013L6.98164 11.0151L6.9898 11.0233L6.98979 11.0233L6.99197 11.0254C7.54506 11.5652 8.27485 12.1588 8.94742 12.6172L8.94746 12.6172C10.17 13.45 10.6575 13.4852 10.8671 13.4899L10.8671 13.49H10.8727H10.8727H10.8727H10.8728H10.8728H10.8728H10.8729H10.8729H10.8729H10.8729H10.873H10.873H10.873H10.8731H10.8731H10.8731H10.8732H10.8732H10.8732H10.8732H10.8733H10.8733H10.8733H10.8734H10.8734H10.8734H10.8734H10.8735H10.8735H10.8735H10.8736H10.8736H10.8736H10.8737H10.8737H10.8737H10.8737H10.8738H10.8738H10.8738H10.8739H10.8739H10.8739H10.874H10.874H10.874H10.874H10.8741H10.8741H10.8741H10.8742H10.8742H10.8742H10.8743H10.8743H10.8743H10.8744H10.8744H10.8744H10.8744H10.8745H10.8745H10.8745H10.8746H10.8746H10.8746H10.8747H10.8747H10.8747H10.8748H10.8748H10.8748H10.8748H10.8749H10.8749H10.8749H10.875H10.875H10.875H10.8751H10.8751H10.8751H10.8752H10.8752H10.8752H10.8752H10.8753H10.8753H10.8753H10.8754H10.8754H10.8754H10.8755H10.8755H10.8755H10.8756H10.8756H10.8756H10.8757H10.8757H10.8757H10.8758H10.8758H10.8758H10.8758H10.8759H10.8759H10.8759H10.876H10.876H10.876H10.8761H10.8761H10.8761H10.8762H10.8762H10.8762H10.8763H10.8763H10.8763H10.8764H10.8764H10.8764H10.8765H10.8765H10.8765H10.8766H10.8766H10.8766H10.8767H10.8767H10.8767H10.8767H10.8768H10.8768H10.8768H10.8769H10.8769H10.8769H10.877H10.877H10.877H10.8771H10.8771H10.8771H10.8772H10.8772H10.8772H10.8773H10.8773H10.8773H10.8774H10.8774H10.8774H10.8775H10.8775H10.8775H10.8776H10.8776H10.8776H10.8777H10.8777H10.8777H10.8778H10.8778H10.8778H10.8779H10.8779H10.8779H10.878H10.878H10.878H10.8781H10.8781H10.8781H10.8782H10.8782H10.8782H10.8783H10.8783H10.8783H10.8784H10.8784H10.8784H10.8785H10.8785H10.8785H10.8786H10.8786H10.8786H10.8787H10.8787H10.8787H10.8787H10.8788H10.8788H10.8788H10.8789H10.8789H10.8789H10.879H10.879H10.879H10.8791H10.8791H10.8791H10.8792H10.8792H10.8792H10.8793H10.8793H10.8793H10.8794H10.8794H10.8794H10.8795H10.8795H10.8795H10.8796H10.8796H10.8796H10.8797H10.8797H10.8797H10.8798H10.8798H10.8798H10.8799H10.8799H10.88H10.88H10.88H10.8801H10.8801H10.8801H10.8802H10.8802H10.8802H10.8803H10.8803H10.8803H10.8804H10.8804H10.8804H10.8805H10.8805H10.8805H10.8806H10.8806H10.8806H10.8807H10.8807H10.8807H10.8808H10.8808H10.8808H10.8809H10.8809H10.8809H10.881H10.881H10.881H10.8811H10.8811H10.8811H10.8812H10.8812H10.8812H10.8813H10.8813H10.8813H10.8814H10.8814H10.8814H10.8815H10.8815H10.8815H10.8816H10.8816H10.8816H10.8817H10.8817H10.8817H10.8818H10.8818H10.8818H10.8819H10.8819H10.8819H10.882H10.882H10.882H10.8821H10.8821H10.8821H10.8822H10.8822H10.8822H10.8823H10.8823H10.8823H10.8824H10.8824H10.8824H10.8825H10.8825H10.8825H10.8826H10.8826H10.8826H10.8827H10.8827H10.8827H10.8828H10.8828H10.8828H10.8829H10.8829H10.8829H10.883H10.883H10.883H10.8831H10.8831H10.8831H10.8832H10.8832H10.8832H10.8833H10.8833H10.8833H10.8834H10.8834H10.8834H10.8835H10.8835H10.8835H10.8836H10.8836H10.8836H10.8837H10.8837H10.8837H10.8838H10.8838H10.8838H10.8838H10.8839H10.8839H10.8839H10.884H10.884H10.884H10.8841H10.8841H10.8841H10.8842H10.8842H10.8842H10.8843H10.8843H10.8843H10.8844H10.8844H10.8844H10.8845H10.8845H10.8845H10.8846H10.8846H10.8846H10.8847H10.8847H10.8847H10.8848H10.8848H10.8848H10.8849H10.8849H10.8849H10.885H10.885H10.885H10.8851H10.8851H10.8851H10.8852H10.8852H10.8852H10.8853H10.8853H10.8853H10.8853H10.8854H10.8854H10.8854H10.8855H10.8855H10.8855H10.8856H10.8856H10.8856H10.8857H10.8857H10.8857H10.8858H10.8858H10.8858H10.8859H10.8859H10.8859H10.886H10.886H10.886H10.886H10.8861H10.8861H10.8861H10.8862H10.8862H10.8862H10.8863H10.8863H10.8863H10.8864H10.8864H10.8864H10.8865H10.8865H10.8865H10.8866H10.8866H10.8866H10.8866H10.8867H10.8867H10.8867H10.8868H10.8868H10.8868H10.8869H10.8869H10.8869H10.887H10.887H10.887H10.887H10.8871H10.8871H10.8871H10.8872H10.8872H10.8872H10.8873H10.8873H10.8873H10.8874H10.8874H10.8874H10.8874H10.8875H10.8875H10.8875H10.8876H10.8876H10.8876H10.8877H10.8877H10.8877H10.8878H10.8878H10.8878H10.8878H10.8879H10.8879H10.8879H10.888H10.888H10.888H10.8881H10.8881H10.8881H10.8881H10.8882H10.8882H10.8882H10.8883H10.8883H10.8883H10.8883H10.8884H10.8884H10.8884H10.8885H10.8885H10.8885H10.8886H10.8886H10.8886H10.8886H10.8887H10.8887H10.8887H10.8888H10.8888H10.8888H10.8888H10.8889H10.8889H10.8889H10.889H10.889L10.889 13.49L10.8904 13.49C11.2954 13.4878 11.6227 13.2627 11.8637 12.8955C12.0068 12.6781 12.1212 12.414 12.2207 12.1829L12.2209 12.1823C12.3037 11.9887 12.384 11.8065 12.4624 11.6745L12.4631 11.6732C12.4699 11.6616 12.4763 11.6511 12.4824 11.6415C12.4904 11.6444 12.4989 11.6475 12.5079 11.6508C12.6116 11.6897 12.7718 11.7589 13.0048 11.881C13.3763 12.0763 13.8181 12.3467 14.2456 12.6423L14.2457 12.6424C14.7916 13.0195 15.1774 13.3375 15.4341 13.5788C15.5625 13.6996 15.6571 13.7998 15.7228 13.8774C15.7393 13.897 15.7535 13.9145 15.7655 13.9299C15.7283 13.9922 15.6651 14.0841 15.5612 14.2035C15.3532 14.4406 15.0603 14.7062 14.7341 14.9473C13.9768 15.5044 13.2384 15.8063 12.7633 15.8063C12.4982 15.8063 12.1215 15.7171 11.6547 15.53C11.1927 15.3447 10.6603 15.0706 10.0897 14.7186ZM4.76495 7.13223C4.75842 6.82856 4.91842 6.56733 5.24005 6.35346C5.43638 6.22365 5.67946 6.11804 5.91483 6.01578L4.76495 7.13223Z" fill="#1062AA" stroke="#1062AA" stroke-width="0.5"/>
</svg>
