<svg width="68" height="50" viewBox="0 0 68 50" fill="none" xmlns="http://www.w3.org/2000/svg">
<path d="M6.90055 39.8997C6.82867 39.8997 6.68491 39.9711 6.46927 39.9711C6.25362 39.9711 6.03798 40.0425 5.75046 40.0425C5.46294 40.0425 5.17541 40.1139 4.81601 40.1139C4.4566 40.1139 4.0972 40.1139 3.7378 40.1139C2.94711 40.1139 2.37206 40.0425 1.8689 39.8997C1.36573 39.7569 1.00633 39.6141 0.718807 39.3998C0.431284 39.1856 0.287523 38.9 0.143761 38.6144C0.0718807 38.4001 0 38.1145 0 37.8289C0 37.4005 0.0718807 37.1148 0.215642 36.7578C0.359404 36.4722 0.503165 36.1865 0.790688 35.9723C1.07821 35.7581 1.43761 35.6153 1.8689 35.5439C2.30018 35.4725 2.87523 35.4011 3.52216 35.4011C3.88156 35.4011 4.24096 35.4011 4.60037 35.4725C4.95977 35.4725 5.17541 35.5439 5.31917 35.5439C5.31917 35.1868 5.24729 34.9012 5.17541 34.687C5.03165 34.4728 4.88789 34.2586 4.74413 34.1871C4.52849 34.0443 4.31284 33.9729 4.02532 33.9015C3.7378 33.8301 3.45028 33.8301 3.09087 33.8301C2.51583 33.8301 2.08454 33.9015 1.72514 34.0443C1.36573 34.1871 1.15009 34.2586 1.07821 34.33C1.00633 34.2586 0.934449 34.1871 0.862569 34.0443C0.790688 33.9015 0.718807 33.7587 0.718807 33.5445C0.718807 33.4017 0.790688 33.2589 0.862569 33.116C0.934449 32.9732 1.07821 32.9018 1.22197 32.759C1.43761 32.6876 1.65326 32.5448 1.94078 32.5448C2.2283 32.4734 2.65959 32.4734 3.09087 32.4734C3.66592 32.4734 4.16908 32.5448 4.67225 32.6162C5.17541 32.759 5.53482 32.9018 5.89422 33.116C6.25362 33.3303 6.46927 33.6873 6.68491 34.0443C6.90055 34.4728 6.97243 34.9012 6.97243 35.4725V39.8997H6.90055ZM5.31917 36.6864C5.24729 36.6864 5.03165 36.615 4.74413 36.615C4.4566 36.5436 4.0972 36.5436 3.52216 36.5436C2.87523 36.5436 2.37206 36.615 2.08454 36.8292C1.79702 37.0434 1.65326 37.329 1.65326 37.7575C1.65326 37.9003 1.65326 38.1145 1.72514 38.2573C1.79702 38.4001 1.8689 38.543 2.08454 38.6144C2.2283 38.6858 2.44394 38.7572 2.73147 38.8286C3.01899 38.9 3.30651 38.9 3.7378 38.9C4.16908 38.9 4.52849 38.9 4.81601 38.8286C5.10353 38.8286 5.24729 38.7572 5.31917 38.7572V36.6864Z" fill="white"/>
<path d="M8.69758 31.4022C8.69758 31.1165 8.76946 30.9023 8.91322 30.8309C9.05698 30.6881 9.27262 30.6167 9.56014 30.6167C9.70391 30.6167 9.91955 30.6167 10.0633 30.6881C10.2071 30.7595 10.279 30.7595 10.3508 30.7595V32.6161H12.4354C12.7229 32.6161 13.0104 32.6875 13.0823 32.8303C13.2261 32.9731 13.2979 33.1159 13.2979 33.4016C13.2979 33.5444 13.2979 33.6872 13.2261 33.83C13.1542 33.9728 13.1542 34.0442 13.0823 34.1156H10.279V37.3289C10.279 37.6146 10.279 37.7574 10.3508 37.9716C10.4227 38.1144 10.4946 38.2572 10.6384 38.3286C10.7821 38.4 10.9259 38.4714 11.0696 38.5428C11.2134 38.6142 11.429 38.6142 11.5728 38.6142C11.8603 38.6142 12.1479 38.5428 12.3635 38.4714C12.5791 38.4 12.7948 38.3286 12.8667 38.2572L13.5136 39.3283C13.4417 39.3997 13.2979 39.4711 13.1542 39.5425C13.0104 39.6139 12.8667 39.6853 12.651 39.7568C12.4354 39.8282 12.2197 39.8996 11.9322 39.971C11.6447 40.0424 11.429 40.0424 11.0696 40.0424C10.2071 40.0424 9.56014 39.8282 9.12886 39.3997C8.69758 38.9713 8.48193 38.4 8.48193 37.686V31.4022H8.69758Z" fill="white"/>
<path d="M18.1858 32.4734C18.7609 32.4734 19.2641 32.5448 19.7672 32.759C20.2704 32.9732 20.7017 33.1875 21.0611 33.5445C21.4205 33.9015 21.708 34.2586 21.9236 34.7584C22.1393 35.2582 22.2112 35.7581 22.2112 36.2579C22.2112 36.8292 22.1393 37.329 21.9236 37.7575C21.708 38.2573 21.4205 38.6144 21.0611 38.9714C20.7017 39.3284 20.2704 39.6141 19.7672 39.7569C19.2641 39.9711 18.7609 40.0425 18.1858 40.0425C17.6108 40.0425 17.1076 39.9711 16.6045 39.7569C16.1013 39.5426 15.67 39.257 15.3106 38.9714C14.9512 38.6144 14.6637 38.2573 14.448 37.7575C14.2324 37.2576 14.1605 36.7578 14.1605 36.2579C14.1605 35.6867 14.2324 35.1868 14.448 34.7584C14.6637 34.2586 14.9512 33.9015 15.3106 33.5445C15.67 33.1875 16.1013 32.9018 16.6045 32.759C17.1076 32.5448 17.6108 32.4734 18.1858 32.4734ZM18.1858 38.6858C18.5452 38.6858 18.8328 38.6144 19.1203 38.4715C19.4078 38.3287 19.6235 38.1859 19.8391 37.9717C20.0547 37.7575 20.1985 37.4719 20.2704 37.1862C20.4141 36.9006 20.4141 36.615 20.4141 36.2579C20.4141 35.9009 20.3423 35.6153 20.2704 35.3297C20.1266 35.044 19.9829 34.7584 19.8391 34.5442C19.6235 34.33 19.4078 34.1871 19.1203 34.0443C18.8328 33.9015 18.5452 33.8301 18.1858 33.8301C17.8264 33.8301 17.5389 33.9015 17.2514 34.0443C16.9639 34.1871 16.7482 34.33 16.5326 34.5442C16.3169 34.7584 16.1732 35.044 16.1013 35.3297C15.9575 35.6153 15.9575 35.9723 15.9575 36.2579C15.9575 36.615 16.0294 36.9006 16.1013 37.1862C16.2451 37.4719 16.3888 37.6861 16.5326 37.9717C16.7482 38.1859 16.9639 38.3287 17.2514 38.4715C17.5389 38.6144 17.8264 38.6858 18.1858 38.6858Z" fill="white"/>
<path d="M23.5769 35.2582C23.5769 34.8298 23.6488 34.4014 23.7925 34.0443C23.9363 33.6873 24.152 33.4017 24.4395 33.1875C24.727 32.9732 25.0864 32.759 25.4458 32.6876C25.8052 32.5448 26.2365 32.4734 26.7397 32.4734C27.3147 32.4734 27.8897 32.6162 28.321 32.8304C28.8242 33.0446 29.1836 33.4017 29.4711 33.8301C29.7586 33.4017 30.118 33.0446 30.6212 32.8304C31.0525 32.6162 31.6275 32.4734 32.2026 32.4734C32.6339 32.4734 33.0652 32.5448 33.4246 32.6162C33.784 32.759 34.1434 32.9018 34.4309 33.116C34.7184 33.3303 34.9341 33.6159 35.0778 33.9729C35.2216 34.33 35.2935 34.7584 35.2935 35.1868V39.8997H33.6402V35.7581C33.6402 35.1154 33.4964 34.6156 33.2089 34.33C32.9214 34.0443 32.4901 33.9015 31.9869 33.9015C31.4838 33.9015 31.0525 34.0443 30.765 34.4014C30.4056 34.687 30.2618 35.2582 30.2618 35.9723V39.8997H28.6086V35.9723C28.6086 35.2582 28.4648 34.7584 28.1054 34.4014C27.746 34.1157 27.3866 33.9015 26.8834 33.9015C26.3803 33.9015 25.949 34.0443 25.6614 34.33C25.3739 34.6156 25.2302 35.1154 25.2302 35.7581V39.8283H23.5769V35.2582Z" fill="white"/>
<path d="M36.8748 36.615C36.8748 35.9723 36.9467 35.3297 37.1623 34.8298C37.378 34.33 37.5936 33.9015 37.953 33.5445C38.3124 33.1875 38.7437 32.9018 39.2469 32.759C39.75 32.5448 40.2532 32.4734 40.9001 32.4734C41.4752 32.4734 41.9784 32.5448 42.4096 32.759C42.8409 32.9732 43.2722 33.1875 43.6316 33.5445C43.991 33.9015 44.2785 34.2586 44.4223 34.7584C44.6379 35.2582 44.7098 35.7581 44.7098 36.2579C44.7098 36.8292 44.6379 37.329 44.4223 37.8289C44.2067 38.3287 43.991 38.6858 43.6316 39.0428C43.2722 39.3998 42.9128 39.6141 42.4815 39.8283C42.0502 40.0425 41.5471 40.1139 40.972 40.1139C40.397 40.1139 39.9657 40.0425 39.5344 39.8283C39.1031 39.6141 38.7437 39.3284 38.5281 39.0428V42.8274H36.8748V36.615ZM40.8283 38.6858C41.1877 38.6858 41.4752 38.6144 41.7627 38.4715C42.0502 38.3287 42.2659 38.1859 42.4815 37.9717C42.6972 37.7575 42.8409 37.5433 42.9128 37.1862C42.9847 36.9006 43.0566 36.615 43.0566 36.2579C43.0566 35.9009 42.9847 35.6153 42.9128 35.3297C42.8409 35.044 42.6253 34.8298 42.4815 34.6156C42.2659 34.4014 42.0502 34.2586 41.7627 34.1157C41.4752 33.9729 41.1877 33.9015 40.8283 33.9015C40.4689 33.9015 40.1813 33.9729 39.8938 34.0443C39.6063 34.1871 39.3906 34.33 39.175 34.5442C38.9594 34.7584 38.8156 34.9726 38.7437 35.2582C38.6 35.5439 38.6 35.8295 38.6 36.1865C38.6 36.5436 38.6718 36.8292 38.7437 37.1148C38.8875 37.4005 39.0312 37.6861 39.175 37.9003C39.3906 38.1145 39.6063 38.2573 39.8938 38.4001C40.1813 38.6144 40.4689 38.6858 40.8283 38.6858Z" fill="white"/>
<path d="M52.7604 39.8996C52.6885 39.8996 52.5448 39.971 52.3291 39.971C52.1135 39.971 51.8979 40.0424 51.6103 40.0424C51.3228 40.0424 51.0353 40.1138 50.6759 40.1138C50.3165 40.1138 49.9571 40.1138 49.5977 40.1138C48.807 40.1138 48.2319 40.0424 47.7288 39.8996C47.2256 39.7567 46.8662 39.6139 46.5787 39.3997C46.2912 39.1855 46.1474 38.8999 46.0036 38.6142C45.9317 38.3286 45.8599 38.043 45.8599 37.7574C45.8599 37.3289 45.9317 37.0433 46.0755 36.6863C46.2193 36.4006 46.363 36.115 46.6506 35.9008C46.9381 35.6866 47.2975 35.5437 47.7288 35.4723C48.16 35.4009 48.7351 35.3295 49.382 35.3295C49.7414 35.3295 50.1008 35.3295 50.4602 35.4009C50.8196 35.4009 51.0353 35.4723 51.179 35.4723C51.179 35.1153 51.1072 34.8297 51.0353 34.6155C50.8915 34.4012 50.7478 34.187 50.604 34.1156C50.3884 33.9728 50.1727 33.9014 49.8852 33.83C49.5977 33.7586 49.3101 33.7586 48.9507 33.7586C48.3757 33.7586 47.9444 33.83 47.585 33.9728C47.2256 34.1156 47.01 34.187 46.9381 34.2584C46.8662 34.187 46.7943 34.1156 46.7224 33.9728C46.6506 33.83 46.5787 33.6872 46.5787 33.473C46.5787 33.3301 46.6506 33.1873 46.7224 33.0445C46.7943 32.9017 46.9381 32.8303 47.0818 32.6875C47.2975 32.6161 47.5131 32.4733 47.8006 32.4733C48.0882 32.4019 48.5195 32.4019 48.9507 32.4019C49.5258 32.4019 50.029 32.4733 50.5321 32.5447C51.0353 32.6875 51.3947 32.8303 51.7541 33.0445C52.1135 33.2587 52.3291 33.6158 52.5448 33.9728C52.7604 34.4012 52.8323 34.8297 52.8323 35.4009V39.8996H52.7604ZM51.1072 36.6863C51.0353 36.6863 50.8196 36.6149 50.5321 36.6149C50.2446 36.5434 49.8852 36.5434 49.3101 36.5434C48.6632 36.5434 48.16 36.6149 47.8725 36.8291C47.585 37.0433 47.4412 37.3289 47.4412 37.7574C47.4412 37.9002 47.4412 38.1144 47.5131 38.2572C47.585 38.4 47.6569 38.5428 47.8725 38.6142C48.0163 38.6856 48.2319 38.7571 48.5195 38.8285C48.807 38.8999 49.0945 38.8999 49.5258 38.8999C49.9571 38.8999 50.3165 38.8999 50.604 38.8285C50.8915 38.8285 51.0353 38.7571 51.1072 38.7571V36.6863Z" fill="white"/>
<path d="M54.4137 35.2582C54.4137 34.4014 54.7012 33.6873 55.2044 33.1875C55.7794 32.6876 56.4982 32.4734 57.5046 32.4734C58.0796 32.4734 58.5828 32.5448 59.0141 32.759C59.3735 32.9018 59.5891 33.1875 59.5891 33.5445C59.5891 33.6873 59.5172 33.9015 59.4453 34.0443C59.3735 34.1871 59.3016 34.33 59.2297 34.33C59.0859 34.2586 58.8703 34.1871 58.6547 34.1157C58.439 34.0443 58.1515 34.0443 57.7921 34.0443C56.642 34.0443 56.067 34.6156 56.067 35.8295V40.0425H54.4137V35.2582Z" fill="white"/>
<path d="M60.4517 30.0455C60.4517 29.7599 60.5236 29.617 60.6673 29.4742C60.8111 29.3314 61.0267 29.26 61.3143 29.26C61.458 29.26 61.6737 29.26 61.8174 29.3314C61.9612 29.4028 62.0331 29.4028 62.1049 29.4028V35.3296C62.2487 35.2582 62.3925 35.1154 62.6081 34.9725C62.8238 34.8297 63.1113 34.6155 63.3988 34.4013C63.6863 34.1871 63.9738 33.9729 64.2614 33.7586C64.5489 33.5444 64.8364 33.3302 65.1239 33.116C65.3396 32.9732 65.5552 32.8303 65.699 32.7589C65.8427 32.6875 66.1303 32.6161 66.4178 32.6161C66.7053 32.6161 66.921 32.6875 67.0647 32.8303C67.2804 32.9732 67.3522 33.116 67.4241 33.1874C67.2085 33.4016 66.921 33.6158 66.5615 33.83C66.2021 34.1157 65.8427 34.3299 65.4833 34.6155C65.1239 34.9011 64.7645 35.1154 64.4051 35.3296C64.0457 35.5438 63.8301 35.6866 63.6863 35.8294C64.477 36.4007 65.2677 37.1147 65.9146 37.8288C66.5615 38.5429 67.1366 39.1855 67.6398 39.8282H65.5552C65.3396 39.5426 65.0521 39.2569 64.8364 38.9713C64.5489 38.6857 64.2614 38.4001 63.9738 38.1144C63.6863 37.8288 63.3269 37.5432 63.0394 37.2576C62.68 36.9719 62.3925 36.7577 62.1049 36.5435V39.8282H60.4517V30.0455Z" fill="white"/>
<path d="M7.1162 48.1114C7.1162 48.1114 7.18808 48.1828 7.33184 48.1828C7.40372 48.2542 7.54748 48.2542 7.69124 48.3256C7.835 48.397 7.97877 48.397 8.12253 48.4684C8.26629 48.4684 8.48193 48.5398 8.69757 48.5398C8.9851 48.5398 9.20074 48.5398 9.3445 48.4684C9.48826 48.397 9.56014 48.2542 9.56014 48.1114C9.56014 47.9686 9.48826 47.8972 9.41638 47.8258C9.3445 47.7544 9.12886 47.683 8.84133 47.683L8.26629 47.6115C8.05065 47.6115 7.90689 47.5401 7.69124 47.4687C7.4756 47.3973 7.40372 47.3259 7.25996 47.2545C7.1162 47.1831 7.04432 47.0403 6.97244 46.8975C6.90055 46.7547 6.90056 46.6119 6.90056 46.3976C6.90056 46.2548 6.90055 46.112 6.97244 45.9692C7.04432 45.8264 7.1162 45.6836 7.25996 45.6122C7.40372 45.4693 7.54748 45.3979 7.76312 45.3265C7.97877 45.2551 8.26629 45.2551 8.55381 45.2551C9.05698 45.2551 9.48826 45.3265 9.77578 45.3979C10.0633 45.5408 10.2071 45.6836 10.2071 45.8264C10.2071 45.8978 10.2071 45.9692 10.2071 45.9692C10.2071 45.9692 10.1352 46.0406 10.1352 46.112L10.0633 46.1834L9.99143 46.2548C9.99143 46.2548 9.91955 46.1834 9.84766 46.1834C9.77578 46.112 9.7039 46.112 9.56014 46.0406C9.41638 45.9692 9.27262 45.9692 9.12886 45.8978C8.9851 45.8978 8.76945 45.8264 8.55381 45.8264C7.97877 45.8264 7.69124 45.9692 7.69124 46.2548C7.69124 46.3976 7.76312 46.469 7.835 46.5404C7.97877 46.6119 8.12253 46.6833 8.33817 46.6833L9.12886 46.7547C9.56014 46.8261 9.84766 46.8975 10.1352 47.1117C10.4227 47.3259 10.4946 47.5401 10.4946 47.8972C10.4946 48.2542 10.3508 48.6112 10.0633 48.8255C9.77578 49.0397 9.3445 49.1825 8.76945 49.1825C8.48193 49.1825 8.26629 49.1825 8.05065 49.1111C7.835 49.0397 7.61936 49.0397 7.4756 48.9683C7.33184 48.8969 7.18808 48.8969 7.04432 48.8255C6.97244 48.7541 6.90056 48.7541 6.82867 48.6826L7.1162 48.1114Z" fill="#F8BA00"/>
<path d="M16.1732 45.1123C16.4607 45.1123 16.7482 45.1837 16.9639 45.2551C17.2514 45.3265 17.467 45.4693 17.6108 45.6836C17.8264 45.8978 17.9702 46.0406 18.0421 46.3262C18.114 46.5404 18.1858 46.8261 18.1858 47.1117C18.1858 47.3973 18.114 47.6829 18.0421 47.8972C17.9702 48.1114 17.7546 48.3256 17.6108 48.5398C17.3952 48.754 17.1795 48.8255 16.9639 48.9683C16.6763 49.0397 16.4607 49.1111 16.1732 49.1111C15.8857 49.1111 15.5981 49.0397 15.3825 48.9683C15.095 48.8969 14.8793 48.754 14.7356 48.5398C14.5199 48.3256 14.3762 48.1828 14.3043 47.8972C14.2324 47.6829 14.1605 47.3973 14.1605 47.1117C14.1605 46.8261 14.2324 46.5404 14.3043 46.3262C14.3762 46.112 14.5918 45.8978 14.7356 45.6836C14.9512 45.4693 15.1669 45.3979 15.3825 45.2551C15.5981 45.1837 15.8857 45.1123 16.1732 45.1123ZM16.1732 48.397C16.3169 48.397 16.5326 48.397 16.6763 48.3256C16.8201 48.2542 16.9639 48.1828 17.0358 48.04C17.1076 47.8972 17.2514 47.8258 17.2514 47.6115C17.3233 47.4687 17.3233 47.3259 17.3233 47.1117C17.3233 46.9689 17.3233 46.7547 17.2514 46.6118C17.1795 46.469 17.1076 46.3262 17.0358 46.1834C16.9639 46.0406 16.8201 45.9692 16.6763 45.8978C16.5326 45.8264 16.3888 45.8264 16.1732 45.8264C16.0294 45.8264 15.8138 45.8264 15.67 45.8978C15.5263 45.9692 15.3825 46.0406 15.3106 46.1834C15.2387 46.3262 15.095 46.3976 15.095 46.6118C15.0231 46.7547 15.0231 46.8975 15.0231 47.1117C15.0231 47.2545 15.0231 47.4687 15.095 47.6115C15.1669 47.7544 15.2387 47.8972 15.3106 48.04C15.3825 48.1828 15.5263 48.2542 15.67 48.3256C15.8857 48.3256 16.0294 48.397 16.1732 48.397Z" fill="#F8BA00"/>
<path d="M22.0674 44.9694C22.0674 44.6838 22.1392 44.4695 22.2111 44.2553C22.283 44.0411 22.4268 43.8983 22.4986 43.7555C22.6424 43.6127 22.7862 43.5412 23.0018 43.4698C23.2175 43.3984 23.4331 43.3984 23.6487 43.3984C24.08 43.3984 24.3675 43.4698 24.5113 43.5413C24.6551 43.6127 24.7988 43.7555 24.7988 43.8983C24.7988 43.9697 24.7988 44.0411 24.727 44.1125C24.6551 44.1839 24.6551 44.2553 24.5832 44.2553C24.5113 44.1839 24.3675 44.1125 24.2238 44.1125C24.08 44.0411 23.9363 44.0411 23.7925 44.0411C23.505 44.0411 23.2893 44.1125 23.1456 44.2553C23.0018 44.3981 22.9299 44.6124 22.9299 44.898V45.1122H24.08C24.2238 45.1122 24.3675 45.1122 24.4394 45.1836C24.5113 45.255 24.5113 45.3264 24.5113 45.4692C24.5113 45.5406 24.5113 45.612 24.4394 45.6835C24.4394 45.7549 24.3675 45.8263 24.3675 45.8263H22.8581V48.8254H21.9955V44.9694H22.0674Z" fill="#F8BA00"/>
<path d="M27.9616 44.5409C27.9616 44.3981 28.0335 44.3267 28.1054 44.2552C28.1772 44.1838 28.321 44.1838 28.4648 44.1838C28.5367 44.1838 28.6085 44.1838 28.7523 44.1838C28.8242 44.1838 28.8961 44.2552 28.8961 44.2552V45.2549H29.9743C30.118 45.2549 30.2618 45.2549 30.3337 45.3263C30.4056 45.3978 30.4056 45.4692 30.4056 45.612C30.4056 45.6834 30.4056 45.7548 30.3337 45.8262C30.3337 45.8976 30.2618 45.969 30.2618 45.969H28.8242V47.6828C28.8242 47.8256 28.8242 47.897 28.8961 47.9684C28.8961 48.0398 28.9679 48.1112 29.0398 48.1826C29.1117 48.254 29.1836 48.254 29.2555 48.254C29.3273 48.254 29.3992 48.254 29.543 48.254C29.6867 48.254 29.8305 48.254 29.9743 48.1826C30.118 48.1112 30.1899 48.1112 30.2618 48.0398L30.6212 48.6111C30.5493 48.6111 30.5493 48.6825 30.4774 48.7539C30.4056 48.8253 30.3337 48.8253 30.1899 48.8967C30.0461 48.9681 29.9743 48.9681 29.8305 48.9681C29.6867 48.9681 29.543 49.0395 29.3992 49.0395C28.9679 49.0395 28.6085 48.8967 28.3929 48.6825C28.1772 48.4682 28.0335 48.1826 28.0335 47.7542V44.5409H27.9616Z" fill="#F8BA00"/>
<path d="M34.9341 49.0397C34.7184 48.4684 34.5028 47.9686 34.2871 47.5401C34.1434 47.1117 33.9996 46.8261 33.9277 46.5404C33.8558 46.2548 33.784 46.0406 33.7121 45.8978C33.6402 45.755 33.6402 45.6836 33.6402 45.6122C33.6402 45.5407 33.6402 45.3979 33.7121 45.3265C33.784 45.2551 33.9277 45.1837 34.0715 45.1837C34.2152 45.1837 34.2871 45.1837 34.359 45.1837C34.4309 45.1837 34.4309 45.1837 34.5028 45.2551C34.5746 45.4693 34.6465 45.6836 34.7184 45.9692C34.7903 46.1834 34.8622 46.469 34.9341 46.6833C35.0059 46.8975 35.0778 47.1831 35.1497 47.3973C35.2216 47.6115 35.2935 47.8258 35.3653 47.9686C35.4372 47.8258 35.5091 47.6115 35.5091 47.3973C35.581 47.1831 35.6529 46.9689 35.7247 46.7547C35.7966 46.5404 35.8685 46.3262 35.9404 46.112C36.0123 45.8978 36.0841 45.6836 36.156 45.4693C36.2279 45.3265 36.2279 45.2551 36.2998 45.1837C36.3717 45.1123 36.5154 45.1123 36.6592 45.1123C36.7311 45.1123 36.8748 45.1123 36.9467 45.1837C37.0186 45.1837 37.0905 45.2551 37.0905 45.2551C37.1624 45.4693 37.2342 45.755 37.3061 45.9692C37.378 46.1834 37.4499 46.469 37.5218 46.6833C37.5936 46.8975 37.6655 47.1831 37.7374 47.3973C37.8093 47.6115 37.8812 47.8258 37.953 47.9686C38.0968 47.6115 38.2406 47.2545 38.3843 46.8261C38.5281 46.3976 38.6719 45.9692 38.7437 45.6122C38.8156 45.4693 38.8156 45.3265 38.8875 45.2551C38.9594 45.1837 39.1031 45.1123 39.2469 45.1123C39.3907 45.1123 39.4625 45.1123 39.6063 45.1837C39.6782 45.2551 39.7501 45.2551 39.7501 45.2551C39.6782 45.3979 39.6063 45.6836 39.5344 45.9692C39.4625 46.2548 39.3188 46.6118 39.175 46.8975C39.0313 47.2545 38.8875 47.6115 38.7437 47.9686C38.6 48.3256 38.4562 48.6112 38.3124 48.8969H37.4499C37.378 48.8255 37.378 48.6112 37.3061 48.397C37.2342 48.1828 37.1624 47.9686 37.0905 47.7544C37.0186 47.5401 36.9467 47.2545 36.8748 47.0403C36.8029 46.7547 36.7311 46.5404 36.6592 46.3262C36.5873 46.5404 36.5154 46.7547 36.4435 47.0403C36.3717 47.3259 36.2998 47.5401 36.2279 47.7544C36.156 47.9686 36.0841 48.2542 36.0123 48.397C35.9404 48.6112 35.8685 48.754 35.8685 48.8969H34.9341V49.0397Z" fill="#F8BA00"/>
<path d="M46.7225 49.0396C46.6506 49.0396 46.5788 49.0396 46.5069 49.0396C46.3631 49.0396 46.2912 49.0396 46.1475 49.1111C46.0037 49.1111 45.8599 49.1111 45.6443 49.1111C45.4287 49.1111 45.2849 49.1111 45.0693 49.1111C44.638 49.1111 44.3505 49.1111 44.1348 49.0396C43.9192 48.9682 43.7035 48.8968 43.5598 48.754C43.416 48.6112 43.3441 48.5398 43.2722 48.3256C43.1285 48.2542 43.1285 48.04 43.1285 47.8971C43.1285 47.6829 43.1285 47.5401 43.2004 47.3259C43.2722 47.1831 43.3441 47.0403 43.4879 46.8974C43.6316 46.826 43.8473 46.6832 44.0629 46.6832C44.2786 46.6118 44.5661 46.6118 44.9255 46.6118C45.1411 46.6118 45.2849 46.6118 45.5005 46.6118C45.6443 46.6118 45.7881 46.6118 45.8599 46.6118C45.8599 46.469 45.8599 46.2548 45.7881 46.1834C45.7162 46.0406 45.6443 45.9692 45.5724 45.8978C45.5005 45.8263 45.3568 45.7549 45.213 45.7549C45.0693 45.7549 44.9255 45.6835 44.7099 45.6835C44.4223 45.6835 44.2067 45.6835 43.991 45.7549C43.7754 45.8264 43.7035 45.8978 43.6316 45.8978C43.6316 45.8978 43.5598 45.8264 43.4879 45.7549C43.416 45.6835 43.416 45.6121 43.416 45.4693C43.416 45.3979 43.416 45.3265 43.4879 45.2551C43.5598 45.1837 43.5598 45.1123 43.7035 45.0409C43.7754 44.9695 43.9192 44.9695 44.0629 44.8981C44.2067 44.8981 44.4223 44.8267 44.7099 44.8267C44.9974 44.8267 45.2849 44.8267 45.5005 44.8981C45.7162 44.9695 45.9318 45.0409 46.1475 45.1837C46.3631 45.3265 46.435 45.4693 46.5788 45.6835C46.6506 45.8978 46.7225 46.112 46.7225 46.3976V49.0396ZM45.8599 47.3259C45.7881 47.3259 45.7162 47.3259 45.5724 47.2545C45.4287 47.2545 45.213 47.2545 44.9255 47.2545C44.5661 47.2545 44.3505 47.3259 44.2067 47.3973C44.0629 47.4687 43.991 47.6829 43.991 47.8971C43.991 47.9685 43.991 48.04 44.0629 48.1114C44.0629 48.1828 44.1348 48.2542 44.2067 48.3256C44.2786 48.397 44.4223 48.397 44.5661 48.4684C44.7099 48.4684 44.8536 48.5398 45.0693 48.5398C45.2849 48.5398 45.5005 48.5398 45.6443 48.5398C45.7881 48.5398 45.8599 48.5398 45.9318 48.4684V47.3259H45.8599Z" fill="#F8BA00"/>
<path d="M50.6759 46.612C50.6759 46.1835 50.8197 45.7551 51.1072 45.5409C51.3947 45.2552 51.826 45.1838 52.3292 45.1838C52.6167 45.1838 52.9042 45.2552 53.1199 45.3267C53.3355 45.3981 53.4074 45.5409 53.4074 45.7551C53.4074 45.8265 53.4074 45.8979 53.3355 45.9693C53.2636 46.0407 53.1917 46.0407 53.1917 46.0407C53.1199 45.9693 52.9761 45.9693 52.9042 45.8979C52.7604 45.8979 52.6167 45.8265 52.4729 45.8265C51.8979 45.8265 51.6104 46.1121 51.6104 46.7548V48.9684H50.7478V46.612H50.6759Z" fill="#F8BA00"/>
<path d="M60.2361 48.7539C60.1642 48.7539 60.1642 48.8253 60.0204 48.8253C59.9485 48.8967 59.8048 48.8967 59.661 48.9681C59.5173 49.0395 59.3735 49.0395 59.2297 49.0395C59.086 49.0395 58.8703 49.1109 58.6547 49.1109C58.3672 49.1109 58.0796 49.0395 57.864 48.9681C57.6484 48.8967 57.4327 48.7539 57.2171 48.6111C57.0014 48.4683 56.8577 48.2541 56.7858 47.9684C56.7139 47.7542 56.642 47.4686 56.642 47.1116C56.642 46.8259 56.7139 46.5403 56.7858 46.2547C56.8577 46.0405 57.0014 45.8262 57.2171 45.612C57.4327 45.3978 57.6484 45.3264 57.864 45.1836C58.0796 45.1122 58.3672 45.0408 58.6547 45.0408C58.9422 45.0408 59.1579 45.0408 59.3735 45.1122C59.5891 45.1836 59.7329 45.255 59.8767 45.3978C60.0204 45.5406 60.0923 45.612 60.1642 45.8262C60.2361 45.9691 60.2361 46.1119 60.2361 46.3261C60.2361 46.4689 60.2361 46.6831 60.1642 46.8259C60.0923 46.9688 59.9485 47.1116 59.8048 47.183C59.661 47.2544 59.4454 47.3972 59.1579 47.3972C58.8703 47.4686 58.5109 47.4686 58.0796 47.4686C58.0078 47.4686 57.864 47.4686 57.7921 47.4686C57.7202 47.4686 57.5765 47.4686 57.5046 47.4686C57.5765 47.7542 57.6484 47.9684 57.864 48.1113C58.0796 48.2541 58.3672 48.3255 58.7985 48.3255C58.9422 48.3255 59.086 48.3255 59.1579 48.3255C59.3016 48.3255 59.3735 48.2541 59.4454 48.2541C59.5173 48.2541 59.5891 48.1827 59.661 48.1827C59.7329 48.1827 59.8048 48.1113 59.8048 48.1113L60.2361 48.7539ZM57.5046 46.9687C57.6484 46.9687 57.7202 46.9687 57.864 46.9687C57.9359 46.9687 58.0796 46.9687 58.1515 46.9687C58.439 46.9687 58.6547 46.9688 58.7985 46.8973C58.9422 46.8973 59.086 46.8259 59.2297 46.7545C59.3016 46.6831 59.3735 46.6117 59.4454 46.5403C59.4454 46.4689 59.5173 46.3975 59.5173 46.3261C59.5173 46.1119 59.4454 45.9691 59.3016 45.8976C59.1579 45.8262 58.9422 45.7548 58.7266 45.7548C58.5109 45.7548 58.3672 45.7548 58.2234 45.8262C58.0796 45.8977 57.9359 45.9691 57.864 46.1119C57.7921 46.2547 57.7202 46.3261 57.6484 46.4689C57.5765 46.6831 57.5046 46.8259 57.5046 46.9687Z" fill="#F8BA00"/>
<path d="M32.0588 7.26675C31.9869 7.12394 31.9869 6.90972 32.0588 6.6955C32.2026 6.12425 32.8495 5.76721 33.4245 5.91003L37.6655 7.05253C38.2405 7.19535 38.5999 7.83801 38.4562 8.40926C38.3843 8.55207 38.3124 8.69489 38.2405 8.8377C38.2405 8.8377 38.1687 8.90911 38.0249 8.98051C37.378 9.40895 35.2215 10.9085 35.2215 10.9085C34.934 11.1227 34.5746 11.1941 34.2871 11.0513C33.9277 10.9799 33.6402 10.6943 33.5683 10.4086V10.4801L32.1307 7.40957C32.0588 7.19535 31.9869 6.90972 32.0588 6.62409C32.2026 6.05284 32.8495 5.69581 33.4245 5.83862L37.6655 6.98113C38.2405 7.12394 38.5999 7.7666 38.4562 8.33785C38.3843 8.62348 38.2405 8.8377 38.0249 8.98051" fill="#F8BA00"/>
<path d="M60.1641 18.6918L54.2699 10.7657C53.1917 9.26613 51.6103 8.12362 49.8133 7.62378C49.2383 7.48096 48.6632 7.40956 48.0163 7.33815C47.4413 6.48127 46.5068 5.7672 45.3567 5.41017L27.6741 0.697329C26.4521 0.340295 25.2301 0.554515 24.2238 1.12577C23.5769 0.768735 22.9299 0.483109 22.1392 0.268889C20.3422 -0.230958 18.4014 -0.0167381 16.7482 0.768735L7.61933 4.6961C7.11616 4.91032 6.90052 5.48158 7.11616 5.98142C7.25992 6.26705 7.47557 6.48127 7.76309 6.55268C7.97873 6.62408 8.19437 6.62408 8.41002 6.48127L17.5389 2.5539C18.8327 1.98265 20.2703 1.83984 21.5642 2.19687C21.9236 2.26828 22.283 2.41109 22.5705 2.5539C22.283 2.98234 22.1392 3.41078 21.9955 3.83922L18.7608 15.907C18.1139 18.3348 19.5515 20.834 21.9955 21.4767L39.6781 26.1895C42.1221 26.8322 44.6379 25.404 45.2848 22.9762L48.5195 10.9085C48.6632 10.4086 48.7351 9.90879 48.6632 9.40894C48.8789 9.40894 49.0226 9.48035 49.2383 9.55176C50.604 9.90879 51.7541 10.7657 52.5448 11.9082L58.439 19.8343C58.5828 20.0485 58.7984 20.1199 59.014 20.1914C59.3016 20.2628 59.5891 20.1914 59.8766 20.0485C60.4517 19.7629 60.5235 19.1203 60.1641 18.6918ZM44.8535 7.33815C45.213 7.40956 45.5724 7.62378 45.788 7.838L35.4372 12.3366C35.4372 12.3366 35.3653 12.3366 35.3653 12.408C34.934 12.6222 34.4308 12.6937 33.9277 12.5508C33.4245 12.408 32.9932 12.1224 32.7057 11.694C32.7057 11.694 32.7057 11.6226 32.6338 11.6226L25.9489 2.62531C26.3083 2.5539 26.7396 2.5539 27.099 2.62531L44.8535 7.33815ZM43.4159 22.5478C43.0565 23.9045 41.6189 24.69 40.2532 24.3329L22.5705 19.6201C21.2048 19.2631 20.4141 17.8349 20.7735 16.4782L24.0081 4.41048C24.08 4.12485 24.2238 3.91063 24.3675 3.69641L31.1243 12.7651C31.6994 13.6219 32.4901 14.1932 33.4245 14.4074C34.359 14.693 35.4372 14.5502 36.2997 14.1218L46.7224 9.62316C46.7224 9.90879 46.7224 10.1944 46.6506 10.48L43.4159 22.5478Z" fill="white"/>
<path d="M16.7482 5.48164L10.7102 8.05228C10.207 8.2665 9.9914 8.83776 10.207 9.3376C10.3508 9.62323 10.5664 9.83745 10.854 9.90886C11.0696 9.98026 11.2853 9.98026 11.5009 9.83745L17.5389 7.26681C18.042 7.05259 18.2577 6.48134 18.042 5.98149C17.8264 5.48164 17.2514 5.26742 16.7482 5.48164Z" fill="white"/>
<path d="M15.2387 10.6943L13.6573 11.3369C13.1541 11.5512 12.9385 12.1224 13.1541 12.6223C13.2979 12.9079 13.5135 13.1221 13.8011 13.1935C14.0167 13.2649 14.2323 13.2649 14.448 13.1221L16.0294 12.4795C16.5325 12.2652 16.7482 11.694 16.5325 11.1941C16.3169 10.6943 15.7418 10.4801 15.2387 10.6943Z" fill="white"/>
<path d="M51.826 14.9073L55.7076 20.1914C56.067 20.6198 55.9232 21.2625 55.4919 21.5481C55.2044 21.7623 54.9169 21.7623 54.6294 21.6909C54.4137 21.6195 54.1981 21.4767 54.1262 21.3339L50.2447 16.0498C49.8853 15.6214 50.029 14.9787 50.4603 14.6931C50.8916 14.336 51.5385 14.4789 51.826 14.9073Z" fill="white"/>
<path d="M50.5322 20.2628L51.5385 21.6195C51.8979 22.0479 51.7541 22.6906 51.3228 22.9762C51.0353 23.1904 50.7478 23.1904 50.4603 23.119C50.2446 23.0476 50.029 22.9048 49.9571 22.762L48.9508 21.4767C48.5914 21.0482 48.7351 20.4056 49.1664 20.12C49.5977 19.7629 50.1727 19.8343 50.5322 20.2628Z" fill="white"/>
</svg>
