<svg width="24" height="24" viewBox="0 0 24 24" fill="none" xmlns="http://www.w3.org/2000/svg">
<path d="M18.7552 14.471C18.2897 13.9732 17.7284 13.707 17.1334 13.707C16.5432 13.707 15.977 13.9683 15.4924 14.466L13.9762 16.0186C13.8514 15.9496 13.7267 15.8855 13.6067 15.8214C13.434 15.7327 13.2709 15.6489 13.1317 15.5602C11.7115 14.6336 10.4208 13.4261 9.18283 11.8637C8.58306 11.085 8.18001 10.4295 7.88733 9.76413C8.28078 9.39449 8.64544 9.01005 9.0005 8.64041C9.13485 8.5024 9.2692 8.35947 9.40355 8.22147C10.4112 7.18646 10.4112 5.84587 9.40355 4.81086L8.09365 3.46535C7.9449 3.31256 7.79136 3.15484 7.64742 2.99713C7.35953 2.69155 7.05724 2.37612 6.74536 2.0804C6.27994 1.60726 5.72336 1.3559 5.13798 1.3559C4.5526 1.3559 3.98642 1.60726 3.5066 2.0804C3.50181 2.08533 3.50181 2.08533 3.49701 2.09026L1.86563 3.78078C1.25147 4.41164 0.901202 5.18051 0.824431 6.07259C0.709275 7.51175 1.12192 8.85234 1.4386 9.72963C2.2159 11.8834 3.37705 13.8795 5.10919 16.0186C7.21079 18.5962 9.73942 20.6318 12.6279 22.066C13.7315 22.6032 15.2045 23.239 16.8503 23.3474C16.9511 23.3524 17.0566 23.3573 17.1526 23.3573C18.261 23.3573 19.1918 22.9482 19.9211 22.135C19.9259 22.1251 19.9355 22.1202 19.9403 22.1103C20.1898 21.7998 20.4777 21.5189 20.78 21.2183C20.9863 21.0162 21.1974 20.8043 21.4038 20.5825C21.8788 20.0748 22.1283 19.4834 22.1283 18.8772C22.1283 18.266 21.874 17.6795 21.3894 17.1866L18.7552 14.471ZM20.4729 19.6608C20.4681 19.6608 20.4681 19.6657 20.4729 19.6608C20.2858 19.8678 20.0939 20.0551 19.8875 20.2621C19.5757 20.5677 19.259 20.888 18.9615 21.2478C18.4769 21.7801 17.9059 22.0315 17.1574 22.0315C17.0854 22.0315 17.0086 22.0315 16.9367 22.0266C15.5116 21.9329 14.1873 21.3612 13.1941 20.8733C10.4783 19.5228 8.09365 17.6056 6.11201 15.1758C4.47583 13.1501 3.38185 11.2772 2.65733 9.26634C2.2111 8.03911 2.04796 7.08296 2.11994 6.18102C2.16792 5.60437 2.38383 5.1263 2.78208 4.71722L4.41826 3.03656C4.65337 2.80984 4.90287 2.68663 5.14758 2.68663C5.44986 2.68663 5.69457 2.87391 5.84811 3.03163C5.85291 3.03656 5.8577 3.04149 5.8625 3.04642C6.15519 3.32735 6.43348 3.61814 6.72617 3.92864C6.87491 4.08636 7.02846 4.24407 7.182 4.40672L8.4919 5.75223C9.0005 6.27467 9.0005 6.75767 8.4919 7.28011C8.35275 7.42304 8.2184 7.56596 8.07925 7.70397C7.67621 8.12783 7.29235 8.52212 6.87491 8.90655C6.86532 8.91641 6.85572 8.92134 6.85092 8.93119C6.43828 9.35506 6.51505 9.76906 6.60142 10.05C6.60622 10.0648 6.61102 10.0796 6.61581 10.0943C6.95648 10.9421 7.4363 11.7405 8.16562 12.6917L8.17042 12.6967C9.49471 14.3724 10.891 15.6785 12.4312 16.679C12.6279 16.8071 12.8294 16.9106 13.0214 17.0092C13.1941 17.0979 13.3572 17.1817 13.4964 17.2704C13.5156 17.2803 13.5348 17.2951 13.554 17.3049C13.7171 17.3887 13.8706 17.4281 14.029 17.4281C14.4272 17.4281 14.6767 17.1719 14.7583 17.0881L16.3993 15.4025C16.5624 15.2349 16.8215 15.0328 17.1238 15.0328C17.4213 15.0328 17.666 15.225 17.8147 15.3926C17.8195 15.3976 17.8195 15.3976 17.8243 15.4025L20.4681 18.1182C20.9623 18.6209 20.9623 19.1384 20.4729 19.6608Z" fill="white"/>
<path d="M13.0722 5.56C14.3294 5.77686 15.4713 6.38801 16.383 7.32445C17.2946 8.26089 17.8848 9.4339 18.1007 10.7252C18.1535 11.0505 18.427 11.2772 18.7389 11.2772C18.7773 11.2772 18.8109 11.2723 18.8492 11.2674C19.2043 11.2082 19.4394 10.8632 19.3818 10.4985C19.1227 8.93611 18.403 7.51174 17.3042 6.38308C16.2054 5.25443 14.8188 4.51514 13.2978 4.24899C12.9427 4.18985 12.6116 4.43135 12.5492 4.79114C12.4869 5.15093 12.7172 5.50086 13.0722 5.56Z" fill="white"/>
<path d="M23.4975 10.3063C23.0705 7.73356 21.8901 5.39246 20.0764 3.52944C18.2627 1.66642 15.9836 0.45398 13.4789 0.0153318C13.1287 -0.0487403 12.7976 0.197691 12.7352 0.557481C12.6777 0.922199 12.9128 1.26227 13.2678 1.32635C15.5038 1.71571 17.543 2.80493 19.1648 4.46588C20.7866 6.13176 21.8421 8.22642 22.2212 10.5232C22.274 10.8485 22.5475 11.0752 22.8594 11.0752C22.8977 11.0752 22.9313 11.0702 22.9697 11.0653C23.32 11.0111 23.5599 10.6661 23.4975 10.3063Z" fill="white"/>
</svg>
