<svg width="42" height="34" viewBox="0 0 42 34" fill="none" xmlns="http://www.w3.org/2000/svg">
<path d="M10.7338 28.8217L22.9378 10.5108C23.2309 10.0627 23.6311 9.69463 24.1021 9.43989C24.5731 9.18515 25.1002 9.05176 25.6357 9.05176C26.1712 9.05176 26.6983 9.18515 27.1693 9.43989C27.6403 9.69463 28.0405 10.0627 28.3336 10.5108L40.3136 29.0165C40.5657 29.4059 40.7081 29.856 40.726 30.3194C40.7439 30.7829 40.6366 31.2427 40.4153 31.6503C40.1941 32.058 39.867 32.3984 39.4686 32.636C39.0702 32.8735 38.6152 32.9993 38.1514 33.0001H13.0226C12.5382 32.9934 12.0642 32.8583 11.6491 32.6085C11.2339 32.3587 10.8925 32.0032 10.6598 31.5783C10.427 31.1534 10.3112 30.6743 10.3242 30.19C10.3372 29.7057 10.4786 29.2335 10.7338 28.8217Z" fill="#F7B916"/>
<path d="M1.59857 26.8055L17.5524 2.90394C17.935 2.31915 18.4573 1.83887 19.072 1.50647C19.6867 1.17406 20.3745 1 21.0734 1C21.7722 1 22.46 1.17406 23.0747 1.50647C23.6894 1.83887 24.2117 2.31915 24.5943 2.90394L40.1975 27.1464C40.5266 27.6548 40.7126 28.2426 40.7359 28.8479C40.7592 29.4531 40.6189 30.0535 40.3298 30.5857C40.0408 31.118 39.6136 31.5625 39.0933 31.8725C38.5729 32.1826 37.9786 32.3466 37.3729 32.3474H4.56922C3.92364 32.3482 3.28996 32.1737 2.73583 31.8425C2.18169 31.5113 1.7279 31.0358 1.42291 30.4668C1.11791 29.8978 0.973158 29.2567 1.0041 28.6118C1.03504 27.967 1.24051 27.3426 1.59857 26.8055V26.8055Z" stroke="#333333" stroke-width="2" stroke-linecap="round" stroke-linejoin="round"/>
<path d="M14.689 18.556C14.689 18.556 17.9908 22.0721 20.6497 24.624C22.8607 21.6241 24.9255 18.8677 26.9027 15.936" stroke="#333333" stroke-width="2" stroke-linecap="round" stroke-linejoin="round"/>
</svg>
