<svg width="35" height="34" viewBox="0 0 35 34" fill="none" xmlns="http://www.w3.org/2000/svg">
<path d="M19.1046 26.6284C23.6146 26.6284 27.2706 22.9724 27.2706 18.4624C27.2706 13.9524 23.6146 10.2964 19.1046 10.2964C14.5946 10.2964 10.9386 13.9524 10.9386 18.4624C10.9386 22.9724 14.5946 26.6284 19.1046 26.6284Z" fill="#F7B916"/>
<path d="M17.3815 25.2451C21.8914 25.2451 25.5475 21.5891 25.5475 17.0791C25.5475 12.5691 21.8914 8.91309 17.3815 8.91309C12.8715 8.91309 9.21545 12.5691 9.21545 17.0791C9.21545 21.5891 12.8715 25.2451 17.3815 25.2451Z" stroke="#333333" stroke-width="2" stroke-linecap="round" stroke-linejoin="round"/>
<path d="M1.13612 12.6443C1.95299 12.826 2.80621 12.7486 3.577 12.4227C4.34779 12.0968 4.99779 11.5387 5.43651 10.8261C5.84275 10.0954 6.01225 9.25659 5.92164 8.42546C5.83102 7.59432 5.48475 6.81179 4.93058 6.18577L9.96616 3.02372C10.392 2.68705 10.9174 2.50082 11.4602 2.49407C12.1243 2.55731 12.6065 3.12648 13.144 3.52174C15.1361 4.95257 18.4642 3.45059 18.6855 1C21.7474 1.67984 24.7883 2.44664 27.8081 3.3004C27.0533 4.41765 26.7431 5.77659 26.9385 7.11067C27.231 8.40711 28.5195 9.54545 29.816 9.28458C30.3851 9.18182 30.9859 8.8419 31.4918 9.11858C31.6696 9.26067 31.8146 9.43946 31.917 9.64275C32.0193 9.84603 32.0765 10.069 32.0847 10.2964L33.5867 18.6601C32.7738 18.5818 31.9576 18.7723 31.2634 19.2025C30.5693 19.6327 30.0354 20.2787 29.7437 21.0415C29.452 21.8044 29.4187 22.6418 29.6488 23.4254C29.8789 24.209 30.3597 24.8954 31.0175 25.3794L25.8001 30.0435C24.9543 30.7945 23.8476 31.6245 22.7962 31.1739C22.1322 30.8972 21.7606 30.2095 21.2152 29.7273C20.6147 29.2666 19.8876 29.0007 19.1315 28.9654C18.3755 28.9301 17.6268 29.127 16.9859 29.5296C15.7182 30.3708 14.7409 31.5828 14.1875 33C11.0543 31.8552 8.19094 30.0764 5.77643 27.7747C6.41183 27.2113 6.82365 26.4384 6.93684 25.5968C7.05002 24.7552 6.85703 23.9009 6.39304 23.1897C5.12031 21.3636 2.75667 22.581 1.64995 21.1818C0.543233 19.7826 1.19936 14.3913 1.13612 12.6443Z" stroke="#333333" stroke-width="2" stroke-linecap="round" stroke-linejoin="round"/>
<path d="M15.6106 21.3321C16.6434 21.6149 17.7306 21.634 18.7727 21.3874C19.2889 21.2616 19.7635 21.0038 20.1502 20.6393C20.5368 20.2749 20.8221 19.8162 20.9782 19.3083" stroke="#333333" stroke-width="2" stroke-linecap="round" stroke-linejoin="round"/>
</svg>
