<svg width="98" height="71" viewBox="0 0 98 71" fill="none" xmlns="http://www.w3.org/2000/svg">
<g clip-path="url(#clip0)">
<path d="M9.98726 57.6681C9.88323 57.6681 9.67516 57.7715 9.36306 57.7715C9.05096 57.7715 8.73885 57.8748 8.32272 57.8748C7.90658 57.8748 7.49045 57.9781 6.97028 57.9781C6.45011 57.9781 5.92994 57.9781 5.40977 57.9781C4.26539 57.9781 3.43312 57.8748 2.70488 57.6681C1.97665 57.4614 1.45648 57.2547 1.04034 56.9447C0.624204 56.6346 0.416136 56.2212 0.208068 55.8078C0.104034 55.4978 0 55.0844 0 54.671C0 54.0509 0.104034 53.6375 0.312102 53.1208C0.52017 52.7074 0.728238 52.294 1.14437 51.984C1.56051 51.6739 2.08068 51.4672 2.70488 51.3639C3.32909 51.2605 4.16136 51.1572 5.09766 51.1572C5.61783 51.1572 6.138 51.1572 6.65817 51.2605C7.17834 51.2605 7.49045 51.3639 7.69851 51.3639C7.69851 50.8471 7.59448 50.4337 7.49045 50.1237C7.28238 49.8137 7.07431 49.5036 6.86624 49.4003C6.55414 49.1936 6.24204 49.0902 5.8259 48.9869C5.40977 48.8835 4.99363 48.8835 4.47346 48.8835C3.64119 48.8835 3.01699 48.9869 2.49682 49.1936C1.97665 49.4003 1.66454 49.5036 1.56051 49.607C1.45648 49.5036 1.35244 49.4003 1.24841 49.1936C1.14437 48.9869 1.04034 48.7802 1.04034 48.4701C1.04034 48.2634 1.14437 48.0567 1.24841 47.8501C1.35244 47.6434 1.56051 47.54 1.76858 47.3333C2.08068 47.23 2.39278 47.0233 2.80892 47.0233C3.22505 46.9199 3.84926 46.9199 4.47346 46.9199C5.30573 46.9199 6.03397 47.0233 6.76221 47.1266C7.49045 47.3333 8.01062 47.54 8.53079 47.8501C9.05095 48.1601 9.36306 48.6768 9.67516 49.1936C9.98726 49.8137 10.0913 50.4337 10.0913 51.2605V57.6681H9.98726ZM7.69851 53.0174C7.59448 53.0174 7.28238 52.9141 6.86624 52.9141C6.45011 52.8108 5.92994 52.8107 5.09766 52.8107C4.16136 52.8107 3.43312 52.9141 3.01699 53.2241C2.60085 53.5342 2.39278 53.9476 2.39278 54.5677C2.39278 54.7744 2.39278 55.0844 2.49682 55.2911C2.60085 55.4978 2.70488 55.7045 3.01699 55.8078C3.22505 55.9112 3.53715 56.0145 3.95329 56.1179C4.36943 56.2212 4.78556 56.2212 5.40977 56.2212C6.03397 56.2212 6.55414 56.2212 6.97028 56.1179C7.38641 56.1179 7.59448 56.0145 7.69851 56.0145V53.0174Z" fill="#5E5A57"/>
<path d="M12.5881 45.3697C12.5881 44.9563 12.6921 44.6463 12.9002 44.543C13.1083 44.3363 13.4204 44.2329 13.8365 44.2329C14.0446 44.2329 14.3567 44.2329 14.5647 44.3363C14.7728 44.4396 14.8768 44.4396 14.9809 44.4396V47.1267H17.9979C18.414 47.1267 18.8301 47.23 18.9342 47.4367C19.1422 47.6434 19.2463 47.8501 19.2463 48.2635C19.2463 48.4702 19.2463 48.6769 19.1422 48.8836C19.0382 49.0903 19.0382 49.1936 18.9342 49.297H14.8769V53.9476C14.8769 54.361 14.8768 54.5677 14.9809 54.8777C15.0849 55.0844 15.189 55.2911 15.397 55.3945C15.6051 55.4978 15.8132 55.6012 16.0212 55.7045C16.2293 55.8079 16.5414 55.8079 16.7495 55.8079C17.1656 55.8079 17.5817 55.7045 17.8938 55.6012C18.2059 55.4978 18.518 55.3945 18.6221 55.2911L19.5584 56.8414C19.4543 56.9447 19.2463 57.048 19.0382 57.1514C18.8301 57.2547 18.6221 57.3581 18.31 57.4614C17.9979 57.5648 17.6858 57.6681 17.2696 57.7715C16.8535 57.8748 16.5414 57.8748 16.0212 57.8748C14.7728 57.8748 13.8365 57.5648 13.2123 56.9447C12.5881 56.3246 12.276 55.4978 12.276 54.4644V45.3697H12.5881Z" fill="#5E5A57"/>
<path d="M26.3206 46.9199C27.1529 46.9199 27.8811 47.0233 28.6093 47.3333C29.3376 47.6434 29.9618 47.9534 30.482 48.4701C31.0021 48.9869 31.4183 49.5036 31.7304 50.2271C32.0425 50.9505 32.1465 51.6739 32.1465 52.3974C32.1465 53.2241 32.0425 53.9476 31.7304 54.5677C31.4183 55.2911 31.0021 55.8078 30.482 56.3246C29.9618 56.8413 29.3376 57.2547 28.6093 57.4614C27.8811 57.7714 27.1529 57.8748 26.3206 57.8748C25.4883 57.8748 24.7601 57.7714 24.0318 57.4614C23.3036 57.1514 22.6794 56.738 22.1592 56.3246C21.6391 55.8078 21.2229 55.2911 20.9108 54.5677C20.5987 53.8442 20.4947 53.1208 20.4947 52.3974C20.4947 51.5706 20.5987 50.8471 20.9108 50.2271C21.2229 49.5036 21.6391 48.9869 22.1592 48.4701C22.6794 47.9534 23.3036 47.54 24.0318 47.3333C24.7601 47.0233 25.4883 46.9199 26.3206 46.9199ZM26.3206 55.9112C26.8408 55.9112 27.2569 55.8078 27.673 55.6011C28.0892 55.3944 28.4013 55.1878 28.7134 54.8777C29.0255 54.5677 29.2335 54.1543 29.3376 53.7409C29.5456 53.3275 29.5456 52.9141 29.5456 52.3974C29.5456 51.8806 29.4416 51.4672 29.3376 51.0538C29.1295 50.6404 28.9214 50.2271 28.7134 49.917C28.4013 49.607 28.0892 49.4003 27.673 49.1936C27.2569 48.9869 26.8408 48.8835 26.3206 48.8835C25.8004 48.8835 25.3843 48.9869 24.9682 49.1936C24.552 49.4003 24.2399 49.607 23.9278 49.917C23.6157 50.2271 23.4076 50.6404 23.3036 51.0538C23.0955 51.4672 23.0955 51.984 23.0955 52.3974C23.0955 52.9141 23.1996 53.3275 23.3036 53.7409C23.5117 54.1543 23.7197 54.4643 23.9278 54.8777C24.2399 55.1878 24.552 55.3944 24.9682 55.6011C25.3843 55.8078 25.8004 55.9112 26.3206 55.9112Z" fill="#5E5A57"/>
<path d="M34.1232 50.9505C34.1232 50.3304 34.2272 49.7103 34.4353 49.1936C34.6433 48.6768 34.9554 48.2634 35.3716 47.9534C35.7877 47.6434 36.3079 47.3333 36.8281 47.23C37.3482 47.0233 37.9724 46.9199 38.7007 46.9199C39.5329 46.9199 40.3652 47.1266 40.9894 47.4367C41.7177 47.7467 42.2378 48.2634 42.654 48.8835C43.0701 48.2634 43.5903 47.7467 44.3185 47.4367C44.9427 47.1266 45.775 46.9199 46.6072 46.9199C47.2314 46.9199 47.8557 47.0233 48.3758 47.1266C48.896 47.3333 49.4162 47.54 49.8323 47.8501C50.2484 48.1601 50.5605 48.5735 50.7686 49.0902C50.9767 49.607 51.0807 50.2271 51.0807 50.8471V57.6681H48.6879V51.6739C48.6879 50.7438 48.4799 50.0204 48.0637 49.607C47.6476 49.1936 47.0234 48.9869 46.2951 48.9869C45.5669 48.9869 44.9427 49.1936 44.5266 49.7103C44.0064 50.1237 43.7983 50.9505 43.7983 51.984V57.6681H41.4055V51.984C41.4055 50.9505 41.1975 50.2271 40.6773 49.7103C40.1571 49.2969 39.637 48.9869 38.9087 48.9869C38.1805 48.9869 37.5563 49.1936 37.1402 49.607C36.724 50.0204 36.5159 50.7438 36.5159 51.6739V57.5648H34.1232V50.9505Z" fill="#5E5A57"/>
<path d="M53.3694 52.9141C53.3694 51.984 53.4735 51.0538 53.7856 50.3304C54.0977 49.607 54.4098 48.9869 54.93 48.4701C55.4501 47.9534 56.0743 47.54 56.8026 47.3333C57.5308 47.0233 58.259 46.9199 59.1954 46.9199C60.0276 46.9199 60.7559 47.0233 61.3801 47.3333C62.0043 47.6434 62.6285 47.9534 63.1486 48.4701C63.6688 48.9869 64.0849 49.5036 64.293 50.2271C64.6051 50.9505 64.7092 51.6739 64.7092 52.3974C64.7092 53.2241 64.6051 53.9476 64.293 54.671C63.9809 55.3944 63.6688 55.9112 63.1486 56.4279C62.6285 56.9447 62.1083 57.2547 61.4841 57.5648C60.8599 57.8748 60.1317 57.9781 59.2994 57.9781C58.4671 57.9781 57.8429 57.8748 57.2187 57.5648C56.5945 57.2547 56.0743 56.8413 55.7622 56.4279V61.9054H53.3694V52.9141ZM59.0913 55.9112C59.6115 55.9112 60.0276 55.8078 60.4438 55.6011C60.8599 55.3944 61.172 55.1877 61.4841 54.8777C61.7962 54.5677 62.0043 54.2576 62.1083 53.7409C62.2123 53.3275 62.3164 52.9141 62.3164 52.3974C62.3164 51.8806 62.2123 51.4672 62.1083 51.0538C62.0043 50.6404 61.6922 50.3304 61.4841 50.0204C61.172 49.7103 60.8599 49.5036 60.4438 49.2969C60.0276 49.0902 59.6115 48.9869 59.0913 48.9869C58.5711 48.9869 58.155 49.0902 57.7389 49.1936C57.3227 49.4003 57.0106 49.607 56.6985 49.917C56.3864 50.2271 56.1784 50.5371 56.0743 50.9505C55.8663 51.3639 55.8663 51.7773 55.8663 52.294C55.8663 52.8107 55.9703 53.2241 56.0743 53.6375C56.2824 54.0509 56.4905 54.4643 56.6985 54.7744C57.0106 55.0844 57.3227 55.2911 57.7389 55.4978C58.155 55.8078 58.5711 55.9112 59.0913 55.9112Z" fill="#5E5A57"/>
<path d="M76.3609 57.6682C76.2569 57.6682 76.0488 57.7715 75.7367 57.7715C75.4246 57.7715 75.1125 57.8749 74.6964 57.8749C74.2802 57.8749 73.8641 57.9782 73.3439 57.9782C72.8238 57.9782 72.3036 57.9782 71.7834 57.9782C70.6391 57.9782 69.8068 57.8749 69.0785 57.6682C68.3503 57.4615 67.8301 57.2548 67.414 56.9447C66.9979 56.6347 66.7898 56.2213 66.5817 55.8079C66.4777 55.3945 66.3737 54.9811 66.3737 54.5677C66.3737 53.9477 66.4777 53.5343 66.6858 53.0175C66.8938 52.6041 67.1019 52.1907 67.518 51.8807C67.9342 51.5707 68.4543 51.364 69.0785 51.2606C69.7027 51.1573 70.535 51.0539 71.4713 51.0539C71.9915 51.0539 72.5117 51.0539 73.0318 51.1573C73.552 51.1573 73.8641 51.2606 74.0722 51.2606C74.0722 50.7439 73.9681 50.3305 73.8641 50.0204C73.656 49.7104 73.448 49.4003 73.2399 49.297C72.9278 49.0903 72.6157 48.987 72.1996 48.8836C71.7834 48.7803 71.3673 48.7803 70.8471 48.7803C70.0148 48.7803 69.3906 48.8836 68.8705 49.0903C68.3503 49.297 68.0382 49.4004 67.9342 49.5037C67.8301 49.4004 67.7261 49.297 67.6221 49.0903C67.518 48.8836 67.414 48.6769 67.414 48.3669C67.414 48.1602 67.518 47.9535 67.6221 47.7468C67.7261 47.5401 67.9342 47.4367 68.1422 47.23C68.4543 47.1267 68.7664 46.92 69.1826 46.92C69.5987 46.8167 70.2229 46.8167 70.8471 46.8167C71.6794 46.8167 72.4076 46.92 73.1359 47.0233C73.8641 47.23 74.3843 47.4367 74.9044 47.7468C75.4246 48.0568 75.7367 48.5736 76.0488 49.0903C76.3609 49.7104 76.465 50.3305 76.465 51.1573V57.6682H76.3609ZM73.9681 53.0175C73.8641 53.0175 73.552 52.9142 73.1359 52.9142C72.7197 52.8108 72.1996 52.8108 71.3673 52.8108C70.431 52.8108 69.7027 52.9142 69.2866 53.2242C68.8705 53.5343 68.6624 53.9477 68.6624 54.5677C68.6624 54.7744 68.6624 55.0845 68.7664 55.2912C68.8705 55.4979 68.9745 55.7046 69.2866 55.8079C69.4947 55.9113 69.8068 56.0146 70.2229 56.118C70.6391 56.2213 71.0552 56.2213 71.6794 56.2213C72.3036 56.2213 72.8238 56.2213 73.2399 56.118C73.656 56.118 73.8641 56.0146 73.9681 56.0146V53.0175Z" fill="#5E5A57"/>
<path d="M78.7537 50.9505C78.7537 49.7103 79.1699 48.6768 79.8981 47.9534C80.7304 47.23 81.7707 46.9199 83.2272 46.9199C84.0595 46.9199 84.7877 47.0233 85.4119 47.3333C85.9321 47.54 86.2442 47.9534 86.2442 48.4701C86.2442 48.6768 86.1401 48.9869 86.0361 49.1936C85.9321 49.4003 85.828 49.607 85.724 49.607C85.5159 49.5036 85.2038 49.4003 84.8917 49.2969C84.5796 49.1936 84.1635 49.1936 83.6433 49.1936C81.9788 49.1936 81.1465 50.0204 81.1465 51.7773V57.8748H78.7537V50.9505Z" fill="#5E5A57"/>
<path d="M87.4926 43.4061C87.4926 42.9927 87.5966 42.786 87.8047 42.5793C88.0128 42.3726 88.3249 42.2693 88.741 42.2693C88.9491 42.2693 89.2612 42.2693 89.4692 42.3726C89.6773 42.476 89.7813 42.476 89.8854 42.476V51.0539C90.0934 50.9505 90.3015 50.7438 90.6136 50.5371C90.9257 50.3304 91.3418 50.0204 91.758 49.7103C92.1741 49.4003 92.5902 49.0902 93.0064 48.7802C93.4225 48.4702 93.8387 48.1601 94.2548 47.8501C94.5669 47.6434 94.879 47.4367 95.0871 47.3333C95.2951 47.23 95.7113 47.1266 96.1274 47.1266C96.5435 47.1266 96.8556 47.23 97.0637 47.4367C97.3758 47.6434 97.4798 47.8501 97.5839 47.9534C97.2718 48.2635 96.8556 48.5735 96.3355 48.8836C95.8153 49.2969 95.2951 49.607 94.775 50.0204C94.2548 50.4338 93.7346 50.7438 93.2144 51.0539C92.6943 51.3639 92.3822 51.5706 92.1741 51.7773C93.3185 52.6041 94.4629 53.6376 95.3992 54.671C96.3355 55.7045 97.1677 56.6346 97.896 57.5648H94.879C94.5669 57.1514 94.1508 56.738 93.8386 56.3246C93.4225 55.9112 93.0064 55.4978 92.5902 55.0844C92.1741 54.671 91.6539 54.2576 91.2378 53.8442C90.7176 53.4309 90.3015 53.1208 89.8854 52.8108V57.5648H87.4926V43.4061Z" fill="#5E5A57"/>
<path d="M10.2994 69.5531C10.2994 69.5531 10.4034 69.6565 10.6115 69.6565C10.7155 69.7598 10.9236 69.7598 11.1316 69.8631C11.3397 69.9665 11.5478 69.9665 11.7559 70.0698C11.9639 70.0698 12.276 70.1732 12.5881 70.1732C13.0043 70.1732 13.3164 70.1732 13.5244 70.0698C13.7325 69.9665 13.8365 69.7598 13.8365 69.5531C13.8365 69.3464 13.7325 69.2431 13.6285 69.1397C13.5244 69.0364 13.2123 68.933 12.7962 68.933L11.9639 68.8297C11.6518 68.8297 11.4437 68.7263 11.1316 68.623C10.8195 68.5196 10.7155 68.4163 10.5074 68.3129C10.2994 68.2096 10.1953 68.0029 10.0913 67.7962C9.98727 67.5895 9.98727 67.3828 9.98727 67.0728C9.98727 66.8661 9.98727 66.6594 10.0913 66.4527C10.1953 66.246 10.2994 66.0393 10.5074 65.9359C10.7155 65.7292 10.9236 65.6259 11.2357 65.5225C11.5478 65.4192 11.9639 65.4192 12.3801 65.4192C13.1083 65.4192 13.7325 65.5225 14.1486 65.6259C14.5648 65.8326 14.7728 66.0393 14.7728 66.246C14.7728 66.3493 14.7728 66.4527 14.7728 66.4527C14.7728 66.4527 14.6688 66.556 14.6688 66.6594L14.5648 66.7627L14.4607 66.8661C14.4607 66.8661 14.3567 66.7627 14.2527 66.7627C14.1486 66.6594 14.0446 66.6594 13.8365 66.556C13.6285 66.4527 13.4204 66.4527 13.2123 66.3493C13.0043 66.3493 12.6922 66.246 12.3801 66.246C11.5478 66.246 11.1316 66.4527 11.1316 66.8661C11.1316 67.0728 11.2357 67.1761 11.3397 67.2794C11.5478 67.3828 11.7559 67.4862 12.068 67.4862L13.2123 67.5895C13.8365 67.6928 14.2527 67.7962 14.6688 68.1062C15.0849 68.4163 15.189 68.7263 15.189 69.2431C15.189 69.7598 14.9809 70.2765 14.5648 70.5866C14.1486 70.8966 13.5244 71.1033 12.6922 71.1033C12.276 71.1033 11.9639 71.1033 11.6518 71C11.3397 70.8966 11.0276 70.8966 10.8195 70.7933C10.6115 70.6899 10.4034 70.6899 10.1953 70.5866C10.0913 70.4832 9.98727 70.4832 9.88324 70.3799L10.2994 69.5531Z" fill="#F8BA00"/>
<path d="M23.4076 65.2126C23.8238 65.2126 24.2399 65.316 24.552 65.4193C24.9682 65.5227 25.2803 65.7294 25.4883 66.0394C25.8004 66.3495 26.0085 66.5562 26.1125 66.9696C26.2166 67.2796 26.3206 67.693 26.3206 68.1064C26.3206 68.5198 26.2166 68.9332 26.1125 69.2432C26.0085 69.5533 25.6964 69.8633 25.4883 70.1734C25.1762 70.4834 24.8641 70.5867 24.552 70.7934C24.1359 70.8968 23.8238 71.0001 23.4076 71.0001C22.9915 71.0001 22.5754 70.8968 22.2633 70.7934C21.8471 70.6901 21.535 70.4834 21.327 70.1734C21.0149 69.8633 20.8068 69.6566 20.7028 69.2432C20.5987 68.9332 20.4947 68.5198 20.4947 68.1064C20.4947 67.693 20.5987 67.2796 20.7028 66.9696C20.8068 66.6595 21.1189 66.3495 21.327 66.0394C21.6391 65.7294 21.9512 65.626 22.2633 65.4193C22.5754 65.316 22.9915 65.2126 23.4076 65.2126ZM23.4076 69.9667C23.6157 69.9667 23.9278 69.9667 24.1359 69.8633C24.3439 69.76 24.552 69.6566 24.6561 69.4499C24.7601 69.2432 24.9682 69.1399 24.9682 68.8298C25.0722 68.6231 25.0722 68.4164 25.0722 68.1064C25.0722 67.8997 25.0722 67.5896 24.9682 67.383C24.8641 67.1763 24.7601 66.9696 24.6561 66.7629C24.552 66.5562 24.3439 66.4528 24.1359 66.3495C23.9278 66.2461 23.7197 66.2461 23.4076 66.2461C23.1996 66.2461 22.8875 66.2461 22.6794 66.3495C22.4713 66.4528 22.2633 66.5562 22.1592 66.7629C22.0552 66.9696 21.8471 67.0729 21.8471 67.383C21.7431 67.5896 21.7431 67.7963 21.7431 68.1064C21.7431 68.3131 21.7431 68.6231 21.8471 68.8298C21.9512 69.0365 22.0552 69.2432 22.1592 69.4499C22.2633 69.6566 22.4713 69.76 22.6794 69.8633C22.9915 69.8633 23.1996 69.9667 23.4076 69.9667Z" fill="#F8BA00"/>
<path d="M31.9384 65.0058C31.9384 64.5924 32.0425 64.2824 32.1465 63.9724C32.2505 63.6623 32.4586 63.4556 32.5626 63.2489C32.7707 63.0422 32.9788 62.9389 33.2909 62.8355C33.603 62.7322 33.9151 62.7322 34.2272 62.7322C34.8514 62.7322 35.2675 62.8355 35.4756 62.9389C35.6837 63.0422 35.8917 63.2489 35.8917 63.4556C35.8917 63.559 35.8917 63.6623 35.7877 63.7657C35.6837 63.869 35.6837 63.9724 35.5796 63.9724C35.4756 63.869 35.2675 63.7657 35.0595 63.7657C34.8514 63.6623 34.6433 63.6623 34.4353 63.6623C34.0191 63.6623 33.707 63.7657 33.499 63.9724C33.2909 64.179 33.1869 64.4891 33.1869 64.9025V65.2125H34.8514C35.0595 65.2125 35.2675 65.2125 35.3716 65.3159C35.4756 65.4192 35.4756 65.5226 35.4756 65.7293C35.4756 65.8326 35.4756 65.936 35.3716 66.0393C35.3716 66.1427 35.2675 66.246 35.2675 66.246H33.0828V70.5866H31.8344V65.0058H31.9384Z" fill="#F8BA00"/>
<path d="M40.4692 64.3856C40.4692 64.1789 40.5733 64.0756 40.6773 63.9722C40.7813 63.8689 40.9894 63.8689 41.1975 63.8689C41.3015 63.8689 41.4055 63.8689 41.6136 63.8689C41.7176 63.8689 41.8217 63.9722 41.8217 63.9722V65.4191H43.3822C43.5903 65.4191 43.7983 65.4191 43.9024 65.5225C44.0064 65.6258 44.0064 65.7292 44.0064 65.9359C44.0064 66.0392 44.0064 66.1426 43.9024 66.2459C43.9024 66.3492 43.7983 66.4526 43.7983 66.4526H41.7176V68.9329C41.7176 69.1396 41.7176 69.243 41.8217 69.3463C41.8217 69.4497 41.9257 69.553 42.0297 69.6564C42.1338 69.7597 42.2378 69.7597 42.3418 69.7597C42.4459 69.7597 42.5499 69.7597 42.758 69.7597C42.966 69.7597 43.1741 69.7597 43.3822 69.6564C43.5903 69.553 43.6943 69.553 43.7983 69.4497L44.3185 70.2765C44.2145 70.2765 44.2145 70.3798 44.1104 70.4832C44.0064 70.5865 43.9024 70.5865 43.6943 70.6899C43.4862 70.7932 43.3822 70.7932 43.1741 70.7932C42.966 70.7932 42.758 70.8966 42.5499 70.8966C41.9257 70.8966 41.4055 70.6899 41.0934 70.3798C40.7813 70.0698 40.5733 69.6564 40.5733 69.0363V64.3856H40.4692Z" fill="#F8BA00"/>
<path d="M50.5605 70.8968C50.2484 70.07 49.9363 69.3466 49.6242 68.7265C49.4162 68.1064 49.2081 67.693 49.1041 67.2796C49 66.8662 48.896 66.5562 48.792 66.3495C48.6879 66.1428 48.6879 66.0394 48.6879 65.9361C48.6879 65.8327 48.6879 65.626 48.792 65.5227C48.896 65.4193 49.1041 65.316 49.3121 65.316C49.5202 65.316 49.6242 65.316 49.7283 65.316C49.8323 65.316 49.8323 65.316 49.9363 65.4193C50.0404 65.7294 50.1444 66.0394 50.2484 66.4528C50.3525 66.7629 50.4565 67.1763 50.5605 67.4863C50.6646 67.7963 50.7686 68.2097 50.8726 68.5198C50.9767 68.8298 51.0807 69.1399 51.1847 69.3466C51.2888 69.1399 51.3928 68.8298 51.3928 68.5198C51.4968 68.2097 51.6009 67.8997 51.7049 67.5897C51.8089 67.2796 51.913 66.9696 52.017 66.6595C52.121 66.3495 52.2251 66.0394 52.3291 65.7294C52.4332 65.5227 52.4332 65.4193 52.5372 65.316C52.6412 65.2126 52.8493 65.2126 53.0574 65.2126C53.1614 65.2126 53.3695 65.2126 53.4735 65.316C53.5775 65.316 53.6816 65.4193 53.6816 65.4193C53.7856 65.7294 53.8896 66.1428 53.9937 66.4528C54.0977 66.7629 54.2017 67.1763 54.3058 67.4863C54.4098 67.7963 54.5138 68.2097 54.6179 68.5198C54.7219 68.8298 54.8259 69.1399 54.93 69.3466C55.138 68.8298 55.3461 68.3131 55.5542 67.693C55.7622 67.0729 55.9703 66.4528 56.0743 65.9361C56.1784 65.7294 56.1784 65.5227 56.2824 65.4193C56.3864 65.316 56.5945 65.2126 56.8026 65.2126C57.0106 65.2126 57.1147 65.2126 57.3227 65.316C57.4268 65.4193 57.5308 65.4193 57.5308 65.4193C57.4268 65.626 57.3227 66.0394 57.2187 66.4528C57.1147 66.8662 56.9066 67.383 56.6985 67.7963C56.4905 68.3131 56.2824 68.8298 56.0743 69.3466C55.8663 69.8633 55.6582 70.2767 55.4501 70.6901H54.2017C54.0977 70.5867 54.0977 70.2767 53.9937 69.9666C53.8896 69.6566 53.7856 69.3466 53.6816 69.0365C53.5775 68.7265 53.4735 68.3131 53.3695 68.003C53.2654 67.5897 53.1614 67.2796 53.0574 66.9696C52.9533 67.2796 52.8493 67.5897 52.7453 68.003C52.6412 68.4164 52.5372 68.7265 52.4332 69.0365C52.3291 69.3466 52.2251 69.76 52.121 69.9666C52.017 70.2767 51.913 70.4834 51.913 70.6901H50.5605V70.8968Z" fill="#F8BA00"/>
<path d="M67.6221 70.8966C67.5181 70.8966 67.414 70.8966 67.31 70.8966C67.1019 70.8966 66.9979 70.8966 66.7898 70.9999C66.5818 70.9999 66.3737 70.9999 66.0616 70.9999C65.7495 70.9999 65.5414 70.9999 65.2293 70.9999C64.6051 70.9999 64.189 70.9999 63.8769 70.8966C63.5648 70.7932 63.2527 70.6899 63.0446 70.4832C62.8365 70.2765 62.7325 70.1732 62.6285 69.8631C62.4204 69.7598 62.4204 69.4497 62.4204 69.243C62.4204 68.933 62.4204 68.7263 62.5244 68.4162C62.6285 68.2095 62.7325 68.0028 62.9406 67.7962C63.1486 67.6928 63.4607 67.4861 63.7729 67.4861C64.085 67.3828 64.5011 67.3828 65.0213 67.3828C65.3334 67.3828 65.5414 67.3828 65.8535 67.3828C66.0616 67.3828 66.2697 67.3828 66.3737 67.3828C66.3737 67.1761 66.3737 66.866 66.2697 66.7627C66.1656 66.556 66.0616 66.4526 65.9576 66.3493C65.8535 66.2459 65.6455 66.1426 65.4374 66.1426C65.2293 66.1426 65.0213 66.0392 64.7092 66.0392C64.293 66.0392 63.9809 66.0392 63.6688 66.1426C63.3567 66.2459 63.2527 66.3493 63.1486 66.3493C63.1486 66.3493 63.0446 66.2459 62.9406 66.1426C62.8365 66.0392 62.8365 65.9359 62.8365 65.7292C62.8365 65.6259 62.8365 65.5225 62.9406 65.4192C63.0446 65.3158 63.0446 65.2125 63.2527 65.1091C63.3567 65.0058 63.5648 65.0058 63.7729 64.9024C63.9809 64.9024 64.293 64.7991 64.7092 64.7991C65.1253 64.7991 65.5414 64.7991 65.8535 64.9024C66.1656 65.0058 66.4777 65.1091 66.7898 65.3158C67.1019 65.5225 67.206 65.7292 67.414 66.0392C67.5181 66.3493 67.6221 66.6593 67.6221 67.0727V70.8966ZM66.3737 68.4162C66.2697 68.4162 66.1656 68.4162 65.9576 68.3129C65.7495 68.3129 65.4374 68.3129 65.0213 68.3129C64.5011 68.3129 64.189 68.4162 63.9809 68.5196C63.7729 68.6229 63.6688 68.933 63.6688 69.243C63.6688 69.3464 63.6688 69.4497 63.7729 69.5531C63.7729 69.6564 63.8769 69.7598 63.9809 69.8631C64.085 69.9665 64.293 69.9665 64.5011 70.0698C64.7092 70.0698 64.9172 70.1732 65.2293 70.1732C65.5414 70.1732 65.8535 70.1732 66.0616 70.1732C66.2697 70.1732 66.3737 70.1732 66.4777 70.0698V68.4162H66.3737Z" fill="#F8BA00"/>
<path d="M73.344 67.3829C73.344 66.7628 73.552 66.1427 73.9682 65.8327C74.3843 65.4193 75.0085 65.3159 75.7368 65.3159C76.1529 65.3159 76.569 65.4193 76.8811 65.5226C77.1932 65.626 77.2973 65.8327 77.2973 66.1427C77.2973 66.246 77.2973 66.3494 77.1932 66.4527C77.0892 66.5561 76.9852 66.5561 76.9852 66.5561C76.8811 66.4527 76.6731 66.4527 76.569 66.3494C76.361 66.3494 76.1529 66.246 75.9448 66.246C75.1125 66.246 74.6964 66.6594 74.6964 67.5896V70.7934H73.448V67.3829H73.344Z" fill="#F8BA00"/>
<path d="M87.1805 70.4832C87.0765 70.4832 87.0765 70.5866 86.8684 70.5866C86.7643 70.6899 86.5563 70.6899 86.3482 70.7933C86.1401 70.8966 85.9321 70.8966 85.724 70.8966C85.5159 70.8966 85.2038 71 84.8917 71C84.4756 71 84.0595 70.8966 83.7474 70.7933C83.4353 70.6899 83.1232 70.4832 82.8111 70.2765C82.499 70.0698 82.2909 69.7598 82.1869 69.3464C82.0828 69.0363 81.9788 68.623 81.9788 68.1062C81.9788 67.6928 82.0828 67.2794 82.1869 66.866C82.2909 66.556 82.499 66.246 82.8111 65.9359C83.1232 65.6259 83.4353 65.5225 83.7474 65.3158C84.0595 65.2125 84.4756 65.1091 84.8917 65.1091C85.3079 65.1091 85.62 65.1091 85.9321 65.2125C86.2442 65.3158 86.4523 65.4192 86.6603 65.6259C86.8684 65.8326 86.9724 65.9359 87.0764 66.246C87.1805 66.4527 87.1805 66.6594 87.1805 66.9694C87.1805 67.1761 87.1805 67.4861 87.0764 67.6928C86.9724 67.8995 86.7643 68.1062 86.5563 68.2096C86.3482 68.3129 86.0361 68.5196 85.62 68.5196C85.2038 68.623 84.6837 68.623 84.0595 68.623C83.9554 68.623 83.7474 68.623 83.6433 68.623C83.5393 68.623 83.3312 68.623 83.2272 68.623C83.3312 69.0364 83.4353 69.3464 83.7474 69.5531C84.0595 69.7598 84.4756 69.8631 85.0998 69.8631C85.3079 69.8631 85.5159 69.8631 85.62 69.8631C85.828 69.8631 85.9321 69.7598 86.0361 69.7598C86.1401 69.7598 86.2442 69.6564 86.3482 69.6564C86.4522 69.6564 86.5563 69.5531 86.5563 69.5531L87.1805 70.4832ZM83.2272 67.8995C83.4353 67.8995 83.5393 67.8995 83.7474 67.8995C83.8514 67.8995 84.0595 67.8995 84.1635 67.8995C84.5796 67.8995 84.8917 67.8995 85.0998 67.7962C85.3079 67.7962 85.5159 67.6928 85.724 67.5895C85.828 67.4861 85.9321 67.3828 86.0361 67.2794C86.0361 67.1761 86.1401 67.0727 86.1401 66.9694C86.1401 66.6594 86.0361 66.4526 85.828 66.3493C85.62 66.246 85.3079 66.1426 84.9958 66.1426C84.6837 66.1426 84.4756 66.1426 84.2675 66.246C84.0595 66.3493 83.8514 66.4527 83.7474 66.6593C83.6433 66.866 83.5393 66.9694 83.4353 67.1761C83.3312 67.4861 83.2272 67.6928 83.2272 67.8995Z" fill="#F8BA00"/>
<path d="M46.3991 10.4382C46.2951 10.2315 46.2951 9.92148 46.3991 9.61144C46.6072 8.78465 47.5435 8.26791 48.3758 8.47461L54.5138 10.1282C55.3461 10.3349 55.8662 11.265 55.6582 12.0918C55.5541 12.2985 55.4501 12.5052 55.3461 12.7119C55.3461 12.7119 55.242 12.8152 55.034 12.9186C54.0977 13.5387 50.9766 15.709 50.9766 15.709C50.5605 16.019 50.0403 16.1224 49.6242 15.9157C49.104 15.8123 48.6879 15.3989 48.5838 14.9855V15.0889L46.5032 10.6449C46.3991 10.3349 46.2951 9.92148 46.3991 9.50809C46.6072 8.6813 47.5435 8.16457 48.3758 8.37126L54.5138 10.0248C55.3461 10.2315 55.8662 11.1617 55.6582 11.9884C55.5541 12.4018 55.3461 12.7119 55.034 12.9186" fill="#F8BA00"/>
<path d="M87.0764 26.9738L78.5456 15.5022C76.9851 13.3319 74.6964 11.6783 72.0955 10.9549C71.2633 10.7482 70.431 10.6449 69.4947 10.5415C68.6624 9.30133 67.31 8.26785 65.6454 7.75111L40.0531 0.930152C38.2845 0.413413 36.5159 0.723456 35.0594 1.55024C34.1231 1.0335 33.1868 0.620108 32.0424 0.310065C29.4416 -0.41337 26.6327 -0.103327 24.2399 1.0335L11.0276 6.71763C10.2993 7.02768 9.98724 7.85446 10.2993 8.5779C10.5074 8.99129 10.8195 9.30133 11.2357 9.40468C11.5478 9.50803 11.8599 9.50803 12.172 9.30133L25.3843 3.6172C27.2569 2.79041 29.3376 2.58372 31.2102 3.10046C31.7303 3.20381 32.2505 3.4105 32.6666 3.6172C32.2505 4.23728 32.0424 4.85737 31.8344 5.47746L27.1528 22.9433C26.2165 26.4571 28.2972 30.0743 31.8344 31.0044L57.4267 37.8253C60.9639 38.7555 64.6051 36.6885 65.5414 33.1747L70.2229 15.7089C70.431 14.9855 70.535 14.262 70.431 13.5386C70.7431 13.5386 70.9511 13.6419 71.2633 13.7453C73.2399 14.262 74.9044 15.5022 76.0488 17.1558L84.5796 28.6274C84.7877 28.9374 85.0998 29.0408 85.4119 29.1441C85.828 29.2475 86.2441 29.1441 86.6603 28.9374C87.4926 28.524 87.5966 27.5939 87.0764 26.9738ZM64.9172 10.5415C65.4374 10.6449 65.9575 10.9549 66.2696 11.2649L51.2887 17.7759C51.2887 17.7759 51.1847 17.7759 51.1847 17.8792C50.5605 18.1892 49.8323 18.2926 49.104 18.0859C48.3758 17.8792 47.7516 17.4658 47.3354 16.8457C47.3354 16.8457 47.3354 16.7424 47.2314 16.7424L37.5562 3.72054C38.0764 3.6172 38.7006 3.6172 39.2208 3.72054L64.9172 10.5415ZM62.8365 32.5546C62.3163 34.5182 60.2357 35.655 58.259 35.1383L32.6666 28.3173C30.69 27.8006 29.5456 25.7336 30.0658 23.77L34.7473 6.30424C34.8514 5.89085 35.0594 5.58081 35.2675 5.27076L45.0467 18.3959C45.879 19.6361 47.0233 20.4629 48.3758 20.7729C49.7282 21.1863 51.2887 20.9796 52.5371 20.3596L67.6221 13.8486C67.6221 14.262 67.6221 14.6754 67.518 15.0888L62.8365 32.5546Z" fill="#1A59A3"/>
<path d="M24.2399 7.85458L15.501 11.5751C14.7728 11.8851 14.4607 12.7119 14.7728 13.4354C14.9809 13.8488 15.293 14.1588 15.7091 14.2621C16.0212 14.3655 16.3333 14.3655 16.6454 14.1588L25.3843 10.4383C26.1125 10.1282 26.4246 9.30145 26.1125 8.57802C25.8004 7.85458 24.9681 7.54454 24.2399 7.85458Z" fill="#1A59A3"/>
<path d="M22.0552 15.3988L19.7664 16.3289C19.0382 16.6389 18.7261 17.4657 19.0382 18.1892C19.2462 18.6026 19.5583 18.9126 19.9745 19.0159C20.2866 19.1193 20.5987 19.1193 20.9108 18.9126L23.1995 17.9825C23.9278 17.6724 24.2399 16.8456 23.9278 16.1222C23.6157 15.3988 22.7834 15.0887 22.0552 15.3988Z" fill="#1A59A3"/>
<path d="M75.0085 21.4965L80.6263 29.1442C81.1465 29.7643 80.9384 30.6944 80.3142 31.1078C79.8981 31.4179 79.4819 31.4179 79.0658 31.3145C78.7537 31.2112 78.4416 31.0045 78.3376 30.7978L72.7197 23.15C72.1996 22.53 72.4076 21.5998 73.0318 21.1864C73.656 20.6697 74.5924 20.8764 75.0085 21.4965Z" fill="#1A59A3"/>
<path d="M73.1359 29.2475L74.5923 31.2111C75.1125 31.8312 74.9045 32.7613 74.2803 33.1747C73.8641 33.4848 73.448 33.4848 73.0318 33.3814C72.7197 33.2781 72.4076 33.0714 72.3036 32.8647L70.8471 31.0044C70.327 30.3843 70.535 29.4542 71.1592 29.0408C71.7834 28.5241 72.6157 28.6274 73.1359 29.2475Z" fill="#1A59A3"/>
</g>
<defs>
<clipPath id="clip0">
<rect width="98" height="71" fill="white"/>
</clipPath>
</defs>
</svg>
