<svg width="35" height="34" viewBox="0 0 35 34" fill="none" xmlns="http://www.w3.org/2000/svg">
<path d="M25.6039 9.79248H8.98885C6.81129 9.79248 5.04602 11.5577 5.04602 13.7353V25.9344C5.04602 28.112 6.81129 29.8773 8.98885 29.8773H25.6039C27.7815 29.8773 29.5468 28.112 29.5468 25.9344V13.7353C29.5468 11.5577 27.7815 9.79248 25.6039 9.79248Z" fill="#F7B916"/>
<path d="M29.1126 1H4.99825C2.82068 1 1.05542 2.76526 1.05542 4.94283V29.0572C1.05542 31.2347 2.82068 33 4.99825 33H29.1126C31.2902 33 33.0554 31.2347 33.0554 29.0572V4.94283C33.0554 2.76526 31.2902 1 29.1126 1Z" stroke="#333333" stroke-width="2" stroke-linecap="round" stroke-linejoin="round"/>
<path d="M1 14.4451C4.39554 16.2918 7.94733 17.8355 11.6141 19.0582C14.5081 20.1149 17.5914 21.1795 20.6037 20.5328C23.6161 19.8862 25.8635 17.7965 28.0399 15.762L32.4243 11.6772" stroke="#333333" stroke-width="2" stroke-linecap="round" stroke-linejoin="round"/>
<path d="M13.8619 15.5331C15.2417 16.4179 16.8439 16.8937 18.4829 16.9053C20.1316 16.9051 21.7133 16.2532 22.8831 15.0916" stroke="#333333" stroke-width="2" stroke-linecap="round" stroke-linejoin="round"/>
</svg>
