<svg width="35" height="34" viewBox="0 0 35 34" fill="none" xmlns="http://www.w3.org/2000/svg">
<path d="M12.5161 10.7571L21.1386 7.5702C22.9975 6.91053 27.2213 5.12765 29.1951 4.91816C29.6894 4.82057 30.2034 4.90648 30.6353 5.15885C31.2058 5.57337 31.146 6.31772 30.7871 6.91053C27.0648 12.901 23.1355 21.4767 18.4976 27.1819C17.5433 25.1644 17.2449 22.9135 17.6418 20.7279C17.8166 19.7963 18.1019 18.7489 17.5406 17.9689C17.1157 17.4756 16.5297 17.1375 15.8796 17.0106C13.8854 16.44 11.7837 16.315 9.73248 16.6451C7.89204 16.9393 5.01174 16.7431 6.0792 14.1802C6.81998 12.4196 10.9012 11.3677 12.5161 10.7571Z" fill="#F7B916"/>
<path d="M29.2211 1.41908C30.1942 1.0708 31.3466 0.737884 32.2429 1.3064C33.6156 2.20784 33.0214 4.31801 32.2788 5.78284C27.6111 14.9201 22.8188 23.9925 17.9019 33C15.6688 31.6325 15.464 28.4928 15.7354 25.891C16.0069 23.2891 16.4064 20.3441 14.752 18.3158C12.9492 16.093 9.63024 16.0879 6.78765 15.924C-4.70563 15.253 3.56093 10.5768 8.97465 8.64592L29.2211 1.41908Z" stroke="#333333" stroke-width="2" stroke-linecap="round" stroke-linejoin="round"/>
</svg>
