<svg width="33" height="34" viewBox="0 0 33 34" fill="none" xmlns="http://www.w3.org/2000/svg">
<path d="M20.9952 33.5116C26.976 33.5116 31.8243 28.6632 31.8243 22.6824C31.8243 16.7017 26.976 11.8533 20.9952 11.8533C15.0144 11.8533 10.166 16.7017 10.166 22.6824C10.166 28.6632 15.0144 33.5116 20.9952 33.5116Z" fill="#F7B916"/>
<path d="M16.4168 32.345C24.9312 32.345 31.8335 25.4427 31.8335 16.9282C31.8335 8.41379 24.9312 1.51147 16.4168 1.51147C7.90232 1.51147 1 8.41379 1 16.9282C1 25.4427 7.90232 32.345 16.4168 32.345Z" stroke="#333333" stroke-width="2" stroke-linecap="round" stroke-linejoin="round"/>
<path d="M12.6035 12.8281C12.8893 12.2594 13.2935 11.7585 13.789 11.3591C14.2845 10.9597 14.8598 10.671 15.4762 10.5125C16.1578 10.3372 16.8735 10.3438 17.5517 10.5317C18.23 10.7196 18.847 11.0822 19.3413 11.5832C19.8122 12.0973 20.1087 12.7469 20.1884 13.4395C20.2681 14.132 20.127 14.832 19.7852 15.4396C19.0453 16.6235 17.5915 17.1284 16.6079 18.1121C16.071 18.6539 15.6841 19.3258 15.4849 20.062" stroke="#333333" stroke-width="2" stroke-linecap="round" stroke-linejoin="round"/>
<path d="M15.345 22.9783V23.5093" stroke="#333333" stroke-width="2" stroke-linecap="round" stroke-linejoin="round"/>
</svg>
