<svg width="32" height="34" viewBox="0 0 32 34" fill="none" xmlns="http://www.w3.org/2000/svg">
<path d="M8.48455 10.4849C8.2966 10.7905 8.17508 11.1322 8.1279 11.4878C8.08073 11.8434 8.10896 12.205 8.21075 12.549C8.41834 13.2334 8.73353 13.8803 9.14449 14.4656C10.5106 16.6759 12.1422 18.7106 14.0028 20.5244C15.6052 22.0077 17.3663 23.3097 19.2542 24.4068C19.5558 24.6062 19.8878 24.7556 20.2371 24.8491C20.6963 24.8829 21.1567 24.8032 21.5779 24.6171C21.999 24.431 22.3679 24.1442 22.6522 23.782C23.3672 22.9481 23.9866 22.0368 24.4986 21.065C23.6356 19.9509 22.4523 19.1277 21.1076 18.7061C20.5025 18.4709 19.8312 18.4709 19.2261 18.7061C18.9172 18.8535 18.6574 19.0922 18.3485 19.2256C17.4358 19.5977 16.4389 18.9307 15.7579 18.2146C14.9084 17.3171 14.1984 16.2971 13.6517 15.1887C13.4201 14.7324 13.2305 14.1286 13.5745 13.7425C13.6868 13.6161 13.8483 13.5389 13.9747 13.4195C14.1219 13.2583 14.2246 13.0615 14.2726 12.8485C14.3206 12.6356 14.3123 12.4138 14.2485 12.205C14.1092 11.7897 13.8977 11.4023 13.6237 11.0606C13.1814 10.4358 11.9738 8.44192 11.0611 8.47702C10.7031 8.47702 10.1976 9.17908 9.86762 9.40374C9.34927 9.68409 8.88174 10.0496 8.48455 10.4849Z" fill="#F7B916"/>
<path d="M19.1132 29.4897H12.233C11.5309 29.4897 8.60333 33 8.60333 33C8.60333 33 9.17903 29.0614 8.6595 28.8929C6.43472 28.1376 4.50107 26.7068 3.12807 24.8003C1.75507 22.8937 1.01114 20.6062 1 18.2567V12.233C1 9.25382 2.18347 6.39666 4.29007 4.29007C6.39666 2.18347 9.25382 1 12.233 1H19.1132C22.0924 1 24.9495 2.18347 27.0561 4.29007C29.1627 6.39666 30.3462 9.25382 30.3462 12.233V18.2567C30.3462 21.2359 29.1627 24.093 27.0561 26.1996C24.9495 28.3062 22.0924 29.4897 19.1132 29.4897Z" stroke="#333333" stroke-width="2" stroke-linecap="round" stroke-linejoin="round"/>
<path d="M16.8595 11.1308C16.8595 11.0606 16.9718 11.0606 17.042 11.1308C17.6315 11.3986 18.1584 11.7868 18.5888 12.2705C19.0192 12.7541 19.3437 13.3225 19.5414 13.939" stroke="#333333" stroke-width="2" stroke-linecap="round" stroke-linejoin="round"/>
<path d="M16.6565 8.45605C17.8508 8.88747 18.932 9.58326 19.8195 10.4914C20.707 11.3996 21.3777 12.4966 21.7816 13.7005C21.7816 13.8128 21.8869 13.9532 22.0062 13.9392" stroke="#333333" stroke-width="2" stroke-linecap="round" stroke-linejoin="round"/>
<path d="M16.6565 5.62667C16.7819 5.5826 16.9155 5.56667 17.0477 5.58002C17.18 5.59336 17.3077 5.63566 17.4217 5.7039C19.2164 6.4986 20.8362 7.64025 22.1881 9.06319C23.5399 10.4861 24.5971 12.1623 25.2989 13.9953" stroke="#333333" stroke-width="2" stroke-linecap="round" stroke-linejoin="round"/>
<path d="M7.41729 9.42469C7.22767 9.72955 7.10517 10.0713 7.05796 10.4272C7.01075 10.7831 7.0399 11.145 7.14348 11.4887C7.35011 12.1722 7.66283 12.819 8.0702 13.4054C9.43936 15.6048 11.0733 17.6278 12.9355 19.4291C14.5227 20.9123 16.2698 22.2144 18.1448 23.3115C18.444 23.5152 18.7767 23.6649 19.1277 23.7538C19.5873 23.7913 20.049 23.7133 20.4708 23.527C20.8926 23.3406 21.2611 23.0517 21.5428 22.6866C22.2649 21.8532 22.8848 20.9363 23.3892 19.9556C22.5303 18.8404 21.3488 18.0168 20.0053 17.5967C19.3977 17.3618 18.7243 17.3618 18.1167 17.5967C17.8078 17.7441 17.5551 17.9898 17.2391 18.1162C16.3265 18.4953 15.3365 17.8214 14.6485 17.1052C13.799 16.2077 13.089 15.1877 12.5423 14.0794C12.3107 13.623 12.1281 13.0192 12.4721 12.6331C12.5845 12.5067 12.7389 12.4295 12.8653 12.3102C13.015 12.1505 13.1193 11.9537 13.1674 11.7401C13.2156 11.5266 13.2058 11.3041 13.1391 11.0956C13.0023 10.6807 12.7932 10.2932 12.5213 9.95123C12.079 9.33342 10.8644 7.33254 9.95875 7.36764C9.6007 7.36764 9.09522 8.06971 8.76525 8.30139C8.25156 8.59103 7.79482 8.97166 7.41729 9.42469V9.42469Z" stroke="#333333" stroke-width="2" stroke-linecap="round" stroke-linejoin="round"/>
</svg>
