<svg width="33" height="34" viewBox="0 0 33 34" fill="none" xmlns="http://www.w3.org/2000/svg">
<path d="M14.3038 22.286C19.2021 22.286 23.173 18.3151 23.173 13.4168C23.173 8.51847 19.2021 4.54761 14.3038 4.54761C9.40546 4.54761 5.43459 8.51847 5.43459 13.4168C5.43459 18.3151 9.40546 22.286 14.3038 22.286Z" fill="#F7B916"/>
<path d="M11.9153 22.8305C17.9436 22.8305 22.8305 17.9436 22.8305 11.9153C22.8305 5.88693 17.9436 1 11.9153 1C5.88693 1 1 5.88693 1 11.9153C1 17.9436 5.88693 22.8305 11.9153 22.8305Z" stroke="#333333" stroke-width="2" stroke-linecap="round" stroke-linejoin="round"/>
<path d="M17.3733 21.5666C21.7704 24.0993 24.0271 29.2373 28.0852 32.2834C28.5872 32.7442 29.2439 33 29.9254 33.0001C31.0344 32.8838 31.6494 31.5473 31.4024 30.4432C31.1554 29.339 30.337 28.5061 29.538 27.7361C26.5598 24.8306 23.446 22.0364 20.8213 18.8015" stroke="#333333" stroke-width="2" stroke-linecap="round" stroke-linejoin="round"/>
<path d="M7.75235 11.9153H15.239" stroke="#333333" stroke-width="2" stroke-linecap="round" stroke-linejoin="round"/>
<path d="M11.494 15.654V8.17212" stroke="#333333" stroke-width="2" stroke-linecap="round" stroke-linejoin="round"/>
</svg>
